M48
; DRILL file {KiCad (6.0.10)} date Wed May 10 15:47:14 2023
; FORMAT={-:-/ absolute / metric / decimal}
; #@! TF.CreationDate,2023-05-10T15:47:14-05:00
; #@! TF.GenerationSoftware,Kicad,Pcbnew,(6.0.10)
; #@! TF.FileFunction,Plated,1,2,PTH
FMAT,2
METRIC
; #@! TA.AperFunction,Plated,PTH,ViaDrill
T1C0.400
; #@! TA.AperFunction,Plated,PTH,ComponentDrill
T2C0.850
; #@! TA.AperFunction,Plated,PTH,ComponentDrill
T3C0.900
; #@! TA.AperFunction,Plated,PTH,ComponentDrill
T4C1.000
; #@! TA.AperFunction,Plated,PTH,ComponentDrill
T5C2.000
%
G90
G05
T1
X74.041Y-46.863
X86.36Y-97.536
T2
X67.056Y-62.71
X69.596Y-62.71
X72.136Y-62.71
T3
X82.401Y-44.073
X82.401Y-46.613
X84.941Y-44.073
X84.941Y-46.613
X87.481Y-44.073
X87.481Y-46.613
X90.021Y-44.073
X90.021Y-46.613
X92.561Y-44.073
X92.561Y-46.613
X95.101Y-44.073
X95.101Y-46.613
X97.641Y-44.073
X97.641Y-46.613
X100.181Y-44.073
X100.181Y-46.613
X102.721Y-44.073
X102.721Y-46.613
X105.261Y-44.073
X105.261Y-46.613
X107.801Y-44.073
X107.801Y-46.613
X110.341Y-44.073
X110.341Y-46.613
X112.881Y-44.073
X112.881Y-46.613
X115.421Y-44.073
X115.421Y-46.613
X117.961Y-44.073
X117.961Y-46.613
X120.501Y-44.073
X120.501Y-46.613
X123.041Y-44.073
X123.041Y-46.613
X125.581Y-44.073
X125.581Y-46.613
X128.121Y-44.073
X128.121Y-46.613
X130.661Y-44.073
X130.661Y-46.613
T4
X83.82Y-53.34
X83.82Y-101.6
X86.36Y-53.34
X86.36Y-101.6
X88.9Y-53.34
X88.9Y-101.6
X91.44Y-53.34
X91.44Y-101.6
X93.98Y-53.34
X93.98Y-101.6
X96.52Y-53.34
X96.52Y-101.6
X99.06Y-101.6
X101.6Y-53.34
X101.6Y-101.6
X104.14Y-53.34
X105.66Y-101.6
X106.68Y-53.34
X108.2Y-101.6
X109.22Y-53.34
X110.74Y-101.6
X111.76Y-53.34
X113.28Y-101.6
X114.3Y-53.34
X115.82Y-101.6
X116.84Y-53.34
X118.36Y-101.6
X119.38Y-53.34
X120.9Y-101.6
X123.44Y-101.6
X125.98Y-101.6
X128.52Y-101.6
T5
G00X62.577Y-96.331
M15
G01X64.677Y-96.331
M16
G05
G00X70.451Y-96.331
M15
G01X72.551Y-96.331
M16
G05
T0
M30
