G04 #@! TF.GenerationSoftware,KiCad,Pcbnew,7.0.8*
G04 #@! TF.CreationDate,2023-10-30T19:17:05-05:00*
G04 #@! TF.ProjectId,DiffGPS_Hardware,44696666-4750-4535-9f48-617264776172,rev?*
G04 #@! TF.SameCoordinates,Original*
G04 #@! TF.FileFunction,Copper,L2,Bot*
G04 #@! TF.FilePolarity,Positive*
%FSLAX46Y46*%
G04 Gerber Fmt 4.6, Leading zero omitted, Abs format (unit mm)*
G04 Created by KiCad (PCBNEW 7.0.8) date 2023-10-30 19:17:05*
%MOMM*%
%LPD*%
G01*
G04 APERTURE LIST*
G04 #@! TA.AperFunction,ComponentPad*
%ADD10O,5.100000X3.000000*%
G04 #@! TD*
G04 #@! TA.AperFunction,ComponentPad*
%ADD11C,1.700000*%
G04 #@! TD*
G04 #@! TA.AperFunction,ComponentPad*
%ADD12R,1.600000X1.600000*%
G04 #@! TD*
G04 #@! TA.AperFunction,ComponentPad*
%ADD13O,1.600000X1.600000*%
G04 #@! TD*
G04 #@! TA.AperFunction,ViaPad*
%ADD14C,0.800000*%
G04 #@! TD*
G04 #@! TA.AperFunction,Conductor*
%ADD15C,0.254000*%
G04 #@! TD*
G04 #@! TA.AperFunction,Conductor*
%ADD16C,0.250000*%
G04 #@! TD*
G04 APERTURE END LIST*
D10*
X63627000Y-96330800D03*
X71501000Y-96330800D03*
D11*
X82401000Y-46613000D03*
X82401000Y-44073000D03*
X84941000Y-46613000D03*
X84941000Y-44073000D03*
X87481000Y-46613000D03*
X87481000Y-44073000D03*
X90021000Y-46613000D03*
X90021000Y-44073000D03*
X92561000Y-46613000D03*
X92561000Y-44073000D03*
X95101000Y-46613000D03*
X95101000Y-44073000D03*
X97641000Y-46613000D03*
X97641000Y-44073000D03*
X100181000Y-46613000D03*
X100181000Y-44073000D03*
X102721000Y-46613000D03*
X102721000Y-44073000D03*
X105261000Y-46613000D03*
X105261000Y-44073000D03*
X107801000Y-46613000D03*
X107801000Y-44073000D03*
X110341000Y-46613000D03*
X110341000Y-44073000D03*
X112881000Y-46613000D03*
X112881000Y-44073000D03*
X115421000Y-46613000D03*
X115421000Y-44073000D03*
X117961000Y-46613000D03*
X117961000Y-44073000D03*
X120501000Y-46613000D03*
X120501000Y-44073000D03*
X123041000Y-46613000D03*
X123041000Y-44073000D03*
X125581000Y-46613000D03*
X125581000Y-44073000D03*
X128121000Y-46613000D03*
X128121000Y-44073000D03*
X130661000Y-46613000D03*
X130661000Y-44073000D03*
D12*
X119210000Y-52800000D03*
D13*
X116670000Y-52800000D03*
X114130000Y-52800000D03*
X111590000Y-52800000D03*
X109050000Y-52800000D03*
X106510000Y-52800000D03*
X103970000Y-52800000D03*
X101430000Y-52800000D03*
X96350000Y-52800000D03*
X93810000Y-52800000D03*
X91270000Y-52800000D03*
X88730000Y-52800000D03*
X86190000Y-52800000D03*
X83650000Y-52800000D03*
X83650000Y-101060000D03*
X86190000Y-101060000D03*
X88730000Y-101060000D03*
X91270000Y-101060000D03*
X93810000Y-101060000D03*
X96350000Y-101060000D03*
X98890000Y-101060000D03*
X101430000Y-101060000D03*
X105490000Y-101060000D03*
X108030000Y-101060000D03*
X110570000Y-101060000D03*
X113110000Y-101060000D03*
X115650000Y-101060000D03*
X118190000Y-101060000D03*
X120730000Y-101060000D03*
X123270000Y-101060000D03*
X125810000Y-101060000D03*
X128350000Y-101060000D03*
D14*
X74000000Y-47875000D03*
X115350000Y-50038500D03*
X110400000Y-54450000D03*
X112725000Y-54600000D03*
X101475000Y-48850000D03*
X87725000Y-51075000D03*
X111400000Y-48800000D03*
X79950000Y-49200000D03*
X77150000Y-52075000D03*
X115425000Y-54675000D03*
X82825000Y-51425000D03*
X118913714Y-50088714D03*
X95600000Y-48950000D03*
X103729500Y-96713805D03*
X108851446Y-49323500D03*
X109775000Y-48550000D03*
D15*
X116670000Y-51358500D02*
X116670000Y-52800000D01*
X74025000Y-47900000D02*
X81114000Y-47900000D01*
X115350000Y-50038500D02*
X116670000Y-51358500D01*
X81114000Y-47900000D02*
X82401000Y-46613000D01*
X74000000Y-47875000D02*
X74025000Y-47900000D01*
X96350000Y-52800000D02*
X90163000Y-46613000D01*
X90163000Y-46613000D02*
X90021000Y-46613000D01*
D16*
X118913714Y-50088714D02*
X118913714Y-47565714D01*
X118913714Y-47565714D02*
X117961000Y-46613000D01*
D15*
X86280000Y-47952000D02*
X84941000Y-46613000D01*
X86190000Y-52800000D02*
X86280000Y-52710000D01*
X86280000Y-52710000D02*
X86280000Y-47952000D01*
X83675000Y-52775000D02*
X83675000Y-46000000D01*
X86218000Y-45350000D02*
X87481000Y-46613000D01*
X84325000Y-45350000D02*
X86218000Y-45350000D01*
X83675000Y-46000000D02*
X84325000Y-45350000D01*
X83650000Y-52800000D02*
X83675000Y-52775000D01*
X97579000Y-50404000D02*
X97579000Y-97279490D01*
X95600000Y-48950000D02*
X96125000Y-48950000D01*
X86297000Y-98413000D02*
X83650000Y-101060000D01*
X96125000Y-48950000D02*
X97579000Y-50404000D01*
X97579000Y-97279490D02*
X96445490Y-98413000D01*
X96445490Y-98413000D02*
X86297000Y-98413000D01*
X93131194Y-45325000D02*
X91273000Y-45325000D01*
X98033000Y-49992104D02*
X96040896Y-48000000D01*
X91273000Y-45325000D02*
X90021000Y-44073000D01*
X86190000Y-101060000D02*
X88383000Y-98867000D01*
X93800000Y-45993806D02*
X93131194Y-45325000D01*
X94500000Y-48000000D02*
X93800000Y-47300000D01*
X98033000Y-97467542D02*
X98033000Y-49992104D01*
X96040896Y-48000000D02*
X94500000Y-48000000D01*
X88383000Y-98867000D02*
X96633542Y-98867000D01*
X96633542Y-98867000D02*
X98033000Y-97467542D01*
X93800000Y-47300000D02*
X93800000Y-45993806D01*
X98487000Y-49804052D02*
X95295948Y-46613000D01*
X95295948Y-46613000D02*
X95101000Y-46613000D01*
X90469000Y-99321000D02*
X96821594Y-99321000D01*
X88730000Y-101060000D02*
X90469000Y-99321000D01*
X96821594Y-99321000D02*
X98487000Y-97655594D01*
X98487000Y-97655594D02*
X98487000Y-49804052D01*
X91270000Y-101060000D02*
X92555000Y-99775000D01*
X96375000Y-45347000D02*
X95101000Y-44073000D01*
X96375000Y-47050000D02*
X96375000Y-45347000D01*
X98941000Y-97843646D02*
X98941000Y-49616000D01*
X98941000Y-49616000D02*
X96375000Y-47050000D01*
X92555000Y-99775000D02*
X97009646Y-99775000D01*
X97009646Y-99775000D02*
X98941000Y-97843646D01*
D16*
X103455000Y-96439305D02*
X103455000Y-56631396D01*
X117875000Y-53450000D02*
X117875000Y-51538195D01*
X114150000Y-47813195D02*
X114150000Y-45342000D01*
X114950000Y-56375000D02*
X117875000Y-53450000D01*
X103729500Y-96713805D02*
X103455000Y-96439305D01*
X114150000Y-45342000D02*
X112881000Y-44073000D01*
X103711396Y-56375000D02*
X114950000Y-56375000D01*
X103455000Y-56631396D02*
X103711396Y-56375000D01*
X117875000Y-51538195D02*
X114150000Y-47813195D01*
D15*
X96366698Y-101060000D02*
X99395000Y-98031698D01*
X99395000Y-98031698D02*
X99395000Y-48367000D01*
X96350000Y-101060000D02*
X96366698Y-101060000D01*
X99395000Y-48367000D02*
X97641000Y-46613000D01*
X99849000Y-46945000D02*
X100181000Y-46613000D01*
X98890000Y-101060000D02*
X98890000Y-99178750D01*
X99849000Y-98219750D02*
X99849000Y-46945000D01*
X98890000Y-99178750D02*
X99849000Y-98219750D01*
X101450000Y-47275000D02*
X100303000Y-48422000D01*
X101450000Y-45342000D02*
X101450000Y-47275000D01*
X101525000Y-99443208D02*
X101525000Y-100965000D01*
X100303000Y-98221208D02*
X101525000Y-99443208D01*
X101525000Y-100965000D02*
X101430000Y-101060000D01*
X100181000Y-44073000D02*
X101450000Y-45342000D01*
X100303000Y-48422000D02*
X100303000Y-98221208D01*
D16*
X103925000Y-45277000D02*
X103925000Y-47350000D01*
X103925000Y-47350000D02*
X102700000Y-48575000D01*
X102700000Y-48575000D02*
X102700000Y-53550000D01*
X102721000Y-44073000D02*
X103925000Y-45277000D01*
X103785000Y-101060000D02*
X105490000Y-101060000D01*
X100755000Y-55495000D02*
X100755000Y-98030000D01*
X102700000Y-53550000D02*
X100755000Y-55495000D01*
X100755000Y-98030000D02*
X103785000Y-101060000D01*
X102779416Y-54125000D02*
X104575000Y-54125000D01*
X108030000Y-101060000D02*
X106905000Y-99935000D01*
X105225000Y-48575000D02*
X106525000Y-47275000D01*
X103296396Y-99935000D02*
X101205000Y-97843604D01*
X106525000Y-47275000D02*
X106525000Y-45349000D01*
X104575000Y-54125000D02*
X105225000Y-53475000D01*
X106905000Y-99935000D02*
X103296396Y-99935000D01*
X101205000Y-55699416D02*
X102779416Y-54125000D01*
X105225000Y-53475000D02*
X105225000Y-48575000D01*
X106525000Y-45349000D02*
X107801000Y-44073000D01*
X101205000Y-97843604D02*
X101205000Y-55699416D01*
X108995000Y-99485000D02*
X103482792Y-99485000D01*
X107775000Y-48550000D02*
X109075000Y-47250000D01*
X102965812Y-54575000D02*
X106575000Y-54575000D01*
X101655000Y-97657208D02*
X101655000Y-55885812D01*
X103482792Y-99485000D02*
X101655000Y-97657208D01*
X106575000Y-54575000D02*
X107775000Y-53375000D01*
X110570000Y-101060000D02*
X108995000Y-99485000D01*
X109075000Y-45339000D02*
X110341000Y-44073000D01*
X107775000Y-53375000D02*
X107775000Y-48550000D01*
X101655000Y-55885812D02*
X102965812Y-54575000D01*
X109075000Y-47250000D02*
X109075000Y-45339000D01*
X111085000Y-99035000D02*
X113110000Y-101060000D01*
X110300000Y-50772054D02*
X110300000Y-53425000D01*
X108851446Y-49323500D02*
X110300000Y-50772054D01*
X102105000Y-56072208D02*
X102105000Y-97455000D01*
X110300000Y-53425000D02*
X108700000Y-55025000D01*
X108700000Y-55025000D02*
X103152208Y-55025000D01*
X102105000Y-97455000D02*
X103685000Y-99035000D01*
X103685000Y-99035000D02*
X111085000Y-99035000D01*
X103152208Y-55025000D02*
X102105000Y-56072208D01*
X103871396Y-98585000D02*
X102555000Y-97268604D01*
X102555000Y-56258604D02*
X103338604Y-55475000D01*
X112875000Y-53325000D02*
X112875000Y-51650000D01*
X113175000Y-98585000D02*
X103871396Y-98585000D01*
X115650000Y-101060000D02*
X113175000Y-98585000D01*
X102555000Y-97268604D02*
X102555000Y-56258604D01*
X110725000Y-55475000D02*
X112875000Y-53325000D01*
X103338604Y-55475000D02*
X110725000Y-55475000D01*
X112875000Y-51650000D02*
X109775000Y-48550000D01*
X103005000Y-97082208D02*
X103005000Y-56445000D01*
X115425000Y-53450000D02*
X115425000Y-51697000D01*
X112950000Y-55925000D02*
X115425000Y-53450000D01*
X104057792Y-98135000D02*
X103005000Y-97082208D01*
X103525000Y-55925000D02*
X112950000Y-55925000D01*
X103005000Y-56445000D02*
X103525000Y-55925000D01*
X115425000Y-51697000D02*
X110341000Y-46613000D01*
X115265000Y-98135000D02*
X104057792Y-98135000D01*
X118190000Y-101060000D02*
X115265000Y-98135000D01*
G04 #@! TA.AperFunction,Conductor*
G36*
X115898483Y-53468011D02*
G01*
X115954726Y-53506520D01*
X115954740Y-53506507D01*
X115954810Y-53506577D01*
X115956574Y-53507785D01*
X115959116Y-53510882D01*
X115959117Y-53510883D01*
X116111462Y-53635910D01*
X116285273Y-53728814D01*
X116473868Y-53786024D01*
X116473872Y-53786024D01*
X116473874Y-53786025D01*
X116669997Y-53805341D01*
X116670000Y-53805341D01*
X116670002Y-53805341D01*
X116694654Y-53802912D01*
X116751416Y-53797322D01*
X116821168Y-53810550D01*
X116872697Y-53859390D01*
X116889641Y-53928335D01*
X116866620Y-53995496D01*
X116852862Y-54011810D01*
X115788832Y-55075842D01*
X114852077Y-56012596D01*
X114789767Y-56046620D01*
X114762984Y-56049500D01*
X113590016Y-56049500D01*
X113521895Y-56029498D01*
X113475402Y-55975842D01*
X113465298Y-55905568D01*
X113494792Y-55840988D01*
X113500921Y-55834405D01*
X113950921Y-55384405D01*
X115643174Y-53692150D01*
X115647204Y-53688456D01*
X115678194Y-53662455D01*
X115698415Y-53627428D01*
X115701352Y-53622817D01*
X115724554Y-53589684D01*
X115724555Y-53589681D01*
X115727157Y-53584101D01*
X115733479Y-53568838D01*
X115739358Y-53552687D01*
X115741271Y-53553383D01*
X115766612Y-53502241D01*
X115827522Y-53465766D01*
X115898483Y-53468011D01*
G37*
G04 #@! TD.AperFunction*
G04 #@! TA.AperFunction,Conductor*
G36*
X113363876Y-53445245D02*
G01*
X113375049Y-53457187D01*
X113417672Y-53509122D01*
X113419117Y-53510883D01*
X113571462Y-53635910D01*
X113745273Y-53728814D01*
X113933868Y-53786024D01*
X113933872Y-53786024D01*
X113933874Y-53786025D01*
X114129997Y-53805341D01*
X114130000Y-53805341D01*
X114130003Y-53805341D01*
X114311250Y-53787490D01*
X114381003Y-53800719D01*
X114432531Y-53849559D01*
X114449475Y-53918504D01*
X114426453Y-53985665D01*
X114412695Y-54001978D01*
X112852079Y-55562595D01*
X112789767Y-55596620D01*
X112762984Y-55599500D01*
X111365016Y-55599500D01*
X111296895Y-55579498D01*
X111250402Y-55525842D01*
X111240298Y-55455568D01*
X111269792Y-55390988D01*
X111275921Y-55384405D01*
X112175921Y-54484405D01*
X113093180Y-53567145D01*
X113097210Y-53563451D01*
X113128194Y-53537455D01*
X113148421Y-53502418D01*
X113151348Y-53497823D01*
X113174440Y-53464845D01*
X113229896Y-53420521D01*
X113300516Y-53413213D01*
X113363876Y-53445245D01*
G37*
G04 #@! TD.AperFunction*
G04 #@! TA.AperFunction,Conductor*
G36*
X110777822Y-53418457D02*
G01*
X110835908Y-53458233D01*
X110879117Y-53510883D01*
X111031462Y-53635910D01*
X111205273Y-53728814D01*
X111393868Y-53786024D01*
X111393872Y-53786024D01*
X111393874Y-53786025D01*
X111589997Y-53805341D01*
X111589998Y-53805341D01*
X111589998Y-53805340D01*
X111590000Y-53805341D01*
X111621499Y-53802238D01*
X111691249Y-53815465D01*
X111742779Y-53864304D01*
X111759724Y-53933249D01*
X111736704Y-54000410D01*
X111722945Y-54016726D01*
X110627079Y-55112595D01*
X110564766Y-55146620D01*
X110537983Y-55149500D01*
X109340016Y-55149500D01*
X109271895Y-55129498D01*
X109225402Y-55075842D01*
X109215298Y-55005568D01*
X109244792Y-54940988D01*
X109250908Y-54934417D01*
X110518174Y-53667150D01*
X110522204Y-53663456D01*
X110553194Y-53637455D01*
X110573415Y-53602428D01*
X110576352Y-53597817D01*
X110599554Y-53564684D01*
X110599555Y-53564681D01*
X110602157Y-53559101D01*
X110608479Y-53543838D01*
X110610585Y-53538049D01*
X110610588Y-53538045D01*
X110614423Y-53516289D01*
X110645948Y-53452677D01*
X110706861Y-53416206D01*
X110777822Y-53418457D01*
G37*
G04 #@! TD.AperFunction*
G04 #@! TA.AperFunction,Conductor*
G36*
X107012408Y-47323056D02*
G01*
X107050305Y-47354189D01*
X107051470Y-47355609D01*
X107054590Y-47359410D01*
X107214550Y-47490685D01*
X107397046Y-47588232D01*
X107595066Y-47648300D01*
X107595070Y-47648300D01*
X107595072Y-47648301D01*
X107800997Y-47668583D01*
X107801000Y-47668583D01*
X107801002Y-47668583D01*
X107888803Y-47659935D01*
X107958557Y-47673163D01*
X108010085Y-47722003D01*
X108027029Y-47790948D01*
X108004008Y-47858109D01*
X107990249Y-47874423D01*
X107556843Y-48307829D01*
X107552792Y-48311542D01*
X107521806Y-48337544D01*
X107521804Y-48337547D01*
X107501589Y-48372558D01*
X107498638Y-48377191D01*
X107475445Y-48410316D01*
X107472873Y-48415832D01*
X107466493Y-48431235D01*
X107464412Y-48436952D01*
X107457392Y-48476761D01*
X107456203Y-48482126D01*
X107449505Y-48507126D01*
X107445736Y-48521193D01*
X107448926Y-48557654D01*
X107449260Y-48561465D01*
X107449500Y-48566959D01*
X107449500Y-53187983D01*
X107429498Y-53256104D01*
X107412599Y-53277073D01*
X106477077Y-54212596D01*
X106414767Y-54246620D01*
X106387984Y-54249500D01*
X105215017Y-54249500D01*
X105146896Y-54229498D01*
X105100403Y-54175842D01*
X105090299Y-54105568D01*
X105119793Y-54040988D01*
X105125921Y-54034405D01*
X105363704Y-53796621D01*
X105443179Y-53717145D01*
X105447211Y-53713451D01*
X105478194Y-53687455D01*
X105498415Y-53652428D01*
X105501352Y-53647817D01*
X105524554Y-53614684D01*
X105524555Y-53614681D01*
X105527157Y-53609101D01*
X105533479Y-53593838D01*
X105535587Y-53588046D01*
X105535588Y-53588045D01*
X105542607Y-53548231D01*
X105543798Y-53542863D01*
X105544960Y-53538529D01*
X105553537Y-53506520D01*
X105554264Y-53503808D01*
X105550740Y-53463518D01*
X105550500Y-53458026D01*
X105550500Y-48762015D01*
X105570502Y-48693894D01*
X105587400Y-48672924D01*
X106743174Y-47517150D01*
X106747204Y-47513456D01*
X106778194Y-47487455D01*
X106798415Y-47452428D01*
X106801352Y-47447817D01*
X106824554Y-47414684D01*
X106824555Y-47414681D01*
X106827157Y-47409101D01*
X106833478Y-47393840D01*
X106834502Y-47391028D01*
X106834825Y-47390589D01*
X106836620Y-47386256D01*
X106841107Y-47378487D01*
X106842951Y-47379552D01*
X106876595Y-47333856D01*
X106942916Y-47308517D01*
X107012408Y-47323056D01*
G37*
G04 #@! TD.AperFunction*
G04 #@! TA.AperFunction,Conductor*
G36*
X104469959Y-47305701D02*
G01*
X104476862Y-47313438D01*
X104514590Y-47359410D01*
X104674550Y-47490685D01*
X104857046Y-47588232D01*
X105055066Y-47648300D01*
X105055070Y-47648300D01*
X105055072Y-47648301D01*
X105260997Y-47668583D01*
X105261000Y-47668583D01*
X105261002Y-47668583D01*
X105311237Y-47663635D01*
X105365442Y-47658296D01*
X105435194Y-47671524D01*
X105486723Y-47720364D01*
X105503667Y-47789309D01*
X105480646Y-47856470D01*
X105466888Y-47872784D01*
X105006843Y-48332829D01*
X105002792Y-48336542D01*
X104971806Y-48362544D01*
X104971804Y-48362547D01*
X104951589Y-48397558D01*
X104948638Y-48402191D01*
X104925445Y-48435316D01*
X104922873Y-48440832D01*
X104916493Y-48456235D01*
X104914412Y-48461952D01*
X104907392Y-48501761D01*
X104906203Y-48507126D01*
X104895736Y-48546192D01*
X104895736Y-48546194D01*
X104899260Y-48586465D01*
X104899500Y-48591959D01*
X104899500Y-53287984D01*
X104879498Y-53356105D01*
X104862595Y-53377079D01*
X104477079Y-53762595D01*
X104414767Y-53796621D01*
X104387984Y-53799500D01*
X103136688Y-53799500D01*
X103068567Y-53779498D01*
X103022074Y-53725842D01*
X103011970Y-53655568D01*
X103012602Y-53651620D01*
X103012879Y-53650054D01*
X103017610Y-53623221D01*
X103018797Y-53617863D01*
X103029263Y-53578807D01*
X103026748Y-53550057D01*
X103025740Y-53538529D01*
X103025500Y-53533037D01*
X103025500Y-48762015D01*
X103045502Y-48693894D01*
X103062400Y-48672924D01*
X104143174Y-47592150D01*
X104147204Y-47588456D01*
X104178194Y-47562455D01*
X104198415Y-47527428D01*
X104201352Y-47522817D01*
X104224554Y-47489684D01*
X104224555Y-47489681D01*
X104227157Y-47484101D01*
X104233479Y-47468838D01*
X104235587Y-47463046D01*
X104235588Y-47463045D01*
X104242607Y-47423231D01*
X104243798Y-47417863D01*
X104257119Y-47368156D01*
X104259294Y-47368738D01*
X104279805Y-47316290D01*
X104337305Y-47274645D01*
X104408191Y-47270697D01*
X104469959Y-47305701D01*
G37*
G04 #@! TD.AperFunction*
G04 #@! TA.AperFunction,Conductor*
G36*
X109561823Y-47328623D02*
G01*
X109590273Y-47354150D01*
X109594585Y-47359404D01*
X109594590Y-47359410D01*
X109754550Y-47490685D01*
X109937046Y-47588232D01*
X110135066Y-47648300D01*
X110135070Y-47648300D01*
X110135072Y-47648301D01*
X110340997Y-47668583D01*
X110341000Y-47668583D01*
X110341003Y-47668583D01*
X110546927Y-47648301D01*
X110546928Y-47648300D01*
X110546934Y-47648300D01*
X110744954Y-47588232D01*
X110744964Y-47588226D01*
X110745606Y-47587961D01*
X110745980Y-47587920D01*
X110750878Y-47586435D01*
X110751159Y-47587362D01*
X110816194Y-47580359D01*
X110879687Y-47612127D01*
X110882940Y-47615266D01*
X115062595Y-51794921D01*
X115096621Y-51857233D01*
X115099500Y-51884016D01*
X115099500Y-52052096D01*
X115079498Y-52120217D01*
X115025842Y-52166710D01*
X114955568Y-52176814D01*
X114890988Y-52147320D01*
X114876101Y-52132030D01*
X114871697Y-52126664D01*
X114840883Y-52089117D01*
X114688538Y-51964090D01*
X114609365Y-51921771D01*
X114514728Y-51871186D01*
X114326125Y-51813974D01*
X114130003Y-51794659D01*
X114129997Y-51794659D01*
X113933875Y-51813974D01*
X113933873Y-51813974D01*
X113745271Y-51871186D01*
X113571461Y-51964090D01*
X113419111Y-52089121D01*
X113415595Y-52092638D01*
X113353283Y-52126664D01*
X113282468Y-52121599D01*
X113225632Y-52079052D01*
X113200821Y-52012532D01*
X113200500Y-52003543D01*
X113200500Y-51666959D01*
X113200740Y-51661465D01*
X113202958Y-51636116D01*
X113204264Y-51621193D01*
X113193792Y-51582114D01*
X113192610Y-51576782D01*
X113185588Y-51536955D01*
X113185585Y-51536949D01*
X113183485Y-51531181D01*
X113177144Y-51515870D01*
X113174554Y-51510316D01*
X113151363Y-51477196D01*
X113148409Y-51472558D01*
X113143339Y-51463777D01*
X113128194Y-51437545D01*
X113128193Y-51437544D01*
X113097212Y-51411547D01*
X113093169Y-51407843D01*
X110407708Y-48722382D01*
X110373682Y-48660070D01*
X110371881Y-48616844D01*
X110380682Y-48550000D01*
X110360044Y-48393238D01*
X110299536Y-48247159D01*
X110203282Y-48121718D01*
X110077841Y-48025464D01*
X109987997Y-47988249D01*
X109931760Y-47964955D01*
X109775000Y-47944318D01*
X109618239Y-47964955D01*
X109472160Y-48025463D01*
X109472157Y-48025465D01*
X109346718Y-48121718D01*
X109250465Y-48247157D01*
X109250463Y-48247160D01*
X109189955Y-48393239D01*
X109169318Y-48549999D01*
X109169318Y-48550000D01*
X109176366Y-48603537D01*
X109165426Y-48673686D01*
X109118298Y-48726784D01*
X109049944Y-48745974D01*
X109016574Y-48739134D01*
X109016184Y-48740593D01*
X109008209Y-48738456D01*
X108851446Y-48717818D01*
X108694685Y-48738455D01*
X108548606Y-48798963D01*
X108548603Y-48798965D01*
X108478391Y-48852841D01*
X108423164Y-48895218D01*
X108381129Y-48950000D01*
X108326463Y-49021242D01*
X108269125Y-49063109D01*
X108198254Y-49067331D01*
X108136351Y-49032567D01*
X108103070Y-48969854D01*
X108100500Y-48944538D01*
X108100500Y-48737015D01*
X108120502Y-48668894D01*
X108137400Y-48647924D01*
X109293174Y-47492150D01*
X109297204Y-47488456D01*
X109328194Y-47462455D01*
X109348415Y-47427428D01*
X109351352Y-47422817D01*
X109374554Y-47389684D01*
X109374556Y-47389676D01*
X109378674Y-47380845D01*
X109425586Y-47327556D01*
X109493861Y-47308088D01*
X109561823Y-47328623D01*
G37*
G04 #@! TD.AperFunction*
G04 #@! TA.AperFunction,Conductor*
G36*
X101937360Y-47329096D02*
G01*
X101969635Y-47355609D01*
X101970212Y-47355033D01*
X101974583Y-47359404D01*
X101974588Y-47359408D01*
X101974590Y-47359410D01*
X102134550Y-47490685D01*
X102317046Y-47588232D01*
X102515066Y-47648300D01*
X102515070Y-47648300D01*
X102515072Y-47648301D01*
X102720997Y-47668583D01*
X102721000Y-47668583D01*
X102721002Y-47668583D01*
X102755155Y-47665218D01*
X102842081Y-47656657D01*
X102911833Y-47669885D01*
X102963362Y-47718725D01*
X102980306Y-47787670D01*
X102957285Y-47854831D01*
X102943527Y-47871145D01*
X102481843Y-48332829D01*
X102477792Y-48336542D01*
X102446806Y-48362544D01*
X102446804Y-48362547D01*
X102426589Y-48397558D01*
X102423638Y-48402191D01*
X102400445Y-48435316D01*
X102397873Y-48440832D01*
X102391493Y-48456235D01*
X102389412Y-48461952D01*
X102382392Y-48501761D01*
X102381203Y-48507126D01*
X102370736Y-48546192D01*
X102370736Y-48546194D01*
X102374260Y-48586465D01*
X102374500Y-48591959D01*
X102374500Y-52021633D01*
X102354498Y-52089754D01*
X102300842Y-52136247D01*
X102230568Y-52146351D01*
X102165988Y-52116857D01*
X102151102Y-52101569D01*
X102144694Y-52093761D01*
X102140883Y-52089117D01*
X102136853Y-52085810D01*
X101988538Y-51964090D01*
X101814728Y-51871186D01*
X101626125Y-51813974D01*
X101430003Y-51794659D01*
X101429997Y-51794659D01*
X101233875Y-51813974D01*
X101233873Y-51813974D01*
X101045271Y-51871186D01*
X100871461Y-51964090D01*
X100836433Y-51992837D01*
X100771085Y-52020590D01*
X100701107Y-52008608D01*
X100648716Y-51960694D01*
X100630500Y-51895437D01*
X100630500Y-48609844D01*
X100650502Y-48541723D01*
X100667405Y-48520749D01*
X101162691Y-48025463D01*
X101669531Y-47518622D01*
X101673561Y-47514928D01*
X101704750Y-47488760D01*
X101725100Y-47453511D01*
X101728054Y-47448875D01*
X101728811Y-47447794D01*
X101751394Y-47415543D01*
X101751395Y-47415540D01*
X101753876Y-47410219D01*
X101763481Y-47387034D01*
X101768013Y-47379186D01*
X101771255Y-47381058D01*
X101801548Y-47339906D01*
X101867867Y-47314562D01*
X101937360Y-47329096D01*
G37*
G04 #@! TD.AperFunction*
G04 #@! TA.AperFunction,Conductor*
G36*
X136218331Y-42037483D02*
G01*
X136218387Y-42037500D01*
X136268941Y-42037500D01*
X136273056Y-42037634D01*
X136354648Y-42042982D01*
X136540757Y-42056293D01*
X136548538Y-42057341D01*
X136666233Y-42080752D01*
X136813254Y-42112734D01*
X136820098Y-42114633D01*
X136940739Y-42155585D01*
X137075491Y-42205846D01*
X137081328Y-42208366D01*
X137180515Y-42257280D01*
X137198386Y-42266093D01*
X137322551Y-42333892D01*
X137327359Y-42336803D01*
X137435882Y-42409316D01*
X137438622Y-42411256D01*
X137549869Y-42494534D01*
X137553634Y-42497587D01*
X137652184Y-42584014D01*
X137655178Y-42586818D01*
X137753179Y-42684819D01*
X137755984Y-42687814D01*
X137842411Y-42786364D01*
X137845470Y-42790136D01*
X137886542Y-42845003D01*
X137928742Y-42901376D01*
X137930691Y-42904129D01*
X138003193Y-43012636D01*
X138006106Y-43017446D01*
X138073906Y-43141613D01*
X138131630Y-43258665D01*
X138134156Y-43264516D01*
X138184412Y-43399254D01*
X138225359Y-43519881D01*
X138227264Y-43526746D01*
X138259247Y-43673766D01*
X138282655Y-43791448D01*
X138283706Y-43799252D01*
X138297017Y-43985354D01*
X138302364Y-44066938D01*
X138302499Y-44071063D01*
X138299501Y-96375076D01*
X138299415Y-96375510D01*
X138299458Y-96399998D01*
X138299459Y-96400000D01*
X138299500Y-96400099D01*
X138299617Y-96400383D01*
X138300000Y-96400541D01*
X138300002Y-96400539D01*
X138325014Y-96400524D01*
X138325014Y-96400528D01*
X138325158Y-96400500D01*
X154047899Y-96400500D01*
X154052085Y-96400639D01*
X154060647Y-96401209D01*
X154132430Y-96405989D01*
X154319702Y-96419597D01*
X154327613Y-96420680D01*
X154444630Y-96444336D01*
X154591989Y-96476919D01*
X154598949Y-96478883D01*
X154718944Y-96520313D01*
X154815740Y-96557044D01*
X154853683Y-96571442D01*
X154859605Y-96574044D01*
X154927816Y-96608303D01*
X154975946Y-96632476D01*
X155099736Y-96701354D01*
X155104598Y-96704355D01*
X155212159Y-96777693D01*
X155214920Y-96779686D01*
X155255152Y-96810451D01*
X155325450Y-96864206D01*
X155329261Y-96867366D01*
X155426541Y-96954669D01*
X155429565Y-96957570D01*
X155526451Y-97056909D01*
X155529274Y-97060003D01*
X155580277Y-97119773D01*
X155614149Y-97159468D01*
X155617184Y-97163323D01*
X155660788Y-97223400D01*
X155698908Y-97275923D01*
X155700845Y-97278750D01*
X155771469Y-97388105D01*
X155774347Y-97393040D01*
X155840119Y-97518530D01*
X155895614Y-97636274D01*
X155898070Y-97642264D01*
X155945813Y-97778228D01*
X155984234Y-97899229D01*
X155986024Y-97906241D01*
X156014917Y-98054383D01*
X156035636Y-98171925D01*
X156036523Y-98179875D01*
X156045453Y-98367566D01*
X156048789Y-98447893D01*
X156048825Y-98452023D01*
X156047890Y-98490905D01*
X156048989Y-98501627D01*
X156075196Y-110285271D01*
X156075129Y-110288321D01*
X156067218Y-110459438D01*
X156057338Y-110660552D01*
X156056809Y-110666167D01*
X156030926Y-110851720D01*
X156003135Y-111039067D01*
X156002143Y-111044249D01*
X155958659Y-111229134D01*
X155913185Y-111410673D01*
X155911807Y-111415387D01*
X155851083Y-111596566D01*
X155835215Y-111640914D01*
X155788313Y-111771994D01*
X155786628Y-111776218D01*
X155709157Y-111951675D01*
X155629643Y-112119791D01*
X155627730Y-112123512D01*
X155534170Y-112291486D01*
X155438631Y-112450883D01*
X155436568Y-112454099D01*
X155327703Y-112613025D01*
X155216995Y-112762294D01*
X155214861Y-112765012D01*
X155091621Y-112913427D01*
X154966734Y-113051217D01*
X154964602Y-113053457D01*
X154829157Y-113188902D01*
X154826917Y-113191034D01*
X154689127Y-113315921D01*
X154540712Y-113439161D01*
X154537994Y-113441295D01*
X154422019Y-113527310D01*
X154388717Y-113552008D01*
X154229799Y-113660868D01*
X154226583Y-113662931D01*
X154067186Y-113758470D01*
X153899212Y-113852030D01*
X153895491Y-113853943D01*
X153727374Y-113933457D01*
X153619650Y-113981021D01*
X153549254Y-113990237D01*
X153485050Y-113959932D01*
X153447423Y-113899727D01*
X153448318Y-113828736D01*
X153487452Y-113769499D01*
X153514084Y-113752236D01*
X153559983Y-113730133D01*
X153898431Y-113523312D01*
X154214604Y-113283820D01*
X154505361Y-113014037D01*
X154767811Y-112716645D01*
X154999346Y-112394600D01*
X155197665Y-112051101D01*
X155360797Y-111689563D01*
X155487121Y-111313578D01*
X155575381Y-110926885D01*
X155624701Y-110533325D01*
X155634589Y-110136810D01*
X155604949Y-109741280D01*
X155536073Y-109350668D01*
X155428647Y-108968854D01*
X155283739Y-108599634D01*
X155102789Y-108246677D01*
X154887594Y-107913491D01*
X154640294Y-107603386D01*
X154363347Y-107319446D01*
X154059504Y-107064492D01*
X153731786Y-106841058D01*
X153731777Y-106841053D01*
X153383455Y-106651366D01*
X153017958Y-106497296D01*
X153017954Y-106497294D01*
X152738545Y-106411109D01*
X152638940Y-106380385D01*
X152250166Y-106301792D01*
X152250165Y-106301791D01*
X152250161Y-106301791D01*
X151855505Y-106262300D01*
X151855499Y-106262300D01*
X151558079Y-106262300D01*
X151558072Y-106262300D01*
X151261044Y-106277123D01*
X151018501Y-106313681D01*
X150868827Y-106336241D01*
X150868823Y-106336241D01*
X150868823Y-106336242D01*
X150484453Y-106434114D01*
X150484432Y-106434121D01*
X150111758Y-106569762D01*
X150111731Y-106569773D01*
X149754382Y-106741864D01*
X149754381Y-106741864D01*
X149415927Y-106948689D01*
X149099747Y-107188187D01*
X148809003Y-107457959D01*
X148809001Y-107457961D01*
X148546552Y-107755351D01*
X148546544Y-107755360D01*
X148429982Y-107917489D01*
X148315014Y-108077400D01*
X148315011Y-108077404D01*
X148315011Y-108077405D01*
X148116701Y-108420888D01*
X148116695Y-108420898D01*
X147953564Y-108782435D01*
X147953561Y-108782442D01*
X147827240Y-109158416D01*
X147827237Y-109158425D01*
X147738980Y-109545106D01*
X147738979Y-109545117D01*
X147689658Y-109938675D01*
X147679771Y-110335190D01*
X147709410Y-110730714D01*
X147709410Y-110730719D01*
X147709411Y-110730720D01*
X147778287Y-111121332D01*
X147791958Y-111169920D01*
X147885712Y-111503145D01*
X148030616Y-111872355D01*
X148030619Y-111872361D01*
X148030621Y-111872366D01*
X148211571Y-112225323D01*
X148426766Y-112558509D01*
X148674066Y-112868614D01*
X148951013Y-113152554D01*
X149254856Y-113407508D01*
X149582574Y-113630942D01*
X149638993Y-113661666D01*
X149887512Y-113797003D01*
X149930910Y-113820636D01*
X150261360Y-113959932D01*
X150296401Y-113974703D01*
X150296405Y-113974705D01*
X150550551Y-114053098D01*
X150609750Y-114092290D01*
X150638362Y-114157266D01*
X150627303Y-114227396D01*
X150580085Y-114280414D01*
X150513412Y-114299500D01*
X134416899Y-114299500D01*
X51168995Y-114263273D01*
X51100883Y-114243241D01*
X51054414Y-114189565D01*
X51044340Y-114119287D01*
X51073861Y-114054719D01*
X51125955Y-114018872D01*
X51287894Y-113959932D01*
X51435422Y-113906237D01*
X51435432Y-113906232D01*
X51435445Y-113906228D01*
X51792803Y-113734133D01*
X52131251Y-113527312D01*
X52447424Y-113287820D01*
X52738181Y-113018037D01*
X53000631Y-112720645D01*
X53232166Y-112398600D01*
X53430485Y-112055101D01*
X53593617Y-111693563D01*
X53719941Y-111317578D01*
X53808201Y-110930885D01*
X53857521Y-110537325D01*
X53867409Y-110140810D01*
X53837769Y-109745280D01*
X53768893Y-109354668D01*
X53661467Y-108972854D01*
X53516559Y-108603634D01*
X53335609Y-108250677D01*
X53120414Y-107917491D01*
X52873114Y-107607386D01*
X52596167Y-107323446D01*
X52292324Y-107068492D01*
X51964606Y-106845058D01*
X51957252Y-106841053D01*
X51616275Y-106655366D01*
X51250778Y-106501296D01*
X51250774Y-106501294D01*
X50971365Y-106415109D01*
X50871760Y-106384385D01*
X50482986Y-106305792D01*
X50482985Y-106305791D01*
X50482981Y-106305791D01*
X50088325Y-106266300D01*
X50088319Y-106266300D01*
X49790899Y-106266300D01*
X49790892Y-106266300D01*
X49493864Y-106281123D01*
X49251321Y-106317681D01*
X49101647Y-106340241D01*
X49101643Y-106340241D01*
X49101643Y-106340242D01*
X48717273Y-106438114D01*
X48717252Y-106438121D01*
X48344578Y-106573762D01*
X48344551Y-106573773D01*
X47987202Y-106745864D01*
X47987201Y-106745864D01*
X47648747Y-106952689D01*
X47415388Y-107129452D01*
X47337848Y-107188187D01*
X47332567Y-107192187D01*
X47041823Y-107461959D01*
X47041821Y-107461961D01*
X46779372Y-107759351D01*
X46779364Y-107759360D01*
X46616684Y-107985635D01*
X46547834Y-108081400D01*
X46547831Y-108081404D01*
X46547831Y-108081405D01*
X46349521Y-108424888D01*
X46349515Y-108424898D01*
X46186384Y-108786435D01*
X46186381Y-108786442D01*
X46082739Y-109094917D01*
X46042083Y-109153121D01*
X45976414Y-109180104D01*
X45906581Y-109167300D01*
X45854756Y-109118775D01*
X45837300Y-109054788D01*
X45837300Y-101060003D01*
X82644659Y-101060003D01*
X82663974Y-101256124D01*
X82663974Y-101256126D01*
X82721186Y-101444728D01*
X82725129Y-101452104D01*
X82814090Y-101618538D01*
X82939117Y-101770883D01*
X83091462Y-101895910D01*
X83265273Y-101988814D01*
X83453868Y-102046024D01*
X83453872Y-102046024D01*
X83453874Y-102046025D01*
X83649997Y-102065341D01*
X83650000Y-102065341D01*
X83650003Y-102065341D01*
X83846124Y-102046025D01*
X83846126Y-102046025D01*
X83846127Y-102046024D01*
X83846132Y-102046024D01*
X84034727Y-101988814D01*
X84208538Y-101895910D01*
X84360883Y-101770883D01*
X84485910Y-101618538D01*
X84578814Y-101444727D01*
X84636024Y-101256132D01*
X84655341Y-101060000D01*
X84636024Y-100863873D01*
X84636023Y-100863864D01*
X84581900Y-100685446D01*
X84581266Y-100614452D01*
X84613379Y-100559774D01*
X85021778Y-100151376D01*
X85941750Y-99231404D01*
X86395751Y-98777404D01*
X86458063Y-98743379D01*
X86484846Y-98740500D01*
X87742155Y-98740500D01*
X87810276Y-98760502D01*
X87856769Y-98814158D01*
X87866873Y-98884432D01*
X87837379Y-98949012D01*
X87831250Y-98955595D01*
X86690224Y-100096620D01*
X86627912Y-100130646D01*
X86564554Y-100128100D01*
X86386132Y-100073976D01*
X86386131Y-100073975D01*
X86386125Y-100073974D01*
X86190003Y-100054659D01*
X86189997Y-100054659D01*
X85993875Y-100073974D01*
X85993873Y-100073974D01*
X85805271Y-100131186D01*
X85631461Y-100224090D01*
X85479117Y-100349117D01*
X85354090Y-100501461D01*
X85261186Y-100675271D01*
X85203974Y-100863873D01*
X85203974Y-100863875D01*
X85184659Y-101059996D01*
X85184659Y-101060003D01*
X85203974Y-101256124D01*
X85203974Y-101256126D01*
X85261186Y-101444728D01*
X85265129Y-101452104D01*
X85354090Y-101618538D01*
X85479117Y-101770883D01*
X85631462Y-101895910D01*
X85805273Y-101988814D01*
X85993868Y-102046024D01*
X85993872Y-102046024D01*
X85993874Y-102046025D01*
X86189997Y-102065341D01*
X86190000Y-102065341D01*
X86190003Y-102065341D01*
X86386124Y-102046025D01*
X86386126Y-102046025D01*
X86386127Y-102046024D01*
X86386132Y-102046024D01*
X86574727Y-101988814D01*
X86748538Y-101895910D01*
X86900883Y-101770883D01*
X87025910Y-101618538D01*
X87118814Y-101444727D01*
X87176024Y-101256132D01*
X87195341Y-101060000D01*
X87176024Y-100863873D01*
X87176023Y-100863864D01*
X87121900Y-100685446D01*
X87121266Y-100614452D01*
X87153379Y-100559774D01*
X87452333Y-100260821D01*
X88137559Y-99575595D01*
X88481751Y-99231404D01*
X88544063Y-99197379D01*
X88570846Y-99194500D01*
X89828155Y-99194500D01*
X89896276Y-99214502D01*
X89942769Y-99268158D01*
X89952873Y-99338432D01*
X89923379Y-99403012D01*
X89917263Y-99409581D01*
X89559547Y-99767298D01*
X89230224Y-100096621D01*
X89167912Y-100130646D01*
X89104554Y-100128100D01*
X88926132Y-100073976D01*
X88926131Y-100073975D01*
X88926125Y-100073974D01*
X88730003Y-100054659D01*
X88729997Y-100054659D01*
X88533875Y-100073974D01*
X88533873Y-100073974D01*
X88345271Y-100131186D01*
X88171461Y-100224090D01*
X88019117Y-100349117D01*
X87894090Y-100501461D01*
X87801186Y-100675271D01*
X87743974Y-100863873D01*
X87743974Y-100863875D01*
X87724659Y-101059996D01*
X87724659Y-101060003D01*
X87743974Y-101256124D01*
X87743974Y-101256126D01*
X87801186Y-101444728D01*
X87805129Y-101452104D01*
X87894090Y-101618538D01*
X88019117Y-101770883D01*
X88171462Y-101895910D01*
X88345273Y-101988814D01*
X88533868Y-102046024D01*
X88533872Y-102046024D01*
X88533874Y-102046025D01*
X88729997Y-102065341D01*
X88730000Y-102065341D01*
X88730003Y-102065341D01*
X88926124Y-102046025D01*
X88926126Y-102046025D01*
X88926127Y-102046024D01*
X88926132Y-102046024D01*
X89114727Y-101988814D01*
X89288538Y-101895910D01*
X89440883Y-101770883D01*
X89565910Y-101618538D01*
X89658814Y-101444727D01*
X89716024Y-101256132D01*
X89735341Y-101060000D01*
X89716024Y-100863873D01*
X89716023Y-100863864D01*
X89661900Y-100685446D01*
X89661266Y-100614452D01*
X89693379Y-100559774D01*
X89904037Y-100349117D01*
X90289871Y-99963283D01*
X90567751Y-99685404D01*
X90630063Y-99651379D01*
X90656846Y-99648500D01*
X91914154Y-99648500D01*
X91982275Y-99668502D01*
X92028768Y-99722158D01*
X92038872Y-99792432D01*
X92009378Y-99857012D01*
X92003249Y-99863596D01*
X91770223Y-100096620D01*
X91707911Y-100130645D01*
X91644553Y-100128099D01*
X91466129Y-100073975D01*
X91466124Y-100073974D01*
X91270003Y-100054659D01*
X91269997Y-100054659D01*
X91073875Y-100073974D01*
X91073873Y-100073974D01*
X90885271Y-100131186D01*
X90711461Y-100224090D01*
X90559117Y-100349117D01*
X90434090Y-100501461D01*
X90341186Y-100675271D01*
X90283974Y-100863873D01*
X90283974Y-100863875D01*
X90264659Y-101059996D01*
X90264659Y-101060003D01*
X90283974Y-101256124D01*
X90283974Y-101256126D01*
X90341186Y-101444728D01*
X90345129Y-101452104D01*
X90434090Y-101618538D01*
X90559117Y-101770883D01*
X90711462Y-101895910D01*
X90885273Y-101988814D01*
X91073868Y-102046024D01*
X91073872Y-102046024D01*
X91073874Y-102046025D01*
X91269997Y-102065341D01*
X91270000Y-102065341D01*
X91270003Y-102065341D01*
X91466124Y-102046025D01*
X91466126Y-102046025D01*
X91466127Y-102046024D01*
X91466132Y-102046024D01*
X91654727Y-101988814D01*
X91828538Y-101895910D01*
X91980883Y-101770883D01*
X92105910Y-101618538D01*
X92198814Y-101444727D01*
X92256024Y-101256132D01*
X92275341Y-101060000D01*
X92256024Y-100863873D01*
X92256023Y-100863864D01*
X92201900Y-100685446D01*
X92201266Y-100614452D01*
X92233377Y-100559776D01*
X92653751Y-100139404D01*
X92716063Y-100105379D01*
X92742846Y-100102500D01*
X93047474Y-100102500D01*
X93115595Y-100122502D01*
X93162088Y-100176158D01*
X93172192Y-100246432D01*
X93142698Y-100311012D01*
X93127408Y-100325899D01*
X93099117Y-100349116D01*
X92974090Y-100501461D01*
X92881186Y-100675271D01*
X92823974Y-100863873D01*
X92823974Y-100863875D01*
X92804659Y-101059996D01*
X92804659Y-101060003D01*
X92823974Y-101256124D01*
X92823974Y-101256126D01*
X92881186Y-101444728D01*
X92885129Y-101452104D01*
X92974090Y-101618538D01*
X93099117Y-101770883D01*
X93251462Y-101895910D01*
X93425273Y-101988814D01*
X93613868Y-102046024D01*
X93613872Y-102046024D01*
X93613874Y-102046025D01*
X93809997Y-102065341D01*
X93810000Y-102065341D01*
X93810003Y-102065341D01*
X94006124Y-102046025D01*
X94006126Y-102046025D01*
X94006127Y-102046024D01*
X94006132Y-102046024D01*
X94194727Y-101988814D01*
X94368538Y-101895910D01*
X94520883Y-101770883D01*
X94645910Y-101618538D01*
X94738814Y-101444727D01*
X94796024Y-101256132D01*
X94815341Y-101060000D01*
X94796025Y-100863875D01*
X94796025Y-100863873D01*
X94796024Y-100863870D01*
X94796024Y-100863868D01*
X94738814Y-100675273D01*
X94645910Y-100501462D01*
X94520883Y-100349117D01*
X94492592Y-100325899D01*
X94452623Y-100267222D01*
X94450723Y-100196251D01*
X94487494Y-100135518D01*
X94551262Y-100104307D01*
X94572526Y-100102500D01*
X95587474Y-100102500D01*
X95655595Y-100122502D01*
X95702088Y-100176158D01*
X95712192Y-100246432D01*
X95682698Y-100311012D01*
X95667408Y-100325899D01*
X95639117Y-100349116D01*
X95514090Y-100501461D01*
X95421186Y-100675271D01*
X95363974Y-100863873D01*
X95363974Y-100863875D01*
X95344659Y-101059996D01*
X95344659Y-101060003D01*
X95363974Y-101256124D01*
X95363974Y-101256126D01*
X95421186Y-101444728D01*
X95425129Y-101452104D01*
X95514090Y-101618538D01*
X95639117Y-101770883D01*
X95791462Y-101895910D01*
X95965273Y-101988814D01*
X96153868Y-102046024D01*
X96153872Y-102046024D01*
X96153874Y-102046025D01*
X96349997Y-102065341D01*
X96350000Y-102065341D01*
X96350003Y-102065341D01*
X96546124Y-102046025D01*
X96546126Y-102046025D01*
X96546127Y-102046024D01*
X96546132Y-102046024D01*
X96734727Y-101988814D01*
X96908538Y-101895910D01*
X97060883Y-101770883D01*
X97185910Y-101618538D01*
X97278814Y-101444727D01*
X97336024Y-101256132D01*
X97355341Y-101060000D01*
X97336024Y-100863873D01*
X97336023Y-100863864D01*
X97285786Y-100698256D01*
X97285152Y-100627262D01*
X97317263Y-100572587D01*
X98347406Y-99542444D01*
X98409717Y-99508420D01*
X98480533Y-99513485D01*
X98537368Y-99556032D01*
X98562179Y-99622552D01*
X98562500Y-99631541D01*
X98562500Y-100025076D01*
X98542498Y-100093197D01*
X98495896Y-100136198D01*
X98331461Y-100224090D01*
X98179117Y-100349117D01*
X98054090Y-100501461D01*
X97961186Y-100675271D01*
X97903974Y-100863873D01*
X97903974Y-100863875D01*
X97884659Y-101059996D01*
X97884659Y-101060003D01*
X97903974Y-101256124D01*
X97903974Y-101256126D01*
X97961186Y-101444728D01*
X97965129Y-101452104D01*
X98054090Y-101618538D01*
X98179117Y-101770883D01*
X98331462Y-101895910D01*
X98505273Y-101988814D01*
X98693868Y-102046024D01*
X98693872Y-102046024D01*
X98693874Y-102046025D01*
X98889997Y-102065341D01*
X98890000Y-102065341D01*
X98890003Y-102065341D01*
X99086124Y-102046025D01*
X99086126Y-102046025D01*
X99086127Y-102046024D01*
X99086132Y-102046024D01*
X99274727Y-101988814D01*
X99448538Y-101895910D01*
X99600883Y-101770883D01*
X99725910Y-101618538D01*
X99818814Y-101444727D01*
X99876024Y-101256132D01*
X99895341Y-101060000D01*
X99876025Y-100863875D01*
X99876025Y-100863873D01*
X99876024Y-100863870D01*
X99876024Y-100863868D01*
X99818814Y-100675273D01*
X99725910Y-100501462D01*
X99600883Y-100349117D01*
X99448538Y-100224090D01*
X99338350Y-100165193D01*
X99284104Y-100136198D01*
X99233456Y-100086446D01*
X99217500Y-100025076D01*
X99217500Y-99366594D01*
X99237502Y-99298473D01*
X99254405Y-99277499D01*
X99986176Y-98545728D01*
X100048488Y-98511702D01*
X100119303Y-98516767D01*
X100164366Y-98545728D01*
X101160595Y-99541957D01*
X101194621Y-99604269D01*
X101197500Y-99631052D01*
X101197500Y-99991560D01*
X101177498Y-100059681D01*
X101123842Y-100106174D01*
X101108079Y-100112133D01*
X101102501Y-100113826D01*
X101045275Y-100131185D01*
X101045269Y-100131187D01*
X100871461Y-100224090D01*
X100719117Y-100349117D01*
X100594090Y-100501461D01*
X100501186Y-100675271D01*
X100443974Y-100863873D01*
X100443974Y-100863875D01*
X100424659Y-101059996D01*
X100424659Y-101060003D01*
X100443974Y-101256124D01*
X100443974Y-101256126D01*
X100501186Y-101444728D01*
X100505129Y-101452104D01*
X100594090Y-101618538D01*
X100719117Y-101770883D01*
X100871462Y-101895910D01*
X101045273Y-101988814D01*
X101233868Y-102046024D01*
X101233872Y-102046024D01*
X101233874Y-102046025D01*
X101429997Y-102065341D01*
X101430000Y-102065341D01*
X101430003Y-102065341D01*
X101626124Y-102046025D01*
X101626126Y-102046025D01*
X101626127Y-102046024D01*
X101626132Y-102046024D01*
X101814727Y-101988814D01*
X101988538Y-101895910D01*
X102140883Y-101770883D01*
X102265910Y-101618538D01*
X102358814Y-101444727D01*
X102416024Y-101256132D01*
X102435341Y-101060000D01*
X102416025Y-100863875D01*
X102416025Y-100863873D01*
X102416024Y-100863870D01*
X102416024Y-100863868D01*
X102358814Y-100675273D01*
X102265910Y-100501462D01*
X102140883Y-100349117D01*
X102033295Y-100260821D01*
X101988540Y-100224091D01*
X101919103Y-100186976D01*
X101868455Y-100137223D01*
X101852500Y-100075854D01*
X101852500Y-99892016D01*
X101872502Y-99823895D01*
X101926158Y-99777402D01*
X101996432Y-99767298D01*
X102061012Y-99796792D01*
X102067595Y-99802921D01*
X103542844Y-101278170D01*
X103546548Y-101282212D01*
X103572545Y-101313194D01*
X103598777Y-101328339D01*
X103607558Y-101333409D01*
X103612196Y-101336363D01*
X103645316Y-101359554D01*
X103650870Y-101362144D01*
X103666181Y-101368485D01*
X103671949Y-101370585D01*
X103671955Y-101370588D01*
X103711784Y-101377610D01*
X103717131Y-101378796D01*
X103756193Y-101389263D01*
X103781539Y-101387045D01*
X103796470Y-101385740D01*
X103801962Y-101385500D01*
X104454007Y-101385500D01*
X104522128Y-101405502D01*
X104565129Y-101452104D01*
X104654090Y-101618538D01*
X104779117Y-101770883D01*
X104931462Y-101895910D01*
X105105273Y-101988814D01*
X105293868Y-102046024D01*
X105293872Y-102046024D01*
X105293874Y-102046025D01*
X105489997Y-102065341D01*
X105490000Y-102065341D01*
X105490003Y-102065341D01*
X105686124Y-102046025D01*
X105686126Y-102046025D01*
X105686127Y-102046024D01*
X105686132Y-102046024D01*
X105874727Y-101988814D01*
X106048538Y-101895910D01*
X106200883Y-101770883D01*
X106325910Y-101618538D01*
X106418814Y-101444727D01*
X106476024Y-101256132D01*
X106495341Y-101060000D01*
X106476025Y-100863875D01*
X106476025Y-100863873D01*
X106476024Y-100863870D01*
X106476024Y-100863868D01*
X106418814Y-100675273D01*
X106325910Y-100501462D01*
X106297162Y-100466433D01*
X106269409Y-100401087D01*
X106281390Y-100331109D01*
X106329303Y-100278717D01*
X106394562Y-100260500D01*
X106717984Y-100260500D01*
X106786105Y-100280502D01*
X106807079Y-100297405D01*
X107067278Y-100557604D01*
X107101304Y-100619916D01*
X107098758Y-100683274D01*
X107043975Y-100863870D01*
X107043974Y-100863875D01*
X107024659Y-101059996D01*
X107024659Y-101060003D01*
X107043974Y-101256124D01*
X107043974Y-101256126D01*
X107101186Y-101444728D01*
X107105129Y-101452104D01*
X107194090Y-101618538D01*
X107319117Y-101770883D01*
X107471462Y-101895910D01*
X107645273Y-101988814D01*
X107833868Y-102046024D01*
X107833872Y-102046024D01*
X107833874Y-102046025D01*
X108029997Y-102065341D01*
X108030000Y-102065341D01*
X108030003Y-102065341D01*
X108226124Y-102046025D01*
X108226126Y-102046025D01*
X108226127Y-102046024D01*
X108226132Y-102046024D01*
X108414727Y-101988814D01*
X108588538Y-101895910D01*
X108740883Y-101770883D01*
X108865910Y-101618538D01*
X108958814Y-101444727D01*
X109016024Y-101256132D01*
X109035341Y-101060000D01*
X109016025Y-100863875D01*
X109016025Y-100863873D01*
X109016024Y-100863870D01*
X109016024Y-100863868D01*
X108958814Y-100675273D01*
X108865910Y-100501462D01*
X108740883Y-100349117D01*
X108588538Y-100224090D01*
X108478350Y-100165193D01*
X108414728Y-100131186D01*
X108226125Y-100073974D01*
X108103454Y-100061893D01*
X108037622Y-100035311D01*
X108030255Y-100024901D01*
X107979694Y-100057396D01*
X107956546Y-100061893D01*
X107833875Y-100073974D01*
X107833870Y-100073975D01*
X107653274Y-100128758D01*
X107582280Y-100129391D01*
X107527604Y-100097278D01*
X107455921Y-100025595D01*
X107421895Y-99963283D01*
X107426960Y-99892468D01*
X107469507Y-99835632D01*
X107536027Y-99810821D01*
X107545016Y-99810500D01*
X107944196Y-99810500D01*
X108012317Y-99830502D01*
X108027438Y-99847953D01*
X108029125Y-99845052D01*
X108092326Y-99812707D01*
X108115804Y-99810500D01*
X108807984Y-99810500D01*
X108876105Y-99830502D01*
X108897079Y-99847405D01*
X109607278Y-100557604D01*
X109641304Y-100619916D01*
X109638758Y-100683274D01*
X109583975Y-100863870D01*
X109583974Y-100863875D01*
X109564659Y-101059996D01*
X109564659Y-101060003D01*
X109583974Y-101256124D01*
X109583974Y-101256126D01*
X109641186Y-101444728D01*
X109645129Y-101452104D01*
X109734090Y-101618538D01*
X109859117Y-101770883D01*
X110011462Y-101895910D01*
X110185273Y-101988814D01*
X110373868Y-102046024D01*
X110373872Y-102046024D01*
X110373874Y-102046025D01*
X110569997Y-102065341D01*
X110570000Y-102065341D01*
X110570003Y-102065341D01*
X110766124Y-102046025D01*
X110766126Y-102046025D01*
X110766127Y-102046024D01*
X110766132Y-102046024D01*
X110954727Y-101988814D01*
X111128538Y-101895910D01*
X111280883Y-101770883D01*
X111405910Y-101618538D01*
X111498814Y-101444727D01*
X111556024Y-101256132D01*
X111575341Y-101060000D01*
X111556025Y-100863875D01*
X111556025Y-100863873D01*
X111556024Y-100863870D01*
X111556024Y-100863868D01*
X111498814Y-100675273D01*
X111405910Y-100501462D01*
X111280883Y-100349117D01*
X111128538Y-100224090D01*
X111018350Y-100165193D01*
X110954728Y-100131186D01*
X110766125Y-100073974D01*
X110570003Y-100054659D01*
X110569997Y-100054659D01*
X110373875Y-100073974D01*
X110373870Y-100073975D01*
X110193274Y-100128758D01*
X110122280Y-100129391D01*
X110067604Y-100097278D01*
X109545921Y-99575595D01*
X109511895Y-99513283D01*
X109516960Y-99442468D01*
X109559507Y-99385632D01*
X109626027Y-99360821D01*
X109635016Y-99360500D01*
X110897984Y-99360500D01*
X110966105Y-99380502D01*
X110987079Y-99397405D01*
X112147278Y-100557605D01*
X112181304Y-100619917D01*
X112178758Y-100683275D01*
X112123975Y-100863870D01*
X112123974Y-100863875D01*
X112104659Y-101059996D01*
X112104659Y-101060003D01*
X112123974Y-101256124D01*
X112123974Y-101256126D01*
X112181186Y-101444728D01*
X112185129Y-101452104D01*
X112274090Y-101618538D01*
X112399117Y-101770883D01*
X112551462Y-101895910D01*
X112725273Y-101988814D01*
X112913868Y-102046024D01*
X112913872Y-102046024D01*
X112913874Y-102046025D01*
X113109997Y-102065341D01*
X113110000Y-102065341D01*
X113110003Y-102065341D01*
X113306124Y-102046025D01*
X113306126Y-102046025D01*
X113306127Y-102046024D01*
X113306132Y-102046024D01*
X113494727Y-101988814D01*
X113668538Y-101895910D01*
X113820883Y-101770883D01*
X113945910Y-101618538D01*
X114038814Y-101444727D01*
X114096024Y-101256132D01*
X114115341Y-101060000D01*
X114096025Y-100863875D01*
X114096025Y-100863873D01*
X114096024Y-100863870D01*
X114096024Y-100863868D01*
X114038814Y-100675273D01*
X113945910Y-100501462D01*
X113820883Y-100349117D01*
X113668538Y-100224090D01*
X113558350Y-100165193D01*
X113494728Y-100131186D01*
X113306125Y-100073974D01*
X113110003Y-100054659D01*
X113109997Y-100054659D01*
X112913875Y-100073974D01*
X112913870Y-100073975D01*
X112733275Y-100128758D01*
X112662282Y-100129391D01*
X112607607Y-100097280D01*
X111635919Y-99125593D01*
X111601896Y-99063283D01*
X111606960Y-98992468D01*
X111649507Y-98935632D01*
X111716027Y-98910821D01*
X111725016Y-98910500D01*
X112987984Y-98910500D01*
X113056105Y-98930502D01*
X113077079Y-98947405D01*
X114687278Y-100557604D01*
X114721304Y-100619916D01*
X114718758Y-100683274D01*
X114663975Y-100863870D01*
X114663974Y-100863875D01*
X114644659Y-101059996D01*
X114644659Y-101060003D01*
X114663974Y-101256124D01*
X114663974Y-101256126D01*
X114721186Y-101444728D01*
X114725129Y-101452104D01*
X114814090Y-101618538D01*
X114939117Y-101770883D01*
X115091462Y-101895910D01*
X115265273Y-101988814D01*
X115453868Y-102046024D01*
X115453872Y-102046024D01*
X115453874Y-102046025D01*
X115649997Y-102065341D01*
X115650000Y-102065341D01*
X115650003Y-102065341D01*
X115846124Y-102046025D01*
X115846126Y-102046025D01*
X115846127Y-102046024D01*
X115846132Y-102046024D01*
X116034727Y-101988814D01*
X116208538Y-101895910D01*
X116360883Y-101770883D01*
X116485910Y-101618538D01*
X116578814Y-101444727D01*
X116636024Y-101256132D01*
X116655341Y-101060000D01*
X116636025Y-100863875D01*
X116636025Y-100863873D01*
X116636024Y-100863870D01*
X116636024Y-100863868D01*
X116578814Y-100675273D01*
X116485910Y-100501462D01*
X116360883Y-100349117D01*
X116208538Y-100224090D01*
X116098350Y-100165193D01*
X116034728Y-100131186D01*
X115846125Y-100073974D01*
X115650003Y-100054659D01*
X115649997Y-100054659D01*
X115453875Y-100073974D01*
X115453870Y-100073975D01*
X115273274Y-100128758D01*
X115202280Y-100129391D01*
X115147604Y-100097278D01*
X113725921Y-98675595D01*
X113691895Y-98613283D01*
X113696960Y-98542468D01*
X113739507Y-98485632D01*
X113806027Y-98460821D01*
X113815016Y-98460500D01*
X115077984Y-98460500D01*
X115146105Y-98480502D01*
X115167079Y-98497405D01*
X117227278Y-100557604D01*
X117261304Y-100619916D01*
X117258758Y-100683274D01*
X117203975Y-100863870D01*
X117203974Y-100863875D01*
X117184659Y-101059996D01*
X117184659Y-101060003D01*
X117203974Y-101256124D01*
X117203974Y-101256126D01*
X117261186Y-101444728D01*
X117265129Y-101452104D01*
X117354090Y-101618538D01*
X117479117Y-101770883D01*
X117631462Y-101895910D01*
X117805273Y-101988814D01*
X117993868Y-102046024D01*
X117993872Y-102046024D01*
X117993874Y-102046025D01*
X118189997Y-102065341D01*
X118190000Y-102065341D01*
X118190003Y-102065341D01*
X118386124Y-102046025D01*
X118386126Y-102046025D01*
X118386127Y-102046024D01*
X118386132Y-102046024D01*
X118574727Y-101988814D01*
X118748538Y-101895910D01*
X118900883Y-101770883D01*
X119025910Y-101618538D01*
X119118814Y-101444727D01*
X119176024Y-101256132D01*
X119195341Y-101060003D01*
X122264659Y-101060003D01*
X122283974Y-101256124D01*
X122283974Y-101256126D01*
X122341186Y-101444728D01*
X122345129Y-101452104D01*
X122434090Y-101618538D01*
X122559117Y-101770883D01*
X122711462Y-101895910D01*
X122885273Y-101988814D01*
X123073868Y-102046024D01*
X123073872Y-102046024D01*
X123073874Y-102046025D01*
X123269997Y-102065341D01*
X123270000Y-102065341D01*
X123270003Y-102065341D01*
X123466124Y-102046025D01*
X123466126Y-102046025D01*
X123466127Y-102046024D01*
X123466132Y-102046024D01*
X123654727Y-101988814D01*
X123828538Y-101895910D01*
X123980883Y-101770883D01*
X124105910Y-101618538D01*
X124198814Y-101444727D01*
X124256024Y-101256132D01*
X124275341Y-101060003D01*
X124804659Y-101060003D01*
X124823974Y-101256124D01*
X124823974Y-101256126D01*
X124881186Y-101444728D01*
X124885129Y-101452104D01*
X124974090Y-101618538D01*
X125099117Y-101770883D01*
X125251462Y-101895910D01*
X125425273Y-101988814D01*
X125613868Y-102046024D01*
X125613872Y-102046024D01*
X125613874Y-102046025D01*
X125809997Y-102065341D01*
X125810000Y-102065341D01*
X125810003Y-102065341D01*
X126006124Y-102046025D01*
X126006126Y-102046025D01*
X126006127Y-102046024D01*
X126006132Y-102046024D01*
X126194727Y-101988814D01*
X126368538Y-101895910D01*
X126520883Y-101770883D01*
X126645910Y-101618538D01*
X126738814Y-101444727D01*
X126796024Y-101256132D01*
X126815341Y-101060003D01*
X127344659Y-101060003D01*
X127363974Y-101256124D01*
X127363974Y-101256126D01*
X127421186Y-101444728D01*
X127425129Y-101452104D01*
X127514090Y-101618538D01*
X127639117Y-101770883D01*
X127791462Y-101895910D01*
X127965273Y-101988814D01*
X128153868Y-102046024D01*
X128153872Y-102046024D01*
X128153874Y-102046025D01*
X128349997Y-102065341D01*
X128350000Y-102065341D01*
X128350003Y-102065341D01*
X128546124Y-102046025D01*
X128546126Y-102046025D01*
X128546127Y-102046024D01*
X128546132Y-102046024D01*
X128734727Y-101988814D01*
X128908538Y-101895910D01*
X129060883Y-101770883D01*
X129185910Y-101618538D01*
X129278814Y-101444727D01*
X129336024Y-101256132D01*
X129355341Y-101060000D01*
X129336025Y-100863875D01*
X129336025Y-100863873D01*
X129336024Y-100863870D01*
X129336024Y-100863868D01*
X129278814Y-100675273D01*
X129185910Y-100501462D01*
X129060883Y-100349117D01*
X128908538Y-100224090D01*
X128798350Y-100165193D01*
X128734728Y-100131186D01*
X128546125Y-100073974D01*
X128350003Y-100054659D01*
X128349997Y-100054659D01*
X128153875Y-100073974D01*
X128153873Y-100073974D01*
X127965271Y-100131186D01*
X127791461Y-100224090D01*
X127639117Y-100349117D01*
X127514090Y-100501461D01*
X127421186Y-100675271D01*
X127363974Y-100863873D01*
X127363974Y-100863875D01*
X127344659Y-101059996D01*
X127344659Y-101060003D01*
X126815341Y-101060003D01*
X126815341Y-101060000D01*
X126796025Y-100863875D01*
X126796025Y-100863873D01*
X126796024Y-100863870D01*
X126796024Y-100863868D01*
X126738814Y-100675273D01*
X126645910Y-100501462D01*
X126520883Y-100349117D01*
X126368538Y-100224090D01*
X126258350Y-100165193D01*
X126194728Y-100131186D01*
X126006125Y-100073974D01*
X125810003Y-100054659D01*
X125809997Y-100054659D01*
X125613875Y-100073974D01*
X125613873Y-100073974D01*
X125425271Y-100131186D01*
X125251461Y-100224090D01*
X125099117Y-100349117D01*
X124974090Y-100501461D01*
X124881186Y-100675271D01*
X124823974Y-100863873D01*
X124823974Y-100863875D01*
X124804659Y-101059996D01*
X124804659Y-101060003D01*
X124275341Y-101060003D01*
X124275341Y-101060000D01*
X124256025Y-100863875D01*
X124256025Y-100863873D01*
X124256024Y-100863870D01*
X124256024Y-100863868D01*
X124198814Y-100675273D01*
X124105910Y-100501462D01*
X123980883Y-100349117D01*
X123828538Y-100224090D01*
X123718350Y-100165193D01*
X123654728Y-100131186D01*
X123466125Y-100073974D01*
X123270003Y-100054659D01*
X123269997Y-100054659D01*
X123073875Y-100073974D01*
X123073873Y-100073974D01*
X122885271Y-100131186D01*
X122711461Y-100224090D01*
X122559117Y-100349117D01*
X122434090Y-100501461D01*
X122341186Y-100675271D01*
X122283974Y-100863873D01*
X122283974Y-100863875D01*
X122264659Y-101059996D01*
X122264659Y-101060003D01*
X119195341Y-101060003D01*
X119195341Y-101060000D01*
X119176025Y-100863875D01*
X119176025Y-100863873D01*
X119176024Y-100863870D01*
X119176024Y-100863868D01*
X119118814Y-100675273D01*
X119025910Y-100501462D01*
X118900883Y-100349117D01*
X118748538Y-100224090D01*
X118638350Y-100165193D01*
X118574728Y-100131186D01*
X118386125Y-100073974D01*
X118190003Y-100054659D01*
X118189997Y-100054659D01*
X117993875Y-100073974D01*
X117993870Y-100073975D01*
X117813274Y-100128758D01*
X117742280Y-100129391D01*
X117687604Y-100097278D01*
X115507165Y-97916839D01*
X115503450Y-97912786D01*
X115477455Y-97881806D01*
X115477454Y-97881805D01*
X115477451Y-97881803D01*
X115442435Y-97861586D01*
X115437800Y-97858633D01*
X115404683Y-97835445D01*
X115399152Y-97832866D01*
X115383796Y-97826505D01*
X115378047Y-97824412D01*
X115354174Y-97820202D01*
X115338234Y-97817391D01*
X115332872Y-97816203D01*
X115293808Y-97805736D01*
X115293805Y-97805736D01*
X115282127Y-97806757D01*
X115253524Y-97809260D01*
X115248040Y-97809500D01*
X104244808Y-97809500D01*
X104176687Y-97789498D01*
X104155713Y-97772595D01*
X103875143Y-97492025D01*
X103841117Y-97429713D01*
X103846182Y-97358898D01*
X103888729Y-97302062D01*
X103916011Y-97286526D01*
X104032341Y-97238341D01*
X104157782Y-97142087D01*
X104254036Y-97016646D01*
X104314544Y-96870567D01*
X104335182Y-96713805D01*
X104327507Y-96655511D01*
X104314544Y-96557044D01*
X104301850Y-96526396D01*
X104254036Y-96410964D01*
X104157782Y-96285523D01*
X104032341Y-96189269D01*
X103886262Y-96128761D01*
X103886261Y-96128760D01*
X103886257Y-96128759D01*
X103878284Y-96126623D01*
X103878899Y-96124326D01*
X103825121Y-96100533D01*
X103786033Y-96041266D01*
X103780500Y-96004338D01*
X103780500Y-94474182D01*
X133780500Y-94474182D01*
X133802224Y-94618311D01*
X133819604Y-94733619D01*
X133896933Y-94984314D01*
X133896938Y-94984327D01*
X134010773Y-95220706D01*
X134010777Y-95220713D01*
X134062709Y-95296882D01*
X134158567Y-95437479D01*
X134337019Y-95629805D01*
X134542143Y-95793386D01*
X134542146Y-95793388D01*
X134769352Y-95924566D01*
X134769356Y-95924567D01*
X134769357Y-95924568D01*
X135013584Y-96020420D01*
X135269370Y-96078802D01*
X135421409Y-96090195D01*
X135465503Y-96093500D01*
X135465506Y-96093500D01*
X135596497Y-96093500D01*
X135637516Y-96090425D01*
X135792630Y-96078802D01*
X136048416Y-96020420D01*
X136292643Y-95924568D01*
X136292645Y-95924566D01*
X136292647Y-95924566D01*
X136406250Y-95858977D01*
X136519857Y-95793386D01*
X136724981Y-95629805D01*
X136903433Y-95437479D01*
X137051228Y-95220704D01*
X137165063Y-94984323D01*
X137165066Y-94984314D01*
X137242395Y-94733619D01*
X137246742Y-94704779D01*
X137281500Y-94474182D01*
X137281500Y-94211818D01*
X137242396Y-93952385D01*
X137242395Y-93952383D01*
X137242395Y-93952380D01*
X137165066Y-93701685D01*
X137165061Y-93701672D01*
X137116854Y-93601570D01*
X137051228Y-93465296D01*
X137051226Y-93465293D01*
X137051222Y-93465286D01*
X136903437Y-93248527D01*
X136903433Y-93248521D01*
X136724981Y-93056195D01*
X136519857Y-92892614D01*
X136519852Y-92892611D01*
X136519853Y-92892611D01*
X136292647Y-92761433D01*
X136292639Y-92761430D01*
X136048419Y-92665581D01*
X136048417Y-92665580D01*
X135792632Y-92607198D01*
X135596497Y-92592500D01*
X135596494Y-92592500D01*
X135465506Y-92592500D01*
X135465503Y-92592500D01*
X135269367Y-92607198D01*
X135013582Y-92665580D01*
X135013580Y-92665581D01*
X134769360Y-92761430D01*
X134769352Y-92761433D01*
X134542146Y-92892611D01*
X134337018Y-93056195D01*
X134158566Y-93248522D01*
X134158562Y-93248527D01*
X134010777Y-93465286D01*
X134010773Y-93465293D01*
X133896938Y-93701672D01*
X133896933Y-93701685D01*
X133819604Y-93952380D01*
X133797879Y-94096514D01*
X133780500Y-94211818D01*
X133780500Y-94474182D01*
X103780500Y-94474182D01*
X103780500Y-56826500D01*
X103800502Y-56758379D01*
X103854158Y-56711886D01*
X103906500Y-56700500D01*
X114933040Y-56700500D01*
X114938525Y-56700739D01*
X114978807Y-56704264D01*
X115017870Y-56693796D01*
X115023231Y-56692607D01*
X115063045Y-56685588D01*
X115063047Y-56685586D01*
X115068838Y-56683479D01*
X115084101Y-56677157D01*
X115089681Y-56674555D01*
X115089681Y-56674554D01*
X115089684Y-56674554D01*
X115122817Y-56651352D01*
X115127428Y-56648415D01*
X115162455Y-56628194D01*
X115188453Y-56597209D01*
X115192146Y-56593178D01*
X118066894Y-53718430D01*
X118129204Y-53684406D01*
X118200019Y-53689471D01*
X118256855Y-53732018D01*
X118260750Y-53737522D01*
X118265447Y-53744551D01*
X118265448Y-53744552D01*
X118331769Y-53788867D01*
X118390252Y-53800500D01*
X118390253Y-53800500D01*
X120029747Y-53800500D01*
X120029748Y-53800500D01*
X120088231Y-53788867D01*
X120154552Y-53744552D01*
X120198867Y-53678231D01*
X120210500Y-53619748D01*
X120210500Y-51980252D01*
X120198867Y-51921769D01*
X120154552Y-51855448D01*
X120088231Y-51811133D01*
X120088228Y-51811132D01*
X120029750Y-51799500D01*
X120029748Y-51799500D01*
X118390252Y-51799500D01*
X118390246Y-51799500D01*
X118351081Y-51807291D01*
X118280367Y-51800963D01*
X118224300Y-51757408D01*
X118200681Y-51690456D01*
X118200500Y-51683712D01*
X118200500Y-51555155D01*
X118200740Y-51549661D01*
X118204264Y-51509389D01*
X118193791Y-51470309D01*
X118192610Y-51464982D01*
X118185588Y-51425150D01*
X118185588Y-51425149D01*
X118183491Y-51419388D01*
X118177144Y-51404065D01*
X118174554Y-51398511D01*
X118151363Y-51365391D01*
X118148409Y-51360753D01*
X118143339Y-51351972D01*
X118128194Y-51325740D01*
X118128193Y-51325739D01*
X118097212Y-51299742D01*
X118093169Y-51296038D01*
X114512405Y-47715274D01*
X114478379Y-47652962D01*
X114475500Y-47626179D01*
X114475500Y-47462425D01*
X114495502Y-47394304D01*
X114549158Y-47347811D01*
X114619432Y-47337707D01*
X114681430Y-47365023D01*
X114834550Y-47490685D01*
X115017046Y-47588232D01*
X115215066Y-47648300D01*
X115215070Y-47648300D01*
X115215072Y-47648301D01*
X115420997Y-47668583D01*
X115421000Y-47668583D01*
X115421003Y-47668583D01*
X115626927Y-47648301D01*
X115626928Y-47648300D01*
X115626934Y-47648300D01*
X115824954Y-47588232D01*
X116007450Y-47490685D01*
X116167410Y-47359410D01*
X116298685Y-47199450D01*
X116396232Y-47016954D01*
X116456300Y-46818934D01*
X116458817Y-46793386D01*
X116476583Y-46613003D01*
X116905417Y-46613003D01*
X116925698Y-46818927D01*
X116985768Y-47016954D01*
X117082499Y-47197925D01*
X117083315Y-47199450D01*
X117214590Y-47359410D01*
X117374550Y-47490685D01*
X117557046Y-47588232D01*
X117755066Y-47648300D01*
X117755070Y-47648300D01*
X117755072Y-47648301D01*
X117960997Y-47668583D01*
X117961000Y-47668583D01*
X117961003Y-47668583D01*
X118166927Y-47648301D01*
X118166928Y-47648300D01*
X118166934Y-47648300D01*
X118364954Y-47588232D01*
X118364964Y-47588226D01*
X118365606Y-47587961D01*
X118365980Y-47587920D01*
X118370878Y-47586435D01*
X118371159Y-47587362D01*
X118436194Y-47580359D01*
X118499687Y-47612127D01*
X118502940Y-47615266D01*
X118551309Y-47663635D01*
X118585335Y-47725947D01*
X118588214Y-47752730D01*
X118588214Y-49519428D01*
X118568212Y-49587549D01*
X118538918Y-49619390D01*
X118485434Y-49660429D01*
X118389179Y-49785871D01*
X118389177Y-49785874D01*
X118328669Y-49931953D01*
X118308032Y-50088713D01*
X118308032Y-50088714D01*
X118328669Y-50245474D01*
X118370427Y-50346285D01*
X118389178Y-50391555D01*
X118485432Y-50516996D01*
X118610873Y-50613250D01*
X118756952Y-50673758D01*
X118913714Y-50694396D01*
X119070476Y-50673758D01*
X119216555Y-50613250D01*
X119341996Y-50516996D01*
X119438250Y-50391555D01*
X119498758Y-50245476D01*
X119519396Y-50088714D01*
X119498758Y-49931952D01*
X119438250Y-49785873D01*
X119341996Y-49660432D01*
X119341994Y-49660430D01*
X119341993Y-49660429D01*
X119288510Y-49619390D01*
X119246643Y-49562052D01*
X119239214Y-49519428D01*
X119239214Y-47582673D01*
X119239454Y-47577179D01*
X119242978Y-47536907D01*
X119232506Y-47497828D01*
X119231324Y-47492496D01*
X119224302Y-47452669D01*
X119224299Y-47452663D01*
X119222199Y-47446895D01*
X119215858Y-47431584D01*
X119213268Y-47426030D01*
X119201414Y-47409101D01*
X119190075Y-47392907D01*
X119187123Y-47388272D01*
X119178685Y-47373658D01*
X119166908Y-47353259D01*
X119166907Y-47353258D01*
X119135926Y-47327261D01*
X119131883Y-47323557D01*
X118963266Y-47154940D01*
X118929240Y-47092628D01*
X118934305Y-47021813D01*
X118935961Y-47017606D01*
X118936226Y-47016964D01*
X118936232Y-47016954D01*
X118996300Y-46818934D01*
X118998817Y-46793386D01*
X119016583Y-46613003D01*
X119445417Y-46613003D01*
X119465698Y-46818927D01*
X119525768Y-47016954D01*
X119622499Y-47197925D01*
X119623315Y-47199450D01*
X119754590Y-47359410D01*
X119914550Y-47490685D01*
X120097046Y-47588232D01*
X120295066Y-47648300D01*
X120295070Y-47648300D01*
X120295072Y-47648301D01*
X120500997Y-47668583D01*
X120501000Y-47668583D01*
X120501003Y-47668583D01*
X120706927Y-47648301D01*
X120706928Y-47648300D01*
X120706934Y-47648300D01*
X120904954Y-47588232D01*
X121087450Y-47490685D01*
X121247410Y-47359410D01*
X121378685Y-47199450D01*
X121476232Y-47016954D01*
X121536300Y-46818934D01*
X121538817Y-46793386D01*
X121556583Y-46613003D01*
X121985417Y-46613003D01*
X122005698Y-46818927D01*
X122065768Y-47016954D01*
X122162499Y-47197925D01*
X122163315Y-47199450D01*
X122294590Y-47359410D01*
X122454550Y-47490685D01*
X122637046Y-47588232D01*
X122835066Y-47648300D01*
X122835070Y-47648300D01*
X122835072Y-47648301D01*
X123040997Y-47668583D01*
X123041000Y-47668583D01*
X123041003Y-47668583D01*
X123246927Y-47648301D01*
X123246928Y-47648300D01*
X123246934Y-47648300D01*
X123444954Y-47588232D01*
X123627450Y-47490685D01*
X123787410Y-47359410D01*
X123918685Y-47199450D01*
X124016232Y-47016954D01*
X124076300Y-46818934D01*
X124078817Y-46793386D01*
X124096583Y-46613003D01*
X124525417Y-46613003D01*
X124545698Y-46818927D01*
X124605768Y-47016954D01*
X124702499Y-47197925D01*
X124703315Y-47199450D01*
X124834590Y-47359410D01*
X124994550Y-47490685D01*
X125177046Y-47588232D01*
X125375066Y-47648300D01*
X125375070Y-47648300D01*
X125375072Y-47648301D01*
X125580997Y-47668583D01*
X125581000Y-47668583D01*
X125581003Y-47668583D01*
X125786927Y-47648301D01*
X125786928Y-47648300D01*
X125786934Y-47648300D01*
X125984954Y-47588232D01*
X126167450Y-47490685D01*
X126327410Y-47359410D01*
X126458685Y-47199450D01*
X126556232Y-47016954D01*
X126616300Y-46818934D01*
X126618817Y-46793386D01*
X126636583Y-46613003D01*
X127065417Y-46613003D01*
X127085698Y-46818927D01*
X127145768Y-47016954D01*
X127242499Y-47197925D01*
X127243315Y-47199450D01*
X127374590Y-47359410D01*
X127534550Y-47490685D01*
X127717046Y-47588232D01*
X127915066Y-47648300D01*
X127915070Y-47648300D01*
X127915072Y-47648301D01*
X128120997Y-47668583D01*
X128121000Y-47668583D01*
X128121003Y-47668583D01*
X128326927Y-47648301D01*
X128326928Y-47648300D01*
X128326934Y-47648300D01*
X128524954Y-47588232D01*
X128707450Y-47490685D01*
X128867410Y-47359410D01*
X128998685Y-47199450D01*
X129096232Y-47016954D01*
X129156300Y-46818934D01*
X129158817Y-46793386D01*
X129176583Y-46613003D01*
X129176583Y-46612996D01*
X129156301Y-46407072D01*
X129156300Y-46407070D01*
X129156300Y-46407066D01*
X129096232Y-46209046D01*
X128998685Y-46026550D01*
X128867410Y-45866590D01*
X128707450Y-45735315D01*
X128707448Y-45735314D01*
X128707447Y-45735313D01*
X128524954Y-45637768D01*
X128495667Y-45628884D01*
X128326934Y-45577700D01*
X128326933Y-45577699D01*
X128326927Y-45577698D01*
X128121003Y-45557417D01*
X128120997Y-45557417D01*
X127915072Y-45577698D01*
X127717045Y-45637768D01*
X127534552Y-45735313D01*
X127374590Y-45866590D01*
X127243313Y-46026552D01*
X127145768Y-46209045D01*
X127085698Y-46407072D01*
X127065417Y-46612996D01*
X127065417Y-46613003D01*
X126636583Y-46613003D01*
X126636583Y-46612996D01*
X126616301Y-46407072D01*
X126616300Y-46407070D01*
X126616300Y-46407066D01*
X126556232Y-46209046D01*
X126458685Y-46026550D01*
X126327410Y-45866590D01*
X126167450Y-45735315D01*
X126167448Y-45735314D01*
X126167447Y-45735313D01*
X125984954Y-45637768D01*
X125955667Y-45628884D01*
X125786934Y-45577700D01*
X125786933Y-45577699D01*
X125786927Y-45577698D01*
X125581003Y-45557417D01*
X125580997Y-45557417D01*
X125375072Y-45577698D01*
X125177045Y-45637768D01*
X124994552Y-45735313D01*
X124834590Y-45866590D01*
X124703313Y-46026552D01*
X124605768Y-46209045D01*
X124545698Y-46407072D01*
X124525417Y-46612996D01*
X124525417Y-46613003D01*
X124096583Y-46613003D01*
X124096583Y-46612996D01*
X124076301Y-46407072D01*
X124076300Y-46407070D01*
X124076300Y-46407066D01*
X124016232Y-46209046D01*
X123918685Y-46026550D01*
X123787410Y-45866590D01*
X123627450Y-45735315D01*
X123627448Y-45735314D01*
X123627447Y-45735313D01*
X123444954Y-45637768D01*
X123415667Y-45628884D01*
X123246934Y-45577700D01*
X123246933Y-45577699D01*
X123246927Y-45577698D01*
X123041003Y-45557417D01*
X123040997Y-45557417D01*
X122835072Y-45577698D01*
X122637045Y-45637768D01*
X122454552Y-45735313D01*
X122294590Y-45866590D01*
X122163313Y-46026552D01*
X122065768Y-46209045D01*
X122005698Y-46407072D01*
X121985417Y-46612996D01*
X121985417Y-46613003D01*
X121556583Y-46613003D01*
X121556583Y-46612996D01*
X121536301Y-46407072D01*
X121536300Y-46407070D01*
X121536300Y-46407066D01*
X121476232Y-46209046D01*
X121378685Y-46026550D01*
X121247410Y-45866590D01*
X121087450Y-45735315D01*
X121087448Y-45735314D01*
X121087447Y-45735313D01*
X120904954Y-45637768D01*
X120875667Y-45628884D01*
X120706934Y-45577700D01*
X120706933Y-45577699D01*
X120706927Y-45577698D01*
X120501003Y-45557417D01*
X120500997Y-45557417D01*
X120295072Y-45577698D01*
X120097045Y-45637768D01*
X119914552Y-45735313D01*
X119754590Y-45866590D01*
X119623313Y-46026552D01*
X119525768Y-46209045D01*
X119465698Y-46407072D01*
X119445417Y-46612996D01*
X119445417Y-46613003D01*
X119016583Y-46613003D01*
X119016583Y-46612996D01*
X118996301Y-46407072D01*
X118996300Y-46407070D01*
X118996300Y-46407066D01*
X118936232Y-46209046D01*
X118838685Y-46026550D01*
X118707410Y-45866590D01*
X118547450Y-45735315D01*
X118547448Y-45735314D01*
X118547447Y-45735313D01*
X118364954Y-45637768D01*
X118335667Y-45628884D01*
X118166934Y-45577700D01*
X118166933Y-45577699D01*
X118166927Y-45577698D01*
X117961003Y-45557417D01*
X117960997Y-45557417D01*
X117755072Y-45577698D01*
X117557045Y-45637768D01*
X117374552Y-45735313D01*
X117214590Y-45866590D01*
X117083313Y-46026552D01*
X116985768Y-46209045D01*
X116925698Y-46407072D01*
X116905417Y-46612996D01*
X116905417Y-46613003D01*
X116476583Y-46613003D01*
X116476583Y-46612996D01*
X116456301Y-46407072D01*
X116456300Y-46407070D01*
X116456300Y-46407066D01*
X116396232Y-46209046D01*
X116298685Y-46026550D01*
X116167410Y-45866590D01*
X116007450Y-45735315D01*
X116007448Y-45735314D01*
X116007447Y-45735313D01*
X115824954Y-45637768D01*
X115795667Y-45628884D01*
X115626934Y-45577700D01*
X115626933Y-45577699D01*
X115626927Y-45577698D01*
X115421003Y-45557417D01*
X115420997Y-45557417D01*
X115215072Y-45577698D01*
X115017045Y-45637768D01*
X114834552Y-45735313D01*
X114681433Y-45860974D01*
X114616085Y-45888727D01*
X114546107Y-45876745D01*
X114493716Y-45828832D01*
X114475500Y-45763574D01*
X114475500Y-45474182D01*
X133780500Y-45474182D01*
X133793046Y-45557417D01*
X133819604Y-45733619D01*
X133896933Y-45984314D01*
X133896938Y-45984327D01*
X134010773Y-46220706D01*
X134010777Y-46220713D01*
X134158562Y-46437472D01*
X134158567Y-46437479D01*
X134337019Y-46629805D01*
X134542143Y-46793386D01*
X134542146Y-46793388D01*
X134769352Y-46924566D01*
X134769356Y-46924567D01*
X134769357Y-46924568D01*
X135013584Y-47020420D01*
X135269370Y-47078802D01*
X135421409Y-47090195D01*
X135465503Y-47093500D01*
X135465506Y-47093500D01*
X135596497Y-47093500D01*
X135637516Y-47090425D01*
X135792630Y-47078802D01*
X136048416Y-47020420D01*
X136292643Y-46924568D01*
X136292645Y-46924566D01*
X136292647Y-46924566D01*
X136406250Y-46858977D01*
X136519857Y-46793386D01*
X136724981Y-46629805D01*
X136903433Y-46437479D01*
X137051228Y-46220704D01*
X137165063Y-45984323D01*
X137173170Y-45958041D01*
X137242395Y-45733619D01*
X137248108Y-45695716D01*
X137281500Y-45474182D01*
X137281500Y-45211818D01*
X137242396Y-44952385D01*
X137242395Y-44952383D01*
X137242395Y-44952380D01*
X137165066Y-44701685D01*
X137165061Y-44701672D01*
X137092322Y-44550629D01*
X137051228Y-44465296D01*
X137051226Y-44465293D01*
X137051222Y-44465286D01*
X136903437Y-44248527D01*
X136903433Y-44248521D01*
X136724981Y-44056195D01*
X136519857Y-43892614D01*
X136519852Y-43892611D01*
X136519853Y-43892611D01*
X136292647Y-43761433D01*
X136292639Y-43761430D01*
X136048419Y-43665581D01*
X136048417Y-43665580D01*
X135792632Y-43607198D01*
X135596497Y-43592500D01*
X135596494Y-43592500D01*
X135465506Y-43592500D01*
X135465503Y-43592500D01*
X135269367Y-43607198D01*
X135013582Y-43665580D01*
X135013580Y-43665581D01*
X134769360Y-43761430D01*
X134769352Y-43761433D01*
X134542146Y-43892611D01*
X134337018Y-44056195D01*
X134158566Y-44248522D01*
X134158562Y-44248527D01*
X134010777Y-44465286D01*
X134010773Y-44465293D01*
X133896938Y-44701672D01*
X133896933Y-44701685D01*
X133819604Y-44952380D01*
X133800957Y-45076095D01*
X133780500Y-45211818D01*
X133780500Y-45474182D01*
X114475500Y-45474182D01*
X114475500Y-45358959D01*
X114475740Y-45353465D01*
X114475762Y-45353213D01*
X114479264Y-45313193D01*
X114468792Y-45274114D01*
X114467610Y-45268782D01*
X114460588Y-45228955D01*
X114460585Y-45228949D01*
X114458485Y-45223181D01*
X114452144Y-45207870D01*
X114449554Y-45202316D01*
X114426363Y-45169196D01*
X114423409Y-45164558D01*
X114410887Y-45142870D01*
X114403194Y-45129545D01*
X114403193Y-45129544D01*
X114403192Y-45129542D01*
X114372211Y-45103546D01*
X114368157Y-45099831D01*
X113883266Y-44614940D01*
X113849240Y-44552628D01*
X113854305Y-44481813D01*
X113855961Y-44477606D01*
X113856228Y-44476961D01*
X113856232Y-44476954D01*
X113916300Y-44278934D01*
X113919296Y-44248522D01*
X113936583Y-44073003D01*
X114365417Y-44073003D01*
X114385698Y-44278927D01*
X114445768Y-44476954D01*
X114521296Y-44618257D01*
X114543315Y-44659450D01*
X114674590Y-44819410D01*
X114834550Y-44950685D01*
X115017046Y-45048232D01*
X115215066Y-45108300D01*
X115215070Y-45108300D01*
X115215072Y-45108301D01*
X115420997Y-45128583D01*
X115421000Y-45128583D01*
X115421003Y-45128583D01*
X115626927Y-45108301D01*
X115626928Y-45108300D01*
X115626934Y-45108300D01*
X115824954Y-45048232D01*
X116007450Y-44950685D01*
X116167410Y-44819410D01*
X116298685Y-44659450D01*
X116396232Y-44476954D01*
X116456300Y-44278934D01*
X116459296Y-44248522D01*
X116476583Y-44073003D01*
X119445417Y-44073003D01*
X119465698Y-44278927D01*
X119525768Y-44476954D01*
X119601296Y-44618257D01*
X119623315Y-44659450D01*
X119754590Y-44819410D01*
X119914550Y-44950685D01*
X120097046Y-45048232D01*
X120295066Y-45108300D01*
X120295070Y-45108300D01*
X120295072Y-45108301D01*
X120500997Y-45128583D01*
X120501000Y-45128583D01*
X120501003Y-45128583D01*
X120706927Y-45108301D01*
X120706928Y-45108300D01*
X120706934Y-45108300D01*
X120904954Y-45048232D01*
X121087450Y-44950685D01*
X121247410Y-44819410D01*
X121378685Y-44659450D01*
X121476232Y-44476954D01*
X121536300Y-44278934D01*
X121539296Y-44248522D01*
X121556583Y-44073003D01*
X124525417Y-44073003D01*
X124545698Y-44278927D01*
X124605768Y-44476954D01*
X124681296Y-44618257D01*
X124703315Y-44659450D01*
X124834590Y-44819410D01*
X124994550Y-44950685D01*
X125177046Y-45048232D01*
X125375066Y-45108300D01*
X125375070Y-45108300D01*
X125375072Y-45108301D01*
X125580997Y-45128583D01*
X125581000Y-45128583D01*
X125581003Y-45128583D01*
X125786927Y-45108301D01*
X125786928Y-45108300D01*
X125786934Y-45108300D01*
X125984954Y-45048232D01*
X126167450Y-44950685D01*
X126327410Y-44819410D01*
X126458685Y-44659450D01*
X126556232Y-44476954D01*
X126616300Y-44278934D01*
X126619296Y-44248522D01*
X126636583Y-44073003D01*
X127065417Y-44073003D01*
X127085698Y-44278927D01*
X127145768Y-44476954D01*
X127221296Y-44618257D01*
X127243315Y-44659450D01*
X127374590Y-44819410D01*
X127534550Y-44950685D01*
X127717046Y-45048232D01*
X127915066Y-45108300D01*
X127915070Y-45108300D01*
X127915072Y-45108301D01*
X128120997Y-45128583D01*
X128121000Y-45128583D01*
X128121003Y-45128583D01*
X128326927Y-45108301D01*
X128326928Y-45108300D01*
X128326934Y-45108300D01*
X128524954Y-45048232D01*
X128707450Y-44950685D01*
X128867410Y-44819410D01*
X128998685Y-44659450D01*
X129096232Y-44476954D01*
X129156300Y-44278934D01*
X129159296Y-44248522D01*
X129176583Y-44073003D01*
X129605417Y-44073003D01*
X129625698Y-44278927D01*
X129685768Y-44476954D01*
X129761296Y-44618257D01*
X129783315Y-44659450D01*
X129914590Y-44819410D01*
X130074550Y-44950685D01*
X130257046Y-45048232D01*
X130455066Y-45108300D01*
X130455070Y-45108300D01*
X130455072Y-45108301D01*
X130660997Y-45128583D01*
X130661000Y-45128583D01*
X130661003Y-45128583D01*
X130866927Y-45108301D01*
X130866928Y-45108300D01*
X130866934Y-45108300D01*
X131064954Y-45048232D01*
X131247450Y-44950685D01*
X131407410Y-44819410D01*
X131538685Y-44659450D01*
X131636232Y-44476954D01*
X131696300Y-44278934D01*
X131699296Y-44248522D01*
X131716583Y-44073003D01*
X131716583Y-44072996D01*
X131696301Y-43867072D01*
X131696300Y-43867070D01*
X131696300Y-43867066D01*
X131636232Y-43669046D01*
X131538685Y-43486550D01*
X131407410Y-43326590D01*
X131247450Y-43195315D01*
X131247448Y-43195314D01*
X131247447Y-43195313D01*
X131064954Y-43097768D01*
X130918196Y-43053250D01*
X130866934Y-43037700D01*
X130866933Y-43037699D01*
X130866927Y-43037698D01*
X130661003Y-43017417D01*
X130660997Y-43017417D01*
X130455072Y-43037698D01*
X130257045Y-43097768D01*
X130074552Y-43195313D01*
X129914590Y-43326590D01*
X129783313Y-43486552D01*
X129685768Y-43669045D01*
X129625698Y-43867072D01*
X129605417Y-44072996D01*
X129605417Y-44073003D01*
X129176583Y-44073003D01*
X129176583Y-44072996D01*
X129156301Y-43867072D01*
X129156300Y-43867070D01*
X129156300Y-43867066D01*
X129096232Y-43669046D01*
X128998685Y-43486550D01*
X128867410Y-43326590D01*
X128707450Y-43195315D01*
X128707448Y-43195314D01*
X128707447Y-43195313D01*
X128524954Y-43097768D01*
X128378196Y-43053250D01*
X128326934Y-43037700D01*
X128326933Y-43037699D01*
X128326927Y-43037698D01*
X128121003Y-43017417D01*
X128120997Y-43017417D01*
X127915072Y-43037698D01*
X127717045Y-43097768D01*
X127534552Y-43195313D01*
X127374590Y-43326590D01*
X127243313Y-43486552D01*
X127145768Y-43669045D01*
X127085698Y-43867072D01*
X127065417Y-44072996D01*
X127065417Y-44073003D01*
X126636583Y-44073003D01*
X126636583Y-44072996D01*
X126616301Y-43867072D01*
X126616300Y-43867070D01*
X126616300Y-43867066D01*
X126556232Y-43669046D01*
X126458685Y-43486550D01*
X126327410Y-43326590D01*
X126167450Y-43195315D01*
X126167448Y-43195314D01*
X126167447Y-43195313D01*
X125984954Y-43097768D01*
X125838196Y-43053250D01*
X125786934Y-43037700D01*
X125786933Y-43037699D01*
X125786927Y-43037698D01*
X125581003Y-43017417D01*
X125580997Y-43017417D01*
X125375072Y-43037698D01*
X125177045Y-43097768D01*
X124994552Y-43195313D01*
X124834590Y-43326590D01*
X124703313Y-43486552D01*
X124605768Y-43669045D01*
X124545698Y-43867072D01*
X124525417Y-44072996D01*
X124525417Y-44073003D01*
X121556583Y-44073003D01*
X121556583Y-44072996D01*
X121536301Y-43867072D01*
X121536300Y-43867070D01*
X121536300Y-43867066D01*
X121476232Y-43669046D01*
X121378685Y-43486550D01*
X121247410Y-43326590D01*
X121087450Y-43195315D01*
X121087448Y-43195314D01*
X121087447Y-43195313D01*
X120904954Y-43097768D01*
X120758196Y-43053250D01*
X120706934Y-43037700D01*
X120706933Y-43037699D01*
X120706927Y-43037698D01*
X120501003Y-43017417D01*
X120500997Y-43017417D01*
X120295072Y-43037698D01*
X120097045Y-43097768D01*
X119914552Y-43195313D01*
X119754590Y-43326590D01*
X119623313Y-43486552D01*
X119525768Y-43669045D01*
X119465698Y-43867072D01*
X119445417Y-44072996D01*
X119445417Y-44073003D01*
X116476583Y-44073003D01*
X116476583Y-44072996D01*
X116456301Y-43867072D01*
X116456300Y-43867070D01*
X116456300Y-43867066D01*
X116396232Y-43669046D01*
X116298685Y-43486550D01*
X116167410Y-43326590D01*
X116007450Y-43195315D01*
X116007448Y-43195314D01*
X116007447Y-43195313D01*
X115824954Y-43097768D01*
X115678196Y-43053250D01*
X115626934Y-43037700D01*
X115626933Y-43037699D01*
X115626927Y-43037698D01*
X115421003Y-43017417D01*
X115420997Y-43017417D01*
X115215072Y-43037698D01*
X115017045Y-43097768D01*
X114834552Y-43195313D01*
X114674590Y-43326590D01*
X114543313Y-43486552D01*
X114445768Y-43669045D01*
X114385698Y-43867072D01*
X114365417Y-44072996D01*
X114365417Y-44073003D01*
X113936583Y-44073003D01*
X113936583Y-44072996D01*
X113916301Y-43867072D01*
X113916300Y-43867070D01*
X113916300Y-43867066D01*
X113856232Y-43669046D01*
X113758685Y-43486550D01*
X113627410Y-43326590D01*
X113467450Y-43195315D01*
X113467448Y-43195314D01*
X113467447Y-43195313D01*
X113284954Y-43097768D01*
X113138196Y-43053250D01*
X113086934Y-43037700D01*
X113086933Y-43037699D01*
X113086927Y-43037698D01*
X112881003Y-43017417D01*
X112880997Y-43017417D01*
X112675072Y-43037698D01*
X112477045Y-43097768D01*
X112294552Y-43195313D01*
X112134590Y-43326590D01*
X112003313Y-43486552D01*
X111905768Y-43669045D01*
X111845698Y-43867072D01*
X111825417Y-44072996D01*
X111825417Y-44073003D01*
X111845698Y-44278927D01*
X111905768Y-44476954D01*
X111981296Y-44618257D01*
X112003315Y-44659450D01*
X112134590Y-44819410D01*
X112294550Y-44950685D01*
X112477046Y-45048232D01*
X112675066Y-45108300D01*
X112675070Y-45108300D01*
X112675072Y-45108301D01*
X112880997Y-45128583D01*
X112881000Y-45128583D01*
X112881003Y-45128583D01*
X113086927Y-45108301D01*
X113086928Y-45108300D01*
X113086934Y-45108300D01*
X113284954Y-45048232D01*
X113284964Y-45048226D01*
X113285606Y-45047961D01*
X113285980Y-45047920D01*
X113290878Y-45046435D01*
X113291159Y-45047362D01*
X113356194Y-45040359D01*
X113419687Y-45072127D01*
X113422940Y-45075266D01*
X113787595Y-45439921D01*
X113821621Y-45502233D01*
X113824500Y-45529016D01*
X113824500Y-47796234D01*
X113824260Y-47801721D01*
X113823408Y-47811461D01*
X113821064Y-47838258D01*
X113820736Y-47842002D01*
X113824613Y-47856470D01*
X113831203Y-47881067D01*
X113832393Y-47886435D01*
X113839412Y-47926242D01*
X113841505Y-47931991D01*
X113847866Y-47947347D01*
X113850445Y-47952878D01*
X113873634Y-47985995D01*
X113876587Y-47990631D01*
X113896806Y-48025650D01*
X113927787Y-48051646D01*
X113931829Y-48055350D01*
X114545373Y-48668894D01*
X115156557Y-49280078D01*
X115190583Y-49342390D01*
X115185518Y-49413205D01*
X115142971Y-49470041D01*
X115115682Y-49485580D01*
X115090813Y-49495882D01*
X115047160Y-49513963D01*
X115047157Y-49513965D01*
X114921718Y-49610218D01*
X114825465Y-49735657D01*
X114825463Y-49735660D01*
X114764955Y-49881739D01*
X114744318Y-50038499D01*
X114744318Y-50038500D01*
X114764955Y-50195260D01*
X114792216Y-50261073D01*
X114799805Y-50331663D01*
X114768025Y-50395150D01*
X114706967Y-50431377D01*
X114636016Y-50428843D01*
X114586712Y-50398386D01*
X111343266Y-47154940D01*
X111309240Y-47092628D01*
X111314305Y-47021813D01*
X111315961Y-47017606D01*
X111316226Y-47016964D01*
X111316232Y-47016954D01*
X111376300Y-46818934D01*
X111378817Y-46793386D01*
X111396583Y-46613003D01*
X111396583Y-46612996D01*
X111376301Y-46407072D01*
X111376300Y-46407070D01*
X111376300Y-46407066D01*
X111316232Y-46209046D01*
X111218685Y-46026550D01*
X111087410Y-45866590D01*
X110927450Y-45735315D01*
X110927448Y-45735314D01*
X110927447Y-45735313D01*
X110744954Y-45637768D01*
X110715667Y-45628884D01*
X110546934Y-45577700D01*
X110546933Y-45577699D01*
X110546927Y-45577698D01*
X110341003Y-45557417D01*
X110340997Y-45557417D01*
X110135072Y-45577698D01*
X109937045Y-45637768D01*
X109754552Y-45735313D01*
X109606433Y-45856870D01*
X109541085Y-45884623D01*
X109471107Y-45872641D01*
X109418716Y-45824728D01*
X109400500Y-45759470D01*
X109400500Y-45526016D01*
X109420502Y-45457895D01*
X109437399Y-45436926D01*
X109799062Y-45075263D01*
X109861371Y-45041241D01*
X109932186Y-45046305D01*
X109936387Y-45047958D01*
X109937035Y-45048226D01*
X109937046Y-45048232D01*
X110135066Y-45108300D01*
X110135070Y-45108300D01*
X110135072Y-45108301D01*
X110340997Y-45128583D01*
X110341000Y-45128583D01*
X110341003Y-45128583D01*
X110546927Y-45108301D01*
X110546928Y-45108300D01*
X110546934Y-45108300D01*
X110744954Y-45048232D01*
X110927450Y-44950685D01*
X111087410Y-44819410D01*
X111218685Y-44659450D01*
X111316232Y-44476954D01*
X111376300Y-44278934D01*
X111379296Y-44248522D01*
X111396583Y-44073003D01*
X111396583Y-44072996D01*
X111376301Y-43867072D01*
X111376300Y-43867070D01*
X111376300Y-43867066D01*
X111316232Y-43669046D01*
X111218685Y-43486550D01*
X111087410Y-43326590D01*
X110927450Y-43195315D01*
X110927448Y-43195314D01*
X110927447Y-43195313D01*
X110744954Y-43097768D01*
X110598196Y-43053250D01*
X110546934Y-43037700D01*
X110546933Y-43037699D01*
X110546927Y-43037698D01*
X110341003Y-43017417D01*
X110340997Y-43017417D01*
X110135072Y-43037698D01*
X109937045Y-43097768D01*
X109754552Y-43195313D01*
X109594590Y-43326590D01*
X109463313Y-43486552D01*
X109365768Y-43669045D01*
X109305698Y-43867072D01*
X109285417Y-44072996D01*
X109285417Y-44073003D01*
X109305698Y-44278927D01*
X109365767Y-44476951D01*
X109366045Y-44477622D01*
X109366085Y-44478001D01*
X109367565Y-44482878D01*
X109366640Y-44483158D01*
X109373636Y-44548212D01*
X109341858Y-44611700D01*
X109338733Y-44614938D01*
X108856836Y-45096835D01*
X108852785Y-45100549D01*
X108821806Y-45126545D01*
X108821804Y-45126547D01*
X108801589Y-45161558D01*
X108798638Y-45166191D01*
X108775445Y-45199316D01*
X108772873Y-45204832D01*
X108766493Y-45220235D01*
X108764412Y-45225952D01*
X108757392Y-45265761D01*
X108756203Y-45271126D01*
X108745736Y-45310192D01*
X108745736Y-45310194D01*
X108749260Y-45350465D01*
X108749500Y-45355959D01*
X108749500Y-45766036D01*
X108729498Y-45834157D01*
X108675842Y-45880650D01*
X108605568Y-45890754D01*
X108543567Y-45863436D01*
X108449506Y-45786243D01*
X108387450Y-45735315D01*
X108387448Y-45735314D01*
X108387447Y-45735313D01*
X108204954Y-45637768D01*
X108175667Y-45628884D01*
X108006934Y-45577700D01*
X108006933Y-45577699D01*
X108006927Y-45577698D01*
X107801003Y-45557417D01*
X107800997Y-45557417D01*
X107595072Y-45577698D01*
X107397045Y-45637768D01*
X107214552Y-45735313D01*
X107056433Y-45865077D01*
X106991085Y-45892830D01*
X106921107Y-45880848D01*
X106868716Y-45832935D01*
X106850500Y-45767677D01*
X106850500Y-45536016D01*
X106870502Y-45467895D01*
X106887400Y-45446925D01*
X107259060Y-45075264D01*
X107321371Y-45041241D01*
X107392186Y-45046305D01*
X107396387Y-45047958D01*
X107397035Y-45048226D01*
X107397046Y-45048232D01*
X107595066Y-45108300D01*
X107595070Y-45108300D01*
X107595072Y-45108301D01*
X107800997Y-45128583D01*
X107801000Y-45128583D01*
X107801003Y-45128583D01*
X108006927Y-45108301D01*
X108006928Y-45108300D01*
X108006934Y-45108300D01*
X108204954Y-45048232D01*
X108387450Y-44950685D01*
X108547410Y-44819410D01*
X108678685Y-44659450D01*
X108776232Y-44476954D01*
X108836300Y-44278934D01*
X108839296Y-44248522D01*
X108856583Y-44073003D01*
X108856583Y-44072996D01*
X108836301Y-43867072D01*
X108836300Y-43867070D01*
X108836300Y-43867066D01*
X108776232Y-43669046D01*
X108678685Y-43486550D01*
X108547410Y-43326590D01*
X108387450Y-43195315D01*
X108387448Y-43195314D01*
X108387447Y-43195313D01*
X108204954Y-43097768D01*
X108058196Y-43053250D01*
X108006934Y-43037700D01*
X108006933Y-43037699D01*
X108006927Y-43037698D01*
X107801003Y-43017417D01*
X107800997Y-43017417D01*
X107595072Y-43037698D01*
X107397045Y-43097768D01*
X107214552Y-43195313D01*
X107054590Y-43326590D01*
X106923313Y-43486552D01*
X106825768Y-43669045D01*
X106765698Y-43867072D01*
X106745417Y-44072996D01*
X106745417Y-44073003D01*
X106765698Y-44278927D01*
X106825770Y-44476961D01*
X106826050Y-44477637D01*
X106826091Y-44478018D01*
X106827565Y-44482878D01*
X106826643Y-44483157D01*
X106833633Y-44548228D01*
X106801848Y-44611712D01*
X106798732Y-44614940D01*
X106306843Y-45106829D01*
X106302792Y-45110542D01*
X106271806Y-45136544D01*
X106271804Y-45136547D01*
X106251589Y-45171558D01*
X106248638Y-45176191D01*
X106225445Y-45209316D01*
X106222873Y-45214832D01*
X106216493Y-45230235D01*
X106214412Y-45235952D01*
X106207392Y-45275761D01*
X106206203Y-45281126D01*
X106196319Y-45318016D01*
X106195736Y-45320193D01*
X106199135Y-45359043D01*
X106199260Y-45360465D01*
X106199500Y-45365959D01*
X106199500Y-45757829D01*
X106179498Y-45825950D01*
X106125842Y-45872443D01*
X106055568Y-45882547D01*
X105993567Y-45855229D01*
X105886883Y-45767677D01*
X105847450Y-45735315D01*
X105847448Y-45735314D01*
X105847447Y-45735313D01*
X105664954Y-45637768D01*
X105635667Y-45628884D01*
X105466934Y-45577700D01*
X105466933Y-45577699D01*
X105466927Y-45577698D01*
X105261003Y-45557417D01*
X105260997Y-45557417D01*
X105055072Y-45577698D01*
X104857045Y-45637768D01*
X104674552Y-45735313D01*
X104514589Y-45866590D01*
X104473899Y-45916172D01*
X104415222Y-45956140D01*
X104344251Y-45958041D01*
X104283519Y-45921270D01*
X104252307Y-45857502D01*
X104250500Y-45836238D01*
X104250500Y-45293961D01*
X104250740Y-45288469D01*
X104252257Y-45271126D01*
X104254263Y-45248193D01*
X104243796Y-45209131D01*
X104242610Y-45203784D01*
X104235588Y-45163955D01*
X104235585Y-45163949D01*
X104233485Y-45158181D01*
X104227144Y-45142870D01*
X104224554Y-45137316D01*
X104204577Y-45108786D01*
X104201361Y-45104193D01*
X104198409Y-45099558D01*
X104184172Y-45074899D01*
X104178194Y-45064545D01*
X104178193Y-45064544D01*
X104147212Y-45038547D01*
X104143169Y-45034843D01*
X103723266Y-44614940D01*
X103689240Y-44552628D01*
X103694305Y-44481813D01*
X103695961Y-44477606D01*
X103696228Y-44476961D01*
X103696232Y-44476954D01*
X103756300Y-44278934D01*
X103759296Y-44248522D01*
X103776583Y-44073003D01*
X103776583Y-44072996D01*
X103756301Y-43867072D01*
X103756300Y-43867070D01*
X103756300Y-43867066D01*
X103696232Y-43669046D01*
X103598685Y-43486550D01*
X103467410Y-43326590D01*
X103307450Y-43195315D01*
X103307448Y-43195314D01*
X103307447Y-43195313D01*
X103124954Y-43097768D01*
X102978196Y-43053250D01*
X102926934Y-43037700D01*
X102926933Y-43037699D01*
X102926927Y-43037698D01*
X102721003Y-43017417D01*
X102720997Y-43017417D01*
X102515072Y-43037698D01*
X102317045Y-43097768D01*
X102134552Y-43195313D01*
X101974590Y-43326590D01*
X101843313Y-43486552D01*
X101745768Y-43669045D01*
X101685698Y-43867072D01*
X101665417Y-44072996D01*
X101665417Y-44073003D01*
X101685698Y-44278927D01*
X101745768Y-44476954D01*
X101821296Y-44618257D01*
X101843315Y-44659450D01*
X101974590Y-44819410D01*
X102134550Y-44950685D01*
X102317046Y-45048232D01*
X102515066Y-45108300D01*
X102515070Y-45108300D01*
X102515072Y-45108301D01*
X102720997Y-45128583D01*
X102721000Y-45128583D01*
X102721003Y-45128583D01*
X102926927Y-45108301D01*
X102926928Y-45108300D01*
X102926934Y-45108300D01*
X103124954Y-45048232D01*
X103124964Y-45048226D01*
X103125606Y-45047961D01*
X103125980Y-45047920D01*
X103130878Y-45046435D01*
X103131159Y-45047362D01*
X103196194Y-45040359D01*
X103259687Y-45072127D01*
X103262940Y-45075266D01*
X103562595Y-45374921D01*
X103596621Y-45437233D01*
X103599500Y-45464016D01*
X103599500Y-45708589D01*
X103579498Y-45776710D01*
X103525842Y-45823203D01*
X103455568Y-45833307D01*
X103393567Y-45805989D01*
X103369506Y-45786243D01*
X103307450Y-45735315D01*
X103307448Y-45735314D01*
X103307447Y-45735313D01*
X103124954Y-45637768D01*
X103095667Y-45628884D01*
X102926934Y-45577700D01*
X102926933Y-45577699D01*
X102926927Y-45577698D01*
X102721003Y-45557417D01*
X102720997Y-45557417D01*
X102515072Y-45577698D01*
X102317045Y-45637768D01*
X102134552Y-45735313D01*
X101983433Y-45859332D01*
X101918085Y-45887085D01*
X101848107Y-45875103D01*
X101795716Y-45827190D01*
X101777500Y-45761932D01*
X101777500Y-45359043D01*
X101777740Y-45353549D01*
X101781287Y-45313016D01*
X101770747Y-45273686D01*
X101769566Y-45268359D01*
X101762497Y-45228261D01*
X101762496Y-45228259D01*
X101762496Y-45228258D01*
X101760497Y-45222766D01*
X101753884Y-45206797D01*
X101751394Y-45201459D01*
X101751394Y-45201457D01*
X101728055Y-45168126D01*
X101725100Y-45163488D01*
X101704751Y-45128241D01*
X101704749Y-45128239D01*
X101673564Y-45102072D01*
X101669521Y-45098367D01*
X101184094Y-44612940D01*
X101150069Y-44550629D01*
X101154904Y-44483020D01*
X101154435Y-44482878D01*
X101155062Y-44480808D01*
X101155134Y-44479814D01*
X101156138Y-44477262D01*
X101156230Y-44476956D01*
X101156232Y-44476954D01*
X101216300Y-44278934D01*
X101219296Y-44248522D01*
X101236583Y-44073003D01*
X101236583Y-44072996D01*
X101216301Y-43867072D01*
X101216300Y-43867070D01*
X101216300Y-43867066D01*
X101156232Y-43669046D01*
X101058685Y-43486550D01*
X100927410Y-43326590D01*
X100767450Y-43195315D01*
X100767448Y-43195314D01*
X100767447Y-43195313D01*
X100584954Y-43097768D01*
X100438196Y-43053250D01*
X100386934Y-43037700D01*
X100386933Y-43037699D01*
X100386927Y-43037698D01*
X100181003Y-43017417D01*
X100180997Y-43017417D01*
X99975072Y-43037698D01*
X99777045Y-43097768D01*
X99594552Y-43195313D01*
X99434590Y-43326590D01*
X99303313Y-43486552D01*
X99205768Y-43669045D01*
X99145698Y-43867072D01*
X99125417Y-44072996D01*
X99125417Y-44073003D01*
X99145698Y-44278927D01*
X99205768Y-44476954D01*
X99281296Y-44618257D01*
X99303315Y-44659450D01*
X99434590Y-44819410D01*
X99594550Y-44950685D01*
X99777046Y-45048232D01*
X99975066Y-45108300D01*
X99975070Y-45108300D01*
X99975072Y-45108301D01*
X100180997Y-45128583D01*
X100181000Y-45128583D01*
X100181003Y-45128583D01*
X100386927Y-45108301D01*
X100386928Y-45108300D01*
X100386934Y-45108300D01*
X100584954Y-45048232D01*
X100584954Y-45048231D01*
X100590878Y-45046435D01*
X100591338Y-45047954D01*
X100654209Y-45041190D01*
X100717698Y-45072965D01*
X100720941Y-45076095D01*
X101085595Y-45440749D01*
X101119621Y-45503061D01*
X101122500Y-45529844D01*
X101122500Y-45760291D01*
X101102498Y-45828412D01*
X101048842Y-45874905D01*
X100978568Y-45885009D01*
X100916567Y-45857691D01*
X100806883Y-45767677D01*
X100767450Y-45735315D01*
X100767448Y-45735314D01*
X100767447Y-45735313D01*
X100584954Y-45637768D01*
X100555667Y-45628884D01*
X100386934Y-45577700D01*
X100386933Y-45577699D01*
X100386927Y-45577698D01*
X100181003Y-45557417D01*
X100180997Y-45557417D01*
X99975072Y-45577698D01*
X99777045Y-45637768D01*
X99594552Y-45735313D01*
X99434590Y-45866590D01*
X99303313Y-46026552D01*
X99205768Y-46209045D01*
X99145698Y-46407072D01*
X99125417Y-46612996D01*
X99125417Y-46613003D01*
X99145698Y-46818927D01*
X99205768Y-47016954D01*
X99302499Y-47197925D01*
X99303315Y-47199450D01*
X99434590Y-47359410D01*
X99434591Y-47359411D01*
X99434593Y-47359413D01*
X99434596Y-47359416D01*
X99475432Y-47392928D01*
X99515402Y-47451604D01*
X99521500Y-47490328D01*
X99521500Y-47726154D01*
X99501498Y-47794275D01*
X99447842Y-47840768D01*
X99377568Y-47850872D01*
X99312988Y-47821378D01*
X99306405Y-47815250D01*
X98644095Y-47152941D01*
X98610070Y-47090628D01*
X98614904Y-47023020D01*
X98614435Y-47022878D01*
X98615062Y-47020808D01*
X98615134Y-47019813D01*
X98616141Y-47017251D01*
X98616229Y-47016957D01*
X98616232Y-47016954D01*
X98676300Y-46818934D01*
X98678817Y-46793386D01*
X98696583Y-46613003D01*
X98696583Y-46612996D01*
X98676301Y-46407072D01*
X98676300Y-46407070D01*
X98676300Y-46407066D01*
X98616232Y-46209046D01*
X98518685Y-46026550D01*
X98387410Y-45866590D01*
X98227450Y-45735315D01*
X98227448Y-45735314D01*
X98227447Y-45735313D01*
X98044954Y-45637768D01*
X98015667Y-45628884D01*
X97846934Y-45577700D01*
X97846933Y-45577699D01*
X97846927Y-45577698D01*
X97641003Y-45557417D01*
X97640997Y-45557417D01*
X97435072Y-45577698D01*
X97237045Y-45637768D01*
X97054552Y-45735313D01*
X96908433Y-45855229D01*
X96843085Y-45882982D01*
X96773107Y-45871000D01*
X96720716Y-45823087D01*
X96702500Y-45757829D01*
X96702500Y-45364043D01*
X96702740Y-45358549D01*
X96706287Y-45318016D01*
X96695747Y-45278686D01*
X96694566Y-45273359D01*
X96687497Y-45233261D01*
X96687496Y-45233259D01*
X96687496Y-45233258D01*
X96685497Y-45227766D01*
X96678884Y-45211798D01*
X96676394Y-45206458D01*
X96676394Y-45206457D01*
X96653053Y-45173123D01*
X96650098Y-45168485D01*
X96647484Y-45163958D01*
X96641745Y-45154017D01*
X96629751Y-45133241D01*
X96629749Y-45133239D01*
X96606662Y-45113867D01*
X96598569Y-45107076D01*
X96594527Y-45103372D01*
X96104095Y-44612940D01*
X96070069Y-44550628D01*
X96074904Y-44483020D01*
X96074435Y-44482878D01*
X96075062Y-44480808D01*
X96075134Y-44479813D01*
X96076141Y-44477251D01*
X96076229Y-44476957D01*
X96076232Y-44476954D01*
X96136300Y-44278934D01*
X96139296Y-44248522D01*
X96156583Y-44073003D01*
X96156583Y-44072996D01*
X96136301Y-43867072D01*
X96136300Y-43867070D01*
X96136300Y-43867066D01*
X96076232Y-43669046D01*
X95978685Y-43486550D01*
X95847410Y-43326590D01*
X95687450Y-43195315D01*
X95687448Y-43195314D01*
X95687447Y-43195313D01*
X95504954Y-43097768D01*
X95358196Y-43053250D01*
X95306934Y-43037700D01*
X95306933Y-43037699D01*
X95306927Y-43037698D01*
X95101003Y-43017417D01*
X95100997Y-43017417D01*
X94895072Y-43037698D01*
X94697045Y-43097768D01*
X94514552Y-43195313D01*
X94354590Y-43326590D01*
X94223313Y-43486552D01*
X94125768Y-43669045D01*
X94065698Y-43867072D01*
X94045417Y-44072996D01*
X94045417Y-44073003D01*
X94065698Y-44278927D01*
X94125768Y-44476954D01*
X94201296Y-44618257D01*
X94223315Y-44659450D01*
X94354590Y-44819410D01*
X94514550Y-44950685D01*
X94697046Y-45048232D01*
X94895066Y-45108300D01*
X94895070Y-45108300D01*
X94895072Y-45108301D01*
X95100997Y-45128583D01*
X95101000Y-45128583D01*
X95101003Y-45128583D01*
X95306927Y-45108301D01*
X95306928Y-45108300D01*
X95306934Y-45108300D01*
X95504954Y-45048232D01*
X95504954Y-45048231D01*
X95510878Y-45046435D01*
X95511339Y-45047958D01*
X95574187Y-45041187D01*
X95637681Y-45072951D01*
X95640939Y-45076094D01*
X96010595Y-45445749D01*
X96044620Y-45508062D01*
X96047500Y-45534845D01*
X96047500Y-45764394D01*
X96027498Y-45832515D01*
X95973842Y-45879008D01*
X95903568Y-45889112D01*
X95841567Y-45861794D01*
X95726883Y-45767677D01*
X95687450Y-45735315D01*
X95687448Y-45735314D01*
X95687447Y-45735313D01*
X95504954Y-45637768D01*
X95475667Y-45628884D01*
X95306934Y-45577700D01*
X95306933Y-45577699D01*
X95306927Y-45577698D01*
X95101003Y-45557417D01*
X95100997Y-45557417D01*
X94895072Y-45577698D01*
X94697045Y-45637768D01*
X94514552Y-45735313D01*
X94354588Y-45866591D01*
X94323398Y-45904596D01*
X94264721Y-45944564D01*
X94193749Y-45946464D01*
X94133018Y-45909692D01*
X94116884Y-45887666D01*
X94113479Y-45881769D01*
X94103871Y-45858573D01*
X94101395Y-45853263D01*
X94078043Y-45819915D01*
X94075096Y-45815288D01*
X94054750Y-45780046D01*
X94038053Y-45766036D01*
X94023576Y-45753888D01*
X94019522Y-45750173D01*
X93374830Y-45105482D01*
X93371115Y-45101428D01*
X93344954Y-45070250D01*
X93309706Y-45049899D01*
X93305070Y-45046946D01*
X93292764Y-45038329D01*
X93248435Y-44982871D01*
X93241127Y-44912252D01*
X93273158Y-44848892D01*
X93285095Y-44837723D01*
X93307410Y-44819410D01*
X93438685Y-44659450D01*
X93536232Y-44476954D01*
X93596300Y-44278934D01*
X93599296Y-44248522D01*
X93616583Y-44073003D01*
X93616583Y-44072996D01*
X93596301Y-43867072D01*
X93596300Y-43867070D01*
X93596300Y-43867066D01*
X93536232Y-43669046D01*
X93438685Y-43486550D01*
X93307410Y-43326590D01*
X93147450Y-43195315D01*
X93147448Y-43195314D01*
X93147447Y-43195313D01*
X92964954Y-43097768D01*
X92818196Y-43053250D01*
X92766934Y-43037700D01*
X92766933Y-43037699D01*
X92766927Y-43037698D01*
X92561003Y-43017417D01*
X92560997Y-43017417D01*
X92355072Y-43037698D01*
X92157045Y-43097768D01*
X91974552Y-43195313D01*
X91814590Y-43326590D01*
X91683313Y-43486552D01*
X91585768Y-43669045D01*
X91525698Y-43867072D01*
X91505417Y-44072996D01*
X91505417Y-44073003D01*
X91525698Y-44278927D01*
X91585768Y-44476954D01*
X91661296Y-44618257D01*
X91683315Y-44659450D01*
X91717970Y-44701677D01*
X91791740Y-44791567D01*
X91819493Y-44856915D01*
X91807511Y-44926893D01*
X91759598Y-44979284D01*
X91694340Y-44997500D01*
X91460845Y-44997500D01*
X91392724Y-44977498D01*
X91371750Y-44960595D01*
X91024095Y-44612940D01*
X90990069Y-44550628D01*
X90994904Y-44483020D01*
X90994435Y-44482878D01*
X90995062Y-44480808D01*
X90995134Y-44479813D01*
X90996141Y-44477251D01*
X90996229Y-44476957D01*
X90996232Y-44476954D01*
X91056300Y-44278934D01*
X91059296Y-44248522D01*
X91076583Y-44073003D01*
X91076583Y-44072996D01*
X91056301Y-43867072D01*
X91056300Y-43867070D01*
X91056300Y-43867066D01*
X90996232Y-43669046D01*
X90898685Y-43486550D01*
X90767410Y-43326590D01*
X90607450Y-43195315D01*
X90607448Y-43195314D01*
X90607447Y-43195313D01*
X90424954Y-43097768D01*
X90278196Y-43053250D01*
X90226934Y-43037700D01*
X90226933Y-43037699D01*
X90226927Y-43037698D01*
X90021003Y-43017417D01*
X90020997Y-43017417D01*
X89815072Y-43037698D01*
X89617045Y-43097768D01*
X89434552Y-43195313D01*
X89274590Y-43326590D01*
X89143313Y-43486552D01*
X89045768Y-43669045D01*
X88985698Y-43867072D01*
X88965417Y-44072996D01*
X88965417Y-44073003D01*
X88985698Y-44278927D01*
X89045768Y-44476954D01*
X89121296Y-44618257D01*
X89143315Y-44659450D01*
X89274590Y-44819410D01*
X89434550Y-44950685D01*
X89617046Y-45048232D01*
X89815066Y-45108300D01*
X89815070Y-45108300D01*
X89815072Y-45108301D01*
X90020997Y-45128583D01*
X90021000Y-45128583D01*
X90021003Y-45128583D01*
X90226927Y-45108301D01*
X90226928Y-45108300D01*
X90226934Y-45108300D01*
X90424954Y-45048232D01*
X90424954Y-45048231D01*
X90430878Y-45046435D01*
X90431339Y-45047955D01*
X90494198Y-45041189D01*
X90557690Y-45072958D01*
X90560939Y-45076094D01*
X91029372Y-45544527D01*
X91033077Y-45548570D01*
X91059239Y-45579749D01*
X91059241Y-45579751D01*
X91094485Y-45600098D01*
X91099123Y-45603053D01*
X91132457Y-45626394D01*
X91132459Y-45626394D01*
X91137798Y-45628884D01*
X91153766Y-45635497D01*
X91159258Y-45637496D01*
X91159259Y-45637496D01*
X91159261Y-45637497D01*
X91199361Y-45644567D01*
X91204694Y-45645749D01*
X91244015Y-45656286D01*
X91274183Y-45653646D01*
X91284554Y-45652740D01*
X91290046Y-45652500D01*
X92943350Y-45652500D01*
X93011471Y-45672502D01*
X93032445Y-45689405D01*
X93435595Y-46092555D01*
X93469621Y-46154867D01*
X93472500Y-46181650D01*
X93472500Y-47282955D01*
X93472260Y-47288442D01*
X93470750Y-47305701D01*
X93468745Y-47328623D01*
X93468713Y-47328984D01*
X93470535Y-47335782D01*
X93479245Y-47368291D01*
X93480435Y-47373658D01*
X93487502Y-47413736D01*
X93489500Y-47419226D01*
X93496143Y-47435263D01*
X93498604Y-47440541D01*
X93521946Y-47473876D01*
X93524899Y-47478512D01*
X93545250Y-47513760D01*
X93572836Y-47536907D01*
X93576428Y-47539921D01*
X93580481Y-47543636D01*
X94256367Y-48219522D01*
X94260082Y-48223576D01*
X94286239Y-48254749D01*
X94286241Y-48254751D01*
X94321485Y-48275098D01*
X94326123Y-48278053D01*
X94359457Y-48301394D01*
X94359459Y-48301394D01*
X94364798Y-48303884D01*
X94380766Y-48310497D01*
X94386258Y-48312496D01*
X94386259Y-48312496D01*
X94386261Y-48312497D01*
X94426361Y-48319567D01*
X94431694Y-48320749D01*
X94471015Y-48331286D01*
X94501183Y-48328646D01*
X94511554Y-48327740D01*
X94517046Y-48327500D01*
X95065244Y-48327500D01*
X95133365Y-48347502D01*
X95179858Y-48401158D01*
X95189962Y-48471432D01*
X95165207Y-48530202D01*
X95122036Y-48586465D01*
X95075465Y-48647157D01*
X95075463Y-48647160D01*
X95014955Y-48793239D01*
X94994318Y-48949999D01*
X94994318Y-48950000D01*
X95014955Y-49106760D01*
X95070225Y-49240192D01*
X95075464Y-49252841D01*
X95171718Y-49378282D01*
X95297159Y-49474536D01*
X95443238Y-49535044D01*
X95600000Y-49555682D01*
X95756762Y-49535044D01*
X95902841Y-49474536D01*
X95975614Y-49418695D01*
X96041830Y-49393096D01*
X96111379Y-49407360D01*
X96141410Y-49429564D01*
X97214595Y-50502749D01*
X97248621Y-50565061D01*
X97251500Y-50591844D01*
X97251500Y-51979147D01*
X97231498Y-52047268D01*
X97177842Y-52093761D01*
X97107568Y-52103865D01*
X97045566Y-52076546D01*
X96908538Y-51964090D01*
X96734728Y-51871186D01*
X96546125Y-51813974D01*
X96350003Y-51794659D01*
X96349997Y-51794659D01*
X96153875Y-51813974D01*
X96153873Y-51813974D01*
X95975446Y-51868100D01*
X95904452Y-51868733D01*
X95849775Y-51836620D01*
X91057518Y-47044364D01*
X91023492Y-46982052D01*
X91026038Y-46918694D01*
X91031500Y-46900689D01*
X91056300Y-46818934D01*
X91058817Y-46793386D01*
X91076583Y-46613003D01*
X91076583Y-46612996D01*
X91056301Y-46407072D01*
X91056300Y-46407070D01*
X91056300Y-46407066D01*
X90996232Y-46209046D01*
X90898685Y-46026550D01*
X90767410Y-45866590D01*
X90607450Y-45735315D01*
X90607448Y-45735314D01*
X90607447Y-45735313D01*
X90424954Y-45637768D01*
X90395667Y-45628884D01*
X90226934Y-45577700D01*
X90226933Y-45577699D01*
X90226927Y-45577698D01*
X90021003Y-45557417D01*
X90020997Y-45557417D01*
X89815072Y-45577698D01*
X89617045Y-45637768D01*
X89434552Y-45735313D01*
X89274590Y-45866590D01*
X89143313Y-46026552D01*
X89045768Y-46209045D01*
X88985698Y-46407072D01*
X88965417Y-46612996D01*
X88965417Y-46613003D01*
X88985698Y-46818927D01*
X89045768Y-47016954D01*
X89142499Y-47197925D01*
X89143315Y-47199450D01*
X89274590Y-47359410D01*
X89434550Y-47490685D01*
X89617046Y-47588232D01*
X89815066Y-47648300D01*
X89815070Y-47648300D01*
X89815072Y-47648301D01*
X90020997Y-47668583D01*
X90021000Y-47668583D01*
X90021003Y-47668583D01*
X90226927Y-47648301D01*
X90226928Y-47648300D01*
X90226934Y-47648300D01*
X90424954Y-47588232D01*
X90505538Y-47545157D01*
X90575043Y-47530685D01*
X90641339Y-47556087D01*
X90654029Y-47567183D01*
X93043053Y-49956208D01*
X95386620Y-52299775D01*
X95420646Y-52362087D01*
X95418100Y-52425446D01*
X95363974Y-52603873D01*
X95363974Y-52603875D01*
X95344659Y-52799996D01*
X95344659Y-52800003D01*
X95363974Y-52996124D01*
X95363974Y-52996126D01*
X95421186Y-53184728D01*
X95488570Y-53310793D01*
X95514090Y-53358538D01*
X95639117Y-53510883D01*
X95791462Y-53635910D01*
X95965273Y-53728814D01*
X96153868Y-53786024D01*
X96153872Y-53786024D01*
X96153874Y-53786025D01*
X96349997Y-53805341D01*
X96350000Y-53805341D01*
X96350003Y-53805341D01*
X96546124Y-53786025D01*
X96546126Y-53786025D01*
X96546127Y-53786024D01*
X96546132Y-53786024D01*
X96734727Y-53728814D01*
X96908538Y-53635910D01*
X97045567Y-53523452D01*
X97110913Y-53495699D01*
X97180891Y-53507680D01*
X97233283Y-53555593D01*
X97251500Y-53620852D01*
X97251500Y-97091644D01*
X97231498Y-97159765D01*
X97214596Y-97180739D01*
X96346741Y-98048595D01*
X96284428Y-98082620D01*
X96257645Y-98085500D01*
X86314046Y-98085500D01*
X86308553Y-98085260D01*
X86268015Y-98081714D01*
X86268010Y-98081714D01*
X86228706Y-98092246D01*
X86223341Y-98093435D01*
X86183263Y-98100502D01*
X86177794Y-98102492D01*
X86161741Y-98109142D01*
X86156452Y-98111608D01*
X86123126Y-98134943D01*
X86118491Y-98137896D01*
X86083243Y-98158247D01*
X86083239Y-98158250D01*
X86057070Y-98189435D01*
X86053358Y-98193486D01*
X84150224Y-100096620D01*
X84087912Y-100130645D01*
X84024554Y-100128100D01*
X83846132Y-100073976D01*
X83846131Y-100073975D01*
X83846125Y-100073974D01*
X83650003Y-100054659D01*
X83649997Y-100054659D01*
X83453875Y-100073974D01*
X83453873Y-100073974D01*
X83265271Y-100131186D01*
X83091461Y-100224090D01*
X82939117Y-100349117D01*
X82814090Y-100501461D01*
X82721186Y-100675271D01*
X82663974Y-100863873D01*
X82663974Y-100863875D01*
X82644659Y-101059996D01*
X82644659Y-101060003D01*
X45837300Y-101060003D01*
X45837300Y-96265475D01*
X68746748Y-96265475D01*
X68756749Y-96526396D01*
X68806460Y-96782720D01*
X68806461Y-96782723D01*
X68806462Y-96782727D01*
X68894721Y-97028468D01*
X68894723Y-97028473D01*
X68894725Y-97028476D01*
X69019458Y-97257856D01*
X69177746Y-97465511D01*
X69177750Y-97465516D01*
X69361403Y-97642264D01*
X69365884Y-97646576D01*
X69365891Y-97646582D01*
X69478495Y-97725785D01*
X69579456Y-97796799D01*
X69813453Y-97912659D01*
X70062395Y-97991441D01*
X70109091Y-97998653D01*
X70320434Y-98031299D01*
X70320443Y-98031299D01*
X70320445Y-98031300D01*
X70320446Y-98031300D01*
X72616176Y-98031300D01*
X72616177Y-98031300D01*
X72655013Y-98028318D01*
X72811335Y-98016317D01*
X72811336Y-98016316D01*
X72811344Y-98016316D01*
X73065586Y-97956821D01*
X73307766Y-97859214D01*
X73532208Y-97725782D01*
X73733652Y-97559652D01*
X73907375Y-97364720D01*
X74049306Y-97145553D01*
X74156118Y-96907289D01*
X74225307Y-96655513D01*
X74255252Y-96396125D01*
X74245251Y-96135207D01*
X74195538Y-95878873D01*
X74107279Y-95633132D01*
X73982541Y-95403743D01*
X73824250Y-95196084D01*
X73636114Y-95015022D01*
X73636113Y-95015021D01*
X73636108Y-95015017D01*
X73422550Y-94864805D01*
X73422543Y-94864800D01*
X73188545Y-94748940D01*
X72939603Y-94670158D01*
X72681565Y-94630300D01*
X72681555Y-94630300D01*
X70385823Y-94630300D01*
X70375579Y-94631086D01*
X70190664Y-94645282D01*
X70124265Y-94660819D01*
X69936414Y-94704779D01*
X69936411Y-94704779D01*
X69936407Y-94704781D01*
X69694239Y-94802383D01*
X69694229Y-94802388D01*
X69469797Y-94935814D01*
X69469790Y-94935819D01*
X69268354Y-95101941D01*
X69268348Y-95101947D01*
X69094623Y-95296882D01*
X69094621Y-95296885D01*
X68952693Y-95516047D01*
X68952691Y-95516050D01*
X68845883Y-95754307D01*
X68776694Y-96006081D01*
X68776692Y-96006088D01*
X68746748Y-96265473D01*
X68746748Y-96265475D01*
X45837300Y-96265475D01*
X45837300Y-94474182D01*
X75780500Y-94474182D01*
X75802224Y-94618311D01*
X75819604Y-94733619D01*
X75896933Y-94984314D01*
X75896938Y-94984327D01*
X76010773Y-95220706D01*
X76010777Y-95220713D01*
X76062709Y-95296882D01*
X76158567Y-95437479D01*
X76337019Y-95629805D01*
X76542143Y-95793386D01*
X76542146Y-95793388D01*
X76769352Y-95924566D01*
X76769356Y-95924567D01*
X76769357Y-95924568D01*
X77013584Y-96020420D01*
X77269370Y-96078802D01*
X77421409Y-96090195D01*
X77465503Y-96093500D01*
X77465506Y-96093500D01*
X77596497Y-96093500D01*
X77637516Y-96090425D01*
X77792630Y-96078802D01*
X78048416Y-96020420D01*
X78292643Y-95924568D01*
X78292645Y-95924566D01*
X78292647Y-95924566D01*
X78406250Y-95858977D01*
X78519857Y-95793386D01*
X78724981Y-95629805D01*
X78903433Y-95437479D01*
X79051228Y-95220704D01*
X79165063Y-94984323D01*
X79165066Y-94984314D01*
X79242395Y-94733619D01*
X79246742Y-94704779D01*
X79281500Y-94474182D01*
X79281500Y-94211818D01*
X79242396Y-93952385D01*
X79242395Y-93952383D01*
X79242395Y-93952380D01*
X79165066Y-93701685D01*
X79165061Y-93701672D01*
X79116854Y-93601570D01*
X79051228Y-93465296D01*
X79051226Y-93465293D01*
X79051222Y-93465286D01*
X78903437Y-93248527D01*
X78903433Y-93248521D01*
X78724981Y-93056195D01*
X78519857Y-92892614D01*
X78519852Y-92892611D01*
X78519853Y-92892611D01*
X78292647Y-92761433D01*
X78292639Y-92761430D01*
X78048419Y-92665581D01*
X78048417Y-92665580D01*
X77792632Y-92607198D01*
X77596497Y-92592500D01*
X77596494Y-92592500D01*
X77465506Y-92592500D01*
X77465503Y-92592500D01*
X77269367Y-92607198D01*
X77013582Y-92665580D01*
X77013580Y-92665581D01*
X76769360Y-92761430D01*
X76769352Y-92761433D01*
X76542146Y-92892611D01*
X76337018Y-93056195D01*
X76158566Y-93248522D01*
X76158562Y-93248527D01*
X76010777Y-93465286D01*
X76010773Y-93465293D01*
X75896938Y-93701672D01*
X75896933Y-93701685D01*
X75819604Y-93952380D01*
X75797879Y-94096514D01*
X75780500Y-94211818D01*
X75780500Y-94474182D01*
X45837300Y-94474182D01*
X45837300Y-47832358D01*
X45857302Y-47764237D01*
X45910958Y-47717744D01*
X45981232Y-47707640D01*
X46045812Y-47737134D01*
X46084196Y-47796860D01*
X46084591Y-47798232D01*
X46106112Y-47874725D01*
X46251016Y-48243935D01*
X46251019Y-48243941D01*
X46251021Y-48243946D01*
X46431971Y-48596903D01*
X46647166Y-48930089D01*
X46683106Y-48975156D01*
X46848622Y-49182708D01*
X46894466Y-49240194D01*
X47171413Y-49524134D01*
X47475256Y-49779088D01*
X47802974Y-50002522D01*
X47869039Y-50038499D01*
X48100315Y-50164446D01*
X48151310Y-50192216D01*
X48344891Y-50273817D01*
X48516801Y-50346283D01*
X48516805Y-50346285D01*
X48616408Y-50377008D01*
X48895820Y-50463195D01*
X49284594Y-50541788D01*
X49679261Y-50581280D01*
X49679266Y-50581280D01*
X49976688Y-50581280D01*
X50273715Y-50566456D01*
X50273719Y-50566455D01*
X50273725Y-50566455D01*
X50665933Y-50507339D01*
X51050306Y-50409466D01*
X51264222Y-50331607D01*
X51423001Y-50273817D01*
X51423007Y-50273814D01*
X51423025Y-50273808D01*
X51780383Y-50101713D01*
X52118831Y-49894892D01*
X52435004Y-49655400D01*
X52725761Y-49385617D01*
X52988211Y-49088225D01*
X53219746Y-48766180D01*
X53418065Y-48422681D01*
X53581197Y-48061143D01*
X53643738Y-47875000D01*
X73394318Y-47875000D01*
X73414955Y-48031760D01*
X73474899Y-48176476D01*
X73475464Y-48177841D01*
X73571718Y-48303282D01*
X73697159Y-48399536D01*
X73843238Y-48460044D01*
X74000000Y-48480682D01*
X74156762Y-48460044D01*
X74302841Y-48399536D01*
X74428282Y-48303282D01*
X74447641Y-48278053D01*
X74448606Y-48276796D01*
X74505944Y-48234929D01*
X74548568Y-48227500D01*
X81096956Y-48227500D01*
X81102441Y-48227739D01*
X81142984Y-48231287D01*
X81182303Y-48220750D01*
X81187649Y-48219565D01*
X81227739Y-48212497D01*
X81227742Y-48212495D01*
X81233265Y-48210485D01*
X81249218Y-48203877D01*
X81254540Y-48201395D01*
X81254540Y-48201394D01*
X81254543Y-48201394D01*
X81287886Y-48178045D01*
X81292492Y-48175111D01*
X81327760Y-48154750D01*
X81353933Y-48123555D01*
X81357615Y-48119537D01*
X81861060Y-47616092D01*
X81923370Y-47582068D01*
X81990979Y-47586903D01*
X81991122Y-47586435D01*
X81993187Y-47587061D01*
X81994185Y-47587133D01*
X81996744Y-47588140D01*
X81997044Y-47588231D01*
X81997046Y-47588232D01*
X82195066Y-47648300D01*
X82195070Y-47648300D01*
X82195072Y-47648301D01*
X82400997Y-47668583D01*
X82401000Y-47668583D01*
X82401003Y-47668583D01*
X82606927Y-47648301D01*
X82606928Y-47648300D01*
X82606934Y-47648300D01*
X82804954Y-47588232D01*
X82987450Y-47490685D01*
X83141567Y-47364204D01*
X83206914Y-47336452D01*
X83276893Y-47348434D01*
X83329284Y-47396347D01*
X83347500Y-47461605D01*
X83347500Y-51752936D01*
X83327498Y-51821057D01*
X83273842Y-51867550D01*
X83269717Y-51869345D01*
X83265274Y-51871185D01*
X83091461Y-51964090D01*
X82939117Y-52089117D01*
X82814090Y-52241461D01*
X82721186Y-52415271D01*
X82663974Y-52603873D01*
X82663974Y-52603875D01*
X82644659Y-52799996D01*
X82644659Y-52800003D01*
X82663974Y-52996124D01*
X82663974Y-52996126D01*
X82721186Y-53184728D01*
X82788570Y-53310793D01*
X82814090Y-53358538D01*
X82939117Y-53510883D01*
X83091462Y-53635910D01*
X83265273Y-53728814D01*
X83453868Y-53786024D01*
X83453872Y-53786024D01*
X83453874Y-53786025D01*
X83649997Y-53805341D01*
X83650000Y-53805341D01*
X83650003Y-53805341D01*
X83846124Y-53786025D01*
X83846126Y-53786025D01*
X83846127Y-53786024D01*
X83846132Y-53786024D01*
X84034727Y-53728814D01*
X84208538Y-53635910D01*
X84360883Y-53510883D01*
X84485910Y-53358538D01*
X84578814Y-53184727D01*
X84636024Y-52996132D01*
X84655341Y-52800000D01*
X84636025Y-52603875D01*
X84636025Y-52603873D01*
X84636024Y-52603870D01*
X84636024Y-52603868D01*
X84578814Y-52415273D01*
X84485910Y-52241462D01*
X84360883Y-52089117D01*
X84275368Y-52018936D01*
X84208540Y-51964091D01*
X84069103Y-51889560D01*
X84018455Y-51839807D01*
X84002500Y-51778438D01*
X84002500Y-47468170D01*
X84022502Y-47400049D01*
X84076158Y-47353556D01*
X84146432Y-47343452D01*
X84208431Y-47370769D01*
X84354550Y-47490685D01*
X84537046Y-47588232D01*
X84735066Y-47648300D01*
X84735070Y-47648300D01*
X84735072Y-47648301D01*
X84940997Y-47668583D01*
X84941000Y-47668583D01*
X84941003Y-47668583D01*
X85146927Y-47648301D01*
X85146928Y-47648300D01*
X85146934Y-47648300D01*
X85344954Y-47588232D01*
X85344954Y-47588231D01*
X85350878Y-47586435D01*
X85351339Y-47587958D01*
X85414187Y-47581187D01*
X85477681Y-47612951D01*
X85480939Y-47616094D01*
X85915595Y-48050749D01*
X85949620Y-48113062D01*
X85952500Y-48139845D01*
X85952500Y-51733077D01*
X85932498Y-51801198D01*
X85878842Y-51847691D01*
X85863077Y-51853651D01*
X85805271Y-51871186D01*
X85631461Y-51964090D01*
X85479117Y-52089117D01*
X85354090Y-52241461D01*
X85261186Y-52415271D01*
X85203974Y-52603873D01*
X85203974Y-52603875D01*
X85184659Y-52799996D01*
X85184659Y-52800003D01*
X85203974Y-52996124D01*
X85203974Y-52996126D01*
X85261186Y-53184728D01*
X85328570Y-53310793D01*
X85354090Y-53358538D01*
X85479117Y-53510883D01*
X85631462Y-53635910D01*
X85805273Y-53728814D01*
X85993868Y-53786024D01*
X85993872Y-53786024D01*
X85993874Y-53786025D01*
X86189997Y-53805341D01*
X86190000Y-53805341D01*
X86190003Y-53805341D01*
X86386124Y-53786025D01*
X86386126Y-53786025D01*
X86386127Y-53786024D01*
X86386132Y-53786024D01*
X86574727Y-53728814D01*
X86748538Y-53635910D01*
X86900883Y-53510883D01*
X87025910Y-53358538D01*
X87118814Y-53184727D01*
X87176024Y-52996132D01*
X87195341Y-52800003D01*
X87724659Y-52800003D01*
X87743974Y-52996124D01*
X87743974Y-52996126D01*
X87801186Y-53184728D01*
X87868570Y-53310793D01*
X87894090Y-53358538D01*
X88019117Y-53510883D01*
X88171462Y-53635910D01*
X88345273Y-53728814D01*
X88533868Y-53786024D01*
X88533872Y-53786024D01*
X88533874Y-53786025D01*
X88729997Y-53805341D01*
X88730000Y-53805341D01*
X88730003Y-53805341D01*
X88926124Y-53786025D01*
X88926126Y-53786025D01*
X88926127Y-53786024D01*
X88926132Y-53786024D01*
X89114727Y-53728814D01*
X89288538Y-53635910D01*
X89440883Y-53510883D01*
X89565910Y-53358538D01*
X89658814Y-53184727D01*
X89716024Y-52996132D01*
X89735341Y-52800003D01*
X90264659Y-52800003D01*
X90283974Y-52996124D01*
X90283974Y-52996126D01*
X90341186Y-53184728D01*
X90408570Y-53310793D01*
X90434090Y-53358538D01*
X90559117Y-53510883D01*
X90711462Y-53635910D01*
X90885273Y-53728814D01*
X91073868Y-53786024D01*
X91073872Y-53786024D01*
X91073874Y-53786025D01*
X91269997Y-53805341D01*
X91270000Y-53805341D01*
X91270003Y-53805341D01*
X91466124Y-53786025D01*
X91466126Y-53786025D01*
X91466127Y-53786024D01*
X91466132Y-53786024D01*
X91654727Y-53728814D01*
X91828538Y-53635910D01*
X91980883Y-53510883D01*
X92105910Y-53358538D01*
X92198814Y-53184727D01*
X92256024Y-52996132D01*
X92275341Y-52800003D01*
X92804659Y-52800003D01*
X92823974Y-52996124D01*
X92823974Y-52996126D01*
X92881186Y-53184728D01*
X92948570Y-53310793D01*
X92974090Y-53358538D01*
X93099117Y-53510883D01*
X93251462Y-53635910D01*
X93425273Y-53728814D01*
X93613868Y-53786024D01*
X93613872Y-53786024D01*
X93613874Y-53786025D01*
X93809997Y-53805341D01*
X93810000Y-53805341D01*
X93810003Y-53805341D01*
X94006124Y-53786025D01*
X94006126Y-53786025D01*
X94006127Y-53786024D01*
X94006132Y-53786024D01*
X94194727Y-53728814D01*
X94368538Y-53635910D01*
X94520883Y-53510883D01*
X94645910Y-53358538D01*
X94738814Y-53184727D01*
X94796024Y-52996132D01*
X94815341Y-52800000D01*
X94796025Y-52603875D01*
X94796025Y-52603873D01*
X94796024Y-52603870D01*
X94796024Y-52603868D01*
X94738814Y-52415273D01*
X94645910Y-52241462D01*
X94520883Y-52089117D01*
X94368538Y-51964090D01*
X94289365Y-51921771D01*
X94194728Y-51871186D01*
X94006125Y-51813974D01*
X93810003Y-51794659D01*
X93809997Y-51794659D01*
X93613875Y-51813974D01*
X93613873Y-51813974D01*
X93425271Y-51871186D01*
X93251461Y-51964090D01*
X93099117Y-52089117D01*
X92974090Y-52241461D01*
X92881186Y-52415271D01*
X92823974Y-52603873D01*
X92823974Y-52603875D01*
X92804659Y-52799996D01*
X92804659Y-52800003D01*
X92275341Y-52800003D01*
X92275341Y-52800000D01*
X92256025Y-52603875D01*
X92256025Y-52603873D01*
X92256024Y-52603870D01*
X92256024Y-52603868D01*
X92198814Y-52415273D01*
X92105910Y-52241462D01*
X91980883Y-52089117D01*
X91828538Y-51964090D01*
X91749365Y-51921771D01*
X91654728Y-51871186D01*
X91466125Y-51813974D01*
X91270003Y-51794659D01*
X91269997Y-51794659D01*
X91073875Y-51813974D01*
X91073873Y-51813974D01*
X90885271Y-51871186D01*
X90711461Y-51964090D01*
X90559117Y-52089117D01*
X90434090Y-52241461D01*
X90341186Y-52415271D01*
X90283974Y-52603873D01*
X90283974Y-52603875D01*
X90264659Y-52799996D01*
X90264659Y-52800003D01*
X89735341Y-52800003D01*
X89735341Y-52800000D01*
X89716025Y-52603875D01*
X89716025Y-52603873D01*
X89716024Y-52603870D01*
X89716024Y-52603868D01*
X89658814Y-52415273D01*
X89565910Y-52241462D01*
X89440883Y-52089117D01*
X89288538Y-51964090D01*
X89209365Y-51921771D01*
X89114728Y-51871186D01*
X88926125Y-51813974D01*
X88730003Y-51794659D01*
X88729997Y-51794659D01*
X88533875Y-51813974D01*
X88533873Y-51813974D01*
X88345271Y-51871186D01*
X88171461Y-51964090D01*
X88019117Y-52089117D01*
X87894090Y-52241461D01*
X87801186Y-52415271D01*
X87743974Y-52603873D01*
X87743974Y-52603875D01*
X87724659Y-52799996D01*
X87724659Y-52800003D01*
X87195341Y-52800003D01*
X87195341Y-52800000D01*
X87176025Y-52603875D01*
X87176025Y-52603873D01*
X87176024Y-52603870D01*
X87176024Y-52603868D01*
X87118814Y-52415273D01*
X87025910Y-52241462D01*
X86900883Y-52089117D01*
X86768233Y-51980253D01*
X86748536Y-51964088D01*
X86674103Y-51924302D01*
X86623455Y-51874550D01*
X86607500Y-51813181D01*
X86607500Y-47969043D01*
X86607740Y-47963549D01*
X86611287Y-47923016D01*
X86600747Y-47883686D01*
X86599566Y-47878359D01*
X86592497Y-47838261D01*
X86592496Y-47838259D01*
X86592496Y-47838258D01*
X86590498Y-47832769D01*
X86583874Y-47816775D01*
X86581396Y-47811461D01*
X86581394Y-47811458D01*
X86581394Y-47811457D01*
X86558040Y-47778104D01*
X86555101Y-47773489D01*
X86534750Y-47738240D01*
X86520346Y-47726154D01*
X86503570Y-47712077D01*
X86499527Y-47708372D01*
X85944094Y-47152939D01*
X85910069Y-47090628D01*
X85914904Y-47023020D01*
X85914435Y-47022878D01*
X85915062Y-47020808D01*
X85915134Y-47019813D01*
X85916141Y-47017251D01*
X85916229Y-47016957D01*
X85916232Y-47016954D01*
X85976300Y-46818934D01*
X85978817Y-46793386D01*
X85996583Y-46613003D01*
X85996583Y-46612996D01*
X85976301Y-46407072D01*
X85976300Y-46407070D01*
X85976300Y-46407066D01*
X85916232Y-46209046D01*
X85818685Y-46026550D01*
X85701231Y-45883431D01*
X85673479Y-45818086D01*
X85685461Y-45748108D01*
X85733374Y-45695716D01*
X85798632Y-45677500D01*
X86030156Y-45677500D01*
X86098277Y-45697502D01*
X86119251Y-45714405D01*
X86477904Y-46073058D01*
X86511930Y-46135370D01*
X86507094Y-46202979D01*
X86507565Y-46203122D01*
X86506935Y-46205196D01*
X86506865Y-46206185D01*
X86505863Y-46208731D01*
X86445698Y-46407072D01*
X86425417Y-46612996D01*
X86425417Y-46613003D01*
X86445698Y-46818927D01*
X86505768Y-47016954D01*
X86602499Y-47197925D01*
X86603315Y-47199450D01*
X86734590Y-47359410D01*
X86894550Y-47490685D01*
X87077046Y-47588232D01*
X87275066Y-47648300D01*
X87275070Y-47648300D01*
X87275072Y-47648301D01*
X87480997Y-47668583D01*
X87481000Y-47668583D01*
X87481003Y-47668583D01*
X87686927Y-47648301D01*
X87686928Y-47648300D01*
X87686934Y-47648300D01*
X87884954Y-47588232D01*
X88067450Y-47490685D01*
X88227410Y-47359410D01*
X88358685Y-47199450D01*
X88456232Y-47016954D01*
X88516300Y-46818934D01*
X88518817Y-46793386D01*
X88536583Y-46613003D01*
X88536583Y-46612996D01*
X88516301Y-46407072D01*
X88516300Y-46407070D01*
X88516300Y-46407066D01*
X88456232Y-46209046D01*
X88358685Y-46026550D01*
X88227410Y-45866590D01*
X88067450Y-45735315D01*
X88067448Y-45735314D01*
X88067447Y-45735313D01*
X87884954Y-45637768D01*
X87855667Y-45628884D01*
X87686934Y-45577700D01*
X87686933Y-45577699D01*
X87686927Y-45577698D01*
X87481003Y-45557417D01*
X87480997Y-45557417D01*
X87275072Y-45577698D01*
X87071122Y-45639565D01*
X87070663Y-45638052D01*
X87007756Y-45644802D01*
X86944275Y-45613010D01*
X86941058Y-45609904D01*
X86461642Y-45130488D01*
X86457927Y-45126435D01*
X86444591Y-45110542D01*
X86431760Y-45095250D01*
X86396512Y-45074899D01*
X86391876Y-45071946D01*
X86358541Y-45048604D01*
X86353263Y-45046143D01*
X86337226Y-45039500D01*
X86331736Y-45037502D01*
X86291658Y-45030435D01*
X86286291Y-45029245D01*
X86261117Y-45022500D01*
X86246984Y-45018713D01*
X86246983Y-45018713D01*
X86239003Y-45019411D01*
X86206441Y-45022260D01*
X86200956Y-45022500D01*
X85787143Y-45022500D01*
X85719022Y-45002498D01*
X85672529Y-44948842D01*
X85662425Y-44878568D01*
X85689743Y-44816567D01*
X85692906Y-44812713D01*
X85818685Y-44659450D01*
X85916232Y-44476954D01*
X85976300Y-44278934D01*
X85979296Y-44248522D01*
X85996583Y-44073003D01*
X85996583Y-44072996D01*
X85976301Y-43867072D01*
X85976300Y-43867070D01*
X85976300Y-43867066D01*
X85916232Y-43669046D01*
X85818685Y-43486550D01*
X85687410Y-43326590D01*
X85527450Y-43195315D01*
X85527448Y-43195314D01*
X85527447Y-43195313D01*
X85344954Y-43097768D01*
X85198196Y-43053250D01*
X85146934Y-43037700D01*
X85146933Y-43037699D01*
X85146927Y-43037698D01*
X84941003Y-43017417D01*
X84940997Y-43017417D01*
X84735072Y-43037698D01*
X84537045Y-43097768D01*
X84354552Y-43195313D01*
X84194590Y-43326590D01*
X84063313Y-43486552D01*
X83965768Y-43669045D01*
X83905698Y-43867072D01*
X83885417Y-44072996D01*
X83885417Y-44073003D01*
X83905698Y-44278927D01*
X83965768Y-44476954D01*
X84041296Y-44618257D01*
X84063315Y-44659450D01*
X84194590Y-44819410D01*
X84214263Y-44835555D01*
X84254232Y-44894232D01*
X84256133Y-44965203D01*
X84219363Y-45025936D01*
X84187582Y-45047149D01*
X84184457Y-45048606D01*
X84151118Y-45071948D01*
X84146485Y-45074899D01*
X84111242Y-45095248D01*
X84111239Y-45095250D01*
X84085075Y-45126429D01*
X84081363Y-45130480D01*
X83455481Y-45756363D01*
X83451429Y-45760076D01*
X83420249Y-45786240D01*
X83420247Y-45786243D01*
X83399896Y-45821491D01*
X83396943Y-45826126D01*
X83367284Y-45868485D01*
X83365990Y-45867578D01*
X83327209Y-45911622D01*
X83258931Y-45931081D01*
X83190971Y-45910537D01*
X83162536Y-45885020D01*
X83147411Y-45866591D01*
X83131171Y-45853263D01*
X82987450Y-45735315D01*
X82987448Y-45735314D01*
X82987447Y-45735313D01*
X82804954Y-45637768D01*
X82775667Y-45628884D01*
X82606934Y-45577700D01*
X82606933Y-45577699D01*
X82606927Y-45577698D01*
X82401003Y-45557417D01*
X82400997Y-45557417D01*
X82195072Y-45577698D01*
X81997045Y-45637768D01*
X81814552Y-45735313D01*
X81654590Y-45866590D01*
X81523313Y-46026552D01*
X81425768Y-46209045D01*
X81365698Y-46407072D01*
X81345417Y-46612996D01*
X81345417Y-46613003D01*
X81365698Y-46818927D01*
X81427565Y-47022878D01*
X81426045Y-47023338D01*
X81432808Y-47086211D01*
X81401031Y-47149699D01*
X81397905Y-47152939D01*
X81015251Y-47535595D01*
X80952939Y-47569620D01*
X80926155Y-47572500D01*
X74586934Y-47572500D01*
X74518813Y-47552498D01*
X74486973Y-47523205D01*
X74428282Y-47446718D01*
X74302841Y-47350464D01*
X74297941Y-47348434D01*
X74156760Y-47289955D01*
X74000000Y-47269318D01*
X73843239Y-47289955D01*
X73697160Y-47350463D01*
X73697157Y-47350465D01*
X73571718Y-47446718D01*
X73475465Y-47572157D01*
X73475463Y-47572160D01*
X73414955Y-47718239D01*
X73394318Y-47874999D01*
X73394318Y-47875000D01*
X53643738Y-47875000D01*
X53707521Y-47685158D01*
X53711406Y-47668139D01*
X53753516Y-47483641D01*
X53795781Y-47298465D01*
X53845101Y-46904905D01*
X53854989Y-46508390D01*
X53825349Y-46112860D01*
X53756473Y-45722248D01*
X53686678Y-45474182D01*
X75780500Y-45474182D01*
X75793046Y-45557417D01*
X75819604Y-45733619D01*
X75896933Y-45984314D01*
X75896938Y-45984327D01*
X76010773Y-46220706D01*
X76010777Y-46220713D01*
X76158562Y-46437472D01*
X76158567Y-46437479D01*
X76337019Y-46629805D01*
X76542143Y-46793386D01*
X76542146Y-46793388D01*
X76769352Y-46924566D01*
X76769356Y-46924567D01*
X76769357Y-46924568D01*
X77013584Y-47020420D01*
X77269370Y-47078802D01*
X77421409Y-47090195D01*
X77465503Y-47093500D01*
X77465506Y-47093500D01*
X77596497Y-47093500D01*
X77637516Y-47090425D01*
X77792630Y-47078802D01*
X78048416Y-47020420D01*
X78292643Y-46924568D01*
X78292645Y-46924566D01*
X78292647Y-46924566D01*
X78406250Y-46858977D01*
X78519857Y-46793386D01*
X78724981Y-46629805D01*
X78903433Y-46437479D01*
X79051228Y-46220704D01*
X79165063Y-45984323D01*
X79173170Y-45958041D01*
X79242395Y-45733619D01*
X79248108Y-45695716D01*
X79281500Y-45474182D01*
X79281500Y-45211818D01*
X79242396Y-44952385D01*
X79242395Y-44952383D01*
X79242395Y-44952380D01*
X79165066Y-44701685D01*
X79165061Y-44701672D01*
X79092322Y-44550629D01*
X79051228Y-44465296D01*
X79051226Y-44465293D01*
X79051222Y-44465286D01*
X78903437Y-44248527D01*
X78903433Y-44248521D01*
X78740577Y-44073003D01*
X81345417Y-44073003D01*
X81365698Y-44278927D01*
X81425768Y-44476954D01*
X81501296Y-44618257D01*
X81523315Y-44659450D01*
X81654590Y-44819410D01*
X81814550Y-44950685D01*
X81997046Y-45048232D01*
X82195066Y-45108300D01*
X82195070Y-45108300D01*
X82195072Y-45108301D01*
X82400997Y-45128583D01*
X82401000Y-45128583D01*
X82401003Y-45128583D01*
X82606927Y-45108301D01*
X82606928Y-45108300D01*
X82606934Y-45108300D01*
X82804954Y-45048232D01*
X82987450Y-44950685D01*
X83147410Y-44819410D01*
X83278685Y-44659450D01*
X83376232Y-44476954D01*
X83436300Y-44278934D01*
X83439296Y-44248522D01*
X83456583Y-44073003D01*
X83456583Y-44072996D01*
X83436301Y-43867072D01*
X83436300Y-43867070D01*
X83436300Y-43867066D01*
X83376232Y-43669046D01*
X83278685Y-43486550D01*
X83147410Y-43326590D01*
X82987450Y-43195315D01*
X82987448Y-43195314D01*
X82987447Y-43195313D01*
X82804954Y-43097768D01*
X82658196Y-43053250D01*
X82606934Y-43037700D01*
X82606933Y-43037699D01*
X82606927Y-43037698D01*
X82401003Y-43017417D01*
X82400997Y-43017417D01*
X82195072Y-43037698D01*
X81997045Y-43097768D01*
X81814552Y-43195313D01*
X81654590Y-43326590D01*
X81523313Y-43486552D01*
X81425768Y-43669045D01*
X81365698Y-43867072D01*
X81345417Y-44072996D01*
X81345417Y-44073003D01*
X78740577Y-44073003D01*
X78724981Y-44056195D01*
X78519857Y-43892614D01*
X78519852Y-43892611D01*
X78519853Y-43892611D01*
X78292647Y-43761433D01*
X78292639Y-43761430D01*
X78048419Y-43665581D01*
X78048417Y-43665580D01*
X77792632Y-43607198D01*
X77596497Y-43592500D01*
X77596494Y-43592500D01*
X77465506Y-43592500D01*
X77465503Y-43592500D01*
X77269367Y-43607198D01*
X77013582Y-43665580D01*
X77013580Y-43665581D01*
X76769360Y-43761430D01*
X76769352Y-43761433D01*
X76542146Y-43892611D01*
X76337018Y-44056195D01*
X76158566Y-44248522D01*
X76158562Y-44248527D01*
X76010777Y-44465286D01*
X76010773Y-44465293D01*
X75896938Y-44701672D01*
X75896933Y-44701685D01*
X75819604Y-44952380D01*
X75800957Y-45076095D01*
X75780500Y-45211818D01*
X75780500Y-45474182D01*
X53686678Y-45474182D01*
X53649047Y-45340434D01*
X53565881Y-45128530D01*
X53504143Y-44971224D01*
X53504142Y-44971223D01*
X53504139Y-44971214D01*
X53323189Y-44618257D01*
X53107994Y-44285071D01*
X52860694Y-43974966D01*
X52583747Y-43691026D01*
X52279904Y-43436072D01*
X52247929Y-43414272D01*
X52019695Y-43258665D01*
X51952186Y-43212638D01*
X51870436Y-43168119D01*
X51603855Y-43022946D01*
X51238358Y-42868876D01*
X51238354Y-42868874D01*
X50958945Y-42782689D01*
X50859340Y-42751965D01*
X50470566Y-42673372D01*
X50470565Y-42673371D01*
X50470561Y-42673371D01*
X50075905Y-42633880D01*
X50075899Y-42633880D01*
X49778479Y-42633880D01*
X49778472Y-42633880D01*
X49481444Y-42648703D01*
X49241835Y-42684819D01*
X49089227Y-42707821D01*
X49089223Y-42707821D01*
X49089223Y-42707822D01*
X48704853Y-42805694D01*
X48704832Y-42805701D01*
X48332158Y-42941342D01*
X48332131Y-42941353D01*
X47974782Y-43113444D01*
X47974781Y-43113444D01*
X47636327Y-43320269D01*
X47416804Y-43486552D01*
X47342007Y-43543209D01*
X47320147Y-43559767D01*
X47029403Y-43829539D01*
X47029399Y-43829543D01*
X46973741Y-43892611D01*
X46766952Y-44126931D01*
X46766944Y-44126940D01*
X46625474Y-44323714D01*
X46535414Y-44448980D01*
X46535411Y-44448984D01*
X46535411Y-44448985D01*
X46337101Y-44792468D01*
X46337095Y-44792478D01*
X46202200Y-45091437D01*
X46155950Y-45145303D01*
X46087921Y-45165614D01*
X46019710Y-45145921D01*
X45972975Y-45092476D01*
X45962553Y-45022249D01*
X45964296Y-45012529D01*
X45966504Y-45002498D01*
X45966735Y-45001448D01*
X45967985Y-44996673D01*
X46024007Y-44812695D01*
X46030623Y-44792468D01*
X46082656Y-44633346D01*
X46084233Y-44629058D01*
X46157499Y-44450372D01*
X46233469Y-44278144D01*
X46235286Y-44274371D01*
X46325164Y-44102843D01*
X46342049Y-44072996D01*
X46417780Y-43939118D01*
X46419744Y-43935883D01*
X46525474Y-43773154D01*
X46633881Y-43619421D01*
X46635905Y-43616714D01*
X46756565Y-43464328D01*
X46879717Y-43322078D01*
X46881797Y-43319794D01*
X47015255Y-43180289D01*
X47017360Y-43178197D01*
X47154057Y-43048830D01*
X47300945Y-42921548D01*
X47303587Y-42919385D01*
X47452337Y-42804302D01*
X47610221Y-42691475D01*
X47613398Y-42689348D01*
X47772822Y-42589599D01*
X47940233Y-42492196D01*
X47943900Y-42490225D01*
X48112606Y-42406699D01*
X48287889Y-42325588D01*
X48292066Y-42323837D01*
X48468633Y-42257309D01*
X48649983Y-42193185D01*
X48654699Y-42191724D01*
X48837926Y-42142794D01*
X49023193Y-42096210D01*
X49028383Y-42095137D01*
X49218205Y-42064198D01*
X49404007Y-42035584D01*
X49409644Y-42034976D01*
X49615622Y-42022148D01*
X49784939Y-42012102D01*
X49788655Y-42011992D01*
X136218331Y-42037483D01*
G37*
G04 #@! TD.AperFunction*
M02*
