G04 #@! TF.GenerationSoftware,KiCad,Pcbnew,(6.0.10)*
G04 #@! TF.CreationDate,2023-05-10T15:48:35-05:00*
G04 #@! TF.ProjectId,DiffGPS_Hardware,44696666-4750-4535-9f48-617264776172,rev?*
G04 #@! TF.SameCoordinates,Original*
G04 #@! TF.FileFunction,Soldermask,Bot*
G04 #@! TF.FilePolarity,Negative*
%FSLAX46Y46*%
G04 Gerber Fmt 4.6, Leading zero omitted, Abs format (unit mm)*
G04 Created by KiCad (PCBNEW (6.0.10)) date 2023-05-10 15:48:35*
%MOMM*%
%LPD*%
G01*
G04 APERTURE LIST*
%ADD10C,2.946400*%
%ADD11O,5.100000X3.000000*%
%ADD12C,3.000000*%
%ADD13C,1.700000*%
%ADD14R,1.358000X1.358000*%
%ADD15C,1.358000*%
%ADD16R,1.600000X1.600000*%
%ADD17O,1.600000X1.600000*%
G04 APERTURE END LIST*
D10*
X54808120Y-110291880D03*
D11*
X63627000Y-96330800D03*
X71501000Y-96330800D03*
D12*
X135531000Y-94343000D03*
X135531000Y-45343000D03*
X77531000Y-94343000D03*
X77531000Y-45343000D03*
D13*
X82401000Y-46613000D03*
X82401000Y-44073000D03*
X84941000Y-46613000D03*
X84941000Y-44073000D03*
X87481000Y-46613000D03*
X87481000Y-44073000D03*
X90021000Y-46613000D03*
X90021000Y-44073000D03*
X92561000Y-46613000D03*
X92561000Y-44073000D03*
X95101000Y-46613000D03*
X95101000Y-44073000D03*
X97641000Y-46613000D03*
X97641000Y-44073000D03*
X100181000Y-46613000D03*
X100181000Y-44073000D03*
X102721000Y-46613000D03*
X102721000Y-44073000D03*
X105261000Y-46613000D03*
X105261000Y-44073000D03*
X107801000Y-46613000D03*
X107801000Y-44073000D03*
X110341000Y-46613000D03*
X110341000Y-44073000D03*
X112881000Y-46613000D03*
X112881000Y-44073000D03*
X115421000Y-46613000D03*
X115421000Y-44073000D03*
X117961000Y-46613000D03*
X117961000Y-44073000D03*
X120501000Y-46613000D03*
X120501000Y-44073000D03*
X123041000Y-46613000D03*
X123041000Y-44073000D03*
X125581000Y-46613000D03*
X125581000Y-44073000D03*
X128121000Y-46613000D03*
X128121000Y-44073000D03*
X130661000Y-46613000D03*
X130661000Y-44073000D03*
D10*
X54808120Y-46172120D03*
X134421880Y-110291880D03*
D14*
X67056000Y-62710000D03*
D15*
X69596000Y-62710000D03*
X72136000Y-62710000D03*
D16*
X119380000Y-53340000D03*
D17*
X116840000Y-53340000D03*
X114300000Y-53340000D03*
X111760000Y-53340000D03*
X109220000Y-53340000D03*
X106680000Y-53340000D03*
X104140000Y-53340000D03*
X101600000Y-53340000D03*
X96520000Y-53340000D03*
X93980000Y-53340000D03*
X91440000Y-53340000D03*
X88900000Y-53340000D03*
X86360000Y-53340000D03*
X83820000Y-53340000D03*
X83820000Y-101600000D03*
X86360000Y-101600000D03*
X88900000Y-101600000D03*
X91440000Y-101600000D03*
X93980000Y-101600000D03*
X96520000Y-101600000D03*
X99060000Y-101600000D03*
X101600000Y-101600000D03*
X105660000Y-101600000D03*
X108200000Y-101600000D03*
X110740000Y-101600000D03*
X113280000Y-101600000D03*
X115820000Y-101600000D03*
X118360000Y-101600000D03*
X120900000Y-101600000D03*
X123440000Y-101600000D03*
X125980000Y-101600000D03*
X128520000Y-101600000D03*
M02*
