M48
; DRILL file {KiCad 7.0.8} date Mon Oct 30 19:17:13 2023
; FORMAT={-:-/ absolute / inch / decimal}
; #@! TF.CreationDate,2023-10-30T19:17:13-05:00
; #@! TF.GenerationSoftware,Kicad,Pcbnew,7.0.8
; #@! TF.FileFunction,Plated,1,2,PTH
FMAT,2
INCH
; #@! TA.AperFunction,Plated,PTH,ViaDrill
T1C0.0157
; #@! TA.AperFunction,Plated,PTH,ComponentDrill
T2C0.0354
; #@! TA.AperFunction,Plated,PTH,ComponentDrill
T3C0.0394
; #@! TA.AperFunction,Plated,PTH,ComponentDrill
T4C0.0787
%
G90
G05
T1
X2.9134Y-1.8848
X3.0374Y-2.0502
X3.1476Y-1.937
X3.2608Y-2.0246
X3.4537Y-2.0108
X3.7638Y-1.9272
X3.9951Y-1.9232
X4.0838Y-3.8076
X4.2855Y-1.9419
X4.3219Y-1.9114
X4.3465Y-2.1437
X4.3858Y-1.9213
X4.438Y-2.1496
X4.5413Y-1.97
X4.5443Y-2.1526
X4.6816Y-1.972
T2
X3.2441Y-1.7352
X3.2441Y-1.8352
X3.3441Y-1.7352
X3.3441Y-1.8352
X3.4441Y-1.7352
X3.4441Y-1.8352
X3.5441Y-1.7352
X3.5441Y-1.8352
X3.6441Y-1.7352
X3.6441Y-1.8352
X3.7441Y-1.7352
X3.7441Y-1.8352
X3.8441Y-1.7352
X3.8441Y-1.8352
X3.9441Y-1.7352
X3.9441Y-1.8352
X4.0441Y-1.7352
X4.0441Y-1.8352
X4.1441Y-1.7352
X4.1441Y-1.8352
X4.2441Y-1.7352
X4.2441Y-1.8352
X4.3441Y-1.7352
X4.3441Y-1.8352
X4.4441Y-1.7352
X4.4441Y-1.8352
X4.5441Y-1.7352
X4.5441Y-1.8352
X4.6441Y-1.7352
X4.6441Y-1.8352
X4.7441Y-1.7352
X4.7441Y-1.8352
X4.8441Y-1.7352
X4.8441Y-1.8352
X4.9441Y-1.7352
X4.9441Y-1.8352
X5.0441Y-1.7352
X5.0441Y-1.8352
X5.1441Y-1.7352
X5.1441Y-1.8352
T3
X3.2933Y-2.0787
X3.2933Y-3.9787
X3.3933Y-2.0787
X3.3933Y-3.9787
X3.4933Y-2.0787
X3.4933Y-3.9787
X3.5933Y-2.0787
X3.5933Y-3.9787
X3.6933Y-2.0787
X3.6933Y-3.9787
X3.7933Y-2.0787
X3.7933Y-3.9787
X3.8933Y-3.9787
X3.9933Y-2.0787
X3.9933Y-3.9787
X4.0933Y-2.0787
X4.1531Y-3.9787
X4.1933Y-2.0787
X4.2531Y-3.9787
X4.2933Y-2.0787
X4.3531Y-3.9787
X4.3933Y-2.0787
X4.4531Y-3.9787
X4.4933Y-2.0787
X4.5531Y-3.9787
X4.5933Y-2.0787
X4.6531Y-3.9787
X4.6933Y-2.0787
X4.7531Y-3.9787
X4.8531Y-3.9787
X4.9531Y-3.9787
X5.0531Y-3.9787
T4
G00X2.4637Y-3.7926
M15
G01X2.5463Y-3.7926
M16
G05
G00X2.7737Y-3.7926
M15
G01X2.8563Y-3.7926
M16
G05
T0
M30
