G04 #@! TF.GenerationSoftware,KiCad,Pcbnew,(6.0.10)*
G04 #@! TF.CreationDate,2023-05-10T15:48:34-05:00*
G04 #@! TF.ProjectId,DiffGPS_Hardware,44696666-4750-4535-9f48-617264776172,rev?*
G04 #@! TF.SameCoordinates,Original*
G04 #@! TF.FileFunction,Copper,L1,Top*
G04 #@! TF.FilePolarity,Positive*
%FSLAX46Y46*%
G04 Gerber Fmt 4.6, Leading zero omitted, Abs format (unit mm)*
G04 Created by KiCad (PCBNEW (6.0.10)) date 2023-05-10 15:48:34*
%MOMM*%
%LPD*%
G01*
G04 APERTURE LIST*
G04 Aperture macros list*
%AMRoundRect*
0 Rectangle with rounded corners*
0 $1 Rounding radius*
0 $2 $3 $4 $5 $6 $7 $8 $9 X,Y pos of 4 corners*
0 Add a 4 corners polygon primitive as box body*
4,1,4,$2,$3,$4,$5,$6,$7,$8,$9,$2,$3,0*
0 Add four circle primitives for the rounded corners*
1,1,$1+$1,$2,$3*
1,1,$1+$1,$4,$5*
1,1,$1+$1,$6,$7*
1,1,$1+$1,$8,$9*
0 Add four rect primitives between the rounded corners*
20,1,$1+$1,$2,$3,$4,$5,0*
20,1,$1+$1,$4,$5,$6,$7,0*
20,1,$1+$1,$6,$7,$8,$9,0*
20,1,$1+$1,$8,$9,$2,$3,0*%
G04 Aperture macros list end*
G04 #@! TA.AperFunction,ComponentPad*
%ADD10O,5.100000X3.000000*%
G04 #@! TD*
G04 #@! TA.AperFunction,SMDPad,CuDef*
%ADD11RoundRect,0.237500X-0.287500X-0.237500X0.287500X-0.237500X0.287500X0.237500X-0.287500X0.237500X0*%
G04 #@! TD*
G04 #@! TA.AperFunction,SMDPad,CuDef*
%ADD12RoundRect,0.237500X-0.250000X-0.237500X0.250000X-0.237500X0.250000X0.237500X-0.250000X0.237500X0*%
G04 #@! TD*
G04 #@! TA.AperFunction,ComponentPad*
%ADD13C,1.700000*%
G04 #@! TD*
G04 #@! TA.AperFunction,SMDPad,CuDef*
%ADD14RoundRect,0.237500X0.250000X0.237500X-0.250000X0.237500X-0.250000X-0.237500X0.250000X-0.237500X0*%
G04 #@! TD*
G04 #@! TA.AperFunction,ComponentPad*
%ADD15R,1.358000X1.358000*%
G04 #@! TD*
G04 #@! TA.AperFunction,ComponentPad*
%ADD16C,1.358000*%
G04 #@! TD*
G04 #@! TA.AperFunction,ComponentPad*
%ADD17R,1.600000X1.600000*%
G04 #@! TD*
G04 #@! TA.AperFunction,ComponentPad*
%ADD18O,1.600000X1.600000*%
G04 #@! TD*
G04 #@! TA.AperFunction,ViaPad*
%ADD19C,0.800000*%
G04 #@! TD*
G04 #@! TA.AperFunction,Conductor*
%ADD20C,0.508000*%
G04 #@! TD*
G04 #@! TA.AperFunction,Conductor*
%ADD21C,0.254000*%
G04 #@! TD*
G04 APERTURE END LIST*
D10*
X63627000Y-96330800D03*
X71501000Y-96330800D03*
D11*
X66538500Y-49887500D03*
X68288500Y-49887500D03*
D12*
X70311000Y-52935500D03*
X72136000Y-52935500D03*
D11*
X66538500Y-52935500D03*
X68288500Y-52935500D03*
D13*
X82401000Y-46613000D03*
X82401000Y-44073000D03*
X84941000Y-46613000D03*
X84941000Y-44073000D03*
X87481000Y-46613000D03*
X87481000Y-44073000D03*
X90021000Y-46613000D03*
X90021000Y-44073000D03*
X92561000Y-46613000D03*
X92561000Y-44073000D03*
X95101000Y-46613000D03*
X95101000Y-44073000D03*
X97641000Y-46613000D03*
X97641000Y-44073000D03*
X100181000Y-46613000D03*
X100181000Y-44073000D03*
X102721000Y-46613000D03*
X102721000Y-44073000D03*
X105261000Y-46613000D03*
X105261000Y-44073000D03*
X107801000Y-46613000D03*
X107801000Y-44073000D03*
X110341000Y-46613000D03*
X110341000Y-44073000D03*
X112881000Y-46613000D03*
X112881000Y-44073000D03*
X115421000Y-46613000D03*
X115421000Y-44073000D03*
X117961000Y-46613000D03*
X117961000Y-44073000D03*
X120501000Y-46613000D03*
X120501000Y-44073000D03*
X123041000Y-46613000D03*
X123041000Y-44073000D03*
X125581000Y-46613000D03*
X125581000Y-44073000D03*
X128121000Y-46613000D03*
X128121000Y-44073000D03*
X130661000Y-46613000D03*
X130661000Y-44073000D03*
D11*
X66557250Y-46839500D03*
X68307250Y-46839500D03*
D14*
X72136000Y-49887500D03*
X70311000Y-49887500D03*
D15*
X67056000Y-62710000D03*
D16*
X69596000Y-62710000D03*
X72136000Y-62710000D03*
D14*
X72154750Y-46839500D03*
X70329750Y-46839500D03*
D17*
X119380000Y-53340000D03*
D18*
X116840000Y-53340000D03*
X114300000Y-53340000D03*
X111760000Y-53340000D03*
X109220000Y-53340000D03*
X106680000Y-53340000D03*
X104140000Y-53340000D03*
X101600000Y-53340000D03*
X96520000Y-53340000D03*
X93980000Y-53340000D03*
X91440000Y-53340000D03*
X88900000Y-53340000D03*
X86360000Y-53340000D03*
X83820000Y-53340000D03*
X83820000Y-101600000D03*
X86360000Y-101600000D03*
X88900000Y-101600000D03*
X91440000Y-101600000D03*
X93980000Y-101600000D03*
X96520000Y-101600000D03*
X99060000Y-101600000D03*
X101600000Y-101600000D03*
X105660000Y-101600000D03*
X108200000Y-101600000D03*
X110740000Y-101600000D03*
X113280000Y-101600000D03*
X115820000Y-101600000D03*
X118360000Y-101600000D03*
X120900000Y-101600000D03*
X123440000Y-101600000D03*
X125980000Y-101600000D03*
X128520000Y-101600000D03*
D19*
X74041000Y-46863000D03*
X86360000Y-97536000D03*
D20*
X113792000Y-50292000D02*
X116840000Y-53340000D01*
X82401000Y-46613000D02*
X86080000Y-50292000D01*
X74041000Y-46863000D02*
X72178250Y-46863000D01*
X72178250Y-46863000D02*
X72154750Y-46839500D01*
X86080000Y-50292000D02*
X113792000Y-50292000D01*
X79474000Y-55372000D02*
X79474000Y-47000000D01*
X72136000Y-49887500D02*
X75614500Y-53366000D01*
X109220000Y-53340000D02*
X107442000Y-55118000D01*
X107442000Y-55118000D02*
X79728000Y-55118000D01*
X79728000Y-55118000D02*
X79474000Y-55372000D01*
X82401000Y-44073000D02*
X84941000Y-44073000D01*
X75614500Y-53366000D02*
X75614500Y-59231500D01*
X72136000Y-62710000D02*
X75614500Y-59231500D01*
X75614500Y-59231500D02*
X79474000Y-55372000D01*
X79474000Y-47000000D02*
X82401000Y-44073000D01*
D21*
X86360000Y-101600000D02*
X86360000Y-97536000D01*
D20*
X71501000Y-96330800D02*
X71501000Y-67155000D01*
X72136000Y-52935500D02*
X72136000Y-55245000D01*
X71501000Y-67155000D02*
X67056000Y-62710000D01*
X72136000Y-55245000D02*
X67056000Y-60325000D01*
X67056000Y-60325000D02*
X67056000Y-62710000D01*
D21*
X70311000Y-52935500D02*
X68288500Y-52935500D01*
X70311000Y-49887500D02*
X68288500Y-49887500D01*
X70329750Y-46839500D02*
X68307250Y-46839500D01*
G04 #@! TA.AperFunction,Conductor*
G36*
X134384981Y-42291705D02*
G01*
X134400778Y-42291705D01*
X134416800Y-42295998D01*
X134428639Y-42292826D01*
X134430921Y-42293496D01*
X134430985Y-42292197D01*
X134430986Y-42292197D01*
X134457427Y-42293496D01*
X134791487Y-42309907D01*
X134803783Y-42311118D01*
X135168746Y-42365256D01*
X135180852Y-42367663D01*
X135481642Y-42443007D01*
X135538751Y-42457312D01*
X135550583Y-42460901D01*
X135897965Y-42585196D01*
X135909389Y-42589928D01*
X136242911Y-42747673D01*
X136253816Y-42753502D01*
X136570273Y-42943179D01*
X136580554Y-42950049D01*
X136876890Y-43169826D01*
X136886448Y-43177670D01*
X137159818Y-43425438D01*
X137168562Y-43434182D01*
X137416330Y-43707552D01*
X137424174Y-43717110D01*
X137643951Y-44013446D01*
X137650821Y-44023727D01*
X137840498Y-44340184D01*
X137846327Y-44351089D01*
X138004072Y-44684611D01*
X138008804Y-44696035D01*
X138133099Y-45043417D01*
X138136688Y-45055247D01*
X138226337Y-45413148D01*
X138228744Y-45425254D01*
X138282881Y-45790212D01*
X138284093Y-45802513D01*
X138287091Y-45863543D01*
X138301803Y-46163015D01*
X138300804Y-46163064D01*
X138301274Y-46164990D01*
X138298002Y-46177200D01*
X138302295Y-46193222D01*
X138302295Y-46209019D01*
X138302500Y-46210576D01*
X138302500Y-108634448D01*
X138282498Y-108702569D01*
X138228842Y-108749062D01*
X138158568Y-108759166D01*
X138093988Y-108729672D01*
X138058989Y-108679913D01*
X138058868Y-108679601D01*
X138056554Y-108673619D01*
X138036725Y-108634448D01*
X137879276Y-108323428D01*
X137877857Y-108320625D01*
X137664985Y-107987125D01*
X137420042Y-107676417D01*
X137417867Y-107674161D01*
X137417862Y-107674155D01*
X137255802Y-107506044D01*
X137145451Y-107391572D01*
X137142879Y-107389387D01*
X136846321Y-107137442D01*
X136846313Y-107137435D01*
X136843926Y-107135408D01*
X136649771Y-107001219D01*
X136521023Y-106912235D01*
X136521014Y-106912230D01*
X136518451Y-106910458D01*
X136515716Y-106908945D01*
X136515711Y-106908942D01*
X136307960Y-106794021D01*
X136172242Y-106718946D01*
X136169373Y-106717713D01*
X136169362Y-106717708D01*
X135811593Y-106563999D01*
X135811590Y-106563998D01*
X135808725Y-106562767D01*
X135805748Y-106561826D01*
X135805744Y-106561824D01*
X135676969Y-106521098D01*
X135431493Y-106443464D01*
X135044277Y-106362218D01*
X135041159Y-106361882D01*
X134653358Y-106320095D01*
X134653355Y-106320095D01*
X134650907Y-106319831D01*
X134648444Y-106319760D01*
X134648443Y-106319760D01*
X134644794Y-106319655D01*
X134593589Y-106318180D01*
X134322528Y-106318180D01*
X134320965Y-106318258D01*
X134320957Y-106318258D01*
X134224589Y-106323056D01*
X134026722Y-106332906D01*
X134023637Y-106333370D01*
X134023635Y-106333370D01*
X133833990Y-106361882D01*
X133635471Y-106391728D01*
X133632436Y-106392499D01*
X133632435Y-106392499D01*
X133255041Y-106488345D01*
X133255038Y-106488346D01*
X133251998Y-106489118D01*
X133249051Y-106490188D01*
X133249050Y-106490188D01*
X132883031Y-106623046D01*
X132883021Y-106623050D01*
X132880093Y-106624113D01*
X132523434Y-106795378D01*
X132185549Y-107001219D01*
X131869779Y-107239601D01*
X131867497Y-107241711D01*
X131867488Y-107241718D01*
X131707577Y-107389539D01*
X131579246Y-107508167D01*
X131577174Y-107510505D01*
X131577169Y-107510510D01*
X131318908Y-107801909D01*
X131318903Y-107801915D01*
X131316824Y-107804261D01*
X131085107Y-108124954D01*
X130886387Y-108467076D01*
X130885097Y-108469913D01*
X130885095Y-108469917D01*
X130791144Y-108676551D01*
X130722629Y-108827243D01*
X130595452Y-109201893D01*
X130506114Y-109587323D01*
X130455499Y-109979719D01*
X130444107Y-110375202D01*
X130472050Y-110769862D01*
X130539053Y-111159795D01*
X130644452Y-111541145D01*
X130645582Y-111544065D01*
X130645583Y-111544069D01*
X130738480Y-111784191D01*
X130787206Y-111910141D01*
X130788621Y-111912935D01*
X130788624Y-111912943D01*
X130891765Y-112116684D01*
X130965903Y-112263135D01*
X131178775Y-112596635D01*
X131423718Y-112907343D01*
X131425893Y-112909599D01*
X131425898Y-112909605D01*
X131549348Y-113037664D01*
X131698309Y-113192188D01*
X131700702Y-113194221D01*
X131997439Y-113446318D01*
X131997447Y-113446325D01*
X131999834Y-113448352D01*
X132002414Y-113450135D01*
X132322737Y-113671525D01*
X132322746Y-113671530D01*
X132325309Y-113673302D01*
X132328044Y-113674815D01*
X132328049Y-113674818D01*
X132492837Y-113765973D01*
X132671518Y-113864814D01*
X132824947Y-113930732D01*
X132879640Y-113976000D01*
X132901177Y-114043651D01*
X132882720Y-114112207D01*
X132830129Y-114159901D01*
X132775209Y-114172500D01*
X56460114Y-114172500D01*
X56391993Y-114152498D01*
X56345500Y-114098842D01*
X56335396Y-114028568D01*
X56364890Y-113963988D01*
X56405572Y-113932917D01*
X56547397Y-113864814D01*
X56706566Y-113788382D01*
X57044451Y-113582541D01*
X57360221Y-113344159D01*
X57362503Y-113342049D01*
X57362512Y-113342042D01*
X57564209Y-113155594D01*
X57650754Y-113075593D01*
X57799871Y-112907343D01*
X57911092Y-112781851D01*
X57911097Y-112781845D01*
X57913176Y-112779499D01*
X58144893Y-112458806D01*
X58343613Y-112116684D01*
X58436249Y-111912943D01*
X58506079Y-111759359D01*
X58506080Y-111759356D01*
X58507371Y-111756517D01*
X58634548Y-111381867D01*
X58723886Y-110996437D01*
X58774501Y-110604041D01*
X58785893Y-110208558D01*
X58757950Y-109813898D01*
X58690947Y-109423965D01*
X58585548Y-109042615D01*
X58502227Y-108827243D01*
X58443929Y-108676552D01*
X58443927Y-108676547D01*
X58442794Y-108673619D01*
X58422965Y-108634448D01*
X58265516Y-108323428D01*
X58264097Y-108320625D01*
X58051225Y-107987125D01*
X57806282Y-107676417D01*
X57804107Y-107674161D01*
X57804102Y-107674155D01*
X57642042Y-107506044D01*
X57531691Y-107391572D01*
X57529119Y-107389387D01*
X57232561Y-107137442D01*
X57232553Y-107137435D01*
X57230166Y-107135408D01*
X57036011Y-107001219D01*
X56907263Y-106912235D01*
X56907254Y-106912230D01*
X56904691Y-106910458D01*
X56901956Y-106908945D01*
X56901951Y-106908942D01*
X56694200Y-106794021D01*
X56558482Y-106718946D01*
X56555613Y-106717713D01*
X56555602Y-106717708D01*
X56197833Y-106563999D01*
X56197830Y-106563998D01*
X56194965Y-106562767D01*
X56191988Y-106561826D01*
X56191984Y-106561824D01*
X56063209Y-106521098D01*
X55817733Y-106443464D01*
X55430517Y-106362218D01*
X55427399Y-106361882D01*
X55039598Y-106320095D01*
X55039595Y-106320095D01*
X55037147Y-106319831D01*
X55034684Y-106319760D01*
X55034683Y-106319760D01*
X55031034Y-106319655D01*
X54979829Y-106318180D01*
X54708768Y-106318180D01*
X54707205Y-106318258D01*
X54707197Y-106318258D01*
X54610829Y-106323056D01*
X54412962Y-106332906D01*
X54409877Y-106333370D01*
X54409875Y-106333370D01*
X54220230Y-106361882D01*
X54021711Y-106391728D01*
X54018676Y-106392499D01*
X54018675Y-106392499D01*
X53641281Y-106488345D01*
X53641278Y-106488346D01*
X53638238Y-106489118D01*
X53635291Y-106490188D01*
X53635290Y-106490188D01*
X53269271Y-106623046D01*
X53269261Y-106623050D01*
X53266333Y-106624113D01*
X52909674Y-106795378D01*
X52571789Y-107001219D01*
X52256019Y-107239601D01*
X52253737Y-107241711D01*
X52253728Y-107241718D01*
X52093817Y-107389539D01*
X51965486Y-107508167D01*
X51963414Y-107510505D01*
X51963409Y-107510510D01*
X51705148Y-107801909D01*
X51705143Y-107801915D01*
X51703064Y-107804261D01*
X51471347Y-108124954D01*
X51272627Y-108467076D01*
X51271337Y-108469913D01*
X51271335Y-108469917D01*
X51168201Y-108696749D01*
X51121797Y-108750482D01*
X51053710Y-108770598D01*
X50985556Y-108750709D01*
X50938974Y-108697131D01*
X50927500Y-108644598D01*
X50927500Y-101585963D01*
X82814757Y-101585963D01*
X82831175Y-101781483D01*
X82885258Y-101970091D01*
X82888076Y-101975574D01*
X82972123Y-102139113D01*
X82972126Y-102139117D01*
X82974944Y-102144601D01*
X83096818Y-102298369D01*
X83246238Y-102425535D01*
X83251616Y-102428541D01*
X83251618Y-102428542D01*
X83287932Y-102448837D01*
X83417513Y-102521257D01*
X83604118Y-102581889D01*
X83798946Y-102605121D01*
X83805081Y-102604649D01*
X83805083Y-102604649D01*
X83988434Y-102590541D01*
X83988438Y-102590540D01*
X83994576Y-102590068D01*
X84183556Y-102537303D01*
X84358689Y-102448837D01*
X84388515Y-102425535D01*
X84508453Y-102331829D01*
X84513303Y-102328040D01*
X84543084Y-102293539D01*
X84637485Y-102184173D01*
X84637485Y-102184172D01*
X84641509Y-102179511D01*
X84738425Y-102008909D01*
X84800358Y-101822732D01*
X84824949Y-101628071D01*
X84825341Y-101600000D01*
X84823965Y-101585963D01*
X85354757Y-101585963D01*
X85371175Y-101781483D01*
X85425258Y-101970091D01*
X85428076Y-101975574D01*
X85512123Y-102139113D01*
X85512126Y-102139117D01*
X85514944Y-102144601D01*
X85636818Y-102298369D01*
X85786238Y-102425535D01*
X85791616Y-102428541D01*
X85791618Y-102428542D01*
X85827932Y-102448837D01*
X85957513Y-102521257D01*
X86144118Y-102581889D01*
X86338946Y-102605121D01*
X86345081Y-102604649D01*
X86345083Y-102604649D01*
X86528434Y-102590541D01*
X86528438Y-102590540D01*
X86534576Y-102590068D01*
X86723556Y-102537303D01*
X86898689Y-102448837D01*
X86928515Y-102425535D01*
X87048453Y-102331829D01*
X87053303Y-102328040D01*
X87083084Y-102293539D01*
X87177485Y-102184173D01*
X87177485Y-102184172D01*
X87181509Y-102179511D01*
X87278425Y-102008909D01*
X87340358Y-101822732D01*
X87364949Y-101628071D01*
X87365341Y-101600000D01*
X87363965Y-101585963D01*
X87894757Y-101585963D01*
X87911175Y-101781483D01*
X87965258Y-101970091D01*
X87968076Y-101975574D01*
X88052123Y-102139113D01*
X88052126Y-102139117D01*
X88054944Y-102144601D01*
X88176818Y-102298369D01*
X88326238Y-102425535D01*
X88331616Y-102428541D01*
X88331618Y-102428542D01*
X88367932Y-102448837D01*
X88497513Y-102521257D01*
X88684118Y-102581889D01*
X88878946Y-102605121D01*
X88885081Y-102604649D01*
X88885083Y-102604649D01*
X89068434Y-102590541D01*
X89068438Y-102590540D01*
X89074576Y-102590068D01*
X89263556Y-102537303D01*
X89438689Y-102448837D01*
X89468515Y-102425535D01*
X89588453Y-102331829D01*
X89593303Y-102328040D01*
X89623084Y-102293539D01*
X89717485Y-102184173D01*
X89717485Y-102184172D01*
X89721509Y-102179511D01*
X89818425Y-102008909D01*
X89880358Y-101822732D01*
X89904949Y-101628071D01*
X89905341Y-101600000D01*
X89903965Y-101585963D01*
X90434757Y-101585963D01*
X90451175Y-101781483D01*
X90505258Y-101970091D01*
X90508076Y-101975574D01*
X90592123Y-102139113D01*
X90592126Y-102139117D01*
X90594944Y-102144601D01*
X90716818Y-102298369D01*
X90866238Y-102425535D01*
X90871616Y-102428541D01*
X90871618Y-102428542D01*
X90907932Y-102448837D01*
X91037513Y-102521257D01*
X91224118Y-102581889D01*
X91418946Y-102605121D01*
X91425081Y-102604649D01*
X91425083Y-102604649D01*
X91608434Y-102590541D01*
X91608438Y-102590540D01*
X91614576Y-102590068D01*
X91803556Y-102537303D01*
X91978689Y-102448837D01*
X92008515Y-102425535D01*
X92128453Y-102331829D01*
X92133303Y-102328040D01*
X92163084Y-102293539D01*
X92257485Y-102184173D01*
X92257485Y-102184172D01*
X92261509Y-102179511D01*
X92358425Y-102008909D01*
X92420358Y-101822732D01*
X92444949Y-101628071D01*
X92445341Y-101600000D01*
X92443965Y-101585963D01*
X92974757Y-101585963D01*
X92991175Y-101781483D01*
X93045258Y-101970091D01*
X93048076Y-101975574D01*
X93132123Y-102139113D01*
X93132126Y-102139117D01*
X93134944Y-102144601D01*
X93256818Y-102298369D01*
X93406238Y-102425535D01*
X93411616Y-102428541D01*
X93411618Y-102428542D01*
X93447932Y-102448837D01*
X93577513Y-102521257D01*
X93764118Y-102581889D01*
X93958946Y-102605121D01*
X93965081Y-102604649D01*
X93965083Y-102604649D01*
X94148434Y-102590541D01*
X94148438Y-102590540D01*
X94154576Y-102590068D01*
X94343556Y-102537303D01*
X94518689Y-102448837D01*
X94548515Y-102425535D01*
X94668453Y-102331829D01*
X94673303Y-102328040D01*
X94703084Y-102293539D01*
X94797485Y-102184173D01*
X94797485Y-102184172D01*
X94801509Y-102179511D01*
X94898425Y-102008909D01*
X94960358Y-101822732D01*
X94984949Y-101628071D01*
X94985341Y-101600000D01*
X94983965Y-101585963D01*
X95514757Y-101585963D01*
X95531175Y-101781483D01*
X95585258Y-101970091D01*
X95588076Y-101975574D01*
X95672123Y-102139113D01*
X95672126Y-102139117D01*
X95674944Y-102144601D01*
X95796818Y-102298369D01*
X95946238Y-102425535D01*
X95951616Y-102428541D01*
X95951618Y-102428542D01*
X95987932Y-102448837D01*
X96117513Y-102521257D01*
X96304118Y-102581889D01*
X96498946Y-102605121D01*
X96505081Y-102604649D01*
X96505083Y-102604649D01*
X96688434Y-102590541D01*
X96688438Y-102590540D01*
X96694576Y-102590068D01*
X96883556Y-102537303D01*
X97058689Y-102448837D01*
X97088515Y-102425535D01*
X97208453Y-102331829D01*
X97213303Y-102328040D01*
X97243084Y-102293539D01*
X97337485Y-102184173D01*
X97337485Y-102184172D01*
X97341509Y-102179511D01*
X97438425Y-102008909D01*
X97500358Y-101822732D01*
X97524949Y-101628071D01*
X97525341Y-101600000D01*
X97523965Y-101585963D01*
X98054757Y-101585963D01*
X98071175Y-101781483D01*
X98125258Y-101970091D01*
X98128076Y-101975574D01*
X98212123Y-102139113D01*
X98212126Y-102139117D01*
X98214944Y-102144601D01*
X98336818Y-102298369D01*
X98486238Y-102425535D01*
X98491616Y-102428541D01*
X98491618Y-102428542D01*
X98527932Y-102448837D01*
X98657513Y-102521257D01*
X98844118Y-102581889D01*
X99038946Y-102605121D01*
X99045081Y-102604649D01*
X99045083Y-102604649D01*
X99228434Y-102590541D01*
X99228438Y-102590540D01*
X99234576Y-102590068D01*
X99423556Y-102537303D01*
X99598689Y-102448837D01*
X99628515Y-102425535D01*
X99748453Y-102331829D01*
X99753303Y-102328040D01*
X99783084Y-102293539D01*
X99877485Y-102184173D01*
X99877485Y-102184172D01*
X99881509Y-102179511D01*
X99978425Y-102008909D01*
X100040358Y-101822732D01*
X100064949Y-101628071D01*
X100065341Y-101600000D01*
X100063965Y-101585963D01*
X100594757Y-101585963D01*
X100611175Y-101781483D01*
X100665258Y-101970091D01*
X100668076Y-101975574D01*
X100752123Y-102139113D01*
X100752126Y-102139117D01*
X100754944Y-102144601D01*
X100876818Y-102298369D01*
X101026238Y-102425535D01*
X101031616Y-102428541D01*
X101031618Y-102428542D01*
X101067932Y-102448837D01*
X101197513Y-102521257D01*
X101384118Y-102581889D01*
X101578946Y-102605121D01*
X101585081Y-102604649D01*
X101585083Y-102604649D01*
X101768434Y-102590541D01*
X101768438Y-102590540D01*
X101774576Y-102590068D01*
X101963556Y-102537303D01*
X102138689Y-102448837D01*
X102168515Y-102425535D01*
X102288453Y-102331829D01*
X102293303Y-102328040D01*
X102323084Y-102293539D01*
X102417485Y-102184173D01*
X102417485Y-102184172D01*
X102421509Y-102179511D01*
X102518425Y-102008909D01*
X102580358Y-101822732D01*
X102604949Y-101628071D01*
X102605341Y-101600000D01*
X102603965Y-101585963D01*
X104654757Y-101585963D01*
X104671175Y-101781483D01*
X104725258Y-101970091D01*
X104728076Y-101975574D01*
X104812123Y-102139113D01*
X104812126Y-102139117D01*
X104814944Y-102144601D01*
X104936818Y-102298369D01*
X105086238Y-102425535D01*
X105091616Y-102428541D01*
X105091618Y-102428542D01*
X105127932Y-102448837D01*
X105257513Y-102521257D01*
X105444118Y-102581889D01*
X105638946Y-102605121D01*
X105645081Y-102604649D01*
X105645083Y-102604649D01*
X105828434Y-102590541D01*
X105828438Y-102590540D01*
X105834576Y-102590068D01*
X106023556Y-102537303D01*
X106198689Y-102448837D01*
X106228515Y-102425535D01*
X106348453Y-102331829D01*
X106353303Y-102328040D01*
X106383084Y-102293539D01*
X106477485Y-102184173D01*
X106477485Y-102184172D01*
X106481509Y-102179511D01*
X106578425Y-102008909D01*
X106640358Y-101822732D01*
X106664949Y-101628071D01*
X106665341Y-101600000D01*
X106663965Y-101585963D01*
X107194757Y-101585963D01*
X107211175Y-101781483D01*
X107265258Y-101970091D01*
X107268076Y-101975574D01*
X107352123Y-102139113D01*
X107352126Y-102139117D01*
X107354944Y-102144601D01*
X107476818Y-102298369D01*
X107626238Y-102425535D01*
X107631616Y-102428541D01*
X107631618Y-102428542D01*
X107667932Y-102448837D01*
X107797513Y-102521257D01*
X107984118Y-102581889D01*
X108178946Y-102605121D01*
X108185081Y-102604649D01*
X108185083Y-102604649D01*
X108368434Y-102590541D01*
X108368438Y-102590540D01*
X108374576Y-102590068D01*
X108563556Y-102537303D01*
X108738689Y-102448837D01*
X108768515Y-102425535D01*
X108888453Y-102331829D01*
X108893303Y-102328040D01*
X108923084Y-102293539D01*
X109017485Y-102184173D01*
X109017485Y-102184172D01*
X109021509Y-102179511D01*
X109118425Y-102008909D01*
X109180358Y-101822732D01*
X109204949Y-101628071D01*
X109205341Y-101600000D01*
X109203965Y-101585963D01*
X109734757Y-101585963D01*
X109751175Y-101781483D01*
X109805258Y-101970091D01*
X109808076Y-101975574D01*
X109892123Y-102139113D01*
X109892126Y-102139117D01*
X109894944Y-102144601D01*
X110016818Y-102298369D01*
X110166238Y-102425535D01*
X110171616Y-102428541D01*
X110171618Y-102428542D01*
X110207932Y-102448837D01*
X110337513Y-102521257D01*
X110524118Y-102581889D01*
X110718946Y-102605121D01*
X110725081Y-102604649D01*
X110725083Y-102604649D01*
X110908434Y-102590541D01*
X110908438Y-102590540D01*
X110914576Y-102590068D01*
X111103556Y-102537303D01*
X111278689Y-102448837D01*
X111308515Y-102425535D01*
X111428453Y-102331829D01*
X111433303Y-102328040D01*
X111463084Y-102293539D01*
X111557485Y-102184173D01*
X111557485Y-102184172D01*
X111561509Y-102179511D01*
X111658425Y-102008909D01*
X111720358Y-101822732D01*
X111744949Y-101628071D01*
X111745341Y-101600000D01*
X111743965Y-101585963D01*
X112274757Y-101585963D01*
X112291175Y-101781483D01*
X112345258Y-101970091D01*
X112348076Y-101975574D01*
X112432123Y-102139113D01*
X112432126Y-102139117D01*
X112434944Y-102144601D01*
X112556818Y-102298369D01*
X112706238Y-102425535D01*
X112711616Y-102428541D01*
X112711618Y-102428542D01*
X112747932Y-102448837D01*
X112877513Y-102521257D01*
X113064118Y-102581889D01*
X113258946Y-102605121D01*
X113265081Y-102604649D01*
X113265083Y-102604649D01*
X113448434Y-102590541D01*
X113448438Y-102590540D01*
X113454576Y-102590068D01*
X113643556Y-102537303D01*
X113818689Y-102448837D01*
X113848515Y-102425535D01*
X113968453Y-102331829D01*
X113973303Y-102328040D01*
X114003084Y-102293539D01*
X114097485Y-102184173D01*
X114097485Y-102184172D01*
X114101509Y-102179511D01*
X114198425Y-102008909D01*
X114260358Y-101822732D01*
X114284949Y-101628071D01*
X114285341Y-101600000D01*
X114283965Y-101585963D01*
X114814757Y-101585963D01*
X114831175Y-101781483D01*
X114885258Y-101970091D01*
X114888076Y-101975574D01*
X114972123Y-102139113D01*
X114972126Y-102139117D01*
X114974944Y-102144601D01*
X115096818Y-102298369D01*
X115246238Y-102425535D01*
X115251616Y-102428541D01*
X115251618Y-102428542D01*
X115287932Y-102448837D01*
X115417513Y-102521257D01*
X115604118Y-102581889D01*
X115798946Y-102605121D01*
X115805081Y-102604649D01*
X115805083Y-102604649D01*
X115988434Y-102590541D01*
X115988438Y-102590540D01*
X115994576Y-102590068D01*
X116183556Y-102537303D01*
X116358689Y-102448837D01*
X116388515Y-102425535D01*
X116508453Y-102331829D01*
X116513303Y-102328040D01*
X116543084Y-102293539D01*
X116637485Y-102184173D01*
X116637485Y-102184172D01*
X116641509Y-102179511D01*
X116738425Y-102008909D01*
X116800358Y-101822732D01*
X116824949Y-101628071D01*
X116825341Y-101600000D01*
X116823965Y-101585963D01*
X117354757Y-101585963D01*
X117371175Y-101781483D01*
X117425258Y-101970091D01*
X117428076Y-101975574D01*
X117512123Y-102139113D01*
X117512126Y-102139117D01*
X117514944Y-102144601D01*
X117636818Y-102298369D01*
X117786238Y-102425535D01*
X117791616Y-102428541D01*
X117791618Y-102428542D01*
X117827932Y-102448837D01*
X117957513Y-102521257D01*
X118144118Y-102581889D01*
X118338946Y-102605121D01*
X118345081Y-102604649D01*
X118345083Y-102604649D01*
X118528434Y-102590541D01*
X118528438Y-102590540D01*
X118534576Y-102590068D01*
X118723556Y-102537303D01*
X118898689Y-102448837D01*
X118928515Y-102425535D01*
X119048453Y-102331829D01*
X119053303Y-102328040D01*
X119083084Y-102293539D01*
X119177485Y-102184173D01*
X119177485Y-102184172D01*
X119181509Y-102179511D01*
X119278425Y-102008909D01*
X119340358Y-101822732D01*
X119364949Y-101628071D01*
X119365341Y-101600000D01*
X119363965Y-101585963D01*
X122434757Y-101585963D01*
X122451175Y-101781483D01*
X122505258Y-101970091D01*
X122508076Y-101975574D01*
X122592123Y-102139113D01*
X122592126Y-102139117D01*
X122594944Y-102144601D01*
X122716818Y-102298369D01*
X122866238Y-102425535D01*
X122871616Y-102428541D01*
X122871618Y-102428542D01*
X122907932Y-102448837D01*
X123037513Y-102521257D01*
X123224118Y-102581889D01*
X123418946Y-102605121D01*
X123425081Y-102604649D01*
X123425083Y-102604649D01*
X123608434Y-102590541D01*
X123608438Y-102590540D01*
X123614576Y-102590068D01*
X123803556Y-102537303D01*
X123978689Y-102448837D01*
X124008515Y-102425535D01*
X124128453Y-102331829D01*
X124133303Y-102328040D01*
X124163084Y-102293539D01*
X124257485Y-102184173D01*
X124257485Y-102184172D01*
X124261509Y-102179511D01*
X124358425Y-102008909D01*
X124420358Y-101822732D01*
X124444949Y-101628071D01*
X124445341Y-101600000D01*
X124443965Y-101585963D01*
X124974757Y-101585963D01*
X124991175Y-101781483D01*
X125045258Y-101970091D01*
X125048076Y-101975574D01*
X125132123Y-102139113D01*
X125132126Y-102139117D01*
X125134944Y-102144601D01*
X125256818Y-102298369D01*
X125406238Y-102425535D01*
X125411616Y-102428541D01*
X125411618Y-102428542D01*
X125447932Y-102448837D01*
X125577513Y-102521257D01*
X125764118Y-102581889D01*
X125958946Y-102605121D01*
X125965081Y-102604649D01*
X125965083Y-102604649D01*
X126148434Y-102590541D01*
X126148438Y-102590540D01*
X126154576Y-102590068D01*
X126343556Y-102537303D01*
X126518689Y-102448837D01*
X126548515Y-102425535D01*
X126668453Y-102331829D01*
X126673303Y-102328040D01*
X126703084Y-102293539D01*
X126797485Y-102184173D01*
X126797485Y-102184172D01*
X126801509Y-102179511D01*
X126898425Y-102008909D01*
X126960358Y-101822732D01*
X126984949Y-101628071D01*
X126985341Y-101600000D01*
X126983965Y-101585963D01*
X127514757Y-101585963D01*
X127531175Y-101781483D01*
X127585258Y-101970091D01*
X127588076Y-101975574D01*
X127672123Y-102139113D01*
X127672126Y-102139117D01*
X127674944Y-102144601D01*
X127796818Y-102298369D01*
X127946238Y-102425535D01*
X127951616Y-102428541D01*
X127951618Y-102428542D01*
X127987932Y-102448837D01*
X128117513Y-102521257D01*
X128304118Y-102581889D01*
X128498946Y-102605121D01*
X128505081Y-102604649D01*
X128505083Y-102604649D01*
X128688434Y-102590541D01*
X128688438Y-102590540D01*
X128694576Y-102590068D01*
X128883556Y-102537303D01*
X129058689Y-102448837D01*
X129088515Y-102425535D01*
X129208453Y-102331829D01*
X129213303Y-102328040D01*
X129243084Y-102293539D01*
X129337485Y-102184173D01*
X129337485Y-102184172D01*
X129341509Y-102179511D01*
X129438425Y-102008909D01*
X129500358Y-101822732D01*
X129524949Y-101628071D01*
X129525341Y-101600000D01*
X129506194Y-101404728D01*
X129504413Y-101398829D01*
X129504412Y-101398824D01*
X129451265Y-101222793D01*
X129449484Y-101216894D01*
X129357370Y-101043653D01*
X129233361Y-100891602D01*
X129082180Y-100766535D01*
X128909585Y-100673213D01*
X128782921Y-100634004D01*
X128728039Y-100617015D01*
X128728036Y-100617014D01*
X128722152Y-100615193D01*
X128716027Y-100614549D01*
X128716026Y-100614549D01*
X128533147Y-100595327D01*
X128533146Y-100595327D01*
X128527019Y-100594683D01*
X128404383Y-100605844D01*
X128337759Y-100611907D01*
X128337758Y-100611907D01*
X128331618Y-100612466D01*
X128325704Y-100614207D01*
X128325702Y-100614207D01*
X128196734Y-100652165D01*
X128143393Y-100667864D01*
X128137928Y-100670721D01*
X127974972Y-100755912D01*
X127974968Y-100755915D01*
X127969512Y-100758767D01*
X127964712Y-100762627D01*
X127964711Y-100762627D01*
X127930326Y-100790273D01*
X127816600Y-100881711D01*
X127690480Y-101032016D01*
X127687516Y-101037408D01*
X127687513Y-101037412D01*
X127608813Y-101180567D01*
X127595956Y-101203954D01*
X127536628Y-101390978D01*
X127514757Y-101585963D01*
X126983965Y-101585963D01*
X126966194Y-101404728D01*
X126964413Y-101398829D01*
X126964412Y-101398824D01*
X126911265Y-101222793D01*
X126909484Y-101216894D01*
X126817370Y-101043653D01*
X126693361Y-100891602D01*
X126542180Y-100766535D01*
X126369585Y-100673213D01*
X126242921Y-100634004D01*
X126188039Y-100617015D01*
X126188036Y-100617014D01*
X126182152Y-100615193D01*
X126176027Y-100614549D01*
X126176026Y-100614549D01*
X125993147Y-100595327D01*
X125993146Y-100595327D01*
X125987019Y-100594683D01*
X125864383Y-100605844D01*
X125797759Y-100611907D01*
X125797758Y-100611907D01*
X125791618Y-100612466D01*
X125785704Y-100614207D01*
X125785702Y-100614207D01*
X125656734Y-100652165D01*
X125603393Y-100667864D01*
X125597928Y-100670721D01*
X125434972Y-100755912D01*
X125434968Y-100755915D01*
X125429512Y-100758767D01*
X125424712Y-100762627D01*
X125424711Y-100762627D01*
X125390326Y-100790273D01*
X125276600Y-100881711D01*
X125150480Y-101032016D01*
X125147516Y-101037408D01*
X125147513Y-101037412D01*
X125068813Y-101180567D01*
X125055956Y-101203954D01*
X124996628Y-101390978D01*
X124974757Y-101585963D01*
X124443965Y-101585963D01*
X124426194Y-101404728D01*
X124424413Y-101398829D01*
X124424412Y-101398824D01*
X124371265Y-101222793D01*
X124369484Y-101216894D01*
X124277370Y-101043653D01*
X124153361Y-100891602D01*
X124002180Y-100766535D01*
X123829585Y-100673213D01*
X123702921Y-100634004D01*
X123648039Y-100617015D01*
X123648036Y-100617014D01*
X123642152Y-100615193D01*
X123636027Y-100614549D01*
X123636026Y-100614549D01*
X123453147Y-100595327D01*
X123453146Y-100595327D01*
X123447019Y-100594683D01*
X123324383Y-100605844D01*
X123257759Y-100611907D01*
X123257758Y-100611907D01*
X123251618Y-100612466D01*
X123245704Y-100614207D01*
X123245702Y-100614207D01*
X123116734Y-100652165D01*
X123063393Y-100667864D01*
X123057928Y-100670721D01*
X122894972Y-100755912D01*
X122894968Y-100755915D01*
X122889512Y-100758767D01*
X122884712Y-100762627D01*
X122884711Y-100762627D01*
X122850326Y-100790273D01*
X122736600Y-100881711D01*
X122610480Y-101032016D01*
X122607516Y-101037408D01*
X122607513Y-101037412D01*
X122528813Y-101180567D01*
X122515956Y-101203954D01*
X122456628Y-101390978D01*
X122434757Y-101585963D01*
X119363965Y-101585963D01*
X119346194Y-101404728D01*
X119344413Y-101398829D01*
X119344412Y-101398824D01*
X119291265Y-101222793D01*
X119289484Y-101216894D01*
X119197370Y-101043653D01*
X119073361Y-100891602D01*
X118922180Y-100766535D01*
X118749585Y-100673213D01*
X118622921Y-100634004D01*
X118568039Y-100617015D01*
X118568036Y-100617014D01*
X118562152Y-100615193D01*
X118556027Y-100614549D01*
X118556026Y-100614549D01*
X118373147Y-100595327D01*
X118373146Y-100595327D01*
X118367019Y-100594683D01*
X118244383Y-100605844D01*
X118177759Y-100611907D01*
X118177758Y-100611907D01*
X118171618Y-100612466D01*
X118165704Y-100614207D01*
X118165702Y-100614207D01*
X118036734Y-100652165D01*
X117983393Y-100667864D01*
X117977928Y-100670721D01*
X117814972Y-100755912D01*
X117814968Y-100755915D01*
X117809512Y-100758767D01*
X117804712Y-100762627D01*
X117804711Y-100762627D01*
X117770326Y-100790273D01*
X117656600Y-100881711D01*
X117530480Y-101032016D01*
X117527516Y-101037408D01*
X117527513Y-101037412D01*
X117448813Y-101180567D01*
X117435956Y-101203954D01*
X117376628Y-101390978D01*
X117354757Y-101585963D01*
X116823965Y-101585963D01*
X116806194Y-101404728D01*
X116804413Y-101398829D01*
X116804412Y-101398824D01*
X116751265Y-101222793D01*
X116749484Y-101216894D01*
X116657370Y-101043653D01*
X116533361Y-100891602D01*
X116382180Y-100766535D01*
X116209585Y-100673213D01*
X116082921Y-100634004D01*
X116028039Y-100617015D01*
X116028036Y-100617014D01*
X116022152Y-100615193D01*
X116016027Y-100614549D01*
X116016026Y-100614549D01*
X115833147Y-100595327D01*
X115833146Y-100595327D01*
X115827019Y-100594683D01*
X115704383Y-100605844D01*
X115637759Y-100611907D01*
X115637758Y-100611907D01*
X115631618Y-100612466D01*
X115625704Y-100614207D01*
X115625702Y-100614207D01*
X115496734Y-100652165D01*
X115443393Y-100667864D01*
X115437928Y-100670721D01*
X115274972Y-100755912D01*
X115274968Y-100755915D01*
X115269512Y-100758767D01*
X115264712Y-100762627D01*
X115264711Y-100762627D01*
X115230326Y-100790273D01*
X115116600Y-100881711D01*
X114990480Y-101032016D01*
X114987516Y-101037408D01*
X114987513Y-101037412D01*
X114908813Y-101180567D01*
X114895956Y-101203954D01*
X114836628Y-101390978D01*
X114814757Y-101585963D01*
X114283965Y-101585963D01*
X114266194Y-101404728D01*
X114264413Y-101398829D01*
X114264412Y-101398824D01*
X114211265Y-101222793D01*
X114209484Y-101216894D01*
X114117370Y-101043653D01*
X113993361Y-100891602D01*
X113842180Y-100766535D01*
X113669585Y-100673213D01*
X113542921Y-100634004D01*
X113488039Y-100617015D01*
X113488036Y-100617014D01*
X113482152Y-100615193D01*
X113476027Y-100614549D01*
X113476026Y-100614549D01*
X113293147Y-100595327D01*
X113293146Y-100595327D01*
X113287019Y-100594683D01*
X113164383Y-100605844D01*
X113097759Y-100611907D01*
X113097758Y-100611907D01*
X113091618Y-100612466D01*
X113085704Y-100614207D01*
X113085702Y-100614207D01*
X112956734Y-100652165D01*
X112903393Y-100667864D01*
X112897928Y-100670721D01*
X112734972Y-100755912D01*
X112734968Y-100755915D01*
X112729512Y-100758767D01*
X112724712Y-100762627D01*
X112724711Y-100762627D01*
X112690326Y-100790273D01*
X112576600Y-100881711D01*
X112450480Y-101032016D01*
X112447516Y-101037408D01*
X112447513Y-101037412D01*
X112368813Y-101180567D01*
X112355956Y-101203954D01*
X112296628Y-101390978D01*
X112274757Y-101585963D01*
X111743965Y-101585963D01*
X111726194Y-101404728D01*
X111724413Y-101398829D01*
X111724412Y-101398824D01*
X111671265Y-101222793D01*
X111669484Y-101216894D01*
X111577370Y-101043653D01*
X111453361Y-100891602D01*
X111302180Y-100766535D01*
X111129585Y-100673213D01*
X111002921Y-100634004D01*
X110948039Y-100617015D01*
X110948036Y-100617014D01*
X110942152Y-100615193D01*
X110936027Y-100614549D01*
X110936026Y-100614549D01*
X110753147Y-100595327D01*
X110753146Y-100595327D01*
X110747019Y-100594683D01*
X110624383Y-100605844D01*
X110557759Y-100611907D01*
X110557758Y-100611907D01*
X110551618Y-100612466D01*
X110545704Y-100614207D01*
X110545702Y-100614207D01*
X110416734Y-100652165D01*
X110363393Y-100667864D01*
X110357928Y-100670721D01*
X110194972Y-100755912D01*
X110194968Y-100755915D01*
X110189512Y-100758767D01*
X110184712Y-100762627D01*
X110184711Y-100762627D01*
X110150326Y-100790273D01*
X110036600Y-100881711D01*
X109910480Y-101032016D01*
X109907516Y-101037408D01*
X109907513Y-101037412D01*
X109828813Y-101180567D01*
X109815956Y-101203954D01*
X109756628Y-101390978D01*
X109734757Y-101585963D01*
X109203965Y-101585963D01*
X109186194Y-101404728D01*
X109184413Y-101398829D01*
X109184412Y-101398824D01*
X109131265Y-101222793D01*
X109129484Y-101216894D01*
X109037370Y-101043653D01*
X108913361Y-100891602D01*
X108762180Y-100766535D01*
X108589585Y-100673213D01*
X108462921Y-100634004D01*
X108408039Y-100617015D01*
X108408036Y-100617014D01*
X108402152Y-100615193D01*
X108396027Y-100614549D01*
X108396026Y-100614549D01*
X108213147Y-100595327D01*
X108213146Y-100595327D01*
X108207019Y-100594683D01*
X108084383Y-100605844D01*
X108017759Y-100611907D01*
X108017758Y-100611907D01*
X108011618Y-100612466D01*
X108005704Y-100614207D01*
X108005702Y-100614207D01*
X107876734Y-100652165D01*
X107823393Y-100667864D01*
X107817928Y-100670721D01*
X107654972Y-100755912D01*
X107654968Y-100755915D01*
X107649512Y-100758767D01*
X107644712Y-100762627D01*
X107644711Y-100762627D01*
X107610326Y-100790273D01*
X107496600Y-100881711D01*
X107370480Y-101032016D01*
X107367516Y-101037408D01*
X107367513Y-101037412D01*
X107288813Y-101180567D01*
X107275956Y-101203954D01*
X107216628Y-101390978D01*
X107194757Y-101585963D01*
X106663965Y-101585963D01*
X106646194Y-101404728D01*
X106644413Y-101398829D01*
X106644412Y-101398824D01*
X106591265Y-101222793D01*
X106589484Y-101216894D01*
X106497370Y-101043653D01*
X106373361Y-100891602D01*
X106222180Y-100766535D01*
X106049585Y-100673213D01*
X105922921Y-100634004D01*
X105868039Y-100617015D01*
X105868036Y-100617014D01*
X105862152Y-100615193D01*
X105856027Y-100614549D01*
X105856026Y-100614549D01*
X105673147Y-100595327D01*
X105673146Y-100595327D01*
X105667019Y-100594683D01*
X105544383Y-100605844D01*
X105477759Y-100611907D01*
X105477758Y-100611907D01*
X105471618Y-100612466D01*
X105465704Y-100614207D01*
X105465702Y-100614207D01*
X105336734Y-100652165D01*
X105283393Y-100667864D01*
X105277928Y-100670721D01*
X105114972Y-100755912D01*
X105114968Y-100755915D01*
X105109512Y-100758767D01*
X105104712Y-100762627D01*
X105104711Y-100762627D01*
X105070326Y-100790273D01*
X104956600Y-100881711D01*
X104830480Y-101032016D01*
X104827516Y-101037408D01*
X104827513Y-101037412D01*
X104748813Y-101180567D01*
X104735956Y-101203954D01*
X104676628Y-101390978D01*
X104654757Y-101585963D01*
X102603965Y-101585963D01*
X102586194Y-101404728D01*
X102584413Y-101398829D01*
X102584412Y-101398824D01*
X102531265Y-101222793D01*
X102529484Y-101216894D01*
X102437370Y-101043653D01*
X102313361Y-100891602D01*
X102162180Y-100766535D01*
X101989585Y-100673213D01*
X101862921Y-100634004D01*
X101808039Y-100617015D01*
X101808036Y-100617014D01*
X101802152Y-100615193D01*
X101796027Y-100614549D01*
X101796026Y-100614549D01*
X101613147Y-100595327D01*
X101613146Y-100595327D01*
X101607019Y-100594683D01*
X101484383Y-100605844D01*
X101417759Y-100611907D01*
X101417758Y-100611907D01*
X101411618Y-100612466D01*
X101405704Y-100614207D01*
X101405702Y-100614207D01*
X101276734Y-100652165D01*
X101223393Y-100667864D01*
X101217928Y-100670721D01*
X101054972Y-100755912D01*
X101054968Y-100755915D01*
X101049512Y-100758767D01*
X101044712Y-100762627D01*
X101044711Y-100762627D01*
X101010326Y-100790273D01*
X100896600Y-100881711D01*
X100770480Y-101032016D01*
X100767516Y-101037408D01*
X100767513Y-101037412D01*
X100688813Y-101180567D01*
X100675956Y-101203954D01*
X100616628Y-101390978D01*
X100594757Y-101585963D01*
X100063965Y-101585963D01*
X100046194Y-101404728D01*
X100044413Y-101398829D01*
X100044412Y-101398824D01*
X99991265Y-101222793D01*
X99989484Y-101216894D01*
X99897370Y-101043653D01*
X99773361Y-100891602D01*
X99622180Y-100766535D01*
X99449585Y-100673213D01*
X99322921Y-100634004D01*
X99268039Y-100617015D01*
X99268036Y-100617014D01*
X99262152Y-100615193D01*
X99256027Y-100614549D01*
X99256026Y-100614549D01*
X99073147Y-100595327D01*
X99073146Y-100595327D01*
X99067019Y-100594683D01*
X98944383Y-100605844D01*
X98877759Y-100611907D01*
X98877758Y-100611907D01*
X98871618Y-100612466D01*
X98865704Y-100614207D01*
X98865702Y-100614207D01*
X98736734Y-100652165D01*
X98683393Y-100667864D01*
X98677928Y-100670721D01*
X98514972Y-100755912D01*
X98514968Y-100755915D01*
X98509512Y-100758767D01*
X98504712Y-100762627D01*
X98504711Y-100762627D01*
X98470326Y-100790273D01*
X98356600Y-100881711D01*
X98230480Y-101032016D01*
X98227516Y-101037408D01*
X98227513Y-101037412D01*
X98148813Y-101180567D01*
X98135956Y-101203954D01*
X98076628Y-101390978D01*
X98054757Y-101585963D01*
X97523965Y-101585963D01*
X97506194Y-101404728D01*
X97504413Y-101398829D01*
X97504412Y-101398824D01*
X97451265Y-101222793D01*
X97449484Y-101216894D01*
X97357370Y-101043653D01*
X97233361Y-100891602D01*
X97082180Y-100766535D01*
X96909585Y-100673213D01*
X96782921Y-100634004D01*
X96728039Y-100617015D01*
X96728036Y-100617014D01*
X96722152Y-100615193D01*
X96716027Y-100614549D01*
X96716026Y-100614549D01*
X96533147Y-100595327D01*
X96533146Y-100595327D01*
X96527019Y-100594683D01*
X96404383Y-100605844D01*
X96337759Y-100611907D01*
X96337758Y-100611907D01*
X96331618Y-100612466D01*
X96325704Y-100614207D01*
X96325702Y-100614207D01*
X96196734Y-100652165D01*
X96143393Y-100667864D01*
X96137928Y-100670721D01*
X95974972Y-100755912D01*
X95974968Y-100755915D01*
X95969512Y-100758767D01*
X95964712Y-100762627D01*
X95964711Y-100762627D01*
X95930326Y-100790273D01*
X95816600Y-100881711D01*
X95690480Y-101032016D01*
X95687516Y-101037408D01*
X95687513Y-101037412D01*
X95608813Y-101180567D01*
X95595956Y-101203954D01*
X95536628Y-101390978D01*
X95514757Y-101585963D01*
X94983965Y-101585963D01*
X94966194Y-101404728D01*
X94964413Y-101398829D01*
X94964412Y-101398824D01*
X94911265Y-101222793D01*
X94909484Y-101216894D01*
X94817370Y-101043653D01*
X94693361Y-100891602D01*
X94542180Y-100766535D01*
X94369585Y-100673213D01*
X94242921Y-100634004D01*
X94188039Y-100617015D01*
X94188036Y-100617014D01*
X94182152Y-100615193D01*
X94176027Y-100614549D01*
X94176026Y-100614549D01*
X93993147Y-100595327D01*
X93993146Y-100595327D01*
X93987019Y-100594683D01*
X93864383Y-100605844D01*
X93797759Y-100611907D01*
X93797758Y-100611907D01*
X93791618Y-100612466D01*
X93785704Y-100614207D01*
X93785702Y-100614207D01*
X93656734Y-100652165D01*
X93603393Y-100667864D01*
X93597928Y-100670721D01*
X93434972Y-100755912D01*
X93434968Y-100755915D01*
X93429512Y-100758767D01*
X93424712Y-100762627D01*
X93424711Y-100762627D01*
X93390326Y-100790273D01*
X93276600Y-100881711D01*
X93150480Y-101032016D01*
X93147516Y-101037408D01*
X93147513Y-101037412D01*
X93068813Y-101180567D01*
X93055956Y-101203954D01*
X92996628Y-101390978D01*
X92974757Y-101585963D01*
X92443965Y-101585963D01*
X92426194Y-101404728D01*
X92424413Y-101398829D01*
X92424412Y-101398824D01*
X92371265Y-101222793D01*
X92369484Y-101216894D01*
X92277370Y-101043653D01*
X92153361Y-100891602D01*
X92002180Y-100766535D01*
X91829585Y-100673213D01*
X91702921Y-100634004D01*
X91648039Y-100617015D01*
X91648036Y-100617014D01*
X91642152Y-100615193D01*
X91636027Y-100614549D01*
X91636026Y-100614549D01*
X91453147Y-100595327D01*
X91453146Y-100595327D01*
X91447019Y-100594683D01*
X91324383Y-100605844D01*
X91257759Y-100611907D01*
X91257758Y-100611907D01*
X91251618Y-100612466D01*
X91245704Y-100614207D01*
X91245702Y-100614207D01*
X91116734Y-100652165D01*
X91063393Y-100667864D01*
X91057928Y-100670721D01*
X90894972Y-100755912D01*
X90894968Y-100755915D01*
X90889512Y-100758767D01*
X90884712Y-100762627D01*
X90884711Y-100762627D01*
X90850326Y-100790273D01*
X90736600Y-100881711D01*
X90610480Y-101032016D01*
X90607516Y-101037408D01*
X90607513Y-101037412D01*
X90528813Y-101180567D01*
X90515956Y-101203954D01*
X90456628Y-101390978D01*
X90434757Y-101585963D01*
X89903965Y-101585963D01*
X89886194Y-101404728D01*
X89884413Y-101398829D01*
X89884412Y-101398824D01*
X89831265Y-101222793D01*
X89829484Y-101216894D01*
X89737370Y-101043653D01*
X89613361Y-100891602D01*
X89462180Y-100766535D01*
X89289585Y-100673213D01*
X89162921Y-100634004D01*
X89108039Y-100617015D01*
X89108036Y-100617014D01*
X89102152Y-100615193D01*
X89096027Y-100614549D01*
X89096026Y-100614549D01*
X88913147Y-100595327D01*
X88913146Y-100595327D01*
X88907019Y-100594683D01*
X88784383Y-100605844D01*
X88717759Y-100611907D01*
X88717758Y-100611907D01*
X88711618Y-100612466D01*
X88705704Y-100614207D01*
X88705702Y-100614207D01*
X88576734Y-100652165D01*
X88523393Y-100667864D01*
X88517928Y-100670721D01*
X88354972Y-100755912D01*
X88354968Y-100755915D01*
X88349512Y-100758767D01*
X88344712Y-100762627D01*
X88344711Y-100762627D01*
X88310326Y-100790273D01*
X88196600Y-100881711D01*
X88070480Y-101032016D01*
X88067516Y-101037408D01*
X88067513Y-101037412D01*
X87988813Y-101180567D01*
X87975956Y-101203954D01*
X87916628Y-101390978D01*
X87894757Y-101585963D01*
X87363965Y-101585963D01*
X87346194Y-101404728D01*
X87344413Y-101398829D01*
X87344412Y-101398824D01*
X87291265Y-101222793D01*
X87289484Y-101216894D01*
X87197370Y-101043653D01*
X87073361Y-100891602D01*
X86922180Y-100766535D01*
X86753571Y-100675368D01*
X86703162Y-100625373D01*
X86687500Y-100564532D01*
X86687500Y-98103751D01*
X86707502Y-98035630D01*
X86736796Y-98003789D01*
X86781729Y-97969311D01*
X86781732Y-97969308D01*
X86788282Y-97964282D01*
X86884536Y-97838841D01*
X86945044Y-97692762D01*
X86965682Y-97536000D01*
X86945044Y-97379238D01*
X86884536Y-97233159D01*
X86788282Y-97107718D01*
X86662841Y-97011464D01*
X86516762Y-96950956D01*
X86360000Y-96930318D01*
X86203238Y-96950956D01*
X86057159Y-97011464D01*
X85931718Y-97107718D01*
X85835464Y-97233159D01*
X85774956Y-97379238D01*
X85754318Y-97536000D01*
X85774956Y-97692762D01*
X85835464Y-97838841D01*
X85931718Y-97964282D01*
X85938268Y-97969308D01*
X85938271Y-97969311D01*
X85983204Y-98003789D01*
X86025071Y-98061127D01*
X86032500Y-98103751D01*
X86032500Y-100565883D01*
X86012498Y-100634004D01*
X85964875Y-100677545D01*
X85814972Y-100755912D01*
X85814968Y-100755915D01*
X85809512Y-100758767D01*
X85804712Y-100762627D01*
X85804711Y-100762627D01*
X85770326Y-100790273D01*
X85656600Y-100881711D01*
X85530480Y-101032016D01*
X85527516Y-101037408D01*
X85527513Y-101037412D01*
X85448813Y-101180567D01*
X85435956Y-101203954D01*
X85376628Y-101390978D01*
X85354757Y-101585963D01*
X84823965Y-101585963D01*
X84806194Y-101404728D01*
X84804413Y-101398829D01*
X84804412Y-101398824D01*
X84751265Y-101222793D01*
X84749484Y-101216894D01*
X84657370Y-101043653D01*
X84533361Y-100891602D01*
X84382180Y-100766535D01*
X84209585Y-100673213D01*
X84082921Y-100634004D01*
X84028039Y-100617015D01*
X84028036Y-100617014D01*
X84022152Y-100615193D01*
X84016027Y-100614549D01*
X84016026Y-100614549D01*
X83833147Y-100595327D01*
X83833146Y-100595327D01*
X83827019Y-100594683D01*
X83704383Y-100605844D01*
X83637759Y-100611907D01*
X83637758Y-100611907D01*
X83631618Y-100612466D01*
X83625704Y-100614207D01*
X83625702Y-100614207D01*
X83496734Y-100652165D01*
X83443393Y-100667864D01*
X83437928Y-100670721D01*
X83274972Y-100755912D01*
X83274968Y-100755915D01*
X83269512Y-100758767D01*
X83264712Y-100762627D01*
X83264711Y-100762627D01*
X83230326Y-100790273D01*
X83116600Y-100881711D01*
X82990480Y-101032016D01*
X82987516Y-101037408D01*
X82987513Y-101037412D01*
X82908813Y-101180567D01*
X82895956Y-101203954D01*
X82836628Y-101390978D01*
X82814757Y-101585963D01*
X50927500Y-101585963D01*
X50927500Y-63408748D01*
X66176500Y-63408748D01*
X66188133Y-63467231D01*
X66232448Y-63533552D01*
X66298769Y-63577867D01*
X66310938Y-63580288D01*
X66310939Y-63580288D01*
X66350354Y-63588128D01*
X66357252Y-63589500D01*
X67240550Y-63589500D01*
X67308671Y-63609502D01*
X67329645Y-63626405D01*
X71009595Y-67306355D01*
X71043621Y-67368667D01*
X71046500Y-67395450D01*
X71046500Y-94504300D01*
X71026498Y-94572421D01*
X70972842Y-94618914D01*
X70920500Y-94630300D01*
X70385218Y-94630300D01*
X70382839Y-94630481D01*
X70382838Y-94630481D01*
X70197791Y-94644557D01*
X70197786Y-94644558D01*
X70193024Y-94644920D01*
X70188370Y-94645999D01*
X70188368Y-94645999D01*
X70040551Y-94680261D01*
X69940985Y-94703339D01*
X69700682Y-94799210D01*
X69477646Y-94930327D01*
X69473935Y-94933348D01*
X69473931Y-94933351D01*
X69339083Y-95043135D01*
X69277009Y-95093671D01*
X69103387Y-95285485D01*
X68960778Y-95501353D01*
X68958777Y-95505693D01*
X68958775Y-95505697D01*
X68898141Y-95637223D01*
X68852462Y-95736309D01*
X68780932Y-95984945D01*
X68780321Y-95989683D01*
X68780320Y-95989687D01*
X68766929Y-96093500D01*
X68747833Y-96241541D01*
X68753929Y-96500190D01*
X68799078Y-96754942D01*
X68882241Y-96999933D01*
X69001505Y-97229525D01*
X69154125Y-97438436D01*
X69336589Y-97621858D01*
X69340435Y-97624699D01*
X69340440Y-97624703D01*
X69488012Y-97733701D01*
X69544698Y-97775570D01*
X69548928Y-97777796D01*
X69548932Y-97777798D01*
X69769426Y-97893805D01*
X69773663Y-97896034D01*
X70018215Y-97980479D01*
X70272726Y-98026961D01*
X70355519Y-98031300D01*
X72616782Y-98031300D01*
X72619161Y-98031119D01*
X72619162Y-98031119D01*
X72804209Y-98017043D01*
X72804214Y-98017042D01*
X72808976Y-98016680D01*
X72813630Y-98015601D01*
X72813632Y-98015601D01*
X73056351Y-97959342D01*
X73056350Y-97959342D01*
X73061015Y-97958261D01*
X73301318Y-97862390D01*
X73524354Y-97731273D01*
X73528065Y-97728252D01*
X73528069Y-97728249D01*
X73721279Y-97570951D01*
X73724991Y-97567929D01*
X73898613Y-97376115D01*
X74041222Y-97160247D01*
X74062421Y-97114264D01*
X74147532Y-96929643D01*
X74147533Y-96929640D01*
X74149538Y-96925291D01*
X74221068Y-96676655D01*
X74254167Y-96420059D01*
X74248071Y-96161410D01*
X74223494Y-96022736D01*
X74203756Y-95911362D01*
X74203755Y-95911358D01*
X74202922Y-95906658D01*
X74119759Y-95661667D01*
X74000495Y-95432075D01*
X73847875Y-95223164D01*
X73665411Y-95039742D01*
X73661565Y-95036901D01*
X73661560Y-95036897D01*
X73461154Y-94888875D01*
X73461153Y-94888874D01*
X73457302Y-94886030D01*
X73453072Y-94883804D01*
X73453068Y-94883802D01*
X73232574Y-94767795D01*
X73232572Y-94767794D01*
X73228337Y-94765566D01*
X72983785Y-94681121D01*
X72729274Y-94634639D01*
X72646481Y-94630300D01*
X72081500Y-94630300D01*
X72013379Y-94610298D01*
X71966886Y-94556642D01*
X71955500Y-94504300D01*
X71955500Y-94450165D01*
X75778866Y-94450165D01*
X75813952Y-94707970D01*
X75886758Y-94957757D01*
X75995686Y-95194039D01*
X75998246Y-95197944D01*
X75998249Y-95197949D01*
X76135775Y-95407712D01*
X76135779Y-95407717D01*
X76138341Y-95411625D01*
X76311591Y-95605735D01*
X76511629Y-95772105D01*
X76734061Y-95907080D01*
X76738375Y-95908889D01*
X76738377Y-95908890D01*
X76969686Y-96005886D01*
X76969691Y-96005888D01*
X76974001Y-96007695D01*
X76978533Y-96008846D01*
X76978536Y-96008847D01*
X77103815Y-96040663D01*
X77226177Y-96071739D01*
X77442286Y-96093500D01*
X77597044Y-96093500D01*
X77599369Y-96093327D01*
X77599375Y-96093327D01*
X77785814Y-96079472D01*
X77785818Y-96079471D01*
X77790466Y-96079126D01*
X78044232Y-96021705D01*
X78048586Y-96020012D01*
X78282370Y-95929098D01*
X78282372Y-95929097D01*
X78286723Y-95927405D01*
X78314793Y-95911362D01*
X78370038Y-95879786D01*
X78512612Y-95798299D01*
X78716936Y-95637223D01*
X78895208Y-95447714D01*
X79043511Y-95233937D01*
X79048824Y-95223164D01*
X79156521Y-95004775D01*
X79156522Y-95004772D01*
X79158586Y-95000587D01*
X79180109Y-94933351D01*
X79236483Y-94757237D01*
X79237906Y-94752792D01*
X79279728Y-94495994D01*
X79280328Y-94450165D01*
X133778866Y-94450165D01*
X133813952Y-94707970D01*
X133886758Y-94957757D01*
X133995686Y-95194039D01*
X133998246Y-95197944D01*
X133998249Y-95197949D01*
X134135775Y-95407712D01*
X134135779Y-95407717D01*
X134138341Y-95411625D01*
X134311591Y-95605735D01*
X134511629Y-95772105D01*
X134734061Y-95907080D01*
X134738375Y-95908889D01*
X134738377Y-95908890D01*
X134969686Y-96005886D01*
X134969691Y-96005888D01*
X134974001Y-96007695D01*
X134978533Y-96008846D01*
X134978536Y-96008847D01*
X135103815Y-96040663D01*
X135226177Y-96071739D01*
X135442286Y-96093500D01*
X135597044Y-96093500D01*
X135599369Y-96093327D01*
X135599375Y-96093327D01*
X135785814Y-96079472D01*
X135785818Y-96079471D01*
X135790466Y-96079126D01*
X136044232Y-96021705D01*
X136048586Y-96020012D01*
X136282370Y-95929098D01*
X136282372Y-95929097D01*
X136286723Y-95927405D01*
X136314793Y-95911362D01*
X136370038Y-95879786D01*
X136512612Y-95798299D01*
X136716936Y-95637223D01*
X136895208Y-95447714D01*
X137043511Y-95233937D01*
X137048824Y-95223164D01*
X137156521Y-95004775D01*
X137156522Y-95004772D01*
X137158586Y-95000587D01*
X137180109Y-94933351D01*
X137236483Y-94757237D01*
X137237906Y-94752792D01*
X137279728Y-94495994D01*
X137283134Y-94235835D01*
X137248048Y-93978030D01*
X137175242Y-93728243D01*
X137066314Y-93491961D01*
X137037637Y-93448221D01*
X136926225Y-93278288D01*
X136926221Y-93278283D01*
X136923659Y-93274375D01*
X136750409Y-93080265D01*
X136550371Y-92913895D01*
X136327939Y-92778920D01*
X136323623Y-92777110D01*
X136092314Y-92680114D01*
X136092309Y-92680112D01*
X136087999Y-92678305D01*
X136083467Y-92677154D01*
X136083464Y-92677153D01*
X135958185Y-92645337D01*
X135835823Y-92614261D01*
X135619714Y-92592500D01*
X135464956Y-92592500D01*
X135462631Y-92592673D01*
X135462625Y-92592673D01*
X135276186Y-92606528D01*
X135276182Y-92606529D01*
X135271534Y-92606874D01*
X135017768Y-92664295D01*
X135013416Y-92665987D01*
X135013414Y-92665988D01*
X134779630Y-92756902D01*
X134779628Y-92756903D01*
X134775277Y-92758595D01*
X134771223Y-92760912D01*
X134771221Y-92760913D01*
X134735467Y-92781348D01*
X134549388Y-92887701D01*
X134345064Y-93048777D01*
X134166792Y-93238286D01*
X134018489Y-93452063D01*
X134016423Y-93456253D01*
X134016421Y-93456256D01*
X133996720Y-93496207D01*
X133903414Y-93685413D01*
X133824094Y-93933208D01*
X133782272Y-94190006D01*
X133778866Y-94450165D01*
X79280328Y-94450165D01*
X79283134Y-94235835D01*
X79248048Y-93978030D01*
X79175242Y-93728243D01*
X79066314Y-93491961D01*
X79037637Y-93448221D01*
X78926225Y-93278288D01*
X78926221Y-93278283D01*
X78923659Y-93274375D01*
X78750409Y-93080265D01*
X78550371Y-92913895D01*
X78327939Y-92778920D01*
X78323623Y-92777110D01*
X78092314Y-92680114D01*
X78092309Y-92680112D01*
X78087999Y-92678305D01*
X78083467Y-92677154D01*
X78083464Y-92677153D01*
X77958185Y-92645337D01*
X77835823Y-92614261D01*
X77619714Y-92592500D01*
X77464956Y-92592500D01*
X77462631Y-92592673D01*
X77462625Y-92592673D01*
X77276186Y-92606528D01*
X77276182Y-92606529D01*
X77271534Y-92606874D01*
X77017768Y-92664295D01*
X77013416Y-92665987D01*
X77013414Y-92665988D01*
X76779630Y-92756902D01*
X76779628Y-92756903D01*
X76775277Y-92758595D01*
X76771223Y-92760912D01*
X76771221Y-92760913D01*
X76735467Y-92781348D01*
X76549388Y-92887701D01*
X76345064Y-93048777D01*
X76166792Y-93238286D01*
X76018489Y-93452063D01*
X76016423Y-93456253D01*
X76016421Y-93456256D01*
X75996720Y-93496207D01*
X75903414Y-93685413D01*
X75824094Y-93933208D01*
X75782272Y-94190006D01*
X75778866Y-94450165D01*
X71955500Y-94450165D01*
X71955500Y-67189456D01*
X71956373Y-67174647D01*
X71959300Y-67149915D01*
X71960407Y-67140562D01*
X71949768Y-67082307D01*
X71949118Y-67078404D01*
X71941715Y-67029161D01*
X71940315Y-67019849D01*
X71937162Y-67013283D01*
X71935853Y-67006116D01*
X71908560Y-66953574D01*
X71906792Y-66950037D01*
X71905370Y-66947076D01*
X71881154Y-66896647D01*
X71876258Y-66891351D01*
X71876166Y-66891215D01*
X71872852Y-66884834D01*
X71868506Y-66879746D01*
X71830924Y-66842164D01*
X71827494Y-66838598D01*
X71794774Y-66803202D01*
X71788383Y-66796288D01*
X71781983Y-66792570D01*
X71775723Y-66786963D01*
X67972405Y-62983645D01*
X67938379Y-62921333D01*
X67935500Y-62894550D01*
X67935500Y-62710000D01*
X71251655Y-62710000D01*
X71270980Y-62893866D01*
X71273020Y-62900143D01*
X71273020Y-62900145D01*
X71288160Y-62946740D01*
X71328111Y-63069696D01*
X71420550Y-63229805D01*
X71544258Y-63367196D01*
X71693827Y-63475865D01*
X71699855Y-63478549D01*
X71699857Y-63478550D01*
X71823394Y-63533552D01*
X71862722Y-63551062D01*
X71953142Y-63570281D01*
X72037104Y-63588128D01*
X72037108Y-63588128D01*
X72043561Y-63589500D01*
X72228439Y-63589500D01*
X72234892Y-63588128D01*
X72234896Y-63588128D01*
X72318858Y-63570281D01*
X72409278Y-63551062D01*
X72448606Y-63533552D01*
X72572143Y-63478550D01*
X72572145Y-63478549D01*
X72578173Y-63475865D01*
X72727742Y-63367196D01*
X72851450Y-63229805D01*
X72943889Y-63069696D01*
X72983840Y-62946740D01*
X72998980Y-62900145D01*
X72998980Y-62900143D01*
X73001020Y-62893866D01*
X73020345Y-62710000D01*
X73003650Y-62551160D01*
X73016422Y-62481322D01*
X73039865Y-62448895D01*
X75911511Y-59577249D01*
X75922600Y-59567394D01*
X75923944Y-59566335D01*
X75949559Y-59546141D01*
X75958604Y-59533054D01*
X75973162Y-59515598D01*
X79771011Y-55717749D01*
X79782100Y-55707894D01*
X79783444Y-55706835D01*
X79809059Y-55686641D01*
X79818104Y-55673554D01*
X79832662Y-55656098D01*
X79879355Y-55609405D01*
X79941667Y-55575379D01*
X79968450Y-55572500D01*
X107407544Y-55572500D01*
X107422354Y-55573373D01*
X107456438Y-55577407D01*
X107465702Y-55575715D01*
X107465705Y-55575715D01*
X107514680Y-55566771D01*
X107518582Y-55566122D01*
X107567836Y-55558716D01*
X107567839Y-55558715D01*
X107577151Y-55557315D01*
X107583718Y-55554162D01*
X107590883Y-55552853D01*
X107643467Y-55525538D01*
X107646957Y-55523795D01*
X107700353Y-55498154D01*
X107705648Y-55493259D01*
X107705787Y-55493166D01*
X107712166Y-55489852D01*
X107717254Y-55485506D01*
X107754836Y-55447924D01*
X107758402Y-55444494D01*
X107793798Y-55411774D01*
X107800712Y-55405383D01*
X107804430Y-55398983D01*
X107810037Y-55392723D01*
X108856498Y-54346262D01*
X108918810Y-54312236D01*
X108984532Y-54315525D01*
X108998260Y-54319986D01*
X108998264Y-54319987D01*
X109004118Y-54321889D01*
X109010228Y-54322618D01*
X109010230Y-54322618D01*
X109076675Y-54330541D01*
X109198946Y-54345121D01*
X109205081Y-54344649D01*
X109205083Y-54344649D01*
X109388434Y-54330541D01*
X109388438Y-54330540D01*
X109394576Y-54330068D01*
X109583556Y-54277303D01*
X109758689Y-54188837D01*
X109788515Y-54165535D01*
X109908453Y-54071829D01*
X109913303Y-54068040D01*
X109943084Y-54033539D01*
X110037485Y-53924173D01*
X110037485Y-53924172D01*
X110041509Y-53919511D01*
X110138425Y-53748909D01*
X110200358Y-53562732D01*
X110224949Y-53368071D01*
X110225341Y-53340000D01*
X110223965Y-53325963D01*
X110754757Y-53325963D01*
X110771175Y-53521483D01*
X110825258Y-53710091D01*
X110828076Y-53715574D01*
X110912123Y-53879113D01*
X110912126Y-53879117D01*
X110914944Y-53884601D01*
X111036818Y-54038369D01*
X111041511Y-54042363D01*
X111041512Y-54042364D01*
X111172169Y-54153561D01*
X111186238Y-54165535D01*
X111191616Y-54168541D01*
X111191618Y-54168542D01*
X111227932Y-54188837D01*
X111357513Y-54261257D01*
X111544118Y-54321889D01*
X111738946Y-54345121D01*
X111745081Y-54344649D01*
X111745083Y-54344649D01*
X111928434Y-54330541D01*
X111928438Y-54330540D01*
X111934576Y-54330068D01*
X112123556Y-54277303D01*
X112298689Y-54188837D01*
X112328515Y-54165535D01*
X112448453Y-54071829D01*
X112453303Y-54068040D01*
X112483084Y-54033539D01*
X112577485Y-53924173D01*
X112577485Y-53924172D01*
X112581509Y-53919511D01*
X112678425Y-53748909D01*
X112740358Y-53562732D01*
X112764949Y-53368071D01*
X112765341Y-53340000D01*
X112763965Y-53325963D01*
X113294757Y-53325963D01*
X113311175Y-53521483D01*
X113365258Y-53710091D01*
X113368076Y-53715574D01*
X113452123Y-53879113D01*
X113452126Y-53879117D01*
X113454944Y-53884601D01*
X113576818Y-54038369D01*
X113581511Y-54042363D01*
X113581512Y-54042364D01*
X113712169Y-54153561D01*
X113726238Y-54165535D01*
X113731616Y-54168541D01*
X113731618Y-54168542D01*
X113767932Y-54188837D01*
X113897513Y-54261257D01*
X114084118Y-54321889D01*
X114278946Y-54345121D01*
X114285081Y-54344649D01*
X114285083Y-54344649D01*
X114468434Y-54330541D01*
X114468438Y-54330540D01*
X114474576Y-54330068D01*
X114663556Y-54277303D01*
X114838689Y-54188837D01*
X114868515Y-54165535D01*
X114988453Y-54071829D01*
X114993303Y-54068040D01*
X115023084Y-54033539D01*
X115117485Y-53924173D01*
X115117485Y-53924172D01*
X115121509Y-53919511D01*
X115218425Y-53748909D01*
X115280358Y-53562732D01*
X115304949Y-53368071D01*
X115305341Y-53340000D01*
X115286194Y-53144728D01*
X115284413Y-53138829D01*
X115284412Y-53138824D01*
X115231265Y-52962793D01*
X115229484Y-52956894D01*
X115137370Y-52783653D01*
X115013361Y-52631602D01*
X114862180Y-52506535D01*
X114689585Y-52413213D01*
X114579697Y-52379197D01*
X114508039Y-52357015D01*
X114508036Y-52357014D01*
X114502152Y-52355193D01*
X114496027Y-52354549D01*
X114496026Y-52354549D01*
X114313147Y-52335327D01*
X114313146Y-52335327D01*
X114307019Y-52334683D01*
X114184383Y-52345844D01*
X114117759Y-52351907D01*
X114117758Y-52351907D01*
X114111618Y-52352466D01*
X114105704Y-52354207D01*
X114105702Y-52354207D01*
X113990789Y-52388028D01*
X113923393Y-52407864D01*
X113917928Y-52410721D01*
X113754972Y-52495912D01*
X113754968Y-52495915D01*
X113749512Y-52498767D01*
X113744712Y-52502627D01*
X113744711Y-52502627D01*
X113730337Y-52514184D01*
X113596600Y-52621711D01*
X113470480Y-52772016D01*
X113467516Y-52777408D01*
X113467513Y-52777412D01*
X113388813Y-52920567D01*
X113375956Y-52943954D01*
X113374095Y-52949821D01*
X113374094Y-52949823D01*
X113358823Y-52997963D01*
X113316628Y-53130978D01*
X113294757Y-53325963D01*
X112763965Y-53325963D01*
X112746194Y-53144728D01*
X112744413Y-53138829D01*
X112744412Y-53138824D01*
X112691265Y-52962793D01*
X112689484Y-52956894D01*
X112597370Y-52783653D01*
X112473361Y-52631602D01*
X112322180Y-52506535D01*
X112149585Y-52413213D01*
X112039697Y-52379197D01*
X111968039Y-52357015D01*
X111968036Y-52357014D01*
X111962152Y-52355193D01*
X111956027Y-52354549D01*
X111956026Y-52354549D01*
X111773147Y-52335327D01*
X111773146Y-52335327D01*
X111767019Y-52334683D01*
X111644383Y-52345844D01*
X111577759Y-52351907D01*
X111577758Y-52351907D01*
X111571618Y-52352466D01*
X111565704Y-52354207D01*
X111565702Y-52354207D01*
X111450789Y-52388028D01*
X111383393Y-52407864D01*
X111377928Y-52410721D01*
X111214972Y-52495912D01*
X111214968Y-52495915D01*
X111209512Y-52498767D01*
X111204712Y-52502627D01*
X111204711Y-52502627D01*
X111190337Y-52514184D01*
X111056600Y-52621711D01*
X110930480Y-52772016D01*
X110927516Y-52777408D01*
X110927513Y-52777412D01*
X110848813Y-52920567D01*
X110835956Y-52943954D01*
X110834095Y-52949821D01*
X110834094Y-52949823D01*
X110818823Y-52997963D01*
X110776628Y-53130978D01*
X110754757Y-53325963D01*
X110223965Y-53325963D01*
X110206194Y-53144728D01*
X110204413Y-53138829D01*
X110204412Y-53138824D01*
X110151265Y-52962793D01*
X110149484Y-52956894D01*
X110057370Y-52783653D01*
X109933361Y-52631602D01*
X109782180Y-52506535D01*
X109609585Y-52413213D01*
X109499697Y-52379197D01*
X109428039Y-52357015D01*
X109428036Y-52357014D01*
X109422152Y-52355193D01*
X109416027Y-52354549D01*
X109416026Y-52354549D01*
X109233147Y-52335327D01*
X109233146Y-52335327D01*
X109227019Y-52334683D01*
X109104383Y-52345844D01*
X109037759Y-52351907D01*
X109037758Y-52351907D01*
X109031618Y-52352466D01*
X109025704Y-52354207D01*
X109025702Y-52354207D01*
X108910789Y-52388028D01*
X108843393Y-52407864D01*
X108837928Y-52410721D01*
X108674972Y-52495912D01*
X108674968Y-52495915D01*
X108669512Y-52498767D01*
X108664712Y-52502627D01*
X108664711Y-52502627D01*
X108650337Y-52514184D01*
X108516600Y-52621711D01*
X108390480Y-52772016D01*
X108387516Y-52777408D01*
X108387513Y-52777412D01*
X108308813Y-52920567D01*
X108295956Y-52943954D01*
X108294095Y-52949821D01*
X108294094Y-52949823D01*
X108278823Y-52997963D01*
X108236628Y-53130978D01*
X108214757Y-53325963D01*
X108231175Y-53521483D01*
X108242783Y-53561963D01*
X108247394Y-53578044D01*
X108246944Y-53649039D01*
X108215370Y-53701870D01*
X107290645Y-54626595D01*
X107228333Y-54660621D01*
X107201550Y-54663500D01*
X80054500Y-54663500D01*
X79986379Y-54643498D01*
X79939886Y-54589842D01*
X79928500Y-54537500D01*
X79928500Y-53325963D01*
X82814757Y-53325963D01*
X82831175Y-53521483D01*
X82885258Y-53710091D01*
X82888076Y-53715574D01*
X82972123Y-53879113D01*
X82972126Y-53879117D01*
X82974944Y-53884601D01*
X83096818Y-54038369D01*
X83101511Y-54042363D01*
X83101512Y-54042364D01*
X83232169Y-54153561D01*
X83246238Y-54165535D01*
X83251616Y-54168541D01*
X83251618Y-54168542D01*
X83287932Y-54188837D01*
X83417513Y-54261257D01*
X83604118Y-54321889D01*
X83798946Y-54345121D01*
X83805081Y-54344649D01*
X83805083Y-54344649D01*
X83988434Y-54330541D01*
X83988438Y-54330540D01*
X83994576Y-54330068D01*
X84183556Y-54277303D01*
X84358689Y-54188837D01*
X84388515Y-54165535D01*
X84508453Y-54071829D01*
X84513303Y-54068040D01*
X84543084Y-54033539D01*
X84637485Y-53924173D01*
X84637485Y-53924172D01*
X84641509Y-53919511D01*
X84738425Y-53748909D01*
X84800358Y-53562732D01*
X84824949Y-53368071D01*
X84825341Y-53340000D01*
X84823965Y-53325963D01*
X85354757Y-53325963D01*
X85371175Y-53521483D01*
X85425258Y-53710091D01*
X85428076Y-53715574D01*
X85512123Y-53879113D01*
X85512126Y-53879117D01*
X85514944Y-53884601D01*
X85636818Y-54038369D01*
X85641511Y-54042363D01*
X85641512Y-54042364D01*
X85772169Y-54153561D01*
X85786238Y-54165535D01*
X85791616Y-54168541D01*
X85791618Y-54168542D01*
X85827932Y-54188837D01*
X85957513Y-54261257D01*
X86144118Y-54321889D01*
X86338946Y-54345121D01*
X86345081Y-54344649D01*
X86345083Y-54344649D01*
X86528434Y-54330541D01*
X86528438Y-54330540D01*
X86534576Y-54330068D01*
X86723556Y-54277303D01*
X86898689Y-54188837D01*
X86928515Y-54165535D01*
X87048453Y-54071829D01*
X87053303Y-54068040D01*
X87083084Y-54033539D01*
X87177485Y-53924173D01*
X87177485Y-53924172D01*
X87181509Y-53919511D01*
X87278425Y-53748909D01*
X87340358Y-53562732D01*
X87364949Y-53368071D01*
X87365341Y-53340000D01*
X87363965Y-53325963D01*
X87894757Y-53325963D01*
X87911175Y-53521483D01*
X87965258Y-53710091D01*
X87968076Y-53715574D01*
X88052123Y-53879113D01*
X88052126Y-53879117D01*
X88054944Y-53884601D01*
X88176818Y-54038369D01*
X88181511Y-54042363D01*
X88181512Y-54042364D01*
X88312169Y-54153561D01*
X88326238Y-54165535D01*
X88331616Y-54168541D01*
X88331618Y-54168542D01*
X88367932Y-54188837D01*
X88497513Y-54261257D01*
X88684118Y-54321889D01*
X88878946Y-54345121D01*
X88885081Y-54344649D01*
X88885083Y-54344649D01*
X89068434Y-54330541D01*
X89068438Y-54330540D01*
X89074576Y-54330068D01*
X89263556Y-54277303D01*
X89438689Y-54188837D01*
X89468515Y-54165535D01*
X89588453Y-54071829D01*
X89593303Y-54068040D01*
X89623084Y-54033539D01*
X89717485Y-53924173D01*
X89717485Y-53924172D01*
X89721509Y-53919511D01*
X89818425Y-53748909D01*
X89880358Y-53562732D01*
X89904949Y-53368071D01*
X89905341Y-53340000D01*
X89903965Y-53325963D01*
X90434757Y-53325963D01*
X90451175Y-53521483D01*
X90505258Y-53710091D01*
X90508076Y-53715574D01*
X90592123Y-53879113D01*
X90592126Y-53879117D01*
X90594944Y-53884601D01*
X90716818Y-54038369D01*
X90721511Y-54042363D01*
X90721512Y-54042364D01*
X90852169Y-54153561D01*
X90866238Y-54165535D01*
X90871616Y-54168541D01*
X90871618Y-54168542D01*
X90907932Y-54188837D01*
X91037513Y-54261257D01*
X91224118Y-54321889D01*
X91418946Y-54345121D01*
X91425081Y-54344649D01*
X91425083Y-54344649D01*
X91608434Y-54330541D01*
X91608438Y-54330540D01*
X91614576Y-54330068D01*
X91803556Y-54277303D01*
X91978689Y-54188837D01*
X92008515Y-54165535D01*
X92128453Y-54071829D01*
X92133303Y-54068040D01*
X92163084Y-54033539D01*
X92257485Y-53924173D01*
X92257485Y-53924172D01*
X92261509Y-53919511D01*
X92358425Y-53748909D01*
X92420358Y-53562732D01*
X92444949Y-53368071D01*
X92445341Y-53340000D01*
X92443965Y-53325963D01*
X92974757Y-53325963D01*
X92991175Y-53521483D01*
X93045258Y-53710091D01*
X93048076Y-53715574D01*
X93132123Y-53879113D01*
X93132126Y-53879117D01*
X93134944Y-53884601D01*
X93256818Y-54038369D01*
X93261511Y-54042363D01*
X93261512Y-54042364D01*
X93392169Y-54153561D01*
X93406238Y-54165535D01*
X93411616Y-54168541D01*
X93411618Y-54168542D01*
X93447932Y-54188837D01*
X93577513Y-54261257D01*
X93764118Y-54321889D01*
X93958946Y-54345121D01*
X93965081Y-54344649D01*
X93965083Y-54344649D01*
X94148434Y-54330541D01*
X94148438Y-54330540D01*
X94154576Y-54330068D01*
X94343556Y-54277303D01*
X94518689Y-54188837D01*
X94548515Y-54165535D01*
X94668453Y-54071829D01*
X94673303Y-54068040D01*
X94703084Y-54033539D01*
X94797485Y-53924173D01*
X94797485Y-53924172D01*
X94801509Y-53919511D01*
X94898425Y-53748909D01*
X94960358Y-53562732D01*
X94984949Y-53368071D01*
X94985341Y-53340000D01*
X94983965Y-53325963D01*
X95514757Y-53325963D01*
X95531175Y-53521483D01*
X95585258Y-53710091D01*
X95588076Y-53715574D01*
X95672123Y-53879113D01*
X95672126Y-53879117D01*
X95674944Y-53884601D01*
X95796818Y-54038369D01*
X95801511Y-54042363D01*
X95801512Y-54042364D01*
X95932169Y-54153561D01*
X95946238Y-54165535D01*
X95951616Y-54168541D01*
X95951618Y-54168542D01*
X95987932Y-54188837D01*
X96117513Y-54261257D01*
X96304118Y-54321889D01*
X96498946Y-54345121D01*
X96505081Y-54344649D01*
X96505083Y-54344649D01*
X96688434Y-54330541D01*
X96688438Y-54330540D01*
X96694576Y-54330068D01*
X96883556Y-54277303D01*
X97058689Y-54188837D01*
X97088515Y-54165535D01*
X97208453Y-54071829D01*
X97213303Y-54068040D01*
X97243084Y-54033539D01*
X97337485Y-53924173D01*
X97337485Y-53924172D01*
X97341509Y-53919511D01*
X97438425Y-53748909D01*
X97500358Y-53562732D01*
X97524949Y-53368071D01*
X97525341Y-53340000D01*
X97523965Y-53325963D01*
X100594757Y-53325963D01*
X100611175Y-53521483D01*
X100665258Y-53710091D01*
X100668076Y-53715574D01*
X100752123Y-53879113D01*
X100752126Y-53879117D01*
X100754944Y-53884601D01*
X100876818Y-54038369D01*
X100881511Y-54042363D01*
X100881512Y-54042364D01*
X101012169Y-54153561D01*
X101026238Y-54165535D01*
X101031616Y-54168541D01*
X101031618Y-54168542D01*
X101067932Y-54188837D01*
X101197513Y-54261257D01*
X101384118Y-54321889D01*
X101578946Y-54345121D01*
X101585081Y-54344649D01*
X101585083Y-54344649D01*
X101768434Y-54330541D01*
X101768438Y-54330540D01*
X101774576Y-54330068D01*
X101963556Y-54277303D01*
X102138689Y-54188837D01*
X102168515Y-54165535D01*
X102288453Y-54071829D01*
X102293303Y-54068040D01*
X102323084Y-54033539D01*
X102417485Y-53924173D01*
X102417485Y-53924172D01*
X102421509Y-53919511D01*
X102518425Y-53748909D01*
X102580358Y-53562732D01*
X102604949Y-53368071D01*
X102605341Y-53340000D01*
X102586194Y-53144728D01*
X102584413Y-53138829D01*
X102584412Y-53138824D01*
X102531265Y-52962793D01*
X102529484Y-52956894D01*
X102437370Y-52783653D01*
X102313361Y-52631602D01*
X102162180Y-52506535D01*
X101989585Y-52413213D01*
X101879697Y-52379197D01*
X101808039Y-52357015D01*
X101808036Y-52357014D01*
X101802152Y-52355193D01*
X101796027Y-52354549D01*
X101796026Y-52354549D01*
X101613147Y-52335327D01*
X101613146Y-52335327D01*
X101607019Y-52334683D01*
X101484383Y-52345844D01*
X101417759Y-52351907D01*
X101417758Y-52351907D01*
X101411618Y-52352466D01*
X101405704Y-52354207D01*
X101405702Y-52354207D01*
X101290789Y-52388028D01*
X101223393Y-52407864D01*
X101217928Y-52410721D01*
X101054972Y-52495912D01*
X101054968Y-52495915D01*
X101049512Y-52498767D01*
X101044712Y-52502627D01*
X101044711Y-52502627D01*
X101030337Y-52514184D01*
X100896600Y-52621711D01*
X100770480Y-52772016D01*
X100767516Y-52777408D01*
X100767513Y-52777412D01*
X100688813Y-52920567D01*
X100675956Y-52943954D01*
X100674095Y-52949821D01*
X100674094Y-52949823D01*
X100658823Y-52997963D01*
X100616628Y-53130978D01*
X100594757Y-53325963D01*
X97523965Y-53325963D01*
X97506194Y-53144728D01*
X97504413Y-53138829D01*
X97504412Y-53138824D01*
X97451265Y-52962793D01*
X97449484Y-52956894D01*
X97357370Y-52783653D01*
X97233361Y-52631602D01*
X97082180Y-52506535D01*
X96909585Y-52413213D01*
X96799697Y-52379197D01*
X96728039Y-52357015D01*
X96728036Y-52357014D01*
X96722152Y-52355193D01*
X96716027Y-52354549D01*
X96716026Y-52354549D01*
X96533147Y-52335327D01*
X96533146Y-52335327D01*
X96527019Y-52334683D01*
X96404383Y-52345844D01*
X96337759Y-52351907D01*
X96337758Y-52351907D01*
X96331618Y-52352466D01*
X96325704Y-52354207D01*
X96325702Y-52354207D01*
X96210789Y-52388028D01*
X96143393Y-52407864D01*
X96137928Y-52410721D01*
X95974972Y-52495912D01*
X95974968Y-52495915D01*
X95969512Y-52498767D01*
X95964712Y-52502627D01*
X95964711Y-52502627D01*
X95950337Y-52514184D01*
X95816600Y-52621711D01*
X95690480Y-52772016D01*
X95687516Y-52777408D01*
X95687513Y-52777412D01*
X95608813Y-52920567D01*
X95595956Y-52943954D01*
X95594095Y-52949821D01*
X95594094Y-52949823D01*
X95578823Y-52997963D01*
X95536628Y-53130978D01*
X95514757Y-53325963D01*
X94983965Y-53325963D01*
X94966194Y-53144728D01*
X94964413Y-53138829D01*
X94964412Y-53138824D01*
X94911265Y-52962793D01*
X94909484Y-52956894D01*
X94817370Y-52783653D01*
X94693361Y-52631602D01*
X94542180Y-52506535D01*
X94369585Y-52413213D01*
X94259697Y-52379197D01*
X94188039Y-52357015D01*
X94188036Y-52357014D01*
X94182152Y-52355193D01*
X94176027Y-52354549D01*
X94176026Y-52354549D01*
X93993147Y-52335327D01*
X93993146Y-52335327D01*
X93987019Y-52334683D01*
X93864383Y-52345844D01*
X93797759Y-52351907D01*
X93797758Y-52351907D01*
X93791618Y-52352466D01*
X93785704Y-52354207D01*
X93785702Y-52354207D01*
X93670789Y-52388028D01*
X93603393Y-52407864D01*
X93597928Y-52410721D01*
X93434972Y-52495912D01*
X93434968Y-52495915D01*
X93429512Y-52498767D01*
X93424712Y-52502627D01*
X93424711Y-52502627D01*
X93410337Y-52514184D01*
X93276600Y-52621711D01*
X93150480Y-52772016D01*
X93147516Y-52777408D01*
X93147513Y-52777412D01*
X93068813Y-52920567D01*
X93055956Y-52943954D01*
X93054095Y-52949821D01*
X93054094Y-52949823D01*
X93038823Y-52997963D01*
X92996628Y-53130978D01*
X92974757Y-53325963D01*
X92443965Y-53325963D01*
X92426194Y-53144728D01*
X92424413Y-53138829D01*
X92424412Y-53138824D01*
X92371265Y-52962793D01*
X92369484Y-52956894D01*
X92277370Y-52783653D01*
X92153361Y-52631602D01*
X92002180Y-52506535D01*
X91829585Y-52413213D01*
X91719697Y-52379197D01*
X91648039Y-52357015D01*
X91648036Y-52357014D01*
X91642152Y-52355193D01*
X91636027Y-52354549D01*
X91636026Y-52354549D01*
X91453147Y-52335327D01*
X91453146Y-52335327D01*
X91447019Y-52334683D01*
X91324383Y-52345844D01*
X91257759Y-52351907D01*
X91257758Y-52351907D01*
X91251618Y-52352466D01*
X91245704Y-52354207D01*
X91245702Y-52354207D01*
X91130789Y-52388028D01*
X91063393Y-52407864D01*
X91057928Y-52410721D01*
X90894972Y-52495912D01*
X90894968Y-52495915D01*
X90889512Y-52498767D01*
X90884712Y-52502627D01*
X90884711Y-52502627D01*
X90870337Y-52514184D01*
X90736600Y-52621711D01*
X90610480Y-52772016D01*
X90607516Y-52777408D01*
X90607513Y-52777412D01*
X90528813Y-52920567D01*
X90515956Y-52943954D01*
X90514095Y-52949821D01*
X90514094Y-52949823D01*
X90498823Y-52997963D01*
X90456628Y-53130978D01*
X90434757Y-53325963D01*
X89903965Y-53325963D01*
X89886194Y-53144728D01*
X89884413Y-53138829D01*
X89884412Y-53138824D01*
X89831265Y-52962793D01*
X89829484Y-52956894D01*
X89737370Y-52783653D01*
X89613361Y-52631602D01*
X89462180Y-52506535D01*
X89289585Y-52413213D01*
X89179697Y-52379197D01*
X89108039Y-52357015D01*
X89108036Y-52357014D01*
X89102152Y-52355193D01*
X89096027Y-52354549D01*
X89096026Y-52354549D01*
X88913147Y-52335327D01*
X88913146Y-52335327D01*
X88907019Y-52334683D01*
X88784383Y-52345844D01*
X88717759Y-52351907D01*
X88717758Y-52351907D01*
X88711618Y-52352466D01*
X88705704Y-52354207D01*
X88705702Y-52354207D01*
X88590789Y-52388028D01*
X88523393Y-52407864D01*
X88517928Y-52410721D01*
X88354972Y-52495912D01*
X88354968Y-52495915D01*
X88349512Y-52498767D01*
X88344712Y-52502627D01*
X88344711Y-52502627D01*
X88330337Y-52514184D01*
X88196600Y-52621711D01*
X88070480Y-52772016D01*
X88067516Y-52777408D01*
X88067513Y-52777412D01*
X87988813Y-52920567D01*
X87975956Y-52943954D01*
X87974095Y-52949821D01*
X87974094Y-52949823D01*
X87958823Y-52997963D01*
X87916628Y-53130978D01*
X87894757Y-53325963D01*
X87363965Y-53325963D01*
X87346194Y-53144728D01*
X87344413Y-53138829D01*
X87344412Y-53138824D01*
X87291265Y-52962793D01*
X87289484Y-52956894D01*
X87197370Y-52783653D01*
X87073361Y-52631602D01*
X86922180Y-52506535D01*
X86749585Y-52413213D01*
X86639697Y-52379197D01*
X86568039Y-52357015D01*
X86568036Y-52357014D01*
X86562152Y-52355193D01*
X86556027Y-52354549D01*
X86556026Y-52354549D01*
X86373147Y-52335327D01*
X86373146Y-52335327D01*
X86367019Y-52334683D01*
X86244383Y-52345844D01*
X86177759Y-52351907D01*
X86177758Y-52351907D01*
X86171618Y-52352466D01*
X86165704Y-52354207D01*
X86165702Y-52354207D01*
X86050789Y-52388028D01*
X85983393Y-52407864D01*
X85977928Y-52410721D01*
X85814972Y-52495912D01*
X85814968Y-52495915D01*
X85809512Y-52498767D01*
X85804712Y-52502627D01*
X85804711Y-52502627D01*
X85790337Y-52514184D01*
X85656600Y-52621711D01*
X85530480Y-52772016D01*
X85527516Y-52777408D01*
X85527513Y-52777412D01*
X85448813Y-52920567D01*
X85435956Y-52943954D01*
X85434095Y-52949821D01*
X85434094Y-52949823D01*
X85418823Y-52997963D01*
X85376628Y-53130978D01*
X85354757Y-53325963D01*
X84823965Y-53325963D01*
X84806194Y-53144728D01*
X84804413Y-53138829D01*
X84804412Y-53138824D01*
X84751265Y-52962793D01*
X84749484Y-52956894D01*
X84657370Y-52783653D01*
X84533361Y-52631602D01*
X84382180Y-52506535D01*
X84209585Y-52413213D01*
X84099697Y-52379197D01*
X84028039Y-52357015D01*
X84028036Y-52357014D01*
X84022152Y-52355193D01*
X84016027Y-52354549D01*
X84016026Y-52354549D01*
X83833147Y-52335327D01*
X83833146Y-52335327D01*
X83827019Y-52334683D01*
X83704383Y-52345844D01*
X83637759Y-52351907D01*
X83637758Y-52351907D01*
X83631618Y-52352466D01*
X83625704Y-52354207D01*
X83625702Y-52354207D01*
X83510789Y-52388028D01*
X83443393Y-52407864D01*
X83437928Y-52410721D01*
X83274972Y-52495912D01*
X83274968Y-52495915D01*
X83269512Y-52498767D01*
X83264712Y-52502627D01*
X83264711Y-52502627D01*
X83250337Y-52514184D01*
X83116600Y-52621711D01*
X82990480Y-52772016D01*
X82987516Y-52777408D01*
X82987513Y-52777412D01*
X82908813Y-52920567D01*
X82895956Y-52943954D01*
X82894095Y-52949821D01*
X82894094Y-52949823D01*
X82878823Y-52997963D01*
X82836628Y-53130978D01*
X82814757Y-53325963D01*
X79928500Y-53325963D01*
X79928500Y-47240450D01*
X79948502Y-47172329D01*
X79965405Y-47151355D01*
X80518498Y-46598262D01*
X81345520Y-46598262D01*
X81346036Y-46604406D01*
X81361930Y-46793676D01*
X81362759Y-46803553D01*
X81364458Y-46809478D01*
X81417049Y-46992884D01*
X81419544Y-47001586D01*
X81422359Y-47007063D01*
X81422360Y-47007066D01*
X81507326Y-47172392D01*
X81513712Y-47184818D01*
X81641677Y-47346270D01*
X81646370Y-47350264D01*
X81646371Y-47350265D01*
X81788920Y-47471583D01*
X81798564Y-47479791D01*
X81978398Y-47580297D01*
X82057350Y-47605950D01*
X82168471Y-47642056D01*
X82168475Y-47642057D01*
X82174329Y-47643959D01*
X82378894Y-47668351D01*
X82385029Y-47667879D01*
X82385031Y-47667879D01*
X82441039Y-47663569D01*
X82584300Y-47652546D01*
X82615056Y-47643959D01*
X82680276Y-47625750D01*
X82751266Y-47626697D01*
X82803254Y-47658014D01*
X85734251Y-50589011D01*
X85744106Y-50600100D01*
X85765359Y-50627059D01*
X85773106Y-50632413D01*
X85814094Y-50660742D01*
X85817287Y-50663024D01*
X85864924Y-50698209D01*
X85871797Y-50700623D01*
X85877789Y-50704764D01*
X85934270Y-50722626D01*
X85937999Y-50723871D01*
X85993874Y-50743493D01*
X86001078Y-50743776D01*
X86001249Y-50743809D01*
X86008097Y-50745975D01*
X86014768Y-50746500D01*
X86067938Y-50746500D01*
X86072884Y-50746597D01*
X86130437Y-50748858D01*
X86137592Y-50746961D01*
X86145970Y-50746500D01*
X113551550Y-50746500D01*
X113619671Y-50766502D01*
X113640645Y-50783405D01*
X115834147Y-52976907D01*
X115868173Y-53039219D01*
X115865154Y-53104100D01*
X115856628Y-53130978D01*
X115855942Y-53137095D01*
X115855941Y-53137099D01*
X115841791Y-53263251D01*
X115834757Y-53325963D01*
X115851175Y-53521483D01*
X115905258Y-53710091D01*
X115908076Y-53715574D01*
X115992123Y-53879113D01*
X115992126Y-53879117D01*
X115994944Y-53884601D01*
X116116818Y-54038369D01*
X116121511Y-54042363D01*
X116121512Y-54042364D01*
X116252169Y-54153561D01*
X116266238Y-54165535D01*
X116271616Y-54168541D01*
X116271618Y-54168542D01*
X116307932Y-54188837D01*
X116437513Y-54261257D01*
X116624118Y-54321889D01*
X116818946Y-54345121D01*
X116825081Y-54344649D01*
X116825083Y-54344649D01*
X117008434Y-54330541D01*
X117008438Y-54330540D01*
X117014576Y-54330068D01*
X117203556Y-54277303D01*
X117378689Y-54188837D01*
X117408515Y-54165535D01*
X117415922Y-54159748D01*
X118379500Y-54159748D01*
X118391133Y-54218231D01*
X118435448Y-54284552D01*
X118501769Y-54328867D01*
X118513938Y-54331288D01*
X118513939Y-54331288D01*
X118554184Y-54339293D01*
X118560252Y-54340500D01*
X120199748Y-54340500D01*
X120205816Y-54339293D01*
X120246061Y-54331288D01*
X120246062Y-54331288D01*
X120258231Y-54328867D01*
X120324552Y-54284552D01*
X120368867Y-54218231D01*
X120380500Y-54159748D01*
X120380500Y-52520252D01*
X120376994Y-52502627D01*
X120371288Y-52473939D01*
X120371288Y-52473938D01*
X120368867Y-52461769D01*
X120324552Y-52395448D01*
X120258231Y-52351133D01*
X120246062Y-52348712D01*
X120246061Y-52348712D01*
X120205816Y-52340707D01*
X120199748Y-52339500D01*
X118560252Y-52339500D01*
X118554184Y-52340707D01*
X118513939Y-52348712D01*
X118513938Y-52348712D01*
X118501769Y-52351133D01*
X118435448Y-52395448D01*
X118391133Y-52461769D01*
X118388712Y-52473938D01*
X118388712Y-52473939D01*
X118383006Y-52502627D01*
X118379500Y-52520252D01*
X118379500Y-54159748D01*
X117415922Y-54159748D01*
X117528453Y-54071829D01*
X117533303Y-54068040D01*
X117563084Y-54033539D01*
X117657485Y-53924173D01*
X117657485Y-53924172D01*
X117661509Y-53919511D01*
X117758425Y-53748909D01*
X117820358Y-53562732D01*
X117844949Y-53368071D01*
X117845341Y-53340000D01*
X117826194Y-53144728D01*
X117824413Y-53138829D01*
X117824412Y-53138824D01*
X117771265Y-52962793D01*
X117769484Y-52956894D01*
X117677370Y-52783653D01*
X117553361Y-52631602D01*
X117402180Y-52506535D01*
X117229585Y-52413213D01*
X117119697Y-52379197D01*
X117048039Y-52357015D01*
X117048036Y-52357014D01*
X117042152Y-52355193D01*
X117036027Y-52354549D01*
X117036026Y-52354549D01*
X116853147Y-52335327D01*
X116853146Y-52335327D01*
X116847019Y-52334683D01*
X116780827Y-52340707D01*
X116657757Y-52351907D01*
X116657754Y-52351908D01*
X116651618Y-52352466D01*
X116645704Y-52354207D01*
X116645702Y-52354207D01*
X116602558Y-52366905D01*
X116531562Y-52366951D01*
X116477887Y-52335127D01*
X114137749Y-49994989D01*
X114127894Y-49983900D01*
X114121394Y-49975655D01*
X114106641Y-49956941D01*
X114071625Y-49932740D01*
X114057906Y-49923258D01*
X114054713Y-49920976D01*
X114007076Y-49885791D01*
X114000203Y-49883377D01*
X113994211Y-49879236D01*
X113937722Y-49861371D01*
X113934001Y-49860129D01*
X113878126Y-49840507D01*
X113870922Y-49840224D01*
X113870751Y-49840191D01*
X113863903Y-49838025D01*
X113857232Y-49837500D01*
X113804062Y-49837500D01*
X113799116Y-49837403D01*
X113798224Y-49837368D01*
X113741563Y-49835142D01*
X113734408Y-49837039D01*
X113726033Y-49837500D01*
X86320450Y-49837500D01*
X86252329Y-49817498D01*
X86231355Y-49800595D01*
X83447254Y-47016494D01*
X83413228Y-46954182D01*
X83416790Y-46887628D01*
X83426637Y-46858027D01*
X83430351Y-46846863D01*
X83456171Y-46642474D01*
X83456583Y-46613000D01*
X83455138Y-46598262D01*
X83885520Y-46598262D01*
X83886036Y-46604406D01*
X83901930Y-46793676D01*
X83902759Y-46803553D01*
X83904458Y-46809478D01*
X83957049Y-46992884D01*
X83959544Y-47001586D01*
X83962359Y-47007063D01*
X83962360Y-47007066D01*
X84047326Y-47172392D01*
X84053712Y-47184818D01*
X84181677Y-47346270D01*
X84186370Y-47350264D01*
X84186371Y-47350265D01*
X84328920Y-47471583D01*
X84338564Y-47479791D01*
X84518398Y-47580297D01*
X84597350Y-47605950D01*
X84708471Y-47642056D01*
X84708475Y-47642057D01*
X84714329Y-47643959D01*
X84918894Y-47668351D01*
X84925029Y-47667879D01*
X84925031Y-47667879D01*
X84981039Y-47663569D01*
X85124300Y-47652546D01*
X85130230Y-47650890D01*
X85130232Y-47650890D01*
X85316797Y-47598800D01*
X85316796Y-47598800D01*
X85322725Y-47597145D01*
X85328214Y-47594372D01*
X85328220Y-47594370D01*
X85485897Y-47514721D01*
X85506610Y-47504258D01*
X85552146Y-47468682D01*
X85645427Y-47395803D01*
X85668951Y-47377424D01*
X85698202Y-47343537D01*
X85799540Y-47226134D01*
X85799540Y-47226133D01*
X85803564Y-47221472D01*
X85824387Y-47184818D01*
X85855907Y-47129332D01*
X85905323Y-47042344D01*
X85970351Y-46846863D01*
X85996171Y-46642474D01*
X85996583Y-46613000D01*
X85995138Y-46598262D01*
X86425520Y-46598262D01*
X86426036Y-46604406D01*
X86441930Y-46793676D01*
X86442759Y-46803553D01*
X86444458Y-46809478D01*
X86497049Y-46992884D01*
X86499544Y-47001586D01*
X86502359Y-47007063D01*
X86502360Y-47007066D01*
X86587326Y-47172392D01*
X86593712Y-47184818D01*
X86721677Y-47346270D01*
X86726370Y-47350264D01*
X86726371Y-47350265D01*
X86868920Y-47471583D01*
X86878564Y-47479791D01*
X87058398Y-47580297D01*
X87137350Y-47605950D01*
X87248471Y-47642056D01*
X87248475Y-47642057D01*
X87254329Y-47643959D01*
X87458894Y-47668351D01*
X87465029Y-47667879D01*
X87465031Y-47667879D01*
X87521039Y-47663569D01*
X87664300Y-47652546D01*
X87670230Y-47650890D01*
X87670232Y-47650890D01*
X87856797Y-47598800D01*
X87856796Y-47598800D01*
X87862725Y-47597145D01*
X87868214Y-47594372D01*
X87868220Y-47594370D01*
X88025897Y-47514721D01*
X88046610Y-47504258D01*
X88092146Y-47468682D01*
X88185427Y-47395803D01*
X88208951Y-47377424D01*
X88238202Y-47343537D01*
X88339540Y-47226134D01*
X88339540Y-47226133D01*
X88343564Y-47221472D01*
X88364387Y-47184818D01*
X88395907Y-47129332D01*
X88445323Y-47042344D01*
X88510351Y-46846863D01*
X88536171Y-46642474D01*
X88536583Y-46613000D01*
X88535138Y-46598262D01*
X88965520Y-46598262D01*
X88966036Y-46604406D01*
X88981930Y-46793676D01*
X88982759Y-46803553D01*
X88984458Y-46809478D01*
X89037049Y-46992884D01*
X89039544Y-47001586D01*
X89042359Y-47007063D01*
X89042360Y-47007066D01*
X89127326Y-47172392D01*
X89133712Y-47184818D01*
X89261677Y-47346270D01*
X89266370Y-47350264D01*
X89266371Y-47350265D01*
X89408920Y-47471583D01*
X89418564Y-47479791D01*
X89598398Y-47580297D01*
X89677350Y-47605950D01*
X89788471Y-47642056D01*
X89788475Y-47642057D01*
X89794329Y-47643959D01*
X89998894Y-47668351D01*
X90005029Y-47667879D01*
X90005031Y-47667879D01*
X90061039Y-47663569D01*
X90204300Y-47652546D01*
X90210230Y-47650890D01*
X90210232Y-47650890D01*
X90396797Y-47598800D01*
X90396796Y-47598800D01*
X90402725Y-47597145D01*
X90408214Y-47594372D01*
X90408220Y-47594370D01*
X90565897Y-47514721D01*
X90586610Y-47504258D01*
X90632146Y-47468682D01*
X90725427Y-47395803D01*
X90748951Y-47377424D01*
X90778202Y-47343537D01*
X90879540Y-47226134D01*
X90879540Y-47226133D01*
X90883564Y-47221472D01*
X90904387Y-47184818D01*
X90935907Y-47129332D01*
X90985323Y-47042344D01*
X91050351Y-46846863D01*
X91076171Y-46642474D01*
X91076583Y-46613000D01*
X91075138Y-46598262D01*
X94045520Y-46598262D01*
X94046036Y-46604406D01*
X94061930Y-46793676D01*
X94062759Y-46803553D01*
X94064458Y-46809478D01*
X94117049Y-46992884D01*
X94119544Y-47001586D01*
X94122359Y-47007063D01*
X94122360Y-47007066D01*
X94207326Y-47172392D01*
X94213712Y-47184818D01*
X94341677Y-47346270D01*
X94346370Y-47350264D01*
X94346371Y-47350265D01*
X94488920Y-47471583D01*
X94498564Y-47479791D01*
X94678398Y-47580297D01*
X94757350Y-47605950D01*
X94868471Y-47642056D01*
X94868475Y-47642057D01*
X94874329Y-47643959D01*
X95078894Y-47668351D01*
X95085029Y-47667879D01*
X95085031Y-47667879D01*
X95141039Y-47663569D01*
X95284300Y-47652546D01*
X95290230Y-47650890D01*
X95290232Y-47650890D01*
X95476797Y-47598800D01*
X95476796Y-47598800D01*
X95482725Y-47597145D01*
X95488214Y-47594372D01*
X95488220Y-47594370D01*
X95645897Y-47514721D01*
X95666610Y-47504258D01*
X95712146Y-47468682D01*
X95805427Y-47395803D01*
X95828951Y-47377424D01*
X95858202Y-47343537D01*
X95959540Y-47226134D01*
X95959540Y-47226133D01*
X95963564Y-47221472D01*
X95984387Y-47184818D01*
X96015907Y-47129332D01*
X96065323Y-47042344D01*
X96130351Y-46846863D01*
X96156171Y-46642474D01*
X96156583Y-46613000D01*
X96155138Y-46598262D01*
X96585520Y-46598262D01*
X96586036Y-46604406D01*
X96601930Y-46793676D01*
X96602759Y-46803553D01*
X96604458Y-46809478D01*
X96657049Y-46992884D01*
X96659544Y-47001586D01*
X96662359Y-47007063D01*
X96662360Y-47007066D01*
X96747326Y-47172392D01*
X96753712Y-47184818D01*
X96881677Y-47346270D01*
X96886370Y-47350264D01*
X96886371Y-47350265D01*
X97028920Y-47471583D01*
X97038564Y-47479791D01*
X97218398Y-47580297D01*
X97297350Y-47605950D01*
X97408471Y-47642056D01*
X97408475Y-47642057D01*
X97414329Y-47643959D01*
X97618894Y-47668351D01*
X97625029Y-47667879D01*
X97625031Y-47667879D01*
X97681039Y-47663569D01*
X97824300Y-47652546D01*
X97830230Y-47650890D01*
X97830232Y-47650890D01*
X98016797Y-47598800D01*
X98016796Y-47598800D01*
X98022725Y-47597145D01*
X98028214Y-47594372D01*
X98028220Y-47594370D01*
X98185897Y-47514721D01*
X98206610Y-47504258D01*
X98252146Y-47468682D01*
X98345427Y-47395803D01*
X98368951Y-47377424D01*
X98398202Y-47343537D01*
X98499540Y-47226134D01*
X98499540Y-47226133D01*
X98503564Y-47221472D01*
X98524387Y-47184818D01*
X98555907Y-47129332D01*
X98605323Y-47042344D01*
X98670351Y-46846863D01*
X98696171Y-46642474D01*
X98696583Y-46613000D01*
X98695138Y-46598262D01*
X99125520Y-46598262D01*
X99126036Y-46604406D01*
X99141930Y-46793676D01*
X99142759Y-46803553D01*
X99144458Y-46809478D01*
X99197049Y-46992884D01*
X99199544Y-47001586D01*
X99202359Y-47007063D01*
X99202360Y-47007066D01*
X99287326Y-47172392D01*
X99293712Y-47184818D01*
X99421677Y-47346270D01*
X99426370Y-47350264D01*
X99426371Y-47350265D01*
X99568920Y-47471583D01*
X99578564Y-47479791D01*
X99758398Y-47580297D01*
X99837350Y-47605950D01*
X99948471Y-47642056D01*
X99948475Y-47642057D01*
X99954329Y-47643959D01*
X100158894Y-47668351D01*
X100165029Y-47667879D01*
X100165031Y-47667879D01*
X100221039Y-47663569D01*
X100364300Y-47652546D01*
X100370230Y-47650890D01*
X100370232Y-47650890D01*
X100556797Y-47598800D01*
X100556796Y-47598800D01*
X100562725Y-47597145D01*
X100568214Y-47594372D01*
X100568220Y-47594370D01*
X100725897Y-47514721D01*
X100746610Y-47504258D01*
X100792146Y-47468682D01*
X100885427Y-47395803D01*
X100908951Y-47377424D01*
X100938202Y-47343537D01*
X101039540Y-47226134D01*
X101039540Y-47226133D01*
X101043564Y-47221472D01*
X101064387Y-47184818D01*
X101095907Y-47129332D01*
X101145323Y-47042344D01*
X101210351Y-46846863D01*
X101236171Y-46642474D01*
X101236583Y-46613000D01*
X101235138Y-46598262D01*
X101665520Y-46598262D01*
X101666036Y-46604406D01*
X101681930Y-46793676D01*
X101682759Y-46803553D01*
X101684458Y-46809478D01*
X101737049Y-46992884D01*
X101739544Y-47001586D01*
X101742359Y-47007063D01*
X101742360Y-47007066D01*
X101827326Y-47172392D01*
X101833712Y-47184818D01*
X101961677Y-47346270D01*
X101966370Y-47350264D01*
X101966371Y-47350265D01*
X102108920Y-47471583D01*
X102118564Y-47479791D01*
X102298398Y-47580297D01*
X102377350Y-47605950D01*
X102488471Y-47642056D01*
X102488475Y-47642057D01*
X102494329Y-47643959D01*
X102698894Y-47668351D01*
X102705029Y-47667879D01*
X102705031Y-47667879D01*
X102761039Y-47663569D01*
X102904300Y-47652546D01*
X102910230Y-47650890D01*
X102910232Y-47650890D01*
X103096797Y-47598800D01*
X103096796Y-47598800D01*
X103102725Y-47597145D01*
X103108214Y-47594372D01*
X103108220Y-47594370D01*
X103265897Y-47514721D01*
X103286610Y-47504258D01*
X103332146Y-47468682D01*
X103425427Y-47395803D01*
X103448951Y-47377424D01*
X103478202Y-47343537D01*
X103579540Y-47226134D01*
X103579540Y-47226133D01*
X103583564Y-47221472D01*
X103604387Y-47184818D01*
X103635907Y-47129332D01*
X103685323Y-47042344D01*
X103750351Y-46846863D01*
X103776171Y-46642474D01*
X103776583Y-46613000D01*
X103775138Y-46598262D01*
X104205520Y-46598262D01*
X104206036Y-46604406D01*
X104221930Y-46793676D01*
X104222759Y-46803553D01*
X104224458Y-46809478D01*
X104277049Y-46992884D01*
X104279544Y-47001586D01*
X104282359Y-47007063D01*
X104282360Y-47007066D01*
X104367326Y-47172392D01*
X104373712Y-47184818D01*
X104501677Y-47346270D01*
X104506370Y-47350264D01*
X104506371Y-47350265D01*
X104648920Y-47471583D01*
X104658564Y-47479791D01*
X104838398Y-47580297D01*
X104917350Y-47605950D01*
X105028471Y-47642056D01*
X105028475Y-47642057D01*
X105034329Y-47643959D01*
X105238894Y-47668351D01*
X105245029Y-47667879D01*
X105245031Y-47667879D01*
X105301039Y-47663569D01*
X105444300Y-47652546D01*
X105450230Y-47650890D01*
X105450232Y-47650890D01*
X105636797Y-47598800D01*
X105636796Y-47598800D01*
X105642725Y-47597145D01*
X105648214Y-47594372D01*
X105648220Y-47594370D01*
X105805897Y-47514721D01*
X105826610Y-47504258D01*
X105872146Y-47468682D01*
X105965427Y-47395803D01*
X105988951Y-47377424D01*
X106018202Y-47343537D01*
X106119540Y-47226134D01*
X106119540Y-47226133D01*
X106123564Y-47221472D01*
X106144387Y-47184818D01*
X106175907Y-47129332D01*
X106225323Y-47042344D01*
X106290351Y-46846863D01*
X106316171Y-46642474D01*
X106316583Y-46613000D01*
X106315138Y-46598262D01*
X106745520Y-46598262D01*
X106746036Y-46604406D01*
X106761930Y-46793676D01*
X106762759Y-46803553D01*
X106764458Y-46809478D01*
X106817049Y-46992884D01*
X106819544Y-47001586D01*
X106822359Y-47007063D01*
X106822360Y-47007066D01*
X106907326Y-47172392D01*
X106913712Y-47184818D01*
X107041677Y-47346270D01*
X107046370Y-47350264D01*
X107046371Y-47350265D01*
X107188920Y-47471583D01*
X107198564Y-47479791D01*
X107378398Y-47580297D01*
X107457350Y-47605950D01*
X107568471Y-47642056D01*
X107568475Y-47642057D01*
X107574329Y-47643959D01*
X107778894Y-47668351D01*
X107785029Y-47667879D01*
X107785031Y-47667879D01*
X107841039Y-47663569D01*
X107984300Y-47652546D01*
X107990230Y-47650890D01*
X107990232Y-47650890D01*
X108176797Y-47598800D01*
X108176796Y-47598800D01*
X108182725Y-47597145D01*
X108188214Y-47594372D01*
X108188220Y-47594370D01*
X108345897Y-47514721D01*
X108366610Y-47504258D01*
X108412146Y-47468682D01*
X108505427Y-47395803D01*
X108528951Y-47377424D01*
X108558202Y-47343537D01*
X108659540Y-47226134D01*
X108659540Y-47226133D01*
X108663564Y-47221472D01*
X108684387Y-47184818D01*
X108715907Y-47129332D01*
X108765323Y-47042344D01*
X108830351Y-46846863D01*
X108856171Y-46642474D01*
X108856583Y-46613000D01*
X108855138Y-46598262D01*
X109285520Y-46598262D01*
X109286036Y-46604406D01*
X109301930Y-46793676D01*
X109302759Y-46803553D01*
X109304458Y-46809478D01*
X109357049Y-46992884D01*
X109359544Y-47001586D01*
X109362359Y-47007063D01*
X109362360Y-47007066D01*
X109447326Y-47172392D01*
X109453712Y-47184818D01*
X109581677Y-47346270D01*
X109586370Y-47350264D01*
X109586371Y-47350265D01*
X109728920Y-47471583D01*
X109738564Y-47479791D01*
X109918398Y-47580297D01*
X109997350Y-47605950D01*
X110108471Y-47642056D01*
X110108475Y-47642057D01*
X110114329Y-47643959D01*
X110318894Y-47668351D01*
X110325029Y-47667879D01*
X110325031Y-47667879D01*
X110381039Y-47663569D01*
X110524300Y-47652546D01*
X110530230Y-47650890D01*
X110530232Y-47650890D01*
X110716797Y-47598800D01*
X110716796Y-47598800D01*
X110722725Y-47597145D01*
X110728214Y-47594372D01*
X110728220Y-47594370D01*
X110885897Y-47514721D01*
X110906610Y-47504258D01*
X110952146Y-47468682D01*
X111045427Y-47395803D01*
X111068951Y-47377424D01*
X111098202Y-47343537D01*
X111199540Y-47226134D01*
X111199540Y-47226133D01*
X111203564Y-47221472D01*
X111224387Y-47184818D01*
X111255907Y-47129332D01*
X111305323Y-47042344D01*
X111370351Y-46846863D01*
X111396171Y-46642474D01*
X111396583Y-46613000D01*
X111395138Y-46598262D01*
X114365520Y-46598262D01*
X114366036Y-46604406D01*
X114381930Y-46793676D01*
X114382759Y-46803553D01*
X114384458Y-46809478D01*
X114437049Y-46992884D01*
X114439544Y-47001586D01*
X114442359Y-47007063D01*
X114442360Y-47007066D01*
X114527326Y-47172392D01*
X114533712Y-47184818D01*
X114661677Y-47346270D01*
X114666370Y-47350264D01*
X114666371Y-47350265D01*
X114808920Y-47471583D01*
X114818564Y-47479791D01*
X114998398Y-47580297D01*
X115077350Y-47605950D01*
X115188471Y-47642056D01*
X115188475Y-47642057D01*
X115194329Y-47643959D01*
X115398894Y-47668351D01*
X115405029Y-47667879D01*
X115405031Y-47667879D01*
X115461039Y-47663569D01*
X115604300Y-47652546D01*
X115610230Y-47650890D01*
X115610232Y-47650890D01*
X115796797Y-47598800D01*
X115796796Y-47598800D01*
X115802725Y-47597145D01*
X115808214Y-47594372D01*
X115808220Y-47594370D01*
X115965897Y-47514721D01*
X115986610Y-47504258D01*
X116032146Y-47468682D01*
X116125427Y-47395803D01*
X116148951Y-47377424D01*
X116178202Y-47343537D01*
X116279540Y-47226134D01*
X116279540Y-47226133D01*
X116283564Y-47221472D01*
X116304387Y-47184818D01*
X116335907Y-47129332D01*
X116385323Y-47042344D01*
X116450351Y-46846863D01*
X116476171Y-46642474D01*
X116476583Y-46613000D01*
X116475138Y-46598262D01*
X116905520Y-46598262D01*
X116906036Y-46604406D01*
X116921930Y-46793676D01*
X116922759Y-46803553D01*
X116924458Y-46809478D01*
X116977049Y-46992884D01*
X116979544Y-47001586D01*
X116982359Y-47007063D01*
X116982360Y-47007066D01*
X117067326Y-47172392D01*
X117073712Y-47184818D01*
X117201677Y-47346270D01*
X117206370Y-47350264D01*
X117206371Y-47350265D01*
X117348920Y-47471583D01*
X117358564Y-47479791D01*
X117538398Y-47580297D01*
X117617350Y-47605950D01*
X117728471Y-47642056D01*
X117728475Y-47642057D01*
X117734329Y-47643959D01*
X117938894Y-47668351D01*
X117945029Y-47667879D01*
X117945031Y-47667879D01*
X118001039Y-47663569D01*
X118144300Y-47652546D01*
X118150230Y-47650890D01*
X118150232Y-47650890D01*
X118336797Y-47598800D01*
X118336796Y-47598800D01*
X118342725Y-47597145D01*
X118348214Y-47594372D01*
X118348220Y-47594370D01*
X118505897Y-47514721D01*
X118526610Y-47504258D01*
X118572146Y-47468682D01*
X118665427Y-47395803D01*
X118688951Y-47377424D01*
X118718202Y-47343537D01*
X118819540Y-47226134D01*
X118819540Y-47226133D01*
X118823564Y-47221472D01*
X118844387Y-47184818D01*
X118875907Y-47129332D01*
X118925323Y-47042344D01*
X118990351Y-46846863D01*
X119016171Y-46642474D01*
X119016583Y-46613000D01*
X119015138Y-46598262D01*
X119445520Y-46598262D01*
X119446036Y-46604406D01*
X119461930Y-46793676D01*
X119462759Y-46803553D01*
X119464458Y-46809478D01*
X119517049Y-46992884D01*
X119519544Y-47001586D01*
X119522359Y-47007063D01*
X119522360Y-47007066D01*
X119607326Y-47172392D01*
X119613712Y-47184818D01*
X119741677Y-47346270D01*
X119746370Y-47350264D01*
X119746371Y-47350265D01*
X119888920Y-47471583D01*
X119898564Y-47479791D01*
X120078398Y-47580297D01*
X120157350Y-47605950D01*
X120268471Y-47642056D01*
X120268475Y-47642057D01*
X120274329Y-47643959D01*
X120478894Y-47668351D01*
X120485029Y-47667879D01*
X120485031Y-47667879D01*
X120541039Y-47663569D01*
X120684300Y-47652546D01*
X120690230Y-47650890D01*
X120690232Y-47650890D01*
X120876797Y-47598800D01*
X120876796Y-47598800D01*
X120882725Y-47597145D01*
X120888214Y-47594372D01*
X120888220Y-47594370D01*
X121045897Y-47514721D01*
X121066610Y-47504258D01*
X121112146Y-47468682D01*
X121205427Y-47395803D01*
X121228951Y-47377424D01*
X121258202Y-47343537D01*
X121359540Y-47226134D01*
X121359540Y-47226133D01*
X121363564Y-47221472D01*
X121384387Y-47184818D01*
X121415907Y-47129332D01*
X121465323Y-47042344D01*
X121530351Y-46846863D01*
X121556171Y-46642474D01*
X121556583Y-46613000D01*
X121555138Y-46598262D01*
X121985520Y-46598262D01*
X121986036Y-46604406D01*
X122001930Y-46793676D01*
X122002759Y-46803553D01*
X122004458Y-46809478D01*
X122057049Y-46992884D01*
X122059544Y-47001586D01*
X122062359Y-47007063D01*
X122062360Y-47007066D01*
X122147326Y-47172392D01*
X122153712Y-47184818D01*
X122281677Y-47346270D01*
X122286370Y-47350264D01*
X122286371Y-47350265D01*
X122428920Y-47471583D01*
X122438564Y-47479791D01*
X122618398Y-47580297D01*
X122697350Y-47605950D01*
X122808471Y-47642056D01*
X122808475Y-47642057D01*
X122814329Y-47643959D01*
X123018894Y-47668351D01*
X123025029Y-47667879D01*
X123025031Y-47667879D01*
X123081039Y-47663569D01*
X123224300Y-47652546D01*
X123230230Y-47650890D01*
X123230232Y-47650890D01*
X123416797Y-47598800D01*
X123416796Y-47598800D01*
X123422725Y-47597145D01*
X123428214Y-47594372D01*
X123428220Y-47594370D01*
X123585897Y-47514721D01*
X123606610Y-47504258D01*
X123652146Y-47468682D01*
X123745427Y-47395803D01*
X123768951Y-47377424D01*
X123798202Y-47343537D01*
X123899540Y-47226134D01*
X123899540Y-47226133D01*
X123903564Y-47221472D01*
X123924387Y-47184818D01*
X123955907Y-47129332D01*
X124005323Y-47042344D01*
X124070351Y-46846863D01*
X124096171Y-46642474D01*
X124096583Y-46613000D01*
X124095138Y-46598262D01*
X124525520Y-46598262D01*
X124526036Y-46604406D01*
X124541930Y-46793676D01*
X124542759Y-46803553D01*
X124544458Y-46809478D01*
X124597049Y-46992884D01*
X124599544Y-47001586D01*
X124602359Y-47007063D01*
X124602360Y-47007066D01*
X124687326Y-47172392D01*
X124693712Y-47184818D01*
X124821677Y-47346270D01*
X124826370Y-47350264D01*
X124826371Y-47350265D01*
X124968920Y-47471583D01*
X124978564Y-47479791D01*
X125158398Y-47580297D01*
X125237350Y-47605950D01*
X125348471Y-47642056D01*
X125348475Y-47642057D01*
X125354329Y-47643959D01*
X125558894Y-47668351D01*
X125565029Y-47667879D01*
X125565031Y-47667879D01*
X125621039Y-47663569D01*
X125764300Y-47652546D01*
X125770230Y-47650890D01*
X125770232Y-47650890D01*
X125956797Y-47598800D01*
X125956796Y-47598800D01*
X125962725Y-47597145D01*
X125968214Y-47594372D01*
X125968220Y-47594370D01*
X126125897Y-47514721D01*
X126146610Y-47504258D01*
X126192146Y-47468682D01*
X126285427Y-47395803D01*
X126308951Y-47377424D01*
X126338202Y-47343537D01*
X126439540Y-47226134D01*
X126439540Y-47226133D01*
X126443564Y-47221472D01*
X126464387Y-47184818D01*
X126495907Y-47129332D01*
X126545323Y-47042344D01*
X126610351Y-46846863D01*
X126636171Y-46642474D01*
X126636583Y-46613000D01*
X126635138Y-46598262D01*
X127065520Y-46598262D01*
X127066036Y-46604406D01*
X127081930Y-46793676D01*
X127082759Y-46803553D01*
X127084458Y-46809478D01*
X127137049Y-46992884D01*
X127139544Y-47001586D01*
X127142359Y-47007063D01*
X127142360Y-47007066D01*
X127227326Y-47172392D01*
X127233712Y-47184818D01*
X127361677Y-47346270D01*
X127366370Y-47350264D01*
X127366371Y-47350265D01*
X127508920Y-47471583D01*
X127518564Y-47479791D01*
X127698398Y-47580297D01*
X127777350Y-47605950D01*
X127888471Y-47642056D01*
X127888475Y-47642057D01*
X127894329Y-47643959D01*
X128098894Y-47668351D01*
X128105029Y-47667879D01*
X128105031Y-47667879D01*
X128161039Y-47663569D01*
X128304300Y-47652546D01*
X128310230Y-47650890D01*
X128310232Y-47650890D01*
X128496797Y-47598800D01*
X128496796Y-47598800D01*
X128502725Y-47597145D01*
X128508214Y-47594372D01*
X128508220Y-47594370D01*
X128665897Y-47514721D01*
X128686610Y-47504258D01*
X128732146Y-47468682D01*
X128825427Y-47395803D01*
X128848951Y-47377424D01*
X128878202Y-47343537D01*
X128979540Y-47226134D01*
X128979540Y-47226133D01*
X128983564Y-47221472D01*
X129004387Y-47184818D01*
X129035907Y-47129332D01*
X129085323Y-47042344D01*
X129150351Y-46846863D01*
X129176171Y-46642474D01*
X129176583Y-46613000D01*
X129156480Y-46407970D01*
X129096935Y-46210749D01*
X129000218Y-46028849D01*
X128926859Y-45938902D01*
X128873906Y-45873975D01*
X128873903Y-45873972D01*
X128870011Y-45869200D01*
X128852786Y-45854950D01*
X128716025Y-45741811D01*
X128716021Y-45741809D01*
X128711275Y-45737882D01*
X128530055Y-45639897D01*
X128333254Y-45578977D01*
X128327129Y-45578333D01*
X128327128Y-45578333D01*
X128134498Y-45558087D01*
X128134496Y-45558087D01*
X128128369Y-45557443D01*
X128041529Y-45565346D01*
X127929342Y-45575555D01*
X127929339Y-45575556D01*
X127923203Y-45576114D01*
X127725572Y-45634280D01*
X127543002Y-45729726D01*
X127538201Y-45733586D01*
X127538198Y-45733588D01*
X127387254Y-45854950D01*
X127382447Y-45858815D01*
X127250024Y-46016630D01*
X127247056Y-46022028D01*
X127247053Y-46022033D01*
X127161936Y-46176862D01*
X127150776Y-46197162D01*
X127088484Y-46393532D01*
X127087798Y-46399649D01*
X127087797Y-46399653D01*
X127071302Y-46546713D01*
X127065520Y-46598262D01*
X126635138Y-46598262D01*
X126616480Y-46407970D01*
X126556935Y-46210749D01*
X126460218Y-46028849D01*
X126386859Y-45938902D01*
X126333906Y-45873975D01*
X126333903Y-45873972D01*
X126330011Y-45869200D01*
X126312786Y-45854950D01*
X126176025Y-45741811D01*
X126176021Y-45741809D01*
X126171275Y-45737882D01*
X125990055Y-45639897D01*
X125793254Y-45578977D01*
X125787129Y-45578333D01*
X125787128Y-45578333D01*
X125594498Y-45558087D01*
X125594496Y-45558087D01*
X125588369Y-45557443D01*
X125501529Y-45565346D01*
X125389342Y-45575555D01*
X125389339Y-45575556D01*
X125383203Y-45576114D01*
X125185572Y-45634280D01*
X125003002Y-45729726D01*
X124998201Y-45733586D01*
X124998198Y-45733588D01*
X124847254Y-45854950D01*
X124842447Y-45858815D01*
X124710024Y-46016630D01*
X124707056Y-46022028D01*
X124707053Y-46022033D01*
X124621936Y-46176862D01*
X124610776Y-46197162D01*
X124548484Y-46393532D01*
X124547798Y-46399649D01*
X124547797Y-46399653D01*
X124531302Y-46546713D01*
X124525520Y-46598262D01*
X124095138Y-46598262D01*
X124076480Y-46407970D01*
X124016935Y-46210749D01*
X123920218Y-46028849D01*
X123846859Y-45938902D01*
X123793906Y-45873975D01*
X123793903Y-45873972D01*
X123790011Y-45869200D01*
X123772786Y-45854950D01*
X123636025Y-45741811D01*
X123636021Y-45741809D01*
X123631275Y-45737882D01*
X123450055Y-45639897D01*
X123253254Y-45578977D01*
X123247129Y-45578333D01*
X123247128Y-45578333D01*
X123054498Y-45558087D01*
X123054496Y-45558087D01*
X123048369Y-45557443D01*
X122961529Y-45565346D01*
X122849342Y-45575555D01*
X122849339Y-45575556D01*
X122843203Y-45576114D01*
X122645572Y-45634280D01*
X122463002Y-45729726D01*
X122458201Y-45733586D01*
X122458198Y-45733588D01*
X122307254Y-45854950D01*
X122302447Y-45858815D01*
X122170024Y-46016630D01*
X122167056Y-46022028D01*
X122167053Y-46022033D01*
X122081936Y-46176862D01*
X122070776Y-46197162D01*
X122008484Y-46393532D01*
X122007798Y-46399649D01*
X122007797Y-46399653D01*
X121991302Y-46546713D01*
X121985520Y-46598262D01*
X121555138Y-46598262D01*
X121536480Y-46407970D01*
X121476935Y-46210749D01*
X121380218Y-46028849D01*
X121306859Y-45938902D01*
X121253906Y-45873975D01*
X121253903Y-45873972D01*
X121250011Y-45869200D01*
X121232786Y-45854950D01*
X121096025Y-45741811D01*
X121096021Y-45741809D01*
X121091275Y-45737882D01*
X120910055Y-45639897D01*
X120713254Y-45578977D01*
X120707129Y-45578333D01*
X120707128Y-45578333D01*
X120514498Y-45558087D01*
X120514496Y-45558087D01*
X120508369Y-45557443D01*
X120421529Y-45565346D01*
X120309342Y-45575555D01*
X120309339Y-45575556D01*
X120303203Y-45576114D01*
X120105572Y-45634280D01*
X119923002Y-45729726D01*
X119918201Y-45733586D01*
X119918198Y-45733588D01*
X119767254Y-45854950D01*
X119762447Y-45858815D01*
X119630024Y-46016630D01*
X119627056Y-46022028D01*
X119627053Y-46022033D01*
X119541936Y-46176862D01*
X119530776Y-46197162D01*
X119468484Y-46393532D01*
X119467798Y-46399649D01*
X119467797Y-46399653D01*
X119451302Y-46546713D01*
X119445520Y-46598262D01*
X119015138Y-46598262D01*
X118996480Y-46407970D01*
X118936935Y-46210749D01*
X118840218Y-46028849D01*
X118766859Y-45938902D01*
X118713906Y-45873975D01*
X118713903Y-45873972D01*
X118710011Y-45869200D01*
X118692786Y-45854950D01*
X118556025Y-45741811D01*
X118556021Y-45741809D01*
X118551275Y-45737882D01*
X118370055Y-45639897D01*
X118173254Y-45578977D01*
X118167129Y-45578333D01*
X118167128Y-45578333D01*
X117974498Y-45558087D01*
X117974496Y-45558087D01*
X117968369Y-45557443D01*
X117881529Y-45565346D01*
X117769342Y-45575555D01*
X117769339Y-45575556D01*
X117763203Y-45576114D01*
X117565572Y-45634280D01*
X117383002Y-45729726D01*
X117378201Y-45733586D01*
X117378198Y-45733588D01*
X117227254Y-45854950D01*
X117222447Y-45858815D01*
X117090024Y-46016630D01*
X117087056Y-46022028D01*
X117087053Y-46022033D01*
X117001936Y-46176862D01*
X116990776Y-46197162D01*
X116928484Y-46393532D01*
X116927798Y-46399649D01*
X116927797Y-46399653D01*
X116911302Y-46546713D01*
X116905520Y-46598262D01*
X116475138Y-46598262D01*
X116456480Y-46407970D01*
X116396935Y-46210749D01*
X116300218Y-46028849D01*
X116226859Y-45938902D01*
X116173906Y-45873975D01*
X116173903Y-45873972D01*
X116170011Y-45869200D01*
X116152786Y-45854950D01*
X116016025Y-45741811D01*
X116016021Y-45741809D01*
X116011275Y-45737882D01*
X115830055Y-45639897D01*
X115633254Y-45578977D01*
X115627129Y-45578333D01*
X115627128Y-45578333D01*
X115434498Y-45558087D01*
X115434496Y-45558087D01*
X115428369Y-45557443D01*
X115341529Y-45565346D01*
X115229342Y-45575555D01*
X115229339Y-45575556D01*
X115223203Y-45576114D01*
X115025572Y-45634280D01*
X114843002Y-45729726D01*
X114838201Y-45733586D01*
X114838198Y-45733588D01*
X114687254Y-45854950D01*
X114682447Y-45858815D01*
X114550024Y-46016630D01*
X114547056Y-46022028D01*
X114547053Y-46022033D01*
X114461936Y-46176862D01*
X114450776Y-46197162D01*
X114388484Y-46393532D01*
X114387798Y-46399649D01*
X114387797Y-46399653D01*
X114371302Y-46546713D01*
X114365520Y-46598262D01*
X111395138Y-46598262D01*
X111376480Y-46407970D01*
X111316935Y-46210749D01*
X111220218Y-46028849D01*
X111146859Y-45938902D01*
X111093906Y-45873975D01*
X111093903Y-45873972D01*
X111090011Y-45869200D01*
X111072786Y-45854950D01*
X110936025Y-45741811D01*
X110936021Y-45741809D01*
X110931275Y-45737882D01*
X110750055Y-45639897D01*
X110553254Y-45578977D01*
X110547129Y-45578333D01*
X110547128Y-45578333D01*
X110354498Y-45558087D01*
X110354496Y-45558087D01*
X110348369Y-45557443D01*
X110261529Y-45565346D01*
X110149342Y-45575555D01*
X110149339Y-45575556D01*
X110143203Y-45576114D01*
X109945572Y-45634280D01*
X109763002Y-45729726D01*
X109758201Y-45733586D01*
X109758198Y-45733588D01*
X109607254Y-45854950D01*
X109602447Y-45858815D01*
X109470024Y-46016630D01*
X109467056Y-46022028D01*
X109467053Y-46022033D01*
X109381936Y-46176862D01*
X109370776Y-46197162D01*
X109308484Y-46393532D01*
X109307798Y-46399649D01*
X109307797Y-46399653D01*
X109291302Y-46546713D01*
X109285520Y-46598262D01*
X108855138Y-46598262D01*
X108836480Y-46407970D01*
X108776935Y-46210749D01*
X108680218Y-46028849D01*
X108606859Y-45938902D01*
X108553906Y-45873975D01*
X108553903Y-45873972D01*
X108550011Y-45869200D01*
X108532786Y-45854950D01*
X108396025Y-45741811D01*
X108396021Y-45741809D01*
X108391275Y-45737882D01*
X108210055Y-45639897D01*
X108013254Y-45578977D01*
X108007129Y-45578333D01*
X108007128Y-45578333D01*
X107814498Y-45558087D01*
X107814496Y-45558087D01*
X107808369Y-45557443D01*
X107721529Y-45565346D01*
X107609342Y-45575555D01*
X107609339Y-45575556D01*
X107603203Y-45576114D01*
X107405572Y-45634280D01*
X107223002Y-45729726D01*
X107218201Y-45733586D01*
X107218198Y-45733588D01*
X107067254Y-45854950D01*
X107062447Y-45858815D01*
X106930024Y-46016630D01*
X106927056Y-46022028D01*
X106927053Y-46022033D01*
X106841936Y-46176862D01*
X106830776Y-46197162D01*
X106768484Y-46393532D01*
X106767798Y-46399649D01*
X106767797Y-46399653D01*
X106751302Y-46546713D01*
X106745520Y-46598262D01*
X106315138Y-46598262D01*
X106296480Y-46407970D01*
X106236935Y-46210749D01*
X106140218Y-46028849D01*
X106066859Y-45938902D01*
X106013906Y-45873975D01*
X106013903Y-45873972D01*
X106010011Y-45869200D01*
X105992786Y-45854950D01*
X105856025Y-45741811D01*
X105856021Y-45741809D01*
X105851275Y-45737882D01*
X105670055Y-45639897D01*
X105473254Y-45578977D01*
X105467129Y-45578333D01*
X105467128Y-45578333D01*
X105274498Y-45558087D01*
X105274496Y-45558087D01*
X105268369Y-45557443D01*
X105181529Y-45565346D01*
X105069342Y-45575555D01*
X105069339Y-45575556D01*
X105063203Y-45576114D01*
X104865572Y-45634280D01*
X104683002Y-45729726D01*
X104678201Y-45733586D01*
X104678198Y-45733588D01*
X104527254Y-45854950D01*
X104522447Y-45858815D01*
X104390024Y-46016630D01*
X104387056Y-46022028D01*
X104387053Y-46022033D01*
X104301936Y-46176862D01*
X104290776Y-46197162D01*
X104228484Y-46393532D01*
X104227798Y-46399649D01*
X104227797Y-46399653D01*
X104211302Y-46546713D01*
X104205520Y-46598262D01*
X103775138Y-46598262D01*
X103756480Y-46407970D01*
X103696935Y-46210749D01*
X103600218Y-46028849D01*
X103526859Y-45938902D01*
X103473906Y-45873975D01*
X103473903Y-45873972D01*
X103470011Y-45869200D01*
X103452786Y-45854950D01*
X103316025Y-45741811D01*
X103316021Y-45741809D01*
X103311275Y-45737882D01*
X103130055Y-45639897D01*
X102933254Y-45578977D01*
X102927129Y-45578333D01*
X102927128Y-45578333D01*
X102734498Y-45558087D01*
X102734496Y-45558087D01*
X102728369Y-45557443D01*
X102641529Y-45565346D01*
X102529342Y-45575555D01*
X102529339Y-45575556D01*
X102523203Y-45576114D01*
X102325572Y-45634280D01*
X102143002Y-45729726D01*
X102138201Y-45733586D01*
X102138198Y-45733588D01*
X101987254Y-45854950D01*
X101982447Y-45858815D01*
X101850024Y-46016630D01*
X101847056Y-46022028D01*
X101847053Y-46022033D01*
X101761936Y-46176862D01*
X101750776Y-46197162D01*
X101688484Y-46393532D01*
X101687798Y-46399649D01*
X101687797Y-46399653D01*
X101671302Y-46546713D01*
X101665520Y-46598262D01*
X101235138Y-46598262D01*
X101216480Y-46407970D01*
X101156935Y-46210749D01*
X101060218Y-46028849D01*
X100986859Y-45938902D01*
X100933906Y-45873975D01*
X100933903Y-45873972D01*
X100930011Y-45869200D01*
X100912786Y-45854950D01*
X100776025Y-45741811D01*
X100776021Y-45741809D01*
X100771275Y-45737882D01*
X100590055Y-45639897D01*
X100393254Y-45578977D01*
X100387129Y-45578333D01*
X100387128Y-45578333D01*
X100194498Y-45558087D01*
X100194496Y-45558087D01*
X100188369Y-45557443D01*
X100101529Y-45565346D01*
X99989342Y-45575555D01*
X99989339Y-45575556D01*
X99983203Y-45576114D01*
X99785572Y-45634280D01*
X99603002Y-45729726D01*
X99598201Y-45733586D01*
X99598198Y-45733588D01*
X99447254Y-45854950D01*
X99442447Y-45858815D01*
X99310024Y-46016630D01*
X99307056Y-46022028D01*
X99307053Y-46022033D01*
X99221936Y-46176862D01*
X99210776Y-46197162D01*
X99148484Y-46393532D01*
X99147798Y-46399649D01*
X99147797Y-46399653D01*
X99131302Y-46546713D01*
X99125520Y-46598262D01*
X98695138Y-46598262D01*
X98676480Y-46407970D01*
X98616935Y-46210749D01*
X98520218Y-46028849D01*
X98446859Y-45938902D01*
X98393906Y-45873975D01*
X98393903Y-45873972D01*
X98390011Y-45869200D01*
X98372786Y-45854950D01*
X98236025Y-45741811D01*
X98236021Y-45741809D01*
X98231275Y-45737882D01*
X98050055Y-45639897D01*
X97853254Y-45578977D01*
X97847129Y-45578333D01*
X97847128Y-45578333D01*
X97654498Y-45558087D01*
X97654496Y-45558087D01*
X97648369Y-45557443D01*
X97561529Y-45565346D01*
X97449342Y-45575555D01*
X97449339Y-45575556D01*
X97443203Y-45576114D01*
X97245572Y-45634280D01*
X97063002Y-45729726D01*
X97058201Y-45733586D01*
X97058198Y-45733588D01*
X96907254Y-45854950D01*
X96902447Y-45858815D01*
X96770024Y-46016630D01*
X96767056Y-46022028D01*
X96767053Y-46022033D01*
X96681936Y-46176862D01*
X96670776Y-46197162D01*
X96608484Y-46393532D01*
X96607798Y-46399649D01*
X96607797Y-46399653D01*
X96591302Y-46546713D01*
X96585520Y-46598262D01*
X96155138Y-46598262D01*
X96136480Y-46407970D01*
X96076935Y-46210749D01*
X95980218Y-46028849D01*
X95906859Y-45938902D01*
X95853906Y-45873975D01*
X95853903Y-45873972D01*
X95850011Y-45869200D01*
X95832786Y-45854950D01*
X95696025Y-45741811D01*
X95696021Y-45741809D01*
X95691275Y-45737882D01*
X95510055Y-45639897D01*
X95313254Y-45578977D01*
X95307129Y-45578333D01*
X95307128Y-45578333D01*
X95114498Y-45558087D01*
X95114496Y-45558087D01*
X95108369Y-45557443D01*
X95021529Y-45565346D01*
X94909342Y-45575555D01*
X94909339Y-45575556D01*
X94903203Y-45576114D01*
X94705572Y-45634280D01*
X94523002Y-45729726D01*
X94518201Y-45733586D01*
X94518198Y-45733588D01*
X94367254Y-45854950D01*
X94362447Y-45858815D01*
X94230024Y-46016630D01*
X94227056Y-46022028D01*
X94227053Y-46022033D01*
X94141936Y-46176862D01*
X94130776Y-46197162D01*
X94068484Y-46393532D01*
X94067798Y-46399649D01*
X94067797Y-46399653D01*
X94051302Y-46546713D01*
X94045520Y-46598262D01*
X91075138Y-46598262D01*
X91056480Y-46407970D01*
X90996935Y-46210749D01*
X90900218Y-46028849D01*
X90826859Y-45938902D01*
X90773906Y-45873975D01*
X90773903Y-45873972D01*
X90770011Y-45869200D01*
X90752786Y-45854950D01*
X90616025Y-45741811D01*
X90616021Y-45741809D01*
X90611275Y-45737882D01*
X90430055Y-45639897D01*
X90233254Y-45578977D01*
X90227129Y-45578333D01*
X90227128Y-45578333D01*
X90034498Y-45558087D01*
X90034496Y-45558087D01*
X90028369Y-45557443D01*
X89941529Y-45565346D01*
X89829342Y-45575555D01*
X89829339Y-45575556D01*
X89823203Y-45576114D01*
X89625572Y-45634280D01*
X89443002Y-45729726D01*
X89438201Y-45733586D01*
X89438198Y-45733588D01*
X89287254Y-45854950D01*
X89282447Y-45858815D01*
X89150024Y-46016630D01*
X89147056Y-46022028D01*
X89147053Y-46022033D01*
X89061936Y-46176862D01*
X89050776Y-46197162D01*
X88988484Y-46393532D01*
X88987798Y-46399649D01*
X88987797Y-46399653D01*
X88971302Y-46546713D01*
X88965520Y-46598262D01*
X88535138Y-46598262D01*
X88516480Y-46407970D01*
X88456935Y-46210749D01*
X88360218Y-46028849D01*
X88286859Y-45938902D01*
X88233906Y-45873975D01*
X88233903Y-45873972D01*
X88230011Y-45869200D01*
X88212786Y-45854950D01*
X88076025Y-45741811D01*
X88076021Y-45741809D01*
X88071275Y-45737882D01*
X87890055Y-45639897D01*
X87693254Y-45578977D01*
X87687129Y-45578333D01*
X87687128Y-45578333D01*
X87494498Y-45558087D01*
X87494496Y-45558087D01*
X87488369Y-45557443D01*
X87401529Y-45565346D01*
X87289342Y-45575555D01*
X87289339Y-45575556D01*
X87283203Y-45576114D01*
X87085572Y-45634280D01*
X86903002Y-45729726D01*
X86898201Y-45733586D01*
X86898198Y-45733588D01*
X86747254Y-45854950D01*
X86742447Y-45858815D01*
X86610024Y-46016630D01*
X86607056Y-46022028D01*
X86607053Y-46022033D01*
X86521936Y-46176862D01*
X86510776Y-46197162D01*
X86448484Y-46393532D01*
X86447798Y-46399649D01*
X86447797Y-46399653D01*
X86431302Y-46546713D01*
X86425520Y-46598262D01*
X85995138Y-46598262D01*
X85976480Y-46407970D01*
X85916935Y-46210749D01*
X85820218Y-46028849D01*
X85746859Y-45938902D01*
X85693906Y-45873975D01*
X85693903Y-45873972D01*
X85690011Y-45869200D01*
X85672786Y-45854950D01*
X85536025Y-45741811D01*
X85536021Y-45741809D01*
X85531275Y-45737882D01*
X85350055Y-45639897D01*
X85153254Y-45578977D01*
X85147129Y-45578333D01*
X85147128Y-45578333D01*
X84954498Y-45558087D01*
X84954496Y-45558087D01*
X84948369Y-45557443D01*
X84861529Y-45565346D01*
X84749342Y-45575555D01*
X84749339Y-45575556D01*
X84743203Y-45576114D01*
X84545572Y-45634280D01*
X84363002Y-45729726D01*
X84358201Y-45733586D01*
X84358198Y-45733588D01*
X84207254Y-45854950D01*
X84202447Y-45858815D01*
X84070024Y-46016630D01*
X84067056Y-46022028D01*
X84067053Y-46022033D01*
X83981936Y-46176862D01*
X83970776Y-46197162D01*
X83908484Y-46393532D01*
X83907798Y-46399649D01*
X83907797Y-46399653D01*
X83891302Y-46546713D01*
X83885520Y-46598262D01*
X83455138Y-46598262D01*
X83436480Y-46407970D01*
X83376935Y-46210749D01*
X83280218Y-46028849D01*
X83206859Y-45938902D01*
X83153906Y-45873975D01*
X83153903Y-45873972D01*
X83150011Y-45869200D01*
X83132786Y-45854950D01*
X82996025Y-45741811D01*
X82996021Y-45741809D01*
X82991275Y-45737882D01*
X82810055Y-45639897D01*
X82613254Y-45578977D01*
X82607129Y-45578333D01*
X82607128Y-45578333D01*
X82414498Y-45558087D01*
X82414496Y-45558087D01*
X82408369Y-45557443D01*
X82321529Y-45565346D01*
X82209342Y-45575555D01*
X82209339Y-45575556D01*
X82203203Y-45576114D01*
X82005572Y-45634280D01*
X81823002Y-45729726D01*
X81818201Y-45733586D01*
X81818198Y-45733588D01*
X81667254Y-45854950D01*
X81662447Y-45858815D01*
X81530024Y-46016630D01*
X81527056Y-46022028D01*
X81527053Y-46022033D01*
X81441936Y-46176862D01*
X81430776Y-46197162D01*
X81368484Y-46393532D01*
X81367798Y-46399649D01*
X81367797Y-46399653D01*
X81351302Y-46546713D01*
X81345520Y-46598262D01*
X80518498Y-46598262D01*
X81666595Y-45450165D01*
X133778866Y-45450165D01*
X133813952Y-45707970D01*
X133815260Y-45712456D01*
X133815260Y-45712458D01*
X133823816Y-45741811D01*
X133886758Y-45957757D01*
X133995686Y-46194039D01*
X133998246Y-46197944D01*
X133998249Y-46197949D01*
X134135775Y-46407712D01*
X134135779Y-46407717D01*
X134138341Y-46411625D01*
X134311591Y-46605735D01*
X134511629Y-46772105D01*
X134734061Y-46907080D01*
X134738375Y-46908889D01*
X134738377Y-46908890D01*
X134969686Y-47005886D01*
X134969691Y-47005888D01*
X134974001Y-47007695D01*
X134978533Y-47008846D01*
X134978536Y-47008847D01*
X135087386Y-47036491D01*
X135226177Y-47071739D01*
X135442286Y-47093500D01*
X135597044Y-47093500D01*
X135599369Y-47093327D01*
X135599375Y-47093327D01*
X135785814Y-47079472D01*
X135785818Y-47079471D01*
X135790466Y-47079126D01*
X136044232Y-47021705D01*
X136048586Y-47020012D01*
X136282370Y-46929098D01*
X136282372Y-46929097D01*
X136286723Y-46927405D01*
X136310398Y-46913874D01*
X136380896Y-46873581D01*
X136512612Y-46798299D01*
X136716936Y-46637223D01*
X136895208Y-46447714D01*
X137043511Y-46233937D01*
X137045579Y-46229744D01*
X137156521Y-46004775D01*
X137156522Y-46004772D01*
X137158586Y-46000587D01*
X137237906Y-45752792D01*
X137266318Y-45578333D01*
X137278977Y-45500606D01*
X137278977Y-45500605D01*
X137279728Y-45495994D01*
X137283134Y-45235835D01*
X137248048Y-44978030D01*
X137242930Y-44960469D01*
X137207065Y-44837424D01*
X137175242Y-44728243D01*
X137066314Y-44491961D01*
X137063751Y-44488051D01*
X136926225Y-44278288D01*
X136926221Y-44278283D01*
X136923659Y-44274375D01*
X136773359Y-44105978D01*
X136753526Y-44083757D01*
X136753524Y-44083755D01*
X136750409Y-44080265D01*
X136550371Y-43913895D01*
X136327939Y-43778920D01*
X136323623Y-43777110D01*
X136092314Y-43680114D01*
X136092309Y-43680112D01*
X136087999Y-43678305D01*
X136083467Y-43677154D01*
X136083464Y-43677153D01*
X135958185Y-43645337D01*
X135835823Y-43614261D01*
X135619714Y-43592500D01*
X135464956Y-43592500D01*
X135462631Y-43592673D01*
X135462625Y-43592673D01*
X135276186Y-43606528D01*
X135276182Y-43606529D01*
X135271534Y-43606874D01*
X135017768Y-43664295D01*
X135013416Y-43665987D01*
X135013414Y-43665988D01*
X134779630Y-43756902D01*
X134779628Y-43756903D01*
X134775277Y-43758595D01*
X134771223Y-43760912D01*
X134771221Y-43760913D01*
X134735467Y-43781348D01*
X134549388Y-43887701D01*
X134345064Y-44048777D01*
X134166792Y-44238286D01*
X134018489Y-44452063D01*
X134016423Y-44456253D01*
X134016421Y-44456256D01*
X133906178Y-44679809D01*
X133903414Y-44685413D01*
X133824094Y-44933208D01*
X133782272Y-45190006D01*
X133778866Y-45450165D01*
X81666595Y-45450165D01*
X81997816Y-45118944D01*
X82060128Y-45084918D01*
X82125847Y-45088206D01*
X82174329Y-45103959D01*
X82180449Y-45104689D01*
X82180450Y-45104689D01*
X82232456Y-45110890D01*
X82378894Y-45128351D01*
X82385029Y-45127879D01*
X82385031Y-45127879D01*
X82441039Y-45123569D01*
X82584300Y-45112546D01*
X82590230Y-45110890D01*
X82590232Y-45110890D01*
X82776797Y-45058800D01*
X82776796Y-45058800D01*
X82782725Y-45057145D01*
X82788214Y-45054372D01*
X82788220Y-45054370D01*
X82961116Y-44967033D01*
X82966610Y-44964258D01*
X83006353Y-44933208D01*
X83124101Y-44841213D01*
X83128951Y-44837424D01*
X83256326Y-44689858D01*
X83259540Y-44686134D01*
X83259540Y-44686133D01*
X83263564Y-44681472D01*
X83281644Y-44649646D01*
X83314810Y-44591263D01*
X83365849Y-44541912D01*
X83424366Y-44527500D01*
X83916508Y-44527500D01*
X83984629Y-44547502D01*
X84028574Y-44595905D01*
X84053712Y-44644818D01*
X84181677Y-44806270D01*
X84186370Y-44810264D01*
X84186371Y-44810265D01*
X84315229Y-44919931D01*
X84338564Y-44939791D01*
X84343942Y-44942797D01*
X84343944Y-44942798D01*
X84415271Y-44982661D01*
X84518398Y-45040297D01*
X84592413Y-45064346D01*
X84708471Y-45102056D01*
X84708475Y-45102057D01*
X84714329Y-45103959D01*
X84918894Y-45128351D01*
X84925029Y-45127879D01*
X84925031Y-45127879D01*
X84981039Y-45123569D01*
X85124300Y-45112546D01*
X85130230Y-45110890D01*
X85130232Y-45110890D01*
X85316797Y-45058800D01*
X85316796Y-45058800D01*
X85322725Y-45057145D01*
X85328214Y-45054372D01*
X85328220Y-45054370D01*
X85501116Y-44967033D01*
X85506610Y-44964258D01*
X85546353Y-44933208D01*
X85664101Y-44841213D01*
X85668951Y-44837424D01*
X85796326Y-44689858D01*
X85799540Y-44686134D01*
X85799540Y-44686133D01*
X85803564Y-44681472D01*
X85824387Y-44644818D01*
X85877650Y-44551057D01*
X85905323Y-44502344D01*
X85970351Y-44306863D01*
X85996171Y-44102474D01*
X85996433Y-44083757D01*
X85996534Y-44076522D01*
X85996534Y-44076518D01*
X85996583Y-44073000D01*
X85995138Y-44058262D01*
X88965520Y-44058262D01*
X88982759Y-44263553D01*
X88984457Y-44269475D01*
X88984458Y-44269478D01*
X89035712Y-44448221D01*
X89039544Y-44461586D01*
X89042359Y-44467063D01*
X89042360Y-44467066D01*
X89108575Y-44595906D01*
X89133712Y-44644818D01*
X89261677Y-44806270D01*
X89266370Y-44810264D01*
X89266371Y-44810265D01*
X89395229Y-44919931D01*
X89418564Y-44939791D01*
X89423942Y-44942797D01*
X89423944Y-44942798D01*
X89495271Y-44982661D01*
X89598398Y-45040297D01*
X89672413Y-45064346D01*
X89788471Y-45102056D01*
X89788475Y-45102057D01*
X89794329Y-45103959D01*
X89998894Y-45128351D01*
X90005029Y-45127879D01*
X90005031Y-45127879D01*
X90061039Y-45123569D01*
X90204300Y-45112546D01*
X90210230Y-45110890D01*
X90210232Y-45110890D01*
X90396797Y-45058800D01*
X90396796Y-45058800D01*
X90402725Y-45057145D01*
X90408214Y-45054372D01*
X90408220Y-45054370D01*
X90581116Y-44967033D01*
X90586610Y-44964258D01*
X90626353Y-44933208D01*
X90744101Y-44841213D01*
X90748951Y-44837424D01*
X90876326Y-44689858D01*
X90879540Y-44686134D01*
X90879540Y-44686133D01*
X90883564Y-44681472D01*
X90904387Y-44644818D01*
X90957650Y-44551057D01*
X90985323Y-44502344D01*
X91050351Y-44306863D01*
X91076171Y-44102474D01*
X91076433Y-44083757D01*
X91076534Y-44076522D01*
X91076534Y-44076518D01*
X91076583Y-44073000D01*
X91075138Y-44058262D01*
X91505520Y-44058262D01*
X91522759Y-44263553D01*
X91524457Y-44269475D01*
X91524458Y-44269478D01*
X91575712Y-44448221D01*
X91579544Y-44461586D01*
X91582359Y-44467063D01*
X91582360Y-44467066D01*
X91648575Y-44595906D01*
X91673712Y-44644818D01*
X91801677Y-44806270D01*
X91806370Y-44810264D01*
X91806371Y-44810265D01*
X91935229Y-44919931D01*
X91958564Y-44939791D01*
X91963942Y-44942797D01*
X91963944Y-44942798D01*
X92035271Y-44982661D01*
X92138398Y-45040297D01*
X92212413Y-45064346D01*
X92328471Y-45102056D01*
X92328475Y-45102057D01*
X92334329Y-45103959D01*
X92538894Y-45128351D01*
X92545029Y-45127879D01*
X92545031Y-45127879D01*
X92601039Y-45123569D01*
X92744300Y-45112546D01*
X92750230Y-45110890D01*
X92750232Y-45110890D01*
X92936797Y-45058800D01*
X92936796Y-45058800D01*
X92942725Y-45057145D01*
X92948214Y-45054372D01*
X92948220Y-45054370D01*
X93121116Y-44967033D01*
X93126610Y-44964258D01*
X93166353Y-44933208D01*
X93284101Y-44841213D01*
X93288951Y-44837424D01*
X93416326Y-44689858D01*
X93419540Y-44686134D01*
X93419540Y-44686133D01*
X93423564Y-44681472D01*
X93444387Y-44644818D01*
X93497650Y-44551057D01*
X93525323Y-44502344D01*
X93590351Y-44306863D01*
X93616171Y-44102474D01*
X93616433Y-44083757D01*
X93616534Y-44076522D01*
X93616534Y-44076518D01*
X93616583Y-44073000D01*
X93615138Y-44058262D01*
X94045520Y-44058262D01*
X94062759Y-44263553D01*
X94064457Y-44269475D01*
X94064458Y-44269478D01*
X94115712Y-44448221D01*
X94119544Y-44461586D01*
X94122359Y-44467063D01*
X94122360Y-44467066D01*
X94188575Y-44595906D01*
X94213712Y-44644818D01*
X94341677Y-44806270D01*
X94346370Y-44810264D01*
X94346371Y-44810265D01*
X94475229Y-44919931D01*
X94498564Y-44939791D01*
X94503942Y-44942797D01*
X94503944Y-44942798D01*
X94575271Y-44982661D01*
X94678398Y-45040297D01*
X94752413Y-45064346D01*
X94868471Y-45102056D01*
X94868475Y-45102057D01*
X94874329Y-45103959D01*
X95078894Y-45128351D01*
X95085029Y-45127879D01*
X95085031Y-45127879D01*
X95141039Y-45123569D01*
X95284300Y-45112546D01*
X95290230Y-45110890D01*
X95290232Y-45110890D01*
X95476797Y-45058800D01*
X95476796Y-45058800D01*
X95482725Y-45057145D01*
X95488214Y-45054372D01*
X95488220Y-45054370D01*
X95661116Y-44967033D01*
X95666610Y-44964258D01*
X95706353Y-44933208D01*
X95824101Y-44841213D01*
X95828951Y-44837424D01*
X95956326Y-44689858D01*
X95959540Y-44686134D01*
X95959540Y-44686133D01*
X95963564Y-44681472D01*
X95984387Y-44644818D01*
X96037650Y-44551057D01*
X96065323Y-44502344D01*
X96130351Y-44306863D01*
X96156171Y-44102474D01*
X96156433Y-44083757D01*
X96156534Y-44076522D01*
X96156534Y-44076518D01*
X96156583Y-44073000D01*
X96155138Y-44058262D01*
X99125520Y-44058262D01*
X99142759Y-44263553D01*
X99144457Y-44269475D01*
X99144458Y-44269478D01*
X99195712Y-44448221D01*
X99199544Y-44461586D01*
X99202359Y-44467063D01*
X99202360Y-44467066D01*
X99268575Y-44595906D01*
X99293712Y-44644818D01*
X99421677Y-44806270D01*
X99426370Y-44810264D01*
X99426371Y-44810265D01*
X99555229Y-44919931D01*
X99578564Y-44939791D01*
X99583942Y-44942797D01*
X99583944Y-44942798D01*
X99655271Y-44982661D01*
X99758398Y-45040297D01*
X99832413Y-45064346D01*
X99948471Y-45102056D01*
X99948475Y-45102057D01*
X99954329Y-45103959D01*
X100158894Y-45128351D01*
X100165029Y-45127879D01*
X100165031Y-45127879D01*
X100221039Y-45123569D01*
X100364300Y-45112546D01*
X100370230Y-45110890D01*
X100370232Y-45110890D01*
X100556797Y-45058800D01*
X100556796Y-45058800D01*
X100562725Y-45057145D01*
X100568214Y-45054372D01*
X100568220Y-45054370D01*
X100741116Y-44967033D01*
X100746610Y-44964258D01*
X100786353Y-44933208D01*
X100904101Y-44841213D01*
X100908951Y-44837424D01*
X101036326Y-44689858D01*
X101039540Y-44686134D01*
X101039540Y-44686133D01*
X101043564Y-44681472D01*
X101064387Y-44644818D01*
X101117650Y-44551057D01*
X101145323Y-44502344D01*
X101210351Y-44306863D01*
X101236171Y-44102474D01*
X101236433Y-44083757D01*
X101236534Y-44076522D01*
X101236534Y-44076518D01*
X101236583Y-44073000D01*
X101235138Y-44058262D01*
X101665520Y-44058262D01*
X101682759Y-44263553D01*
X101684457Y-44269475D01*
X101684458Y-44269478D01*
X101735712Y-44448221D01*
X101739544Y-44461586D01*
X101742359Y-44467063D01*
X101742360Y-44467066D01*
X101808575Y-44595906D01*
X101833712Y-44644818D01*
X101961677Y-44806270D01*
X101966370Y-44810264D01*
X101966371Y-44810265D01*
X102095229Y-44919931D01*
X102118564Y-44939791D01*
X102123942Y-44942797D01*
X102123944Y-44942798D01*
X102195271Y-44982661D01*
X102298398Y-45040297D01*
X102372413Y-45064346D01*
X102488471Y-45102056D01*
X102488475Y-45102057D01*
X102494329Y-45103959D01*
X102698894Y-45128351D01*
X102705029Y-45127879D01*
X102705031Y-45127879D01*
X102761039Y-45123569D01*
X102904300Y-45112546D01*
X102910230Y-45110890D01*
X102910232Y-45110890D01*
X103096797Y-45058800D01*
X103096796Y-45058800D01*
X103102725Y-45057145D01*
X103108214Y-45054372D01*
X103108220Y-45054370D01*
X103281116Y-44967033D01*
X103286610Y-44964258D01*
X103326353Y-44933208D01*
X103444101Y-44841213D01*
X103448951Y-44837424D01*
X103576326Y-44689858D01*
X103579540Y-44686134D01*
X103579540Y-44686133D01*
X103583564Y-44681472D01*
X103604387Y-44644818D01*
X103657650Y-44551057D01*
X103685323Y-44502344D01*
X103750351Y-44306863D01*
X103776171Y-44102474D01*
X103776433Y-44083757D01*
X103776534Y-44076522D01*
X103776534Y-44076518D01*
X103776583Y-44073000D01*
X103775138Y-44058262D01*
X106745520Y-44058262D01*
X106762759Y-44263553D01*
X106764457Y-44269475D01*
X106764458Y-44269478D01*
X106815712Y-44448221D01*
X106819544Y-44461586D01*
X106822359Y-44467063D01*
X106822360Y-44467066D01*
X106888575Y-44595906D01*
X106913712Y-44644818D01*
X107041677Y-44806270D01*
X107046370Y-44810264D01*
X107046371Y-44810265D01*
X107175229Y-44919931D01*
X107198564Y-44939791D01*
X107203942Y-44942797D01*
X107203944Y-44942798D01*
X107275271Y-44982661D01*
X107378398Y-45040297D01*
X107452413Y-45064346D01*
X107568471Y-45102056D01*
X107568475Y-45102057D01*
X107574329Y-45103959D01*
X107778894Y-45128351D01*
X107785029Y-45127879D01*
X107785031Y-45127879D01*
X107841039Y-45123569D01*
X107984300Y-45112546D01*
X107990230Y-45110890D01*
X107990232Y-45110890D01*
X108176797Y-45058800D01*
X108176796Y-45058800D01*
X108182725Y-45057145D01*
X108188214Y-45054372D01*
X108188220Y-45054370D01*
X108361116Y-44967033D01*
X108366610Y-44964258D01*
X108406353Y-44933208D01*
X108524101Y-44841213D01*
X108528951Y-44837424D01*
X108656326Y-44689858D01*
X108659540Y-44686134D01*
X108659540Y-44686133D01*
X108663564Y-44681472D01*
X108684387Y-44644818D01*
X108737650Y-44551057D01*
X108765323Y-44502344D01*
X108830351Y-44306863D01*
X108856171Y-44102474D01*
X108856433Y-44083757D01*
X108856534Y-44076522D01*
X108856534Y-44076518D01*
X108856583Y-44073000D01*
X108855138Y-44058262D01*
X109285520Y-44058262D01*
X109302759Y-44263553D01*
X109304457Y-44269475D01*
X109304458Y-44269478D01*
X109355712Y-44448221D01*
X109359544Y-44461586D01*
X109362359Y-44467063D01*
X109362360Y-44467066D01*
X109428575Y-44595906D01*
X109453712Y-44644818D01*
X109581677Y-44806270D01*
X109586370Y-44810264D01*
X109586371Y-44810265D01*
X109715229Y-44919931D01*
X109738564Y-44939791D01*
X109743942Y-44942797D01*
X109743944Y-44942798D01*
X109815271Y-44982661D01*
X109918398Y-45040297D01*
X109992413Y-45064346D01*
X110108471Y-45102056D01*
X110108475Y-45102057D01*
X110114329Y-45103959D01*
X110318894Y-45128351D01*
X110325029Y-45127879D01*
X110325031Y-45127879D01*
X110381039Y-45123569D01*
X110524300Y-45112546D01*
X110530230Y-45110890D01*
X110530232Y-45110890D01*
X110716797Y-45058800D01*
X110716796Y-45058800D01*
X110722725Y-45057145D01*
X110728214Y-45054372D01*
X110728220Y-45054370D01*
X110901116Y-44967033D01*
X110906610Y-44964258D01*
X110946353Y-44933208D01*
X111064101Y-44841213D01*
X111068951Y-44837424D01*
X111196326Y-44689858D01*
X111199540Y-44686134D01*
X111199540Y-44686133D01*
X111203564Y-44681472D01*
X111224387Y-44644818D01*
X111277650Y-44551057D01*
X111305323Y-44502344D01*
X111370351Y-44306863D01*
X111396171Y-44102474D01*
X111396433Y-44083757D01*
X111396534Y-44076522D01*
X111396534Y-44076518D01*
X111396583Y-44073000D01*
X111395138Y-44058262D01*
X111825520Y-44058262D01*
X111842759Y-44263553D01*
X111844457Y-44269475D01*
X111844458Y-44269478D01*
X111895712Y-44448221D01*
X111899544Y-44461586D01*
X111902359Y-44467063D01*
X111902360Y-44467066D01*
X111968575Y-44595906D01*
X111993712Y-44644818D01*
X112121677Y-44806270D01*
X112126370Y-44810264D01*
X112126371Y-44810265D01*
X112255229Y-44919931D01*
X112278564Y-44939791D01*
X112283942Y-44942797D01*
X112283944Y-44942798D01*
X112355271Y-44982661D01*
X112458398Y-45040297D01*
X112532413Y-45064346D01*
X112648471Y-45102056D01*
X112648475Y-45102057D01*
X112654329Y-45103959D01*
X112858894Y-45128351D01*
X112865029Y-45127879D01*
X112865031Y-45127879D01*
X112921039Y-45123569D01*
X113064300Y-45112546D01*
X113070230Y-45110890D01*
X113070232Y-45110890D01*
X113256797Y-45058800D01*
X113256796Y-45058800D01*
X113262725Y-45057145D01*
X113268214Y-45054372D01*
X113268220Y-45054370D01*
X113441116Y-44967033D01*
X113446610Y-44964258D01*
X113486353Y-44933208D01*
X113604101Y-44841213D01*
X113608951Y-44837424D01*
X113736326Y-44689858D01*
X113739540Y-44686134D01*
X113739540Y-44686133D01*
X113743564Y-44681472D01*
X113764387Y-44644818D01*
X113817650Y-44551057D01*
X113845323Y-44502344D01*
X113910351Y-44306863D01*
X113936171Y-44102474D01*
X113936433Y-44083757D01*
X113936534Y-44076522D01*
X113936534Y-44076518D01*
X113936583Y-44073000D01*
X113935138Y-44058262D01*
X114365520Y-44058262D01*
X114382759Y-44263553D01*
X114384457Y-44269475D01*
X114384458Y-44269478D01*
X114435712Y-44448221D01*
X114439544Y-44461586D01*
X114442359Y-44467063D01*
X114442360Y-44467066D01*
X114508575Y-44595906D01*
X114533712Y-44644818D01*
X114661677Y-44806270D01*
X114666370Y-44810264D01*
X114666371Y-44810265D01*
X114795229Y-44919931D01*
X114818564Y-44939791D01*
X114823942Y-44942797D01*
X114823944Y-44942798D01*
X114895271Y-44982661D01*
X114998398Y-45040297D01*
X115072413Y-45064346D01*
X115188471Y-45102056D01*
X115188475Y-45102057D01*
X115194329Y-45103959D01*
X115398894Y-45128351D01*
X115405029Y-45127879D01*
X115405031Y-45127879D01*
X115461039Y-45123569D01*
X115604300Y-45112546D01*
X115610230Y-45110890D01*
X115610232Y-45110890D01*
X115796797Y-45058800D01*
X115796796Y-45058800D01*
X115802725Y-45057145D01*
X115808214Y-45054372D01*
X115808220Y-45054370D01*
X115981116Y-44967033D01*
X115986610Y-44964258D01*
X116026353Y-44933208D01*
X116144101Y-44841213D01*
X116148951Y-44837424D01*
X116276326Y-44689858D01*
X116279540Y-44686134D01*
X116279540Y-44686133D01*
X116283564Y-44681472D01*
X116304387Y-44644818D01*
X116357650Y-44551057D01*
X116385323Y-44502344D01*
X116450351Y-44306863D01*
X116476171Y-44102474D01*
X116476433Y-44083757D01*
X116476534Y-44076522D01*
X116476534Y-44076518D01*
X116476583Y-44073000D01*
X116475138Y-44058262D01*
X119445520Y-44058262D01*
X119462759Y-44263553D01*
X119464457Y-44269475D01*
X119464458Y-44269478D01*
X119515712Y-44448221D01*
X119519544Y-44461586D01*
X119522359Y-44467063D01*
X119522360Y-44467066D01*
X119588575Y-44595906D01*
X119613712Y-44644818D01*
X119741677Y-44806270D01*
X119746370Y-44810264D01*
X119746371Y-44810265D01*
X119875229Y-44919931D01*
X119898564Y-44939791D01*
X119903942Y-44942797D01*
X119903944Y-44942798D01*
X119975271Y-44982661D01*
X120078398Y-45040297D01*
X120152413Y-45064346D01*
X120268471Y-45102056D01*
X120268475Y-45102057D01*
X120274329Y-45103959D01*
X120478894Y-45128351D01*
X120485029Y-45127879D01*
X120485031Y-45127879D01*
X120541039Y-45123569D01*
X120684300Y-45112546D01*
X120690230Y-45110890D01*
X120690232Y-45110890D01*
X120876797Y-45058800D01*
X120876796Y-45058800D01*
X120882725Y-45057145D01*
X120888214Y-45054372D01*
X120888220Y-45054370D01*
X121061116Y-44967033D01*
X121066610Y-44964258D01*
X121106353Y-44933208D01*
X121224101Y-44841213D01*
X121228951Y-44837424D01*
X121356326Y-44689858D01*
X121359540Y-44686134D01*
X121359540Y-44686133D01*
X121363564Y-44681472D01*
X121384387Y-44644818D01*
X121437650Y-44551057D01*
X121465323Y-44502344D01*
X121530351Y-44306863D01*
X121556171Y-44102474D01*
X121556433Y-44083757D01*
X121556534Y-44076522D01*
X121556534Y-44076518D01*
X121556583Y-44073000D01*
X121555138Y-44058262D01*
X124525520Y-44058262D01*
X124542759Y-44263553D01*
X124544457Y-44269475D01*
X124544458Y-44269478D01*
X124595712Y-44448221D01*
X124599544Y-44461586D01*
X124602359Y-44467063D01*
X124602360Y-44467066D01*
X124668575Y-44595906D01*
X124693712Y-44644818D01*
X124821677Y-44806270D01*
X124826370Y-44810264D01*
X124826371Y-44810265D01*
X124955229Y-44919931D01*
X124978564Y-44939791D01*
X124983942Y-44942797D01*
X124983944Y-44942798D01*
X125055271Y-44982661D01*
X125158398Y-45040297D01*
X125232413Y-45064346D01*
X125348471Y-45102056D01*
X125348475Y-45102057D01*
X125354329Y-45103959D01*
X125558894Y-45128351D01*
X125565029Y-45127879D01*
X125565031Y-45127879D01*
X125621039Y-45123569D01*
X125764300Y-45112546D01*
X125770230Y-45110890D01*
X125770232Y-45110890D01*
X125956797Y-45058800D01*
X125956796Y-45058800D01*
X125962725Y-45057145D01*
X125968214Y-45054372D01*
X125968220Y-45054370D01*
X126141116Y-44967033D01*
X126146610Y-44964258D01*
X126186353Y-44933208D01*
X126304101Y-44841213D01*
X126308951Y-44837424D01*
X126436326Y-44689858D01*
X126439540Y-44686134D01*
X126439540Y-44686133D01*
X126443564Y-44681472D01*
X126464387Y-44644818D01*
X126517650Y-44551057D01*
X126545323Y-44502344D01*
X126610351Y-44306863D01*
X126636171Y-44102474D01*
X126636433Y-44083757D01*
X126636534Y-44076522D01*
X126636534Y-44076518D01*
X126636583Y-44073000D01*
X126635138Y-44058262D01*
X127065520Y-44058262D01*
X127082759Y-44263553D01*
X127084457Y-44269475D01*
X127084458Y-44269478D01*
X127135712Y-44448221D01*
X127139544Y-44461586D01*
X127142359Y-44467063D01*
X127142360Y-44467066D01*
X127208575Y-44595906D01*
X127233712Y-44644818D01*
X127361677Y-44806270D01*
X127366370Y-44810264D01*
X127366371Y-44810265D01*
X127495229Y-44919931D01*
X127518564Y-44939791D01*
X127523942Y-44942797D01*
X127523944Y-44942798D01*
X127595271Y-44982661D01*
X127698398Y-45040297D01*
X127772413Y-45064346D01*
X127888471Y-45102056D01*
X127888475Y-45102057D01*
X127894329Y-45103959D01*
X128098894Y-45128351D01*
X128105029Y-45127879D01*
X128105031Y-45127879D01*
X128161039Y-45123569D01*
X128304300Y-45112546D01*
X128310230Y-45110890D01*
X128310232Y-45110890D01*
X128496797Y-45058800D01*
X128496796Y-45058800D01*
X128502725Y-45057145D01*
X128508214Y-45054372D01*
X128508220Y-45054370D01*
X128681116Y-44967033D01*
X128686610Y-44964258D01*
X128726353Y-44933208D01*
X128844101Y-44841213D01*
X128848951Y-44837424D01*
X128976326Y-44689858D01*
X128979540Y-44686134D01*
X128979540Y-44686133D01*
X128983564Y-44681472D01*
X129004387Y-44644818D01*
X129057650Y-44551057D01*
X129085323Y-44502344D01*
X129150351Y-44306863D01*
X129176171Y-44102474D01*
X129176433Y-44083757D01*
X129176534Y-44076522D01*
X129176534Y-44076518D01*
X129176583Y-44073000D01*
X129175138Y-44058262D01*
X129605520Y-44058262D01*
X129622759Y-44263553D01*
X129624457Y-44269475D01*
X129624458Y-44269478D01*
X129675712Y-44448221D01*
X129679544Y-44461586D01*
X129682359Y-44467063D01*
X129682360Y-44467066D01*
X129748575Y-44595906D01*
X129773712Y-44644818D01*
X129901677Y-44806270D01*
X129906370Y-44810264D01*
X129906371Y-44810265D01*
X130035229Y-44919931D01*
X130058564Y-44939791D01*
X130063942Y-44942797D01*
X130063944Y-44942798D01*
X130135271Y-44982661D01*
X130238398Y-45040297D01*
X130312413Y-45064346D01*
X130428471Y-45102056D01*
X130428475Y-45102057D01*
X130434329Y-45103959D01*
X130638894Y-45128351D01*
X130645029Y-45127879D01*
X130645031Y-45127879D01*
X130701039Y-45123569D01*
X130844300Y-45112546D01*
X130850230Y-45110890D01*
X130850232Y-45110890D01*
X131036797Y-45058800D01*
X131036796Y-45058800D01*
X131042725Y-45057145D01*
X131048214Y-45054372D01*
X131048220Y-45054370D01*
X131221116Y-44967033D01*
X131226610Y-44964258D01*
X131266353Y-44933208D01*
X131384101Y-44841213D01*
X131388951Y-44837424D01*
X131516326Y-44689858D01*
X131519540Y-44686134D01*
X131519540Y-44686133D01*
X131523564Y-44681472D01*
X131544387Y-44644818D01*
X131597650Y-44551057D01*
X131625323Y-44502344D01*
X131690351Y-44306863D01*
X131716171Y-44102474D01*
X131716433Y-44083757D01*
X131716534Y-44076522D01*
X131716534Y-44076518D01*
X131716583Y-44073000D01*
X131696480Y-43867970D01*
X131636935Y-43670749D01*
X131540218Y-43488849D01*
X131455234Y-43384649D01*
X131413906Y-43333975D01*
X131413903Y-43333972D01*
X131410011Y-43329200D01*
X131340641Y-43271812D01*
X131256025Y-43201811D01*
X131256021Y-43201809D01*
X131251275Y-43197882D01*
X131070055Y-43099897D01*
X130873254Y-43038977D01*
X130867129Y-43038333D01*
X130867128Y-43038333D01*
X130674498Y-43018087D01*
X130674496Y-43018087D01*
X130668369Y-43017443D01*
X130581529Y-43025346D01*
X130469342Y-43035555D01*
X130469339Y-43035556D01*
X130463203Y-43036114D01*
X130265572Y-43094280D01*
X130083002Y-43189726D01*
X130078201Y-43193586D01*
X130078198Y-43193588D01*
X129927254Y-43314950D01*
X129922447Y-43318815D01*
X129790024Y-43476630D01*
X129787056Y-43482028D01*
X129787053Y-43482033D01*
X129693743Y-43651765D01*
X129690776Y-43657162D01*
X129628484Y-43853532D01*
X129627798Y-43859649D01*
X129627797Y-43859653D01*
X129610547Y-44013446D01*
X129605520Y-44058262D01*
X129175138Y-44058262D01*
X129156480Y-43867970D01*
X129096935Y-43670749D01*
X129000218Y-43488849D01*
X128915234Y-43384649D01*
X128873906Y-43333975D01*
X128873903Y-43333972D01*
X128870011Y-43329200D01*
X128800641Y-43271812D01*
X128716025Y-43201811D01*
X128716021Y-43201809D01*
X128711275Y-43197882D01*
X128530055Y-43099897D01*
X128333254Y-43038977D01*
X128327129Y-43038333D01*
X128327128Y-43038333D01*
X128134498Y-43018087D01*
X128134496Y-43018087D01*
X128128369Y-43017443D01*
X128041529Y-43025346D01*
X127929342Y-43035555D01*
X127929339Y-43035556D01*
X127923203Y-43036114D01*
X127725572Y-43094280D01*
X127543002Y-43189726D01*
X127538201Y-43193586D01*
X127538198Y-43193588D01*
X127387254Y-43314950D01*
X127382447Y-43318815D01*
X127250024Y-43476630D01*
X127247056Y-43482028D01*
X127247053Y-43482033D01*
X127153743Y-43651765D01*
X127150776Y-43657162D01*
X127088484Y-43853532D01*
X127087798Y-43859649D01*
X127087797Y-43859653D01*
X127070547Y-44013446D01*
X127065520Y-44058262D01*
X126635138Y-44058262D01*
X126616480Y-43867970D01*
X126556935Y-43670749D01*
X126460218Y-43488849D01*
X126375234Y-43384649D01*
X126333906Y-43333975D01*
X126333903Y-43333972D01*
X126330011Y-43329200D01*
X126260641Y-43271812D01*
X126176025Y-43201811D01*
X126176021Y-43201809D01*
X126171275Y-43197882D01*
X125990055Y-43099897D01*
X125793254Y-43038977D01*
X125787129Y-43038333D01*
X125787128Y-43038333D01*
X125594498Y-43018087D01*
X125594496Y-43018087D01*
X125588369Y-43017443D01*
X125501529Y-43025346D01*
X125389342Y-43035555D01*
X125389339Y-43035556D01*
X125383203Y-43036114D01*
X125185572Y-43094280D01*
X125003002Y-43189726D01*
X124998201Y-43193586D01*
X124998198Y-43193588D01*
X124847254Y-43314950D01*
X124842447Y-43318815D01*
X124710024Y-43476630D01*
X124707056Y-43482028D01*
X124707053Y-43482033D01*
X124613743Y-43651765D01*
X124610776Y-43657162D01*
X124548484Y-43853532D01*
X124547798Y-43859649D01*
X124547797Y-43859653D01*
X124530547Y-44013446D01*
X124525520Y-44058262D01*
X121555138Y-44058262D01*
X121536480Y-43867970D01*
X121476935Y-43670749D01*
X121380218Y-43488849D01*
X121295234Y-43384649D01*
X121253906Y-43333975D01*
X121253903Y-43333972D01*
X121250011Y-43329200D01*
X121180641Y-43271812D01*
X121096025Y-43201811D01*
X121096021Y-43201809D01*
X121091275Y-43197882D01*
X120910055Y-43099897D01*
X120713254Y-43038977D01*
X120707129Y-43038333D01*
X120707128Y-43038333D01*
X120514498Y-43018087D01*
X120514496Y-43018087D01*
X120508369Y-43017443D01*
X120421529Y-43025346D01*
X120309342Y-43035555D01*
X120309339Y-43035556D01*
X120303203Y-43036114D01*
X120105572Y-43094280D01*
X119923002Y-43189726D01*
X119918201Y-43193586D01*
X119918198Y-43193588D01*
X119767254Y-43314950D01*
X119762447Y-43318815D01*
X119630024Y-43476630D01*
X119627056Y-43482028D01*
X119627053Y-43482033D01*
X119533743Y-43651765D01*
X119530776Y-43657162D01*
X119468484Y-43853532D01*
X119467798Y-43859649D01*
X119467797Y-43859653D01*
X119450547Y-44013446D01*
X119445520Y-44058262D01*
X116475138Y-44058262D01*
X116456480Y-43867970D01*
X116396935Y-43670749D01*
X116300218Y-43488849D01*
X116215234Y-43384649D01*
X116173906Y-43333975D01*
X116173903Y-43333972D01*
X116170011Y-43329200D01*
X116100641Y-43271812D01*
X116016025Y-43201811D01*
X116016021Y-43201809D01*
X116011275Y-43197882D01*
X115830055Y-43099897D01*
X115633254Y-43038977D01*
X115627129Y-43038333D01*
X115627128Y-43038333D01*
X115434498Y-43018087D01*
X115434496Y-43018087D01*
X115428369Y-43017443D01*
X115341529Y-43025346D01*
X115229342Y-43035555D01*
X115229339Y-43035556D01*
X115223203Y-43036114D01*
X115025572Y-43094280D01*
X114843002Y-43189726D01*
X114838201Y-43193586D01*
X114838198Y-43193588D01*
X114687254Y-43314950D01*
X114682447Y-43318815D01*
X114550024Y-43476630D01*
X114547056Y-43482028D01*
X114547053Y-43482033D01*
X114453743Y-43651765D01*
X114450776Y-43657162D01*
X114388484Y-43853532D01*
X114387798Y-43859649D01*
X114387797Y-43859653D01*
X114370547Y-44013446D01*
X114365520Y-44058262D01*
X113935138Y-44058262D01*
X113916480Y-43867970D01*
X113856935Y-43670749D01*
X113760218Y-43488849D01*
X113675234Y-43384649D01*
X113633906Y-43333975D01*
X113633903Y-43333972D01*
X113630011Y-43329200D01*
X113560641Y-43271812D01*
X113476025Y-43201811D01*
X113476021Y-43201809D01*
X113471275Y-43197882D01*
X113290055Y-43099897D01*
X113093254Y-43038977D01*
X113087129Y-43038333D01*
X113087128Y-43038333D01*
X112894498Y-43018087D01*
X112894496Y-43018087D01*
X112888369Y-43017443D01*
X112801529Y-43025346D01*
X112689342Y-43035555D01*
X112689339Y-43035556D01*
X112683203Y-43036114D01*
X112485572Y-43094280D01*
X112303002Y-43189726D01*
X112298201Y-43193586D01*
X112298198Y-43193588D01*
X112147254Y-43314950D01*
X112142447Y-43318815D01*
X112010024Y-43476630D01*
X112007056Y-43482028D01*
X112007053Y-43482033D01*
X111913743Y-43651765D01*
X111910776Y-43657162D01*
X111848484Y-43853532D01*
X111847798Y-43859649D01*
X111847797Y-43859653D01*
X111830547Y-44013446D01*
X111825520Y-44058262D01*
X111395138Y-44058262D01*
X111376480Y-43867970D01*
X111316935Y-43670749D01*
X111220218Y-43488849D01*
X111135234Y-43384649D01*
X111093906Y-43333975D01*
X111093903Y-43333972D01*
X111090011Y-43329200D01*
X111020641Y-43271812D01*
X110936025Y-43201811D01*
X110936021Y-43201809D01*
X110931275Y-43197882D01*
X110750055Y-43099897D01*
X110553254Y-43038977D01*
X110547129Y-43038333D01*
X110547128Y-43038333D01*
X110354498Y-43018087D01*
X110354496Y-43018087D01*
X110348369Y-43017443D01*
X110261529Y-43025346D01*
X110149342Y-43035555D01*
X110149339Y-43035556D01*
X110143203Y-43036114D01*
X109945572Y-43094280D01*
X109763002Y-43189726D01*
X109758201Y-43193586D01*
X109758198Y-43193588D01*
X109607254Y-43314950D01*
X109602447Y-43318815D01*
X109470024Y-43476630D01*
X109467056Y-43482028D01*
X109467053Y-43482033D01*
X109373743Y-43651765D01*
X109370776Y-43657162D01*
X109308484Y-43853532D01*
X109307798Y-43859649D01*
X109307797Y-43859653D01*
X109290547Y-44013446D01*
X109285520Y-44058262D01*
X108855138Y-44058262D01*
X108836480Y-43867970D01*
X108776935Y-43670749D01*
X108680218Y-43488849D01*
X108595234Y-43384649D01*
X108553906Y-43333975D01*
X108553903Y-43333972D01*
X108550011Y-43329200D01*
X108480641Y-43271812D01*
X108396025Y-43201811D01*
X108396021Y-43201809D01*
X108391275Y-43197882D01*
X108210055Y-43099897D01*
X108013254Y-43038977D01*
X108007129Y-43038333D01*
X108007128Y-43038333D01*
X107814498Y-43018087D01*
X107814496Y-43018087D01*
X107808369Y-43017443D01*
X107721529Y-43025346D01*
X107609342Y-43035555D01*
X107609339Y-43035556D01*
X107603203Y-43036114D01*
X107405572Y-43094280D01*
X107223002Y-43189726D01*
X107218201Y-43193586D01*
X107218198Y-43193588D01*
X107067254Y-43314950D01*
X107062447Y-43318815D01*
X106930024Y-43476630D01*
X106927056Y-43482028D01*
X106927053Y-43482033D01*
X106833743Y-43651765D01*
X106830776Y-43657162D01*
X106768484Y-43853532D01*
X106767798Y-43859649D01*
X106767797Y-43859653D01*
X106750547Y-44013446D01*
X106745520Y-44058262D01*
X103775138Y-44058262D01*
X103756480Y-43867970D01*
X103696935Y-43670749D01*
X103600218Y-43488849D01*
X103515234Y-43384649D01*
X103473906Y-43333975D01*
X103473903Y-43333972D01*
X103470011Y-43329200D01*
X103400641Y-43271812D01*
X103316025Y-43201811D01*
X103316021Y-43201809D01*
X103311275Y-43197882D01*
X103130055Y-43099897D01*
X102933254Y-43038977D01*
X102927129Y-43038333D01*
X102927128Y-43038333D01*
X102734498Y-43018087D01*
X102734496Y-43018087D01*
X102728369Y-43017443D01*
X102641529Y-43025346D01*
X102529342Y-43035555D01*
X102529339Y-43035556D01*
X102523203Y-43036114D01*
X102325572Y-43094280D01*
X102143002Y-43189726D01*
X102138201Y-43193586D01*
X102138198Y-43193588D01*
X101987254Y-43314950D01*
X101982447Y-43318815D01*
X101850024Y-43476630D01*
X101847056Y-43482028D01*
X101847053Y-43482033D01*
X101753743Y-43651765D01*
X101750776Y-43657162D01*
X101688484Y-43853532D01*
X101687798Y-43859649D01*
X101687797Y-43859653D01*
X101670547Y-44013446D01*
X101665520Y-44058262D01*
X101235138Y-44058262D01*
X101216480Y-43867970D01*
X101156935Y-43670749D01*
X101060218Y-43488849D01*
X100975234Y-43384649D01*
X100933906Y-43333975D01*
X100933903Y-43333972D01*
X100930011Y-43329200D01*
X100860641Y-43271812D01*
X100776025Y-43201811D01*
X100776021Y-43201809D01*
X100771275Y-43197882D01*
X100590055Y-43099897D01*
X100393254Y-43038977D01*
X100387129Y-43038333D01*
X100387128Y-43038333D01*
X100194498Y-43018087D01*
X100194496Y-43018087D01*
X100188369Y-43017443D01*
X100101529Y-43025346D01*
X99989342Y-43035555D01*
X99989339Y-43035556D01*
X99983203Y-43036114D01*
X99785572Y-43094280D01*
X99603002Y-43189726D01*
X99598201Y-43193586D01*
X99598198Y-43193588D01*
X99447254Y-43314950D01*
X99442447Y-43318815D01*
X99310024Y-43476630D01*
X99307056Y-43482028D01*
X99307053Y-43482033D01*
X99213743Y-43651765D01*
X99210776Y-43657162D01*
X99148484Y-43853532D01*
X99147798Y-43859649D01*
X99147797Y-43859653D01*
X99130547Y-44013446D01*
X99125520Y-44058262D01*
X96155138Y-44058262D01*
X96136480Y-43867970D01*
X96076935Y-43670749D01*
X95980218Y-43488849D01*
X95895234Y-43384649D01*
X95853906Y-43333975D01*
X95853903Y-43333972D01*
X95850011Y-43329200D01*
X95780641Y-43271812D01*
X95696025Y-43201811D01*
X95696021Y-43201809D01*
X95691275Y-43197882D01*
X95510055Y-43099897D01*
X95313254Y-43038977D01*
X95307129Y-43038333D01*
X95307128Y-43038333D01*
X95114498Y-43018087D01*
X95114496Y-43018087D01*
X95108369Y-43017443D01*
X95021529Y-43025346D01*
X94909342Y-43035555D01*
X94909339Y-43035556D01*
X94903203Y-43036114D01*
X94705572Y-43094280D01*
X94523002Y-43189726D01*
X94518201Y-43193586D01*
X94518198Y-43193588D01*
X94367254Y-43314950D01*
X94362447Y-43318815D01*
X94230024Y-43476630D01*
X94227056Y-43482028D01*
X94227053Y-43482033D01*
X94133743Y-43651765D01*
X94130776Y-43657162D01*
X94068484Y-43853532D01*
X94067798Y-43859649D01*
X94067797Y-43859653D01*
X94050547Y-44013446D01*
X94045520Y-44058262D01*
X93615138Y-44058262D01*
X93596480Y-43867970D01*
X93536935Y-43670749D01*
X93440218Y-43488849D01*
X93355234Y-43384649D01*
X93313906Y-43333975D01*
X93313903Y-43333972D01*
X93310011Y-43329200D01*
X93240641Y-43271812D01*
X93156025Y-43201811D01*
X93156021Y-43201809D01*
X93151275Y-43197882D01*
X92970055Y-43099897D01*
X92773254Y-43038977D01*
X92767129Y-43038333D01*
X92767128Y-43038333D01*
X92574498Y-43018087D01*
X92574496Y-43018087D01*
X92568369Y-43017443D01*
X92481529Y-43025346D01*
X92369342Y-43035555D01*
X92369339Y-43035556D01*
X92363203Y-43036114D01*
X92165572Y-43094280D01*
X91983002Y-43189726D01*
X91978201Y-43193586D01*
X91978198Y-43193588D01*
X91827254Y-43314950D01*
X91822447Y-43318815D01*
X91690024Y-43476630D01*
X91687056Y-43482028D01*
X91687053Y-43482033D01*
X91593743Y-43651765D01*
X91590776Y-43657162D01*
X91528484Y-43853532D01*
X91527798Y-43859649D01*
X91527797Y-43859653D01*
X91510547Y-44013446D01*
X91505520Y-44058262D01*
X91075138Y-44058262D01*
X91056480Y-43867970D01*
X90996935Y-43670749D01*
X90900218Y-43488849D01*
X90815234Y-43384649D01*
X90773906Y-43333975D01*
X90773903Y-43333972D01*
X90770011Y-43329200D01*
X90700641Y-43271812D01*
X90616025Y-43201811D01*
X90616021Y-43201809D01*
X90611275Y-43197882D01*
X90430055Y-43099897D01*
X90233254Y-43038977D01*
X90227129Y-43038333D01*
X90227128Y-43038333D01*
X90034498Y-43018087D01*
X90034496Y-43018087D01*
X90028369Y-43017443D01*
X89941529Y-43025346D01*
X89829342Y-43035555D01*
X89829339Y-43035556D01*
X89823203Y-43036114D01*
X89625572Y-43094280D01*
X89443002Y-43189726D01*
X89438201Y-43193586D01*
X89438198Y-43193588D01*
X89287254Y-43314950D01*
X89282447Y-43318815D01*
X89150024Y-43476630D01*
X89147056Y-43482028D01*
X89147053Y-43482033D01*
X89053743Y-43651765D01*
X89050776Y-43657162D01*
X88988484Y-43853532D01*
X88987798Y-43859649D01*
X88987797Y-43859653D01*
X88970547Y-44013446D01*
X88965520Y-44058262D01*
X85995138Y-44058262D01*
X85976480Y-43867970D01*
X85916935Y-43670749D01*
X85820218Y-43488849D01*
X85735234Y-43384649D01*
X85693906Y-43333975D01*
X85693903Y-43333972D01*
X85690011Y-43329200D01*
X85620641Y-43271812D01*
X85536025Y-43201811D01*
X85536021Y-43201809D01*
X85531275Y-43197882D01*
X85350055Y-43099897D01*
X85153254Y-43038977D01*
X85147129Y-43038333D01*
X85147128Y-43038333D01*
X84954498Y-43018087D01*
X84954496Y-43018087D01*
X84948369Y-43017443D01*
X84861529Y-43025346D01*
X84749342Y-43035555D01*
X84749339Y-43035556D01*
X84743203Y-43036114D01*
X84545572Y-43094280D01*
X84363002Y-43189726D01*
X84358201Y-43193586D01*
X84358198Y-43193588D01*
X84207254Y-43314950D01*
X84202447Y-43318815D01*
X84070024Y-43476630D01*
X84067057Y-43482028D01*
X84067053Y-43482033D01*
X84027929Y-43553201D01*
X83977584Y-43603259D01*
X83917514Y-43618500D01*
X83424863Y-43618500D01*
X83356742Y-43598498D01*
X83313611Y-43551653D01*
X83283111Y-43494290D01*
X83280218Y-43488849D01*
X83195234Y-43384649D01*
X83153906Y-43333975D01*
X83153903Y-43333972D01*
X83150011Y-43329200D01*
X83080641Y-43271812D01*
X82996025Y-43201811D01*
X82996021Y-43201809D01*
X82991275Y-43197882D01*
X82810055Y-43099897D01*
X82613254Y-43038977D01*
X82607129Y-43038333D01*
X82607128Y-43038333D01*
X82414498Y-43018087D01*
X82414496Y-43018087D01*
X82408369Y-43017443D01*
X82321529Y-43025346D01*
X82209342Y-43035555D01*
X82209339Y-43035556D01*
X82203203Y-43036114D01*
X82005572Y-43094280D01*
X81823002Y-43189726D01*
X81818201Y-43193586D01*
X81818198Y-43193588D01*
X81667254Y-43314950D01*
X81662447Y-43318815D01*
X81530024Y-43476630D01*
X81527056Y-43482028D01*
X81527053Y-43482033D01*
X81433743Y-43651765D01*
X81430776Y-43657162D01*
X81368484Y-43853532D01*
X81367798Y-43859649D01*
X81367797Y-43859653D01*
X81350547Y-44013446D01*
X81345520Y-44058262D01*
X81362759Y-44263553D01*
X81387969Y-44351471D01*
X81387518Y-44422465D01*
X81355945Y-44475295D01*
X79176989Y-46654251D01*
X79165900Y-46664106D01*
X79138941Y-46685359D01*
X79124511Y-46706238D01*
X79105258Y-46734094D01*
X79102976Y-46737287D01*
X79067791Y-46784924D01*
X79065377Y-46791797D01*
X79061236Y-46797789D01*
X79045716Y-46846863D01*
X79043374Y-46854270D01*
X79042129Y-46857999D01*
X79022507Y-46913874D01*
X79022224Y-46921078D01*
X79022191Y-46921249D01*
X79020025Y-46928097D01*
X79019500Y-46934768D01*
X79019500Y-46987938D01*
X79019403Y-46992884D01*
X79017142Y-47050437D01*
X79019039Y-47057592D01*
X79019500Y-47065967D01*
X79019500Y-55131550D01*
X78999498Y-55199671D01*
X78982595Y-55220645D01*
X76284095Y-57919145D01*
X76221783Y-57953171D01*
X76150968Y-57948106D01*
X76094132Y-57905559D01*
X76069321Y-57839039D01*
X76069000Y-57830050D01*
X76069000Y-53400456D01*
X76069873Y-53385647D01*
X76072800Y-53360915D01*
X76073907Y-53351562D01*
X76072215Y-53342295D01*
X76063271Y-53293320D01*
X76062622Y-53289418D01*
X76055216Y-53240164D01*
X76055215Y-53240161D01*
X76053815Y-53230849D01*
X76050662Y-53224282D01*
X76049353Y-53217117D01*
X76022038Y-53164533D01*
X76020288Y-53161030D01*
X75994654Y-53107647D01*
X75989759Y-53102352D01*
X75989666Y-53102213D01*
X75986352Y-53095834D01*
X75982006Y-53090746D01*
X75944424Y-53053164D01*
X75940994Y-53049598D01*
X75908274Y-53014202D01*
X75901883Y-53007288D01*
X75895483Y-53003570D01*
X75889223Y-52997963D01*
X72860905Y-49969645D01*
X72826879Y-49907333D01*
X72824000Y-49880550D01*
X72823999Y-49600634D01*
X72823999Y-49597668D01*
X72821101Y-49567000D01*
X72818461Y-49559482D01*
X72780583Y-49451621D01*
X72780582Y-49451619D01*
X72777461Y-49442732D01*
X72699211Y-49336789D01*
X72685359Y-49326558D01*
X72600845Y-49264135D01*
X72600843Y-49264134D01*
X72593268Y-49258539D01*
X72584381Y-49255418D01*
X72584379Y-49255417D01*
X72476248Y-49217444D01*
X72476246Y-49217443D01*
X72469000Y-49214899D01*
X72461356Y-49214176D01*
X72461354Y-49214176D01*
X72453379Y-49213422D01*
X72438333Y-49212000D01*
X72136153Y-49212000D01*
X71833668Y-49212001D01*
X71830718Y-49212280D01*
X71830713Y-49212280D01*
X71810650Y-49214176D01*
X71810649Y-49214176D01*
X71803000Y-49214899D01*
X71795752Y-49217444D01*
X71795749Y-49217445D01*
X71687621Y-49255417D01*
X71687619Y-49255418D01*
X71678732Y-49258539D01*
X71671157Y-49264134D01*
X71671155Y-49264135D01*
X71586641Y-49326558D01*
X71572789Y-49336789D01*
X71494539Y-49442732D01*
X71491418Y-49451619D01*
X71491417Y-49451621D01*
X71453539Y-49559482D01*
X71450899Y-49567000D01*
X71448000Y-49597667D01*
X71448001Y-50177332D01*
X71450899Y-50208000D01*
X71453444Y-50215248D01*
X71453445Y-50215251D01*
X71462701Y-50241606D01*
X71494539Y-50332268D01*
X71572789Y-50438211D01*
X71580360Y-50443803D01*
X71671155Y-50510865D01*
X71671157Y-50510866D01*
X71678732Y-50516461D01*
X71687619Y-50519582D01*
X71687621Y-50519583D01*
X71795752Y-50557556D01*
X71795754Y-50557557D01*
X71803000Y-50560101D01*
X71810644Y-50560824D01*
X71810646Y-50560824D01*
X71818621Y-50561578D01*
X71833667Y-50563000D01*
X71851668Y-50563000D01*
X72116550Y-50562999D01*
X72184669Y-50583001D01*
X72205644Y-50599904D01*
X75123095Y-53517355D01*
X75157121Y-53579667D01*
X75160000Y-53606450D01*
X75160000Y-58991050D01*
X75139998Y-59059171D01*
X75123095Y-59080145D01*
X72395820Y-61807420D01*
X72333508Y-61841446D01*
X72280530Y-61841572D01*
X72252958Y-61835712D01*
X72234895Y-61831872D01*
X72234893Y-61831872D01*
X72228439Y-61830500D01*
X72043561Y-61830500D01*
X72037108Y-61831872D01*
X72037104Y-61831872D01*
X71956402Y-61849026D01*
X71862722Y-61868938D01*
X71856693Y-61871622D01*
X71856691Y-61871623D01*
X71699858Y-61941450D01*
X71699856Y-61941451D01*
X71693828Y-61944135D01*
X71544258Y-62052804D01*
X71420550Y-62190195D01*
X71328111Y-62350304D01*
X71326069Y-62356589D01*
X71280396Y-62497156D01*
X71270980Y-62526134D01*
X71270290Y-62532697D01*
X71270290Y-62532698D01*
X71252345Y-62703435D01*
X71251655Y-62710000D01*
X67935500Y-62710000D01*
X67935500Y-62011252D01*
X67923867Y-61952769D01*
X67879552Y-61886448D01*
X67813231Y-61842133D01*
X67801062Y-61839712D01*
X67801061Y-61839712D01*
X67760816Y-61831707D01*
X67754748Y-61830500D01*
X67636500Y-61830500D01*
X67568379Y-61810498D01*
X67521886Y-61756842D01*
X67510500Y-61704500D01*
X67510500Y-60565450D01*
X67530502Y-60497329D01*
X67547405Y-60476355D01*
X72433011Y-55590749D01*
X72444100Y-55580894D01*
X72450669Y-55575715D01*
X72471059Y-55559641D01*
X72494616Y-55525557D01*
X72504742Y-55510906D01*
X72507024Y-55507713D01*
X72542209Y-55460076D01*
X72544623Y-55453203D01*
X72548764Y-55447211D01*
X72566629Y-55390722D01*
X72567880Y-55386973D01*
X72587493Y-55331126D01*
X72587776Y-55323922D01*
X72587809Y-55323751D01*
X72589975Y-55316903D01*
X72590500Y-55310232D01*
X72590500Y-55257062D01*
X72590597Y-55252116D01*
X72592488Y-55203973D01*
X72592858Y-55194563D01*
X72590961Y-55187408D01*
X72590500Y-55179030D01*
X72590500Y-53630084D01*
X72610502Y-53561963D01*
X72641642Y-53528732D01*
X72691638Y-53491805D01*
X72691640Y-53491803D01*
X72699211Y-53486211D01*
X72777461Y-53380268D01*
X72781745Y-53368071D01*
X72818556Y-53263248D01*
X72818557Y-53263246D01*
X72821101Y-53256000D01*
X72824000Y-53225333D01*
X72823999Y-52645668D01*
X72821101Y-52615000D01*
X72811619Y-52587998D01*
X72780583Y-52499621D01*
X72780582Y-52499619D01*
X72777461Y-52490732D01*
X72748450Y-52451453D01*
X72704803Y-52392360D01*
X72699211Y-52384789D01*
X72674998Y-52366905D01*
X72600845Y-52312135D01*
X72600843Y-52312134D01*
X72593268Y-52306539D01*
X72584381Y-52303418D01*
X72584379Y-52303417D01*
X72476248Y-52265444D01*
X72476246Y-52265443D01*
X72469000Y-52262899D01*
X72461356Y-52262176D01*
X72461354Y-52262176D01*
X72453379Y-52261422D01*
X72438333Y-52260000D01*
X72136153Y-52260000D01*
X71833668Y-52260001D01*
X71830718Y-52260280D01*
X71830713Y-52260280D01*
X71810650Y-52262176D01*
X71810649Y-52262176D01*
X71803000Y-52262899D01*
X71795752Y-52265444D01*
X71795749Y-52265445D01*
X71687621Y-52303417D01*
X71687619Y-52303418D01*
X71678732Y-52306539D01*
X71671157Y-52312134D01*
X71671155Y-52312135D01*
X71597002Y-52366905D01*
X71572789Y-52384789D01*
X71567197Y-52392360D01*
X71523551Y-52451453D01*
X71494539Y-52490732D01*
X71491418Y-52499619D01*
X71491417Y-52499621D01*
X71460381Y-52587998D01*
X71450899Y-52615000D01*
X71450176Y-52622644D01*
X71450176Y-52622646D01*
X71449701Y-52627677D01*
X71448000Y-52645667D01*
X71448001Y-53225332D01*
X71448280Y-53228281D01*
X71448280Y-53228287D01*
X71450176Y-53248350D01*
X71450899Y-53256000D01*
X71453444Y-53263248D01*
X71453445Y-53263251D01*
X71490256Y-53368071D01*
X71494539Y-53380268D01*
X71572789Y-53486211D01*
X71580360Y-53491803D01*
X71580362Y-53491805D01*
X71630358Y-53528732D01*
X71673270Y-53585293D01*
X71681500Y-53630084D01*
X71681500Y-55004550D01*
X71661498Y-55072671D01*
X71644595Y-55093645D01*
X66758989Y-59979251D01*
X66747900Y-59989106D01*
X66720941Y-60010359D01*
X66715587Y-60018106D01*
X66687258Y-60059094D01*
X66684976Y-60062287D01*
X66649791Y-60109924D01*
X66647377Y-60116797D01*
X66643236Y-60122789D01*
X66640396Y-60131770D01*
X66625374Y-60179270D01*
X66624129Y-60182999D01*
X66604507Y-60238874D01*
X66604224Y-60246078D01*
X66604191Y-60246249D01*
X66602025Y-60253097D01*
X66601500Y-60259768D01*
X66601500Y-60312938D01*
X66601403Y-60317884D01*
X66599142Y-60375437D01*
X66601039Y-60382592D01*
X66601500Y-60390967D01*
X66601500Y-61704500D01*
X66581498Y-61772621D01*
X66527842Y-61819114D01*
X66475500Y-61830500D01*
X66357252Y-61830500D01*
X66351184Y-61831707D01*
X66310939Y-61839712D01*
X66310938Y-61839712D01*
X66298769Y-61842133D01*
X66232448Y-61886448D01*
X66188133Y-61952769D01*
X66176500Y-62011252D01*
X66176500Y-63408748D01*
X50927500Y-63408748D01*
X50927500Y-52645667D01*
X67563000Y-52645667D01*
X67563001Y-53225332D01*
X67563280Y-53228281D01*
X67563280Y-53228287D01*
X67565176Y-53248350D01*
X67565899Y-53256000D01*
X67568444Y-53263248D01*
X67568445Y-53263251D01*
X67605256Y-53368071D01*
X67609539Y-53380268D01*
X67687789Y-53486211D01*
X67695360Y-53491803D01*
X67786155Y-53558865D01*
X67786157Y-53558866D01*
X67793732Y-53564461D01*
X67802619Y-53567582D01*
X67802621Y-53567583D01*
X67910752Y-53605556D01*
X67910754Y-53605557D01*
X67918000Y-53608101D01*
X67925644Y-53608824D01*
X67925646Y-53608824D01*
X67933621Y-53609578D01*
X67948667Y-53611000D01*
X68288328Y-53611000D01*
X68628332Y-53610999D01*
X68631282Y-53610720D01*
X68631287Y-53610720D01*
X68651350Y-53608824D01*
X68651351Y-53608824D01*
X68659000Y-53608101D01*
X68666248Y-53605556D01*
X68666251Y-53605555D01*
X68774379Y-53567583D01*
X68774381Y-53567582D01*
X68783268Y-53564461D01*
X68790843Y-53558866D01*
X68790845Y-53558865D01*
X68881640Y-53491803D01*
X68889211Y-53486211D01*
X68967461Y-53380268D01*
X68979056Y-53347251D01*
X69020499Y-53289606D01*
X69086529Y-53263518D01*
X69097938Y-53263000D01*
X69539062Y-53263000D01*
X69607183Y-53283002D01*
X69653676Y-53336658D01*
X69657944Y-53347251D01*
X69669539Y-53380268D01*
X69747789Y-53486211D01*
X69755360Y-53491803D01*
X69846155Y-53558865D01*
X69846157Y-53558866D01*
X69853732Y-53564461D01*
X69862619Y-53567582D01*
X69862621Y-53567583D01*
X69970752Y-53605556D01*
X69970754Y-53605557D01*
X69978000Y-53608101D01*
X69985644Y-53608824D01*
X69985646Y-53608824D01*
X69993621Y-53609578D01*
X70008667Y-53611000D01*
X70310847Y-53611000D01*
X70613332Y-53610999D01*
X70616282Y-53610720D01*
X70616287Y-53610720D01*
X70636350Y-53608824D01*
X70636351Y-53608824D01*
X70644000Y-53608101D01*
X70651248Y-53605556D01*
X70651251Y-53605555D01*
X70759379Y-53567583D01*
X70759381Y-53567582D01*
X70768268Y-53564461D01*
X70775843Y-53558866D01*
X70775845Y-53558865D01*
X70866640Y-53491803D01*
X70874211Y-53486211D01*
X70952461Y-53380268D01*
X70956745Y-53368071D01*
X70993556Y-53263248D01*
X70993557Y-53263246D01*
X70996101Y-53256000D01*
X70999000Y-53225333D01*
X70998999Y-52645668D01*
X70996101Y-52615000D01*
X70986619Y-52587998D01*
X70955583Y-52499621D01*
X70955582Y-52499619D01*
X70952461Y-52490732D01*
X70923450Y-52451453D01*
X70879803Y-52392360D01*
X70874211Y-52384789D01*
X70849998Y-52366905D01*
X70775845Y-52312135D01*
X70775843Y-52312134D01*
X70768268Y-52306539D01*
X70759381Y-52303418D01*
X70759379Y-52303417D01*
X70651248Y-52265444D01*
X70651246Y-52265443D01*
X70644000Y-52262899D01*
X70636356Y-52262176D01*
X70636354Y-52262176D01*
X70628379Y-52261422D01*
X70613333Y-52260000D01*
X70311153Y-52260000D01*
X70008668Y-52260001D01*
X70005718Y-52260280D01*
X70005713Y-52260280D01*
X69985650Y-52262176D01*
X69985649Y-52262176D01*
X69978000Y-52262899D01*
X69970752Y-52265444D01*
X69970749Y-52265445D01*
X69862621Y-52303417D01*
X69862619Y-52303418D01*
X69853732Y-52306539D01*
X69846157Y-52312134D01*
X69846155Y-52312135D01*
X69772002Y-52366905D01*
X69747789Y-52384789D01*
X69742197Y-52392360D01*
X69698551Y-52451453D01*
X69669539Y-52490732D01*
X69666417Y-52499622D01*
X69657944Y-52523749D01*
X69616501Y-52581394D01*
X69550471Y-52607482D01*
X69539062Y-52608000D01*
X69097938Y-52608000D01*
X69029817Y-52587998D01*
X68983324Y-52534342D01*
X68979056Y-52523749D01*
X68970583Y-52499622D01*
X68967461Y-52490732D01*
X68938450Y-52451453D01*
X68894803Y-52392360D01*
X68889211Y-52384789D01*
X68864998Y-52366905D01*
X68790845Y-52312135D01*
X68790843Y-52312134D01*
X68783268Y-52306539D01*
X68774381Y-52303418D01*
X68774379Y-52303417D01*
X68666248Y-52265444D01*
X68666246Y-52265443D01*
X68659000Y-52262899D01*
X68651356Y-52262176D01*
X68651354Y-52262176D01*
X68643379Y-52261422D01*
X68628333Y-52260000D01*
X68288672Y-52260000D01*
X67948668Y-52260001D01*
X67945718Y-52260280D01*
X67945713Y-52260280D01*
X67925650Y-52262176D01*
X67925649Y-52262176D01*
X67918000Y-52262899D01*
X67910752Y-52265444D01*
X67910749Y-52265445D01*
X67802621Y-52303417D01*
X67802619Y-52303418D01*
X67793732Y-52306539D01*
X67786157Y-52312134D01*
X67786155Y-52312135D01*
X67712002Y-52366905D01*
X67687789Y-52384789D01*
X67682197Y-52392360D01*
X67638551Y-52451453D01*
X67609539Y-52490732D01*
X67606418Y-52499619D01*
X67606417Y-52499621D01*
X67575381Y-52587998D01*
X67565899Y-52615000D01*
X67565176Y-52622644D01*
X67565176Y-52622646D01*
X67564701Y-52627677D01*
X67563000Y-52645667D01*
X50927500Y-52645667D01*
X50927500Y-47829552D01*
X50947502Y-47761431D01*
X51001158Y-47714938D01*
X51071432Y-47704834D01*
X51136012Y-47734328D01*
X51171011Y-47784087D01*
X51173446Y-47790381D01*
X51174861Y-47793175D01*
X51174864Y-47793183D01*
X51278005Y-47996924D01*
X51352143Y-48143375D01*
X51565015Y-48476875D01*
X51809958Y-48787583D01*
X51812133Y-48789839D01*
X51812138Y-48789845D01*
X51935588Y-48917904D01*
X52084549Y-49072428D01*
X52086942Y-49074461D01*
X52383679Y-49326558D01*
X52383687Y-49326565D01*
X52386074Y-49328592D01*
X52451183Y-49373592D01*
X52708977Y-49551765D01*
X52708986Y-49551770D01*
X52711549Y-49553542D01*
X52714284Y-49555055D01*
X52714289Y-49555058D01*
X52796673Y-49600630D01*
X53057758Y-49745054D01*
X53060627Y-49746287D01*
X53060638Y-49746292D01*
X53391370Y-49888385D01*
X53421275Y-49901233D01*
X53424252Y-49902174D01*
X53424256Y-49902176D01*
X53487404Y-49922147D01*
X53798507Y-50020536D01*
X54185723Y-50101782D01*
X54188841Y-50102118D01*
X54576642Y-50143905D01*
X54576645Y-50143905D01*
X54579093Y-50144169D01*
X54581556Y-50144240D01*
X54581557Y-50144240D01*
X54585206Y-50144345D01*
X54636411Y-50145820D01*
X54907472Y-50145820D01*
X54909035Y-50145742D01*
X54909043Y-50145742D01*
X55005411Y-50140944D01*
X55203278Y-50131094D01*
X55206363Y-50130630D01*
X55206365Y-50130630D01*
X55591436Y-50072737D01*
X55594529Y-50072272D01*
X55795704Y-50021180D01*
X55974959Y-49975655D01*
X55974962Y-49975654D01*
X55978002Y-49974882D01*
X56042179Y-49951587D01*
X56346969Y-49840954D01*
X56346979Y-49840950D01*
X56349907Y-49839887D01*
X56706566Y-49668622D01*
X56823038Y-49597667D01*
X67563000Y-49597667D01*
X67563001Y-50177332D01*
X67565899Y-50208000D01*
X67568444Y-50215248D01*
X67568445Y-50215251D01*
X67577701Y-50241606D01*
X67609539Y-50332268D01*
X67687789Y-50438211D01*
X67695360Y-50443803D01*
X67786155Y-50510865D01*
X67786157Y-50510866D01*
X67793732Y-50516461D01*
X67802619Y-50519582D01*
X67802621Y-50519583D01*
X67910752Y-50557556D01*
X67910754Y-50557557D01*
X67918000Y-50560101D01*
X67925644Y-50560824D01*
X67925646Y-50560824D01*
X67933621Y-50561578D01*
X67948667Y-50563000D01*
X68288328Y-50563000D01*
X68628332Y-50562999D01*
X68631282Y-50562720D01*
X68631287Y-50562720D01*
X68651350Y-50560824D01*
X68651351Y-50560824D01*
X68659000Y-50560101D01*
X68666248Y-50557556D01*
X68666251Y-50557555D01*
X68774379Y-50519583D01*
X68774381Y-50519582D01*
X68783268Y-50516461D01*
X68790843Y-50510866D01*
X68790845Y-50510865D01*
X68881640Y-50443803D01*
X68889211Y-50438211D01*
X68967461Y-50332268D01*
X68979056Y-50299251D01*
X69020499Y-50241606D01*
X69086529Y-50215518D01*
X69097938Y-50215000D01*
X69539062Y-50215000D01*
X69607183Y-50235002D01*
X69653676Y-50288658D01*
X69657944Y-50299251D01*
X69669539Y-50332268D01*
X69747789Y-50438211D01*
X69755360Y-50443803D01*
X69846155Y-50510865D01*
X69846157Y-50510866D01*
X69853732Y-50516461D01*
X69862619Y-50519582D01*
X69862621Y-50519583D01*
X69970752Y-50557556D01*
X69970754Y-50557557D01*
X69978000Y-50560101D01*
X69985644Y-50560824D01*
X69985646Y-50560824D01*
X69993621Y-50561578D01*
X70008667Y-50563000D01*
X70310847Y-50563000D01*
X70613332Y-50562999D01*
X70616282Y-50562720D01*
X70616287Y-50562720D01*
X70636350Y-50560824D01*
X70636351Y-50560824D01*
X70644000Y-50560101D01*
X70651248Y-50557556D01*
X70651251Y-50557555D01*
X70759379Y-50519583D01*
X70759381Y-50519582D01*
X70768268Y-50516461D01*
X70775843Y-50510866D01*
X70775845Y-50510865D01*
X70866640Y-50443803D01*
X70874211Y-50438211D01*
X70952461Y-50332268D01*
X70984300Y-50241606D01*
X70993556Y-50215248D01*
X70993557Y-50215246D01*
X70996101Y-50208000D01*
X70999000Y-50177333D01*
X70998999Y-49597668D01*
X70996101Y-49567000D01*
X70993461Y-49559482D01*
X70955583Y-49451621D01*
X70955582Y-49451619D01*
X70952461Y-49442732D01*
X70874211Y-49336789D01*
X70860359Y-49326558D01*
X70775845Y-49264135D01*
X70775843Y-49264134D01*
X70768268Y-49258539D01*
X70759381Y-49255418D01*
X70759379Y-49255417D01*
X70651248Y-49217444D01*
X70651246Y-49217443D01*
X70644000Y-49214899D01*
X70636356Y-49214176D01*
X70636354Y-49214176D01*
X70628379Y-49213422D01*
X70613333Y-49212000D01*
X70311153Y-49212000D01*
X70008668Y-49212001D01*
X70005718Y-49212280D01*
X70005713Y-49212280D01*
X69985650Y-49214176D01*
X69985649Y-49214176D01*
X69978000Y-49214899D01*
X69970752Y-49217444D01*
X69970749Y-49217445D01*
X69862621Y-49255417D01*
X69862619Y-49255418D01*
X69853732Y-49258539D01*
X69846157Y-49264134D01*
X69846155Y-49264135D01*
X69761641Y-49326558D01*
X69747789Y-49336789D01*
X69669539Y-49442732D01*
X69666417Y-49451622D01*
X69657944Y-49475749D01*
X69616501Y-49533394D01*
X69550471Y-49559482D01*
X69539062Y-49560000D01*
X69097938Y-49560000D01*
X69029817Y-49539998D01*
X68983324Y-49486342D01*
X68979056Y-49475749D01*
X68970583Y-49451622D01*
X68967461Y-49442732D01*
X68889211Y-49336789D01*
X68875359Y-49326558D01*
X68790845Y-49264135D01*
X68790843Y-49264134D01*
X68783268Y-49258539D01*
X68774381Y-49255418D01*
X68774379Y-49255417D01*
X68666248Y-49217444D01*
X68666246Y-49217443D01*
X68659000Y-49214899D01*
X68651356Y-49214176D01*
X68651354Y-49214176D01*
X68643379Y-49213422D01*
X68628333Y-49212000D01*
X68288672Y-49212000D01*
X67948668Y-49212001D01*
X67945718Y-49212280D01*
X67945713Y-49212280D01*
X67925650Y-49214176D01*
X67925649Y-49214176D01*
X67918000Y-49214899D01*
X67910752Y-49217444D01*
X67910749Y-49217445D01*
X67802621Y-49255417D01*
X67802619Y-49255418D01*
X67793732Y-49258539D01*
X67786157Y-49264134D01*
X67786155Y-49264135D01*
X67701641Y-49326558D01*
X67687789Y-49336789D01*
X67609539Y-49442732D01*
X67606418Y-49451619D01*
X67606417Y-49451621D01*
X67568539Y-49559482D01*
X67565899Y-49567000D01*
X67563000Y-49597667D01*
X56823038Y-49597667D01*
X57044451Y-49462781D01*
X57314998Y-49258539D01*
X57357727Y-49226282D01*
X57357730Y-49226280D01*
X57360221Y-49224399D01*
X57362503Y-49222289D01*
X57362512Y-49222282D01*
X57648457Y-48957956D01*
X57650754Y-48955833D01*
X57799871Y-48787583D01*
X57911092Y-48662091D01*
X57911097Y-48662085D01*
X57913176Y-48659739D01*
X58144893Y-48339046D01*
X58343613Y-47996924D01*
X58419713Y-47829552D01*
X58506079Y-47639599D01*
X58506080Y-47639596D01*
X58507371Y-47636757D01*
X58511108Y-47625750D01*
X58551407Y-47507033D01*
X58634548Y-47262107D01*
X58705921Y-46954182D01*
X58723181Y-46879719D01*
X58723181Y-46879717D01*
X58723886Y-46876677D01*
X58766067Y-46549667D01*
X67581750Y-46549667D01*
X67581751Y-47129332D01*
X67584649Y-47160000D01*
X67587194Y-47167248D01*
X67587195Y-47167251D01*
X67620507Y-47262107D01*
X67628289Y-47284268D01*
X67633884Y-47291843D01*
X67633885Y-47291845D01*
X67693654Y-47372766D01*
X67706539Y-47390211D01*
X67714110Y-47395803D01*
X67804905Y-47462865D01*
X67804907Y-47462866D01*
X67812482Y-47468461D01*
X67821369Y-47471582D01*
X67821371Y-47471583D01*
X67929502Y-47509556D01*
X67929504Y-47509557D01*
X67936750Y-47512101D01*
X67944394Y-47512824D01*
X67944396Y-47512824D01*
X67952371Y-47513578D01*
X67967417Y-47515000D01*
X68307078Y-47515000D01*
X68647082Y-47514999D01*
X68650032Y-47514720D01*
X68650037Y-47514720D01*
X68670100Y-47512824D01*
X68670101Y-47512824D01*
X68677750Y-47512101D01*
X68684998Y-47509556D01*
X68685001Y-47509555D01*
X68793129Y-47471583D01*
X68793131Y-47471582D01*
X68802018Y-47468461D01*
X68809593Y-47462866D01*
X68809595Y-47462865D01*
X68900390Y-47395803D01*
X68907961Y-47390211D01*
X68920846Y-47372766D01*
X68980615Y-47291845D01*
X68980616Y-47291843D01*
X68986211Y-47284268D01*
X68992950Y-47265078D01*
X68997806Y-47251251D01*
X69039249Y-47193606D01*
X69105279Y-47167518D01*
X69116688Y-47167000D01*
X69557812Y-47167000D01*
X69625933Y-47187002D01*
X69672426Y-47240658D01*
X69676694Y-47251251D01*
X69681550Y-47265078D01*
X69688289Y-47284268D01*
X69693884Y-47291843D01*
X69693885Y-47291845D01*
X69753654Y-47372766D01*
X69766539Y-47390211D01*
X69774110Y-47395803D01*
X69864905Y-47462865D01*
X69864907Y-47462866D01*
X69872482Y-47468461D01*
X69881369Y-47471582D01*
X69881371Y-47471583D01*
X69989502Y-47509556D01*
X69989504Y-47509557D01*
X69996750Y-47512101D01*
X70004394Y-47512824D01*
X70004396Y-47512824D01*
X70012371Y-47513578D01*
X70027417Y-47515000D01*
X70329597Y-47515000D01*
X70632082Y-47514999D01*
X70635032Y-47514720D01*
X70635037Y-47514720D01*
X70655100Y-47512824D01*
X70655101Y-47512824D01*
X70662750Y-47512101D01*
X70669998Y-47509556D01*
X70670001Y-47509555D01*
X70778129Y-47471583D01*
X70778131Y-47471582D01*
X70787018Y-47468461D01*
X70794593Y-47462866D01*
X70794595Y-47462865D01*
X70885390Y-47395803D01*
X70892961Y-47390211D01*
X70905846Y-47372766D01*
X70965615Y-47291845D01*
X70965616Y-47291843D01*
X70971211Y-47284268D01*
X70978994Y-47262107D01*
X71012306Y-47167248D01*
X71012307Y-47167246D01*
X71014851Y-47160000D01*
X71017750Y-47129333D01*
X71017749Y-46549668D01*
X71017749Y-46549667D01*
X71466750Y-46549667D01*
X71466751Y-47129332D01*
X71469649Y-47160000D01*
X71472194Y-47167248D01*
X71472195Y-47167251D01*
X71505507Y-47262107D01*
X71513289Y-47284268D01*
X71518884Y-47291843D01*
X71518885Y-47291845D01*
X71578654Y-47372766D01*
X71591539Y-47390211D01*
X71599110Y-47395803D01*
X71689905Y-47462865D01*
X71689907Y-47462866D01*
X71697482Y-47468461D01*
X71706369Y-47471582D01*
X71706371Y-47471583D01*
X71814502Y-47509556D01*
X71814504Y-47509557D01*
X71821750Y-47512101D01*
X71829394Y-47512824D01*
X71829396Y-47512824D01*
X71837371Y-47513578D01*
X71852417Y-47515000D01*
X72154597Y-47515000D01*
X72457082Y-47514999D01*
X72460032Y-47514720D01*
X72460037Y-47514720D01*
X72480100Y-47512824D01*
X72480101Y-47512824D01*
X72487750Y-47512101D01*
X72494998Y-47509556D01*
X72495001Y-47509555D01*
X72603129Y-47471583D01*
X72603131Y-47471582D01*
X72612018Y-47468461D01*
X72619593Y-47462866D01*
X72619595Y-47462865D01*
X72675754Y-47421385D01*
X72717961Y-47390211D01*
X72733894Y-47368639D01*
X72790454Y-47325730D01*
X72835244Y-47317500D01*
X73604114Y-47317500D01*
X73672235Y-47337502D01*
X73680818Y-47343537D01*
X73738159Y-47387536D01*
X73884238Y-47448044D01*
X74041000Y-47468682D01*
X74049188Y-47467604D01*
X74189574Y-47449122D01*
X74197762Y-47448044D01*
X74343841Y-47387536D01*
X74469282Y-47291282D01*
X74565536Y-47165841D01*
X74626044Y-47019762D01*
X74646682Y-46863000D01*
X74626044Y-46706238D01*
X74565536Y-46560159D01*
X74469282Y-46434718D01*
X74343841Y-46338464D01*
X74197762Y-46277956D01*
X74041000Y-46257318D01*
X73884238Y-46277956D01*
X73738159Y-46338464D01*
X73699375Y-46368224D01*
X73680818Y-46382463D01*
X73614597Y-46408063D01*
X73604114Y-46408500D01*
X72869959Y-46408500D01*
X72801838Y-46388498D01*
X72768607Y-46357359D01*
X72723553Y-46296360D01*
X72717961Y-46288789D01*
X72710390Y-46283197D01*
X72619595Y-46216135D01*
X72619593Y-46216134D01*
X72612018Y-46210539D01*
X72603131Y-46207418D01*
X72603129Y-46207417D01*
X72494998Y-46169444D01*
X72494996Y-46169443D01*
X72487750Y-46166899D01*
X72480106Y-46166176D01*
X72480104Y-46166176D01*
X72472129Y-46165422D01*
X72457083Y-46164000D01*
X72154903Y-46164000D01*
X71852418Y-46164001D01*
X71849468Y-46164280D01*
X71849463Y-46164280D01*
X71829400Y-46166176D01*
X71829399Y-46166176D01*
X71821750Y-46166899D01*
X71814502Y-46169444D01*
X71814499Y-46169445D01*
X71706371Y-46207417D01*
X71706369Y-46207418D01*
X71697482Y-46210539D01*
X71689907Y-46216134D01*
X71689905Y-46216135D01*
X71599110Y-46283197D01*
X71591539Y-46288789D01*
X71513289Y-46394732D01*
X71510168Y-46403619D01*
X71510167Y-46403621D01*
X71480749Y-46487391D01*
X71469649Y-46519000D01*
X71466750Y-46549667D01*
X71017749Y-46549667D01*
X71014851Y-46519000D01*
X71003751Y-46487391D01*
X70974333Y-46403621D01*
X70974332Y-46403619D01*
X70971211Y-46394732D01*
X70892961Y-46288789D01*
X70885390Y-46283197D01*
X70794595Y-46216135D01*
X70794593Y-46216134D01*
X70787018Y-46210539D01*
X70778131Y-46207418D01*
X70778129Y-46207417D01*
X70669998Y-46169444D01*
X70669996Y-46169443D01*
X70662750Y-46166899D01*
X70655106Y-46166176D01*
X70655104Y-46166176D01*
X70647129Y-46165422D01*
X70632083Y-46164000D01*
X70329903Y-46164000D01*
X70027418Y-46164001D01*
X70024468Y-46164280D01*
X70024463Y-46164280D01*
X70004400Y-46166176D01*
X70004399Y-46166176D01*
X69996750Y-46166899D01*
X69989502Y-46169444D01*
X69989499Y-46169445D01*
X69881371Y-46207417D01*
X69881369Y-46207418D01*
X69872482Y-46210539D01*
X69864907Y-46216134D01*
X69864905Y-46216135D01*
X69774110Y-46283197D01*
X69766539Y-46288789D01*
X69688289Y-46394732D01*
X69685167Y-46403622D01*
X69676694Y-46427749D01*
X69635251Y-46485394D01*
X69569221Y-46511482D01*
X69557812Y-46512000D01*
X69116688Y-46512000D01*
X69048567Y-46491998D01*
X69002074Y-46438342D01*
X68997806Y-46427749D01*
X68989333Y-46403622D01*
X68986211Y-46394732D01*
X68907961Y-46288789D01*
X68900390Y-46283197D01*
X68809595Y-46216135D01*
X68809593Y-46216134D01*
X68802018Y-46210539D01*
X68793131Y-46207418D01*
X68793129Y-46207417D01*
X68684998Y-46169444D01*
X68684996Y-46169443D01*
X68677750Y-46166899D01*
X68670106Y-46166176D01*
X68670104Y-46166176D01*
X68662129Y-46165422D01*
X68647083Y-46164000D01*
X68307422Y-46164000D01*
X67967418Y-46164001D01*
X67964468Y-46164280D01*
X67964463Y-46164280D01*
X67944400Y-46166176D01*
X67944399Y-46166176D01*
X67936750Y-46166899D01*
X67929502Y-46169444D01*
X67929499Y-46169445D01*
X67821371Y-46207417D01*
X67821369Y-46207418D01*
X67812482Y-46210539D01*
X67804907Y-46216134D01*
X67804905Y-46216135D01*
X67714110Y-46283197D01*
X67706539Y-46288789D01*
X67628289Y-46394732D01*
X67625168Y-46403619D01*
X67625167Y-46403621D01*
X67595749Y-46487391D01*
X67584649Y-46519000D01*
X67581750Y-46549667D01*
X58766067Y-46549667D01*
X58774501Y-46484281D01*
X58785893Y-46088798D01*
X58781649Y-46028849D01*
X58758172Y-45697274D01*
X58757950Y-45694138D01*
X58716028Y-45450165D01*
X75778866Y-45450165D01*
X75813952Y-45707970D01*
X75815260Y-45712456D01*
X75815260Y-45712458D01*
X75823816Y-45741811D01*
X75886758Y-45957757D01*
X75995686Y-46194039D01*
X75998246Y-46197944D01*
X75998249Y-46197949D01*
X76135775Y-46407712D01*
X76135779Y-46407717D01*
X76138341Y-46411625D01*
X76311591Y-46605735D01*
X76511629Y-46772105D01*
X76734061Y-46907080D01*
X76738375Y-46908889D01*
X76738377Y-46908890D01*
X76969686Y-47005886D01*
X76969691Y-47005888D01*
X76974001Y-47007695D01*
X76978533Y-47008846D01*
X76978536Y-47008847D01*
X77087386Y-47036491D01*
X77226177Y-47071739D01*
X77442286Y-47093500D01*
X77597044Y-47093500D01*
X77599369Y-47093327D01*
X77599375Y-47093327D01*
X77785814Y-47079472D01*
X77785818Y-47079471D01*
X77790466Y-47079126D01*
X78044232Y-47021705D01*
X78048586Y-47020012D01*
X78282370Y-46929098D01*
X78282372Y-46929097D01*
X78286723Y-46927405D01*
X78310398Y-46913874D01*
X78380896Y-46873581D01*
X78512612Y-46798299D01*
X78716936Y-46637223D01*
X78895208Y-46447714D01*
X79043511Y-46233937D01*
X79045579Y-46229744D01*
X79156521Y-46004775D01*
X79156522Y-46004772D01*
X79158586Y-46000587D01*
X79237906Y-45752792D01*
X79266318Y-45578333D01*
X79278977Y-45500606D01*
X79278977Y-45500605D01*
X79279728Y-45495994D01*
X79283134Y-45235835D01*
X79248048Y-44978030D01*
X79242930Y-44960469D01*
X79207065Y-44837424D01*
X79175242Y-44728243D01*
X79066314Y-44491961D01*
X79063751Y-44488051D01*
X78926225Y-44278288D01*
X78926221Y-44278283D01*
X78923659Y-44274375D01*
X78773359Y-44105978D01*
X78753526Y-44083757D01*
X78753524Y-44083755D01*
X78750409Y-44080265D01*
X78550371Y-43913895D01*
X78327939Y-43778920D01*
X78323623Y-43777110D01*
X78092314Y-43680114D01*
X78092309Y-43680112D01*
X78087999Y-43678305D01*
X78083467Y-43677154D01*
X78083464Y-43677153D01*
X77958185Y-43645337D01*
X77835823Y-43614261D01*
X77619714Y-43592500D01*
X77464956Y-43592500D01*
X77462631Y-43592673D01*
X77462625Y-43592673D01*
X77276186Y-43606528D01*
X77276182Y-43606529D01*
X77271534Y-43606874D01*
X77017768Y-43664295D01*
X77013416Y-43665987D01*
X77013414Y-43665988D01*
X76779630Y-43756902D01*
X76779628Y-43756903D01*
X76775277Y-43758595D01*
X76771223Y-43760912D01*
X76771221Y-43760913D01*
X76735467Y-43781348D01*
X76549388Y-43887701D01*
X76345064Y-44048777D01*
X76166792Y-44238286D01*
X76018489Y-44452063D01*
X76016423Y-44456253D01*
X76016421Y-44456256D01*
X75906178Y-44679809D01*
X75903414Y-44685413D01*
X75824094Y-44933208D01*
X75782272Y-45190006D01*
X75778866Y-45450165D01*
X58716028Y-45450165D01*
X58690947Y-45304205D01*
X58585548Y-44922855D01*
X58510258Y-44728243D01*
X58443929Y-44556792D01*
X58443927Y-44556787D01*
X58442794Y-44553859D01*
X58429451Y-44527500D01*
X58265516Y-44203668D01*
X58264097Y-44200865D01*
X58051225Y-43867365D01*
X57806282Y-43556657D01*
X57804107Y-43554401D01*
X57804102Y-43554395D01*
X57587013Y-43329200D01*
X57531691Y-43271812D01*
X57529119Y-43269627D01*
X57232561Y-43017682D01*
X57232553Y-43017675D01*
X57230166Y-43015648D01*
X57125312Y-42943179D01*
X56907263Y-42792475D01*
X56907254Y-42792470D01*
X56904691Y-42790698D01*
X56901956Y-42789185D01*
X56901951Y-42789182D01*
X56737163Y-42698027D01*
X56558482Y-42599186D01*
X56405052Y-42533268D01*
X56350360Y-42488000D01*
X56328823Y-42420349D01*
X56347280Y-42351793D01*
X56399871Y-42304099D01*
X56454791Y-42291500D01*
X134383424Y-42291500D01*
X134384981Y-42291705D01*
G37*
G04 #@! TD.AperFunction*
M02*
