G04 #@! TF.GenerationSoftware,KiCad,Pcbnew,7.0.7*
G04 #@! TF.CreationDate,2023-11-07T22:25:28-06:00*
G04 #@! TF.ProjectId,DiffGPS_Hardware,44696666-4750-4535-9f48-617264776172,rev?*
G04 #@! TF.SameCoordinates,Original*
G04 #@! TF.FileFunction,Soldermask,Top*
G04 #@! TF.FilePolarity,Negative*
%FSLAX46Y46*%
G04 Gerber Fmt 4.6, Leading zero omitted, Abs format (unit mm)*
G04 Created by KiCad (PCBNEW 7.0.7) date 2023-11-07 22:25:28*
%MOMM*%
%LPD*%
G01*
G04 APERTURE LIST*
G04 Aperture macros list*
%AMRoundRect*
0 Rectangle with rounded corners*
0 $1 Rounding radius*
0 $2 $3 $4 $5 $6 $7 $8 $9 X,Y pos of 4 corners*
0 Add a 4 corners polygon primitive as box body*
4,1,4,$2,$3,$4,$5,$6,$7,$8,$9,$2,$3,0*
0 Add four circle primitives for the rounded corners*
1,1,$1+$1,$2,$3*
1,1,$1+$1,$4,$5*
1,1,$1+$1,$6,$7*
1,1,$1+$1,$8,$9*
0 Add four rect primitives between the rounded corners*
20,1,$1+$1,$2,$3,$4,$5,0*
20,1,$1+$1,$4,$5,$6,$7,0*
20,1,$1+$1,$6,$7,$8,$9,0*
20,1,$1+$1,$8,$9,$2,$3,0*%
G04 Aperture macros list end*
%ADD10O,5.100000X3.000000*%
%ADD11RoundRect,0.250000X0.412500X0.650000X-0.412500X0.650000X-0.412500X-0.650000X0.412500X-0.650000X0*%
%ADD12C,2.946400*%
%ADD13RoundRect,0.237500X-0.287500X-0.237500X0.287500X-0.237500X0.287500X0.237500X-0.287500X0.237500X0*%
%ADD14RoundRect,0.237500X-0.250000X-0.237500X0.250000X-0.237500X0.250000X0.237500X-0.250000X0.237500X0*%
%ADD15RoundRect,0.237500X0.300000X0.237500X-0.300000X0.237500X-0.300000X-0.237500X0.300000X-0.237500X0*%
%ADD16C,3.000000*%
%ADD17C,1.700000*%
%ADD18RoundRect,0.237500X0.250000X0.237500X-0.250000X0.237500X-0.250000X-0.237500X0.250000X-0.237500X0*%
%ADD19C,1.900000*%
%ADD20R,1.600000X1.600000*%
%ADD21O,1.600000X1.600000*%
G04 APERTURE END LIST*
D10*
X63377000Y-96080800D03*
X71251000Y-96080800D03*
D11*
X64300500Y-89154000D03*
X61175500Y-89154000D03*
D12*
X49890000Y-110240000D03*
D13*
X66538500Y-49887500D03*
X68288500Y-49887500D03*
D14*
X70311000Y-52935500D03*
X72136000Y-52935500D03*
D13*
X66538500Y-52935500D03*
X68288500Y-52935500D03*
D15*
X76708000Y-56388000D03*
X74983000Y-56388000D03*
D16*
X77531000Y-45343000D03*
X77531000Y-94343000D03*
X135531000Y-45343000D03*
X135531000Y-94343000D03*
D17*
X82401000Y-46613000D03*
X82401000Y-44073000D03*
X84941000Y-46613000D03*
X84941000Y-44073000D03*
X87481000Y-46613000D03*
X87481000Y-44073000D03*
X90021000Y-46613000D03*
X90021000Y-44073000D03*
X92561000Y-46613000D03*
X92561000Y-44073000D03*
X95101000Y-46613000D03*
X95101000Y-44073000D03*
X97641000Y-46613000D03*
X97641000Y-44073000D03*
X100181000Y-46613000D03*
X100181000Y-44073000D03*
X102721000Y-46613000D03*
X102721000Y-44073000D03*
X105261000Y-46613000D03*
X105261000Y-44073000D03*
X107801000Y-46613000D03*
X107801000Y-44073000D03*
X110341000Y-46613000D03*
X110341000Y-44073000D03*
X112881000Y-46613000D03*
X112881000Y-44073000D03*
X115421000Y-46613000D03*
X115421000Y-44073000D03*
X117961000Y-46613000D03*
X117961000Y-44073000D03*
X120501000Y-46613000D03*
X120501000Y-44073000D03*
X123041000Y-46613000D03*
X123041000Y-44073000D03*
X125581000Y-46613000D03*
X125581000Y-44073000D03*
X128121000Y-46613000D03*
X128121000Y-44073000D03*
X130661000Y-46613000D03*
X130661000Y-44073000D03*
D12*
X49877580Y-46607580D03*
D13*
X66557250Y-46839500D03*
X68307250Y-46839500D03*
D18*
X72136000Y-49887500D03*
X70311000Y-49887500D03*
D12*
X151657180Y-110236000D03*
D19*
X65791481Y-82383999D03*
X60686000Y-82384000D03*
X53086000Y-82384000D03*
X53086000Y-62084000D03*
X63220600Y-62077600D03*
X73407624Y-62077600D03*
D18*
X72154750Y-46839500D03*
X70329750Y-46839500D03*
D20*
X119210000Y-52800000D03*
D21*
X116670000Y-52800000D03*
X114130000Y-52800000D03*
X111590000Y-52800000D03*
X109050000Y-52800000D03*
X106510000Y-52800000D03*
X103970000Y-52800000D03*
X101430000Y-52800000D03*
X96350000Y-52800000D03*
X93810000Y-52800000D03*
X91270000Y-52800000D03*
X88730000Y-52800000D03*
X86190000Y-52800000D03*
X83650000Y-52800000D03*
X83650000Y-101060000D03*
X86190000Y-101060000D03*
X88730000Y-101060000D03*
X91270000Y-101060000D03*
X93810000Y-101060000D03*
X96350000Y-101060000D03*
X98890000Y-101060000D03*
X101430000Y-101060000D03*
X105490000Y-101060000D03*
X108030000Y-101060000D03*
X110570000Y-101060000D03*
X113110000Y-101060000D03*
X115650000Y-101060000D03*
X118190000Y-101060000D03*
X120730000Y-101060000D03*
X123270000Y-101060000D03*
X125810000Y-101060000D03*
X128350000Y-101060000D03*
M02*
