G04 #@! TF.GenerationSoftware,KiCad,Pcbnew,7.0.7*
G04 #@! TF.CreationDate,2023-11-07T22:25:28-06:00*
G04 #@! TF.ProjectId,DiffGPS_Hardware,44696666-4750-4535-9f48-617264776172,rev?*
G04 #@! TF.SameCoordinates,Original*
G04 #@! TF.FileFunction,Legend,Bot*
G04 #@! TF.FilePolarity,Positive*
%FSLAX46Y46*%
G04 Gerber Fmt 4.6, Leading zero omitted, Abs format (unit mm)*
G04 Created by KiCad (PCBNEW 7.0.7) date 2023-11-07 22:25:28*
%MOMM*%
%LPD*%
G01*
G04 APERTURE LIST*
%ADD10C,0.150000*%
%ADD11C,0.120000*%
%ADD12O,5.100000X3.000000*%
%ADD13C,2.946400*%
%ADD14C,3.000000*%
%ADD15C,1.700000*%
%ADD16R,1.600000X1.600000*%
%ADD17O,1.600000X1.600000*%
G04 APERTURE END LIST*
D10*
X118654285Y-49159104D02*
X118178095Y-49159104D01*
X118749523Y-49444819D02*
X118416190Y-48444819D01*
X118416190Y-48444819D02*
X118082857Y-49444819D01*
X117225714Y-49444819D02*
X117797142Y-49444819D01*
X117511428Y-49444819D02*
X117511428Y-48444819D01*
X117511428Y-48444819D02*
X117606666Y-48587676D01*
X117606666Y-48587676D02*
X117701904Y-48682914D01*
X117701904Y-48682914D02*
X117797142Y-48730533D01*
X31601000Y-47629000D02*
X31601000Y-52709000D01*
X81131000Y-42803000D02*
X81131000Y-47883000D01*
X81131000Y-47883000D02*
X131931000Y-47883000D01*
X131931000Y-42803000D02*
X81131000Y-42803000D01*
X131931000Y-47883000D02*
X131931000Y-42803000D01*
D11*
X153630000Y-94200000D02*
X147280000Y-94200000D01*
X153630000Y-82520000D02*
X153630000Y-94200000D01*
X149180000Y-62450000D02*
X147280000Y-62450000D01*
X149180000Y-53310000D02*
X149180000Y-62450000D01*
X147280000Y-103730000D02*
X82630000Y-103730000D01*
X147280000Y-94200000D02*
X147280000Y-103730000D01*
X147280000Y-82520000D02*
X153630000Y-82520000D01*
X147280000Y-62450000D02*
X147280000Y-82520000D01*
X147280000Y-53310000D02*
X149180000Y-53310000D01*
X147280000Y-50130000D02*
X147280000Y-53310000D01*
X82630000Y-103730000D02*
X80980000Y-102080000D01*
X80980000Y-102080000D02*
X80980000Y-90650000D01*
X80980000Y-90650000D02*
X78440000Y-88110000D01*
X80980000Y-52800000D02*
X80980000Y-50130000D01*
X80980000Y-50130000D02*
X147280000Y-50130000D01*
X78440000Y-88110000D02*
X78440000Y-55340000D01*
X78440000Y-55340000D02*
X80980000Y-52800000D01*
%LPC*%
D12*
X63377000Y-96080800D03*
X71251000Y-96080800D03*
D13*
X49890000Y-110240000D03*
D14*
X77531000Y-45343000D03*
X77531000Y-94343000D03*
X135531000Y-45343000D03*
X135531000Y-94343000D03*
D15*
X82401000Y-46613000D03*
X82401000Y-44073000D03*
X84941000Y-46613000D03*
X84941000Y-44073000D03*
X87481000Y-46613000D03*
X87481000Y-44073000D03*
X90021000Y-46613000D03*
X90021000Y-44073000D03*
X92561000Y-46613000D03*
X92561000Y-44073000D03*
X95101000Y-46613000D03*
X95101000Y-44073000D03*
X97641000Y-46613000D03*
X97641000Y-44073000D03*
X100181000Y-46613000D03*
X100181000Y-44073000D03*
X102721000Y-46613000D03*
X102721000Y-44073000D03*
X105261000Y-46613000D03*
X105261000Y-44073000D03*
X107801000Y-46613000D03*
X107801000Y-44073000D03*
X110341000Y-46613000D03*
X110341000Y-44073000D03*
X112881000Y-46613000D03*
X112881000Y-44073000D03*
X115421000Y-46613000D03*
X115421000Y-44073000D03*
X117961000Y-46613000D03*
X117961000Y-44073000D03*
X120501000Y-46613000D03*
X120501000Y-44073000D03*
X123041000Y-46613000D03*
X123041000Y-44073000D03*
X125581000Y-46613000D03*
X125581000Y-44073000D03*
X128121000Y-46613000D03*
X128121000Y-44073000D03*
X130661000Y-46613000D03*
X130661000Y-44073000D03*
D13*
X49877580Y-46607580D03*
X151657180Y-110236000D03*
D16*
X119210000Y-52800000D03*
D17*
X116670000Y-52800000D03*
X114130000Y-52800000D03*
X111590000Y-52800000D03*
X109050000Y-52800000D03*
X106510000Y-52800000D03*
X103970000Y-52800000D03*
X101430000Y-52800000D03*
X96350000Y-52800000D03*
X93810000Y-52800000D03*
X91270000Y-52800000D03*
X88730000Y-52800000D03*
X86190000Y-52800000D03*
X83650000Y-52800000D03*
X83650000Y-101060000D03*
X86190000Y-101060000D03*
X88730000Y-101060000D03*
X91270000Y-101060000D03*
X93810000Y-101060000D03*
X96350000Y-101060000D03*
X98890000Y-101060000D03*
X101430000Y-101060000D03*
X105490000Y-101060000D03*
X108030000Y-101060000D03*
X110570000Y-101060000D03*
X113110000Y-101060000D03*
X115650000Y-101060000D03*
X118190000Y-101060000D03*
X120730000Y-101060000D03*
X123270000Y-101060000D03*
X125810000Y-101060000D03*
X128350000Y-101060000D03*
%LPD*%
M02*
