%TF.GenerationSoftware,KiCad,Pcbnew,8.0.5*%
%TF.CreationDate,2024-10-31T23:34:31-05:00*%
%TF.ProjectId,DiffGPSBreakout,44696666-4750-4534-9272-65616b6f7574,rev?*%
%TF.SameCoordinates,Original*%
%TF.FileFunction,Legend,Bot*%
%TF.FilePolarity,Positive*%
%FSLAX46Y46*%
G04 Gerber Fmt 4.6, Leading zero omitted, Abs format (unit mm)*
G04 Created by KiCad (PCBNEW 8.0.5) date 2024-10-31 23:34:31*
%MOMM*%
%LPD*%
G01*
G04 APERTURE LIST*
%ADD10C,0.150000*%
%ADD11C,0.120000*%
G04 APERTURE END LIST*
D10*
X156088404Y-68146505D02*
X155612214Y-68146505D01*
X156183642Y-68432220D02*
X155850309Y-67432220D01*
X155850309Y-67432220D02*
X155516976Y-68432220D01*
X154659833Y-68432220D02*
X155231261Y-68432220D01*
X154945547Y-68432220D02*
X154945547Y-67432220D01*
X154945547Y-67432220D02*
X155040785Y-67575077D01*
X155040785Y-67575077D02*
X155136023Y-67670315D01*
X155136023Y-67670315D02*
X155231261Y-67717934D01*
%TO.C,U1*%
X69035119Y-66616401D02*
X69035119Y-71696401D01*
X118565119Y-61790401D02*
X118565119Y-66870401D01*
X118565119Y-66870401D02*
X169365119Y-66870401D01*
X169365119Y-61790401D02*
X118565119Y-61790401D01*
X169365119Y-66870401D02*
X169365119Y-61790401D01*
D11*
%TO.C,A1*%
X115874119Y-74327401D02*
X118414119Y-71787401D01*
X115874119Y-107097401D02*
X115874119Y-74327401D01*
X118414119Y-69117401D02*
X184714119Y-69117401D01*
X118414119Y-71787401D02*
X118414119Y-69117401D01*
X118414119Y-109637401D02*
X115874119Y-107097401D01*
X118414119Y-121067401D02*
X118414119Y-109637401D01*
X120064119Y-122717401D02*
X118414119Y-121067401D01*
X184714119Y-69117401D02*
X184714119Y-72297401D01*
X184714119Y-72297401D02*
X186614119Y-72297401D01*
X184714119Y-81437401D02*
X184714119Y-101507401D01*
X184714119Y-101507401D02*
X191064119Y-101507401D01*
X184714119Y-113187401D02*
X184714119Y-122717401D01*
X184714119Y-122717401D02*
X120064119Y-122717401D01*
X186614119Y-72297401D02*
X186614119Y-81437401D01*
X186614119Y-81437401D02*
X184714119Y-81437401D01*
X191064119Y-101507401D02*
X191064119Y-113187401D01*
X191064119Y-113187401D02*
X184714119Y-113187401D01*
%TD*%
M02*
