%TF.GenerationSoftware,KiCad,Pcbnew,8.0.5*%
%TF.CreationDate,2024-10-31T23:34:31-05:00*%
%TF.ProjectId,DiffGPSBreakout,44696666-4750-4534-9272-65616b6f7574,rev?*%
%TF.SameCoordinates,Original*%
%TF.FileFunction,Copper,L2,Bot*%
%TF.FilePolarity,Positive*%
%FSLAX46Y46*%
G04 Gerber Fmt 4.6, Leading zero omitted, Abs format (unit mm)*
G04 Created by KiCad (PCBNEW 8.0.5) date 2024-10-31 23:34:31*
%MOMM*%
%LPD*%
G01*
G04 APERTURE LIST*
%TA.AperFunction,ComponentPad*%
%ADD10O,5.100000X3.000000*%
%TD*%
%TA.AperFunction,ComponentPad*%
%ADD11C,2.500000*%
%TD*%
%TA.AperFunction,ComponentPad*%
%ADD12C,1.700000*%
%TD*%
%TA.AperFunction,ComponentPad*%
%ADD13R,1.600000X1.600000*%
%TD*%
%TA.AperFunction,ComponentPad*%
%ADD14O,1.600000X1.600000*%
%TD*%
%TA.AperFunction,ViaPad*%
%ADD15C,0.800000*%
%TD*%
%TA.AperFunction,Conductor*%
%ADD16C,0.254000*%
%TD*%
%TA.AperFunction,Conductor*%
%ADD17C,0.250000*%
%TD*%
G04 APERTURE END LIST*
D10*
%TO.P,Conn1,1,GND*%
%TO.N,GND*%
X100811119Y-115068201D03*
%TO.P,Conn1,4,PV+*%
%TO.N,VCC*%
X108685119Y-115068201D03*
%TD*%
D11*
%TO.P,U2,1,Vin+*%
%TO.N,GND*%
X111025000Y-101801600D03*
%TO.P,U2,2,Vin-*%
X111025000Y-94181600D03*
%TO.P,U2,3,On/OFF*%
%TO.N,VCC*%
X111025000Y-89101600D03*
%TO.P,U2,4,Vout-*%
%TO.N,+5V*%
X90705000Y-81481600D03*
%TO.P,U2,5,TRIM*%
%TO.N,N/C*%
X90705000Y-91641600D03*
%TO.P,U2,6,Vout+*%
%TO.N,GND*%
X90705000Y-101801600D03*
%TD*%
D12*
%TO.P,U1,1,+3V3*%
%TO.N,+3V3*%
X119835119Y-65600401D03*
%TO.P,U1,2,+5V*%
%TO.N,+5V*%
X119835119Y-63060401D03*
%TO.P,U1,3,GP_2*%
%TO.N,A4*%
X122375119Y-65600401D03*
%TO.P,U1,4,+5V*%
%TO.N,+5V*%
X122375119Y-63060401D03*
%TO.P,U1,5,GP_3*%
%TO.N,A5*%
X124915119Y-65600401D03*
%TO.P,U1,6,GND*%
%TO.N,GND*%
X124915119Y-63060401D03*
%TO.P,U1,7,GP_4*%
%TO.N,A0*%
X127455119Y-65600401D03*
%TO.P,U1,8,GP_14*%
%TO.N,D1*%
X127455119Y-63060401D03*
%TO.P,U1,9,GND*%
%TO.N,GND*%
X129995119Y-65600401D03*
%TO.P,U1,10,GP_15*%
%TO.N,D0*%
X129995119Y-63060401D03*
%TO.P,U1,11,GP_17*%
%TO.N,D2*%
X132535119Y-65600401D03*
%TO.P,U1,12,GP_18*%
%TO.N,D3*%
X132535119Y-63060401D03*
%TO.P,U1,13,GP_27*%
%TO.N,D5*%
X135075119Y-65600401D03*
%TO.P,U1,14,GND*%
%TO.N,GND*%
X135075119Y-63060401D03*
%TO.P,U1,15,GP_22*%
%TO.N,D6*%
X137615119Y-65600401D03*
%TO.P,U1,16,GP_23*%
%TO.N,D7*%
X137615119Y-63060401D03*
%TO.P,U1,17,+3V3*%
%TO.N,unconnected-(U1-+3V3-Pad17)*%
X140155119Y-65600401D03*
%TO.P,U1,18,GP_24*%
%TO.N,D8*%
X140155119Y-63060401D03*
%TO.P,U1,19,GP_10*%
%TO.N,D11*%
X142695119Y-65600401D03*
%TO.P,U1,20,GND*%
%TO.N,GND*%
X142695119Y-63060401D03*
%TO.P,U1,21,GP_9*%
%TO.N,D12*%
X145235119Y-65600401D03*
%TO.P,U1,22,GP_25*%
%TO.N,D9*%
X145235119Y-63060401D03*
%TO.P,U1,23,GP_11*%
%TO.N,D13*%
X147775119Y-65600401D03*
%TO.P,U1,24,GP_8*%
%TO.N,D10*%
X147775119Y-63060401D03*
%TO.P,U1,25,GND*%
%TO.N,GND*%
X150315119Y-65600401D03*
%TO.P,U1,26,GP_7*%
%TO.N,D4*%
X150315119Y-63060401D03*
%TO.P,U1,27,GP_0*%
%TO.N,unconnected-(U1-GP_0-Pad27)*%
X152855119Y-65600401D03*
%TO.P,U1,28,GP_1*%
%TO.N,unconnected-(U1-GP_1-Pad28)*%
X152855119Y-63060401D03*
%TO.P,U1,29,GP_5*%
%TO.N,A1*%
X155395119Y-65600401D03*
%TO.P,U1,30,GND*%
%TO.N,GND*%
X155395119Y-63060401D03*
%TO.P,U1,31,GP_6*%
%TO.N,A2*%
X157935119Y-65600401D03*
%TO.P,U1,32,GP_12*%
%TO.N,A3*%
X157935119Y-63060401D03*
%TO.P,U1,33,GP_13*%
%TO.N,unconnected-(U1-GP_13-Pad33)*%
X160475119Y-65600401D03*
%TO.P,U1,34,GND*%
%TO.N,GND*%
X160475119Y-63060401D03*
%TO.P,U1,35,GP_19*%
%TO.N,unconnected-(U1-GP_19-Pad35)*%
X163015119Y-65600401D03*
%TO.P,U1,36,GP_16*%
%TO.N,unconnected-(U1-GP_16-Pad36)*%
X163015119Y-63060401D03*
%TO.P,U1,37,GP_26*%
%TO.N,unconnected-(U1-GP_26-Pad37)*%
X165555119Y-65600401D03*
%TO.P,U1,38,GP_20*%
%TO.N,unconnected-(U1-GP_20-Pad38)*%
X165555119Y-63060401D03*
%TO.P,U1,39,GND*%
%TO.N,GND*%
X168095119Y-65600401D03*
%TO.P,U1,40,GP_21*%
%TO.N,unconnected-(U1-GP_21-Pad40)*%
X168095119Y-63060401D03*
%TD*%
D13*
%TO.P,A1,1,NC*%
%TO.N,unconnected-(A1-NC-Pad1)*%
X156644119Y-71787401D03*
D14*
%TO.P,A1,2,IOREF*%
%TO.N,+3V3*%
X154104119Y-71787401D03*
%TO.P,A1,3,~{RESET}*%
%TO.N,unconnected-(A1-~{RESET}-Pad3)*%
X151564119Y-71787401D03*
%TO.P,A1,4,3V3*%
%TO.N,unconnected-(A1-3V3-Pad4)*%
X149024119Y-71787401D03*
%TO.P,A1,5,+5V*%
%TO.N,+5V*%
X146484119Y-71787401D03*
%TO.P,A1,6,GND*%
%TO.N,GND*%
X143944119Y-71787401D03*
%TO.P,A1,7,GND*%
X141404119Y-71787401D03*
%TO.P,A1,8,VIN*%
%TO.N,unconnected-(A1-VIN-Pad8)*%
X138864119Y-71787401D03*
%TO.P,A1,9,A0*%
%TO.N,A0*%
X133784119Y-71787401D03*
%TO.P,A1,10,A1*%
%TO.N,A1*%
X131244119Y-71787401D03*
%TO.P,A1,11,A2*%
%TO.N,A2*%
X128704119Y-71787401D03*
%TO.P,A1,12,A3*%
%TO.N,A3*%
X126164119Y-71787401D03*
%TO.P,A1,13,SDA/A4*%
%TO.N,A4*%
X123624119Y-71787401D03*
%TO.P,A1,14,SCL/A5*%
%TO.N,A5*%
X121084119Y-71787401D03*
%TO.P,A1,15,D0/RX*%
%TO.N,D0*%
X121084119Y-120047401D03*
%TO.P,A1,16,D1/TX*%
%TO.N,D1*%
X123624119Y-120047401D03*
%TO.P,A1,17,D2*%
%TO.N,D2*%
X126164119Y-120047401D03*
%TO.P,A1,18,D3*%
%TO.N,D3*%
X128704119Y-120047401D03*
%TO.P,A1,19,D4*%
%TO.N,D4*%
X131244119Y-120047401D03*
%TO.P,A1,20,D5*%
%TO.N,D5*%
X133784119Y-120047401D03*
%TO.P,A1,21,D6*%
%TO.N,D6*%
X136324119Y-120047401D03*
%TO.P,A1,22,D7*%
%TO.N,D7*%
X138864119Y-120047401D03*
%TO.P,A1,23,D8*%
%TO.N,D8*%
X142924119Y-120047401D03*
%TO.P,A1,24,D9*%
%TO.N,D9*%
X145464119Y-120047401D03*
%TO.P,A1,25,D10*%
%TO.N,D10*%
X148004119Y-120047401D03*
%TO.P,A1,26,D11*%
%TO.N,D11*%
X150544119Y-120047401D03*
%TO.P,A1,27,D12*%
%TO.N,D12*%
X153084119Y-120047401D03*
%TO.P,A1,28,D13*%
%TO.N,D13*%
X155624119Y-120047401D03*
%TO.P,A1,29,GND*%
%TO.N,GND*%
X158164119Y-120047401D03*
%TO.P,A1,30,AREF*%
%TO.N,unconnected-(A1-AREF-Pad30)*%
X160704119Y-120047401D03*
%TO.P,A1,31,SDA/A4*%
%TO.N,unconnected-(A1-SDA{slash}A4-Pad31)*%
X163244119Y-120047401D03*
%TO.P,A1,32,SCL/A5*%
%TO.N,unconnected-(A1-SCL{slash}A5-Pad32)*%
X165784119Y-120047401D03*
%TD*%
D15*
%TO.N,D0*%
X133034119Y-67937401D03*
%TO.N,D4*%
X141163619Y-115701206D03*
%TO.N,GND*%
X117384119Y-68187401D03*
X125159119Y-70062401D03*
X114584119Y-71062401D03*
X148834119Y-67787401D03*
X138909119Y-67837401D03*
X150159119Y-73587401D03*
X152859119Y-73662401D03*
X147834119Y-73437401D03*
X120259119Y-70412401D03*
%TO.N,+3V3*%
X152784119Y-69025901D03*
X111434119Y-66862401D03*
%TO.N,D12*%
X147209119Y-67537401D03*
%TO.N,D11*%
X146285565Y-68310901D03*
%TO.N,A1*%
X156347833Y-69076115D03*
%TO.N,VCC*%
X107328560Y-76492960D03*
%TD*%
D16*
%TO.N,D2*%
X135921119Y-68791453D02*
X132730067Y-65600401D01*
X135921119Y-116642995D02*
X135921119Y-68791453D01*
X127903119Y-118308401D02*
X134255713Y-118308401D01*
X126164119Y-120047401D02*
X127903119Y-118308401D01*
X134255713Y-118308401D02*
X135921119Y-116642995D01*
X132730067Y-65600401D02*
X132535119Y-65600401D01*
%TO.N,D0*%
X133034119Y-67937401D02*
X133559119Y-67937401D01*
X133559119Y-67937401D02*
X135013119Y-69391401D01*
X135013119Y-69391401D02*
X135013119Y-116266891D01*
X133879609Y-117400401D02*
X123731119Y-117400401D01*
X123731119Y-117400401D02*
X121084119Y-120047401D01*
X135013119Y-116266891D02*
X133879609Y-117400401D01*
%TO.N,A0*%
X127597119Y-65600401D02*
X127455119Y-65600401D01*
X133784119Y-71787401D02*
X127597119Y-65600401D01*
D17*
%TO.N,D4*%
X141163619Y-115701206D02*
X140889119Y-115426706D01*
X155309119Y-72437401D02*
X155309119Y-70525596D01*
X151584119Y-64329401D02*
X150315119Y-63060401D01*
X140889119Y-115426706D02*
X140889119Y-75618797D01*
X151584119Y-66800596D02*
X151584119Y-64329401D01*
X140889119Y-75618797D02*
X141145515Y-75362401D01*
X141145515Y-75362401D02*
X152384119Y-75362401D01*
X152384119Y-75362401D02*
X155309119Y-72437401D01*
X155309119Y-70525596D02*
X151584119Y-66800596D01*
%TO.N,D13*%
X152699119Y-117122401D02*
X141491911Y-117122401D01*
X140959119Y-74912401D02*
X150384119Y-74912401D01*
X155624119Y-120047401D02*
X152699119Y-117122401D01*
X152859119Y-70684401D02*
X147775119Y-65600401D01*
X141491911Y-117122401D02*
X140439119Y-116069609D01*
X152859119Y-72437401D02*
X152859119Y-70684401D01*
X150384119Y-74912401D02*
X152859119Y-72437401D01*
X140439119Y-75432401D02*
X140959119Y-74912401D01*
X140439119Y-116069609D02*
X140439119Y-75432401D01*
D16*
%TO.N,D1*%
X131934119Y-66987401D02*
X131234119Y-66287401D01*
X131234119Y-66287401D02*
X131234119Y-64981207D01*
X135467119Y-116454943D02*
X135467119Y-68979505D01*
X131234119Y-64981207D02*
X130565313Y-64312401D01*
X130565313Y-64312401D02*
X128707119Y-64312401D01*
X125817119Y-117854401D02*
X134067661Y-117854401D01*
X128707119Y-64312401D02*
X127455119Y-63060401D01*
X135467119Y-68979505D02*
X133475015Y-66987401D01*
X133475015Y-66987401D02*
X131934119Y-66987401D01*
X134067661Y-117854401D02*
X135467119Y-116454943D01*
X123624119Y-120047401D02*
X125817119Y-117854401D01*
%TO.N,A4*%
X123624119Y-71787401D02*
X123714119Y-71697401D01*
X123714119Y-71697401D02*
X123714119Y-66939401D01*
X123714119Y-66939401D02*
X122375119Y-65600401D01*
%TO.N,+3V3*%
X118548119Y-66887401D02*
X119835119Y-65600401D01*
X152784119Y-69025901D02*
X154104119Y-70345901D01*
X154104119Y-70345901D02*
X154104119Y-71787401D01*
X111459119Y-66887401D02*
X118548119Y-66887401D01*
X111434119Y-66862401D02*
X111459119Y-66887401D01*
D17*
%TO.N,D12*%
X148159119Y-74462401D02*
X150309119Y-72312401D01*
X153084119Y-120047401D02*
X150609119Y-117572401D01*
X150309119Y-72312401D02*
X150309119Y-70637401D01*
X139989119Y-75246005D02*
X140772723Y-74462401D01*
X150309119Y-70637401D02*
X147209119Y-67537401D01*
X150609119Y-117572401D02*
X141305515Y-117572401D01*
X141305515Y-117572401D02*
X139989119Y-116256005D01*
X140772723Y-74462401D02*
X148159119Y-74462401D01*
X139989119Y-116256005D02*
X139989119Y-75246005D01*
%TO.N,D10*%
X139089119Y-74873213D02*
X140399931Y-73562401D01*
X146509119Y-66237401D02*
X146509119Y-64326401D01*
X144009119Y-73562401D02*
X145209119Y-72362401D01*
X145209119Y-72362401D02*
X145209119Y-67537401D01*
X146509119Y-64326401D02*
X147775119Y-63060401D01*
X139089119Y-116644609D02*
X139089119Y-74873213D01*
X146429119Y-118472401D02*
X140916911Y-118472401D01*
X140399931Y-73562401D02*
X144009119Y-73562401D01*
X140916911Y-118472401D02*
X139089119Y-116644609D01*
X145209119Y-67537401D02*
X146509119Y-66237401D01*
X148004119Y-120047401D02*
X146429119Y-118472401D01*
%TO.N,D9*%
X142659119Y-67562401D02*
X143959119Y-66262401D01*
X143959119Y-64336401D02*
X145235119Y-63060401D01*
X144339119Y-118922401D02*
X140730515Y-118922401D01*
X140213535Y-73112401D02*
X142009119Y-73112401D01*
X143959119Y-66262401D02*
X143959119Y-64336401D01*
X145464119Y-120047401D02*
X144339119Y-118922401D01*
X142009119Y-73112401D02*
X142659119Y-72462401D01*
X138639119Y-116831005D02*
X138639119Y-74686817D01*
X138639119Y-74686817D02*
X140213535Y-73112401D01*
X142659119Y-72462401D02*
X142659119Y-67562401D01*
X140730515Y-118922401D02*
X138639119Y-116831005D01*
D16*
%TO.N,A5*%
X123652119Y-64337401D02*
X124915119Y-65600401D01*
X121759119Y-64337401D02*
X123652119Y-64337401D01*
X121109119Y-71762401D02*
X121109119Y-64987401D01*
X121084119Y-71787401D02*
X121109119Y-71762401D01*
X121109119Y-64987401D02*
X121759119Y-64337401D01*
%TO.N,D5*%
X136829119Y-117019099D02*
X136829119Y-67354401D01*
X133784119Y-120047401D02*
X133800817Y-120047401D01*
X133800817Y-120047401D02*
X136829119Y-117019099D01*
X136829119Y-67354401D02*
X135075119Y-65600401D01*
%TO.N,D6*%
X137283119Y-117207151D02*
X137283119Y-65932401D01*
X137283119Y-65932401D02*
X137615119Y-65600401D01*
X136324119Y-120047401D02*
X136324119Y-118166151D01*
X136324119Y-118166151D02*
X137283119Y-117207151D01*
D17*
%TO.N,D11*%
X146134119Y-74012401D02*
X140586327Y-74012401D01*
X139539119Y-116442401D02*
X141119119Y-118022401D01*
X147734119Y-72412401D02*
X146134119Y-74012401D01*
X147734119Y-69759455D02*
X147734119Y-72412401D01*
X146285565Y-68310901D02*
X147734119Y-69759455D01*
X148519119Y-118022401D02*
X150544119Y-120047401D01*
X139539119Y-75059609D02*
X139539119Y-116442401D01*
X141119119Y-118022401D02*
X148519119Y-118022401D01*
X140586327Y-74012401D02*
X139539119Y-75059609D01*
%TO.N,D8*%
X140134119Y-67562401D02*
X140134119Y-72537401D01*
X141359119Y-66337401D02*
X140134119Y-67562401D01*
X140155119Y-63060401D02*
X141359119Y-64264401D01*
X141359119Y-64264401D02*
X141359119Y-66337401D01*
X141219119Y-120047401D02*
X142924119Y-120047401D01*
X138189119Y-74482401D02*
X138189119Y-117017401D01*
X138189119Y-117017401D02*
X141219119Y-120047401D01*
X140134119Y-72537401D02*
X138189119Y-74482401D01*
%TO.N,A1*%
X156347833Y-66553115D02*
X155395119Y-65600401D01*
X156347833Y-69076115D02*
X156347833Y-66553115D01*
D16*
%TO.N,D3*%
X129989119Y-118762401D02*
X134443765Y-118762401D01*
X128704119Y-120047401D02*
X129989119Y-118762401D01*
X133809119Y-64334401D02*
X132535119Y-63060401D01*
X136375119Y-116831047D02*
X136375119Y-68603401D01*
X136375119Y-68603401D02*
X133809119Y-66037401D01*
X134443765Y-118762401D02*
X136375119Y-116831047D01*
X133809119Y-66037401D02*
X133809119Y-64334401D01*
%TO.N,D7*%
X138959119Y-118430609D02*
X138959119Y-119952401D01*
X138884119Y-64329401D02*
X138884119Y-66262401D01*
X138959119Y-119952401D02*
X138864119Y-120047401D01*
X137737119Y-117208609D02*
X138959119Y-118430609D01*
X138884119Y-66262401D02*
X137737119Y-67409401D01*
X137615119Y-63060401D02*
X138884119Y-64329401D01*
X137737119Y-67409401D02*
X137737119Y-117208609D01*
D17*
%TO.N,VCC*%
X107328560Y-79820360D02*
X111025000Y-83516800D01*
X111025000Y-83516800D02*
X111025000Y-89101600D01*
X107328560Y-76492960D02*
X107328560Y-79820360D01*
%TD*%
%TA.AperFunction,Conductor*%
%TO.N,GND*%
G36*
X153340142Y-72455940D02*
G01*
X153387941Y-72491833D01*
X153393236Y-72498284D01*
X153545581Y-72623311D01*
X153719392Y-72716215D01*
X153907987Y-72773425D01*
X153907991Y-72773425D01*
X153907993Y-72773426D01*
X154104116Y-72792742D01*
X154104119Y-72792742D01*
X154104121Y-72792742D01*
X154128773Y-72790313D01*
X154185535Y-72784723D01*
X154255287Y-72797951D01*
X154306816Y-72846791D01*
X154323760Y-72915736D01*
X154300739Y-72982897D01*
X154286980Y-72999211D01*
X152286197Y-74999996D01*
X152223885Y-75034021D01*
X152197102Y-75036901D01*
X151024136Y-75036901D01*
X150956015Y-75016899D01*
X150909522Y-74963243D01*
X150899418Y-74892969D01*
X150928912Y-74828389D01*
X150935029Y-74821817D01*
X153048607Y-72708237D01*
X153048616Y-72708231D01*
X153119578Y-72637269D01*
X153119584Y-72637263D01*
X153162437Y-72563039D01*
X153162645Y-72562263D01*
X153168837Y-72539154D01*
X153205787Y-72478534D01*
X153269648Y-72447512D01*
X153340142Y-72455940D01*
G37*
%TD.AperFunction*%
%TA.AperFunction,Conductor*%
G36*
X150787442Y-72422780D02*
G01*
X150806954Y-72441890D01*
X150850607Y-72495081D01*
X150853236Y-72498284D01*
X151005581Y-72623311D01*
X151179392Y-72716215D01*
X151367987Y-72773425D01*
X151367991Y-72773425D01*
X151367993Y-72773426D01*
X151564116Y-72792742D01*
X151564119Y-72792742D01*
X151564122Y-72792742D01*
X151745368Y-72774891D01*
X151815121Y-72788120D01*
X151866649Y-72836960D01*
X151883593Y-72905905D01*
X151860571Y-72973066D01*
X151846813Y-72989379D01*
X150286197Y-74549996D01*
X150223885Y-74584021D01*
X150197102Y-74586901D01*
X148799136Y-74586901D01*
X148731015Y-74566899D01*
X148684522Y-74513243D01*
X148674418Y-74442969D01*
X148703912Y-74378389D01*
X148710041Y-74371806D01*
X150569578Y-72512269D01*
X150569584Y-72512263D01*
X150600437Y-72458823D01*
X150651817Y-72409832D01*
X150721530Y-72396394D01*
X150787442Y-72422780D01*
G37*
%TD.AperFunction*%
%TA.AperFunction,Conductor*%
G36*
X148221168Y-72408451D02*
G01*
X148268968Y-72444344D01*
X148310607Y-72495081D01*
X148313236Y-72498284D01*
X148465581Y-72623311D01*
X148639392Y-72716215D01*
X148827987Y-72773425D01*
X148827991Y-72773425D01*
X148827993Y-72773426D01*
X149024116Y-72792742D01*
X149024118Y-72792742D01*
X149024118Y-72792741D01*
X149024119Y-72792742D01*
X149055619Y-72789639D01*
X149125370Y-72802866D01*
X149176899Y-72851705D01*
X149193844Y-72920650D01*
X149170824Y-72987811D01*
X149157065Y-73004127D01*
X148061195Y-74099997D01*
X147998885Y-74134021D01*
X147972102Y-74136901D01*
X146774137Y-74136901D01*
X146706016Y-74116899D01*
X146659523Y-74063243D01*
X146649419Y-73992969D01*
X146678913Y-73928389D01*
X146685041Y-73921806D01*
X147135041Y-73471805D01*
X147923605Y-72683239D01*
X147923615Y-72683232D01*
X147994578Y-72612269D01*
X147994584Y-72612263D01*
X148017330Y-72572866D01*
X148037437Y-72538040D01*
X148049863Y-72491664D01*
X148086813Y-72431045D01*
X148150674Y-72400023D01*
X148221168Y-72408451D01*
G37*
%TD.AperFunction*%
%TA.AperFunction,Conductor*%
G36*
X144434272Y-66302832D02*
G01*
X144482077Y-66338730D01*
X144488706Y-66346808D01*
X144488709Y-66346811D01*
X144648669Y-66478086D01*
X144831165Y-66575633D01*
X145029185Y-66635701D01*
X145029189Y-66635701D01*
X145029191Y-66635702D01*
X145235116Y-66655984D01*
X145235119Y-66655984D01*
X145235121Y-66655984D01*
X145285346Y-66651037D01*
X145322920Y-66647336D01*
X145392673Y-66660564D01*
X145444202Y-66709404D01*
X145461146Y-66778349D01*
X145438125Y-66845510D01*
X145424367Y-66861824D01*
X144948656Y-67337536D01*
X144948651Y-67337542D01*
X144905803Y-67411757D01*
X144905799Y-67411768D01*
X144899101Y-67436765D01*
X144883619Y-67494545D01*
X144883619Y-72175384D01*
X144863617Y-72243505D01*
X144846714Y-72264479D01*
X143911197Y-73199996D01*
X143848885Y-73234022D01*
X143822102Y-73236901D01*
X142649136Y-73236901D01*
X142581015Y-73216899D01*
X142534522Y-73163243D01*
X142524418Y-73092969D01*
X142553912Y-73028389D01*
X142560040Y-73021806D01*
X142617117Y-72964729D01*
X142848605Y-72733239D01*
X142848615Y-72733232D01*
X142919578Y-72662269D01*
X142919584Y-72662263D01*
X142946456Y-72615719D01*
X142962437Y-72588040D01*
X142984619Y-72505254D01*
X142984619Y-72419548D01*
X142984619Y-67749416D01*
X143004621Y-67681295D01*
X143021519Y-67660325D01*
X144148604Y-66533240D01*
X144148614Y-66533233D01*
X144219578Y-66462269D01*
X144219584Y-66462263D01*
X144262437Y-66388039D01*
X144262969Y-66386051D01*
X144263877Y-66384561D01*
X144265595Y-66380415D01*
X144266241Y-66380682D01*
X144299917Y-66325430D01*
X144363777Y-66294406D01*
X144434272Y-66302832D01*
G37*
%TD.AperFunction*%
%TA.AperFunction,Conductor*%
G36*
X141893132Y-66281939D02*
G01*
X141908020Y-66297231D01*
X141948706Y-66346808D01*
X141948707Y-66346809D01*
X141948709Y-66346811D01*
X142108669Y-66478086D01*
X142291165Y-66575633D01*
X142489185Y-66635701D01*
X142489189Y-66635701D01*
X142489191Y-66635702D01*
X142695116Y-66655984D01*
X142695119Y-66655984D01*
X142695121Y-66655984D01*
X142745346Y-66651037D01*
X142799561Y-66645697D01*
X142869313Y-66658925D01*
X142920842Y-66707765D01*
X142937786Y-66776710D01*
X142914765Y-66843871D01*
X142901007Y-66860185D01*
X142398656Y-67362536D01*
X142398651Y-67362542D01*
X142355800Y-67436762D01*
X142355800Y-67436766D01*
X142333619Y-67519547D01*
X142333619Y-72275384D01*
X142313617Y-72343505D01*
X142296714Y-72364479D01*
X141911197Y-72749996D01*
X141848885Y-72784022D01*
X141822102Y-72786901D01*
X140568455Y-72786901D01*
X140500334Y-72766899D01*
X140453841Y-72713243D01*
X140443737Y-72642969D01*
X140446748Y-72628291D01*
X140452412Y-72607151D01*
X140459619Y-72580254D01*
X140459619Y-67749416D01*
X140479621Y-67681295D01*
X140496519Y-67660325D01*
X141548604Y-66608240D01*
X141548614Y-66608233D01*
X141619578Y-66537269D01*
X141619584Y-66537263D01*
X141662437Y-66463039D01*
X141670186Y-66434119D01*
X141671967Y-66427475D01*
X141671967Y-66427472D01*
X141684620Y-66380254D01*
X141684620Y-66377163D01*
X141685358Y-66374649D01*
X141685698Y-66372067D01*
X141686100Y-66372120D01*
X141704622Y-66309042D01*
X141758278Y-66262549D01*
X141828552Y-66252445D01*
X141893132Y-66281939D01*
G37*
%TD.AperFunction*%
%TA.AperFunction,Conductor*%
G36*
X147003231Y-66320432D02*
G01*
X147022742Y-66339541D01*
X147028707Y-66346809D01*
X147028709Y-66346811D01*
X147188669Y-66478086D01*
X147371165Y-66575633D01*
X147569185Y-66635701D01*
X147569189Y-66635701D01*
X147569191Y-66635702D01*
X147775116Y-66655984D01*
X147775119Y-66655984D01*
X147775122Y-66655984D01*
X147981046Y-66635702D01*
X147981047Y-66635701D01*
X147981053Y-66635701D01*
X148179073Y-66575633D01*
X148179088Y-66575624D01*
X148179740Y-66575356D01*
X148180121Y-66575314D01*
X148184997Y-66573836D01*
X148185277Y-66574760D01*
X148250330Y-66567764D01*
X148313818Y-66599540D01*
X148317059Y-66602668D01*
X152496714Y-70782322D01*
X152530740Y-70844634D01*
X152533619Y-70871417D01*
X152533619Y-71039497D01*
X152513617Y-71107618D01*
X152459961Y-71154111D01*
X152389687Y-71164215D01*
X152325107Y-71134721D01*
X152310220Y-71119431D01*
X152305816Y-71114065D01*
X152275002Y-71076518D01*
X152122657Y-70951491D01*
X152043484Y-70909172D01*
X151948847Y-70858587D01*
X151760244Y-70801375D01*
X151564122Y-70782060D01*
X151564116Y-70782060D01*
X151367994Y-70801375D01*
X151367992Y-70801375D01*
X151179390Y-70858587D01*
X151005580Y-70951491D01*
X150853230Y-71076522D01*
X150849714Y-71080039D01*
X150787402Y-71114065D01*
X150716587Y-71109000D01*
X150659751Y-71066453D01*
X150634940Y-70999933D01*
X150634619Y-70990944D01*
X150634619Y-70594549D01*
X150634619Y-70594548D01*
X150612437Y-70511763D01*
X150612437Y-70511762D01*
X150609666Y-70506963D01*
X150569586Y-70437542D01*
X150569578Y-70437532D01*
X147841827Y-67709782D01*
X147807801Y-67647470D01*
X147806000Y-67604244D01*
X147814801Y-67537401D01*
X147794163Y-67380639D01*
X147733655Y-67234560D01*
X147637401Y-67109119D01*
X147511960Y-67012865D01*
X147482022Y-67000464D01*
X147365879Y-66952356D01*
X147209119Y-66931719D01*
X147052358Y-66952356D01*
X146906279Y-67012864D01*
X146906276Y-67012866D01*
X146780837Y-67109119D01*
X146684584Y-67234558D01*
X146684582Y-67234561D01*
X146624074Y-67380640D01*
X146603437Y-67537400D01*
X146603437Y-67537401D01*
X146610485Y-67590938D01*
X146599545Y-67661087D01*
X146552417Y-67714185D01*
X146484063Y-67733375D01*
X146450693Y-67726535D01*
X146450303Y-67727994D01*
X146442328Y-67725857D01*
X146285565Y-67705219D01*
X146128804Y-67725856D01*
X145982725Y-67786364D01*
X145982722Y-67786366D01*
X145912510Y-67840242D01*
X145857283Y-67882619D01*
X145794102Y-67964959D01*
X145760582Y-68008643D01*
X145703244Y-68050510D01*
X145632373Y-68054732D01*
X145570470Y-68019968D01*
X145537189Y-67957255D01*
X145534619Y-67931939D01*
X145534619Y-67724416D01*
X145554621Y-67656295D01*
X145571519Y-67635325D01*
X146698604Y-66508240D01*
X146698614Y-66508233D01*
X146769578Y-66437269D01*
X146769584Y-66437263D01*
X146812437Y-66363039D01*
X146812438Y-66363034D01*
X146816224Y-66356477D01*
X146867606Y-66307484D01*
X146937319Y-66294046D01*
X147003231Y-66320432D01*
G37*
%TD.AperFunction*%
%TA.AperFunction,Conductor*%
G36*
X139359601Y-66309327D02*
G01*
X139404056Y-66342708D01*
X139404331Y-66342434D01*
X139406258Y-66344361D01*
X139407405Y-66345223D01*
X139408709Y-66346811D01*
X139568669Y-66478086D01*
X139751165Y-66575633D01*
X139949185Y-66635701D01*
X139949189Y-66635701D01*
X139949191Y-66635702D01*
X140155116Y-66655984D01*
X140155119Y-66655984D01*
X140155121Y-66655984D01*
X140189274Y-66652619D01*
X140276200Y-66644058D01*
X140345952Y-66657286D01*
X140397481Y-66706126D01*
X140414425Y-66775071D01*
X140391404Y-66842232D01*
X140377646Y-66858546D01*
X139873656Y-67362536D01*
X139873651Y-67362542D01*
X139830800Y-67436762D01*
X139830800Y-67436766D01*
X139808619Y-67519547D01*
X139808619Y-71009034D01*
X139788617Y-71077155D01*
X139734961Y-71123648D01*
X139664687Y-71133752D01*
X139600107Y-71104258D01*
X139585221Y-71088970D01*
X139578813Y-71081162D01*
X139575002Y-71076518D01*
X139570972Y-71073211D01*
X139422657Y-70951491D01*
X139248847Y-70858587D01*
X139060244Y-70801375D01*
X138864122Y-70782060D01*
X138864116Y-70782060D01*
X138667994Y-70801375D01*
X138667992Y-70801375D01*
X138479390Y-70858587D01*
X138305580Y-70951491D01*
X138270552Y-70980238D01*
X138205204Y-71007991D01*
X138135226Y-70996009D01*
X138082835Y-70948095D01*
X138064619Y-70882838D01*
X138064619Y-67597246D01*
X138084621Y-67529125D01*
X138101524Y-67508151D01*
X139146178Y-66463497D01*
X139146184Y-66463491D01*
X139189300Y-66388811D01*
X139189300Y-66388809D01*
X139192459Y-66381185D01*
X139194667Y-66382099D01*
X139225247Y-66331925D01*
X139289107Y-66300901D01*
X139359601Y-66309327D01*
G37*
%TD.AperFunction*%
%TA.AperFunction,Conductor*%
G36*
X173704113Y-61024400D02*
G01*
X173706151Y-61024419D01*
X173842382Y-61026831D01*
X173858074Y-61028093D01*
X174128683Y-61067003D01*
X174146244Y-61070822D01*
X174359940Y-61133572D01*
X174407496Y-61147536D01*
X174424336Y-61153817D01*
X174672008Y-61266927D01*
X174687778Y-61275538D01*
X174916826Y-61422741D01*
X174931215Y-61433512D01*
X175136985Y-61611815D01*
X175149697Y-61624527D01*
X175327998Y-61830300D01*
X175338771Y-61844691D01*
X175485967Y-62073733D01*
X175494583Y-62089512D01*
X175607690Y-62337185D01*
X175613972Y-62354029D01*
X175690677Y-62615263D01*
X175694499Y-62632829D01*
X175733409Y-62903454D01*
X175734671Y-62919140D01*
X175737098Y-63055275D01*
X175737118Y-63057528D01*
X175734118Y-115387400D01*
X175734119Y-115387401D01*
X191483014Y-115387401D01*
X191485247Y-115387421D01*
X191621234Y-115389831D01*
X191637199Y-115391134D01*
X191907430Y-115430616D01*
X191925257Y-115434558D01*
X192185858Y-115512368D01*
X192202926Y-115518845D01*
X192387326Y-115604582D01*
X192449547Y-115633513D01*
X192465505Y-115642393D01*
X192692955Y-115791505D01*
X192707450Y-115802588D01*
X192910958Y-115983019D01*
X192923709Y-115996093D01*
X193098994Y-116204046D01*
X193109721Y-116218826D01*
X193253099Y-116449929D01*
X193261577Y-116466105D01*
X193370038Y-116715504D01*
X193376089Y-116732736D01*
X193447359Y-116995203D01*
X193450855Y-117013128D01*
X193483569Y-117284258D01*
X193484473Y-117300250D01*
X193483494Y-117437373D01*
X193483494Y-117437385D01*
X193487156Y-119084021D01*
X193509817Y-129273329D01*
X193509807Y-129275167D01*
X193507450Y-129465828D01*
X193506853Y-129476620D01*
X193469365Y-129857249D01*
X193467551Y-129869481D01*
X193393086Y-130243838D01*
X193390082Y-130255832D01*
X193279280Y-130621099D01*
X193275114Y-130632741D01*
X193129048Y-130985377D01*
X193123761Y-130996555D01*
X192943833Y-131333178D01*
X192937476Y-131343784D01*
X192725421Y-131661148D01*
X192718055Y-131671079D01*
X192475905Y-131966141D01*
X192467601Y-131975303D01*
X192197714Y-132245190D01*
X192188553Y-132253494D01*
X191893495Y-132495644D01*
X191883563Y-132503010D01*
X191566198Y-132715068D01*
X191555592Y-132721425D01*
X191218971Y-132901354D01*
X191207793Y-132906641D01*
X191010380Y-132988412D01*
X190939790Y-132996001D01*
X190876303Y-132964222D01*
X190840076Y-132903164D01*
X190842610Y-132832212D01*
X190883101Y-132773894D01*
X190902760Y-132760885D01*
X191136653Y-132635867D01*
X191461284Y-132418956D01*
X191763091Y-132171269D01*
X192039167Y-131895193D01*
X192286854Y-131593386D01*
X192503765Y-131268755D01*
X192687813Y-130924426D01*
X192837225Y-130563715D01*
X192950561Y-130190096D01*
X193026730Y-129807167D01*
X193064999Y-129418616D01*
X193064999Y-129028186D01*
X193026730Y-128639635D01*
X192976404Y-128386631D01*
X192950564Y-128256719D01*
X192950562Y-128256715D01*
X192950561Y-128256706D01*
X192837225Y-127883087D01*
X192687813Y-127522376D01*
X192503765Y-127178047D01*
X192286854Y-126853416D01*
X192039167Y-126551609D01*
X192039163Y-126551605D01*
X192039154Y-126551595D01*
X191763104Y-126275545D01*
X191763084Y-126275527D01*
X191461292Y-126027852D01*
X191461277Y-126027841D01*
X191136655Y-125810936D01*
X190792324Y-125626887D01*
X190431611Y-125477474D01*
X190431608Y-125477473D01*
X190071180Y-125368139D01*
X190057994Y-125364139D01*
X190057991Y-125364138D01*
X190057980Y-125364135D01*
X189675070Y-125287971D01*
X189675065Y-125287970D01*
X189675060Y-125287969D01*
X189675050Y-125287968D01*
X189286520Y-125249701D01*
X189286514Y-125249701D01*
X188896084Y-125249701D01*
X188896077Y-125249701D01*
X188507547Y-125287968D01*
X188507534Y-125287969D01*
X188507533Y-125287970D01*
X188507530Y-125287970D01*
X188507527Y-125287971D01*
X188124617Y-125364135D01*
X187750989Y-125477473D01*
X187750986Y-125477474D01*
X187390273Y-125626887D01*
X187045942Y-125810936D01*
X186721320Y-126027841D01*
X186721305Y-126027852D01*
X186419513Y-126275527D01*
X186419493Y-126275545D01*
X186143443Y-126551595D01*
X186143425Y-126551615D01*
X185895750Y-126853407D01*
X185895739Y-126853422D01*
X185678834Y-127178044D01*
X185494785Y-127522375D01*
X185345372Y-127883088D01*
X185345371Y-127883091D01*
X185232033Y-128256719D01*
X185155869Y-128639629D01*
X185155866Y-128639649D01*
X185117599Y-129028179D01*
X185117599Y-129418622D01*
X185155866Y-129807152D01*
X185155869Y-129807172D01*
X185232033Y-130190082D01*
X185232036Y-130190093D01*
X185232037Y-130190096D01*
X185251978Y-130255832D01*
X185345371Y-130563710D01*
X185345372Y-130563713D01*
X185494785Y-130924426D01*
X185678834Y-131268757D01*
X185895739Y-131593379D01*
X185895750Y-131593394D01*
X186143425Y-131895186D01*
X186143443Y-131895206D01*
X186419493Y-132171256D01*
X186419503Y-132171265D01*
X186419507Y-132171269D01*
X186721314Y-132418956D01*
X187045945Y-132635867D01*
X187390274Y-132819915D01*
X187750985Y-132969327D01*
X187986689Y-133040827D01*
X188046069Y-133079741D01*
X188074985Y-133144583D01*
X188064254Y-133214764D01*
X188017284Y-133268003D01*
X187950112Y-133287401D01*
X171850919Y-133287401D01*
X88597867Y-133251172D01*
X88529755Y-133231140D01*
X88483286Y-133177464D01*
X88473212Y-133107186D01*
X88502733Y-133042618D01*
X88561344Y-133004598D01*
X88664433Y-132973327D01*
X89025144Y-132823915D01*
X89369473Y-132639867D01*
X89694104Y-132422956D01*
X89995911Y-132175269D01*
X90271987Y-131899193D01*
X90519674Y-131597386D01*
X90736585Y-131272755D01*
X90920633Y-130928426D01*
X91070045Y-130567715D01*
X91183381Y-130194096D01*
X91184180Y-130190082D01*
X91196813Y-130126564D01*
X91259550Y-129811167D01*
X91297819Y-129422616D01*
X91297819Y-129032186D01*
X91259550Y-128643635D01*
X91183381Y-128260706D01*
X91070045Y-127887087D01*
X90920633Y-127526376D01*
X90736585Y-127182047D01*
X90519674Y-126857416D01*
X90516396Y-126853422D01*
X90271992Y-126555615D01*
X90271974Y-126555595D01*
X89995924Y-126279545D01*
X89995904Y-126279527D01*
X89694112Y-126031852D01*
X89694097Y-126031841D01*
X89369475Y-125814936D01*
X89025144Y-125630887D01*
X88664431Y-125481474D01*
X88664428Y-125481473D01*
X88417122Y-125406454D01*
X88290814Y-125368139D01*
X88290811Y-125368138D01*
X88290800Y-125368135D01*
X87907890Y-125291971D01*
X87907885Y-125291970D01*
X87907880Y-125291969D01*
X87907870Y-125291968D01*
X87519340Y-125253701D01*
X87519334Y-125253701D01*
X87128904Y-125253701D01*
X87128897Y-125253701D01*
X86740367Y-125291968D01*
X86740354Y-125291969D01*
X86740353Y-125291970D01*
X86740350Y-125291970D01*
X86740347Y-125291971D01*
X86357437Y-125368135D01*
X85983809Y-125481473D01*
X85983806Y-125481474D01*
X85623093Y-125630887D01*
X85278762Y-125814936D01*
X84954140Y-126031841D01*
X84954125Y-126031852D01*
X84652333Y-126279527D01*
X84652313Y-126279545D01*
X84376263Y-126555595D01*
X84376245Y-126555615D01*
X84128570Y-126857407D01*
X84128559Y-126857422D01*
X83911654Y-127182044D01*
X83727605Y-127526375D01*
X83578192Y-127887088D01*
X83578191Y-127887091D01*
X83517494Y-128087186D01*
X83478578Y-128146567D01*
X83413737Y-128175483D01*
X83343556Y-128164752D01*
X83290317Y-128117782D01*
X83270919Y-128050610D01*
X83270919Y-120047397D01*
X120078778Y-120047397D01*
X120078778Y-120047404D01*
X120098093Y-120243525D01*
X120098093Y-120243527D01*
X120155305Y-120432129D01*
X120159248Y-120439505D01*
X120248209Y-120605939D01*
X120373236Y-120758284D01*
X120525581Y-120883311D01*
X120699392Y-120976215D01*
X120887987Y-121033425D01*
X120887991Y-121033425D01*
X120887993Y-121033426D01*
X121084116Y-121052742D01*
X121084119Y-121052742D01*
X121084122Y-121052742D01*
X121280243Y-121033426D01*
X121280245Y-121033426D01*
X121280246Y-121033425D01*
X121280251Y-121033425D01*
X121468846Y-120976215D01*
X121642657Y-120883311D01*
X121795002Y-120758284D01*
X121920029Y-120605939D01*
X122012933Y-120432128D01*
X122070143Y-120243533D01*
X122089460Y-120047401D01*
X122070143Y-119851274D01*
X122070142Y-119851265D01*
X122016019Y-119672846D01*
X122015385Y-119601852D01*
X122047495Y-119547178D01*
X123829871Y-117764803D01*
X123892181Y-117730780D01*
X123918964Y-117727901D01*
X125176274Y-117727901D01*
X125244395Y-117747903D01*
X125290888Y-117801559D01*
X125300992Y-117871833D01*
X125271498Y-117936413D01*
X125265371Y-117942993D01*
X124679005Y-118529359D01*
X124124343Y-119084021D01*
X124062031Y-119118047D01*
X123998673Y-119115501D01*
X123820251Y-119061377D01*
X123820250Y-119061376D01*
X123820244Y-119061375D01*
X123624122Y-119042060D01*
X123624116Y-119042060D01*
X123427994Y-119061375D01*
X123427992Y-119061375D01*
X123239390Y-119118587D01*
X123065580Y-119211491D01*
X122913236Y-119336518D01*
X122788209Y-119488862D01*
X122695305Y-119662672D01*
X122638093Y-119851274D01*
X122638093Y-119851276D01*
X122618778Y-120047397D01*
X122618778Y-120047404D01*
X122638093Y-120243525D01*
X122638093Y-120243527D01*
X122695305Y-120432129D01*
X122699248Y-120439505D01*
X122788209Y-120605939D01*
X122913236Y-120758284D01*
X123065581Y-120883311D01*
X123239392Y-120976215D01*
X123427987Y-121033425D01*
X123427991Y-121033425D01*
X123427993Y-121033426D01*
X123624116Y-121052742D01*
X123624119Y-121052742D01*
X123624122Y-121052742D01*
X123820243Y-121033426D01*
X123820245Y-121033426D01*
X123820246Y-121033425D01*
X123820251Y-121033425D01*
X124008846Y-120976215D01*
X124182657Y-120883311D01*
X124335002Y-120758284D01*
X124460029Y-120605939D01*
X124552933Y-120432128D01*
X124610143Y-120243533D01*
X124629460Y-120047401D01*
X124610143Y-119851274D01*
X124610142Y-119851265D01*
X124556019Y-119672846D01*
X124555385Y-119601852D01*
X124587495Y-119547178D01*
X125915871Y-118218803D01*
X125978181Y-118184780D01*
X126004964Y-118181901D01*
X127262273Y-118181901D01*
X127330394Y-118201903D01*
X127376887Y-118255559D01*
X127386991Y-118325833D01*
X127357497Y-118390413D01*
X127351368Y-118396997D01*
X126664342Y-119084021D01*
X126602030Y-119118046D01*
X126538672Y-119115500D01*
X126360248Y-119061376D01*
X126360243Y-119061375D01*
X126164122Y-119042060D01*
X126164116Y-119042060D01*
X125967994Y-119061375D01*
X125967992Y-119061375D01*
X125779390Y-119118587D01*
X125605580Y-119211491D01*
X125453236Y-119336518D01*
X125328209Y-119488862D01*
X125235305Y-119662672D01*
X125178093Y-119851274D01*
X125178093Y-119851276D01*
X125158778Y-120047397D01*
X125158778Y-120047404D01*
X125178093Y-120243525D01*
X125178093Y-120243527D01*
X125235305Y-120432129D01*
X125239248Y-120439505D01*
X125328209Y-120605939D01*
X125453236Y-120758284D01*
X125605581Y-120883311D01*
X125779392Y-120976215D01*
X125967987Y-121033425D01*
X125967991Y-121033425D01*
X125967993Y-121033426D01*
X126164116Y-121052742D01*
X126164119Y-121052742D01*
X126164122Y-121052742D01*
X126360243Y-121033426D01*
X126360245Y-121033426D01*
X126360246Y-121033425D01*
X126360251Y-121033425D01*
X126548846Y-120976215D01*
X126722657Y-120883311D01*
X126875002Y-120758284D01*
X127000029Y-120605939D01*
X127092933Y-120432128D01*
X127150143Y-120243533D01*
X127169460Y-120047401D01*
X127150143Y-119851274D01*
X127150142Y-119851265D01*
X127096019Y-119672847D01*
X127095385Y-119601853D01*
X127127496Y-119547177D01*
X128001870Y-118672805D01*
X128064182Y-118638780D01*
X128090965Y-118635901D01*
X129348273Y-118635901D01*
X129416394Y-118655903D01*
X129462887Y-118709559D01*
X129472991Y-118779833D01*
X129443497Y-118844413D01*
X129437368Y-118850997D01*
X129204342Y-119084021D01*
X129142030Y-119118046D01*
X129078672Y-119115500D01*
X128900248Y-119061376D01*
X128900243Y-119061375D01*
X128704122Y-119042060D01*
X128704116Y-119042060D01*
X128507994Y-119061375D01*
X128507992Y-119061375D01*
X128319390Y-119118587D01*
X128145580Y-119211491D01*
X127993236Y-119336518D01*
X127868209Y-119488862D01*
X127775305Y-119662672D01*
X127718093Y-119851274D01*
X127718093Y-119851276D01*
X127698778Y-120047397D01*
X127698778Y-120047404D01*
X127718093Y-120243525D01*
X127718093Y-120243527D01*
X127775305Y-120432129D01*
X127779248Y-120439505D01*
X127868209Y-120605939D01*
X127993236Y-120758284D01*
X128145581Y-120883311D01*
X128319392Y-120976215D01*
X128507987Y-121033425D01*
X128507991Y-121033425D01*
X128507993Y-121033426D01*
X128704116Y-121052742D01*
X128704119Y-121052742D01*
X128704122Y-121052742D01*
X128900243Y-121033426D01*
X128900245Y-121033426D01*
X128900246Y-121033425D01*
X128900251Y-121033425D01*
X129088846Y-120976215D01*
X129262657Y-120883311D01*
X129415002Y-120758284D01*
X129540029Y-120605939D01*
X129632933Y-120432128D01*
X129690143Y-120243533D01*
X129709460Y-120047401D01*
X129690143Y-119851274D01*
X129690142Y-119851265D01*
X129636019Y-119672847D01*
X129635385Y-119601853D01*
X129667496Y-119547177D01*
X130087870Y-119126805D01*
X130150182Y-119092780D01*
X130176965Y-119089901D01*
X130481593Y-119089901D01*
X130549714Y-119109903D01*
X130596207Y-119163559D01*
X130606311Y-119233833D01*
X130576817Y-119298413D01*
X130561527Y-119313300D01*
X130533236Y-119336517D01*
X130408209Y-119488862D01*
X130315305Y-119662672D01*
X130258093Y-119851274D01*
X130258093Y-119851276D01*
X130238778Y-120047397D01*
X130238778Y-120047404D01*
X130258093Y-120243525D01*
X130258093Y-120243527D01*
X130315305Y-120432129D01*
X130319248Y-120439505D01*
X130408209Y-120605939D01*
X130533236Y-120758284D01*
X130685581Y-120883311D01*
X130859392Y-120976215D01*
X131047987Y-121033425D01*
X131047991Y-121033425D01*
X131047993Y-121033426D01*
X131244116Y-121052742D01*
X131244119Y-121052742D01*
X131244122Y-121052742D01*
X131440243Y-121033426D01*
X131440245Y-121033426D01*
X131440246Y-121033425D01*
X131440251Y-121033425D01*
X131628846Y-120976215D01*
X131802657Y-120883311D01*
X131955002Y-120758284D01*
X132080029Y-120605939D01*
X132172933Y-120432128D01*
X132230143Y-120243533D01*
X132249460Y-120047401D01*
X132230144Y-119851276D01*
X132230144Y-119851274D01*
X132230143Y-119851271D01*
X132230143Y-119851269D01*
X132172933Y-119662674D01*
X132080029Y-119488863D01*
X131955002Y-119336518D01*
X131926711Y-119313300D01*
X131886742Y-119254623D01*
X131884842Y-119183652D01*
X131921613Y-119122919D01*
X131985381Y-119091708D01*
X132006645Y-119089901D01*
X133021593Y-119089901D01*
X133089714Y-119109903D01*
X133136207Y-119163559D01*
X133146311Y-119233833D01*
X133116817Y-119298413D01*
X133101527Y-119313300D01*
X133073236Y-119336517D01*
X132948209Y-119488862D01*
X132855305Y-119662672D01*
X132798093Y-119851274D01*
X132798093Y-119851276D01*
X132778778Y-120047397D01*
X132778778Y-120047404D01*
X132798093Y-120243525D01*
X132798093Y-120243527D01*
X132855305Y-120432129D01*
X132859248Y-120439505D01*
X132948209Y-120605939D01*
X133073236Y-120758284D01*
X133225581Y-120883311D01*
X133399392Y-120976215D01*
X133587987Y-121033425D01*
X133587991Y-121033425D01*
X133587993Y-121033426D01*
X133784116Y-121052742D01*
X133784119Y-121052742D01*
X133784122Y-121052742D01*
X133980243Y-121033426D01*
X133980245Y-121033426D01*
X133980246Y-121033425D01*
X133980251Y-121033425D01*
X134168846Y-120976215D01*
X134342657Y-120883311D01*
X134495002Y-120758284D01*
X134620029Y-120605939D01*
X134712933Y-120432128D01*
X134770143Y-120243533D01*
X134789460Y-120047401D01*
X134770144Y-119851276D01*
X134770144Y-119851274D01*
X134770143Y-119851271D01*
X134770143Y-119851269D01*
X134719905Y-119685657D01*
X134719272Y-119614663D01*
X134751383Y-119559988D01*
X135781525Y-118529846D01*
X135843836Y-118495822D01*
X135914652Y-118500887D01*
X135971487Y-118543434D01*
X135996298Y-118609954D01*
X135996619Y-118618943D01*
X135996619Y-119012477D01*
X135976617Y-119080598D01*
X135930015Y-119123599D01*
X135765580Y-119211491D01*
X135613236Y-119336518D01*
X135488209Y-119488862D01*
X135395305Y-119662672D01*
X135338093Y-119851274D01*
X135338093Y-119851276D01*
X135318778Y-120047397D01*
X135318778Y-120047404D01*
X135338093Y-120243525D01*
X135338093Y-120243527D01*
X135395305Y-120432129D01*
X135399248Y-120439505D01*
X135488209Y-120605939D01*
X135613236Y-120758284D01*
X135765581Y-120883311D01*
X135939392Y-120976215D01*
X136127987Y-121033425D01*
X136127991Y-121033425D01*
X136127993Y-121033426D01*
X136324116Y-121052742D01*
X136324119Y-121052742D01*
X136324122Y-121052742D01*
X136520243Y-121033426D01*
X136520245Y-121033426D01*
X136520246Y-121033425D01*
X136520251Y-121033425D01*
X136708846Y-120976215D01*
X136882657Y-120883311D01*
X137035002Y-120758284D01*
X137160029Y-120605939D01*
X137252933Y-120432128D01*
X137310143Y-120243533D01*
X137329460Y-120047401D01*
X137310144Y-119851276D01*
X137310144Y-119851274D01*
X137310143Y-119851271D01*
X137310143Y-119851269D01*
X137252933Y-119662674D01*
X137160029Y-119488863D01*
X137035002Y-119336518D01*
X136882657Y-119211491D01*
X136772469Y-119152594D01*
X136718223Y-119123599D01*
X136667575Y-119073847D01*
X136651619Y-119012477D01*
X136651619Y-118353996D01*
X136671621Y-118285875D01*
X136688524Y-118264901D01*
X137420295Y-117533130D01*
X137482607Y-117499104D01*
X137553422Y-117504169D01*
X137598485Y-117533130D01*
X138594714Y-118529359D01*
X138628740Y-118591671D01*
X138631619Y-118618454D01*
X138631619Y-118978961D01*
X138611617Y-119047082D01*
X138557961Y-119093575D01*
X138542198Y-119099534D01*
X138536620Y-119101227D01*
X138479394Y-119118586D01*
X138479388Y-119118588D01*
X138305580Y-119211491D01*
X138153236Y-119336518D01*
X138028209Y-119488862D01*
X137935305Y-119662672D01*
X137878093Y-119851274D01*
X137878093Y-119851276D01*
X137858778Y-120047397D01*
X137858778Y-120047404D01*
X137878093Y-120243525D01*
X137878093Y-120243527D01*
X137935305Y-120432129D01*
X137939248Y-120439505D01*
X138028209Y-120605939D01*
X138153236Y-120758284D01*
X138305581Y-120883311D01*
X138479392Y-120976215D01*
X138667987Y-121033425D01*
X138667991Y-121033425D01*
X138667993Y-121033426D01*
X138864116Y-121052742D01*
X138864119Y-121052742D01*
X138864122Y-121052742D01*
X139060243Y-121033426D01*
X139060245Y-121033426D01*
X139060246Y-121033425D01*
X139060251Y-121033425D01*
X139248846Y-120976215D01*
X139422657Y-120883311D01*
X139575002Y-120758284D01*
X139700029Y-120605939D01*
X139792933Y-120432128D01*
X139850143Y-120243533D01*
X139869460Y-120047401D01*
X139850144Y-119851276D01*
X139850144Y-119851274D01*
X139850143Y-119851271D01*
X139850143Y-119851269D01*
X139792933Y-119662674D01*
X139700029Y-119488863D01*
X139575002Y-119336518D01*
X139467414Y-119248222D01*
X139422659Y-119211492D01*
X139353222Y-119174377D01*
X139302574Y-119124624D01*
X139286619Y-119063255D01*
X139286619Y-118879418D01*
X139306621Y-118811297D01*
X139360277Y-118764804D01*
X139430551Y-118754700D01*
X139495131Y-118784194D01*
X139501714Y-118790323D01*
X141019250Y-120307860D01*
X141019255Y-120307864D01*
X141019257Y-120307866D01*
X141093480Y-120350719D01*
X141176266Y-120372901D01*
X141261972Y-120372901D01*
X141888126Y-120372901D01*
X141956247Y-120392903D01*
X141999248Y-120439505D01*
X142088209Y-120605939D01*
X142213236Y-120758284D01*
X142365581Y-120883311D01*
X142539392Y-120976215D01*
X142727987Y-121033425D01*
X142727991Y-121033425D01*
X142727993Y-121033426D01*
X142924116Y-121052742D01*
X142924119Y-121052742D01*
X142924122Y-121052742D01*
X143120243Y-121033426D01*
X143120245Y-121033426D01*
X143120246Y-121033425D01*
X143120251Y-121033425D01*
X143308846Y-120976215D01*
X143482657Y-120883311D01*
X143635002Y-120758284D01*
X143760029Y-120605939D01*
X143852933Y-120432128D01*
X143910143Y-120243533D01*
X143929460Y-120047401D01*
X143910144Y-119851276D01*
X143910144Y-119851274D01*
X143910143Y-119851271D01*
X143910143Y-119851269D01*
X143852933Y-119662674D01*
X143760029Y-119488863D01*
X143731281Y-119453834D01*
X143703528Y-119388488D01*
X143715509Y-119318510D01*
X143763422Y-119266118D01*
X143828681Y-119247901D01*
X144152102Y-119247901D01*
X144220223Y-119267903D01*
X144241197Y-119284806D01*
X144501397Y-119545006D01*
X144535423Y-119607318D01*
X144532877Y-119670676D01*
X144478094Y-119851271D01*
X144478093Y-119851276D01*
X144458778Y-120047397D01*
X144458778Y-120047404D01*
X144478093Y-120243525D01*
X144478093Y-120243527D01*
X144535305Y-120432129D01*
X144539248Y-120439505D01*
X144628209Y-120605939D01*
X144753236Y-120758284D01*
X144905581Y-120883311D01*
X145079392Y-120976215D01*
X145267987Y-121033425D01*
X145267991Y-121033425D01*
X145267993Y-121033426D01*
X145464116Y-121052742D01*
X145464119Y-121052742D01*
X145464122Y-121052742D01*
X145660243Y-121033426D01*
X145660245Y-121033426D01*
X145660246Y-121033425D01*
X145660251Y-121033425D01*
X145848846Y-120976215D01*
X146022657Y-120883311D01*
X146175002Y-120758284D01*
X146300029Y-120605939D01*
X146392933Y-120432128D01*
X146450143Y-120243533D01*
X146469460Y-120047401D01*
X146450144Y-119851276D01*
X146450144Y-119851274D01*
X146450143Y-119851271D01*
X146450143Y-119851269D01*
X146392933Y-119662674D01*
X146300029Y-119488863D01*
X146175002Y-119336518D01*
X146022657Y-119211491D01*
X145912469Y-119152594D01*
X145848847Y-119118587D01*
X145660244Y-119061375D01*
X145537573Y-119049294D01*
X145471741Y-119022712D01*
X145464374Y-119012302D01*
X145413813Y-119044797D01*
X145390665Y-119049294D01*
X145267994Y-119061375D01*
X145267989Y-119061376D01*
X145087394Y-119116159D01*
X145016401Y-119116792D01*
X144961724Y-119084679D01*
X144890041Y-119012996D01*
X144856015Y-118950684D01*
X144861080Y-118879869D01*
X144903627Y-118823033D01*
X144970147Y-118798222D01*
X144979136Y-118797901D01*
X145378315Y-118797901D01*
X145446436Y-118817903D01*
X145461557Y-118835354D01*
X145463244Y-118832453D01*
X145526445Y-118800108D01*
X145549923Y-118797901D01*
X146242102Y-118797901D01*
X146310223Y-118817903D01*
X146331197Y-118834806D01*
X147041397Y-119545006D01*
X147075423Y-119607318D01*
X147072877Y-119670676D01*
X147018094Y-119851271D01*
X147018093Y-119851276D01*
X146998778Y-120047397D01*
X146998778Y-120047404D01*
X147018093Y-120243525D01*
X147018093Y-120243527D01*
X147075305Y-120432129D01*
X147079248Y-120439505D01*
X147168209Y-120605939D01*
X147293236Y-120758284D01*
X147445581Y-120883311D01*
X147619392Y-120976215D01*
X147807987Y-121033425D01*
X147807991Y-121033425D01*
X147807993Y-121033426D01*
X148004116Y-121052742D01*
X148004119Y-121052742D01*
X148004122Y-121052742D01*
X148200243Y-121033426D01*
X148200245Y-121033426D01*
X148200246Y-121033425D01*
X148200251Y-121033425D01*
X148388846Y-120976215D01*
X148562657Y-120883311D01*
X148715002Y-120758284D01*
X148840029Y-120605939D01*
X148932933Y-120432128D01*
X148990143Y-120243533D01*
X149009460Y-120047401D01*
X148990144Y-119851276D01*
X148990144Y-119851274D01*
X148990143Y-119851271D01*
X148990143Y-119851269D01*
X148932933Y-119662674D01*
X148840029Y-119488863D01*
X148715002Y-119336518D01*
X148562657Y-119211491D01*
X148452469Y-119152594D01*
X148388847Y-119118587D01*
X148200244Y-119061375D01*
X148004122Y-119042060D01*
X148004116Y-119042060D01*
X147807994Y-119061375D01*
X147807989Y-119061376D01*
X147627394Y-119116159D01*
X147556401Y-119116792D01*
X147501724Y-119084679D01*
X146980041Y-118562996D01*
X146946015Y-118500684D01*
X146951080Y-118429869D01*
X146993627Y-118373033D01*
X147060147Y-118348222D01*
X147069136Y-118347901D01*
X148332102Y-118347901D01*
X148400223Y-118367903D01*
X148421197Y-118384806D01*
X149581397Y-119545006D01*
X149615423Y-119607318D01*
X149612877Y-119670676D01*
X149558094Y-119851271D01*
X149558093Y-119851276D01*
X149538778Y-120047397D01*
X149538778Y-120047404D01*
X149558093Y-120243525D01*
X149558093Y-120243527D01*
X149615305Y-120432129D01*
X149619248Y-120439505D01*
X149708209Y-120605939D01*
X149833236Y-120758284D01*
X149985581Y-120883311D01*
X150159392Y-120976215D01*
X150347987Y-121033425D01*
X150347991Y-121033425D01*
X150347993Y-121033426D01*
X150544116Y-121052742D01*
X150544119Y-121052742D01*
X150544122Y-121052742D01*
X150740243Y-121033426D01*
X150740245Y-121033426D01*
X150740246Y-121033425D01*
X150740251Y-121033425D01*
X150928846Y-120976215D01*
X151102657Y-120883311D01*
X151255002Y-120758284D01*
X151380029Y-120605939D01*
X151472933Y-120432128D01*
X151530143Y-120243533D01*
X151549460Y-120047401D01*
X151530144Y-119851276D01*
X151530144Y-119851274D01*
X151530143Y-119851271D01*
X151530143Y-119851269D01*
X151472933Y-119662674D01*
X151380029Y-119488863D01*
X151255002Y-119336518D01*
X151102657Y-119211491D01*
X150992469Y-119152594D01*
X150928847Y-119118587D01*
X150740244Y-119061375D01*
X150544122Y-119042060D01*
X150544116Y-119042060D01*
X150347994Y-119061375D01*
X150347989Y-119061376D01*
X150167394Y-119116159D01*
X150096401Y-119116792D01*
X150041724Y-119084679D01*
X149070041Y-118112996D01*
X149036015Y-118050684D01*
X149041080Y-117979869D01*
X149083627Y-117923033D01*
X149150147Y-117898222D01*
X149159136Y-117897901D01*
X150422102Y-117897901D01*
X150490223Y-117917903D01*
X150511197Y-117934806D01*
X152121397Y-119545005D01*
X152155422Y-119607317D01*
X152152877Y-119670675D01*
X152098094Y-119851271D01*
X152098093Y-119851276D01*
X152078778Y-120047397D01*
X152078778Y-120047404D01*
X152098093Y-120243525D01*
X152098093Y-120243527D01*
X152155305Y-120432129D01*
X152159248Y-120439505D01*
X152248209Y-120605939D01*
X152373236Y-120758284D01*
X152525581Y-120883311D01*
X152699392Y-120976215D01*
X152887987Y-121033425D01*
X152887991Y-121033425D01*
X152887993Y-121033426D01*
X153084116Y-121052742D01*
X153084119Y-121052742D01*
X153084122Y-121052742D01*
X153280243Y-121033426D01*
X153280245Y-121033426D01*
X153280246Y-121033425D01*
X153280251Y-121033425D01*
X153468846Y-120976215D01*
X153642657Y-120883311D01*
X153795002Y-120758284D01*
X153920029Y-120605939D01*
X154012933Y-120432128D01*
X154070143Y-120243533D01*
X154089460Y-120047401D01*
X154070144Y-119851276D01*
X154070144Y-119851274D01*
X154070143Y-119851271D01*
X154070143Y-119851269D01*
X154012933Y-119662674D01*
X153920029Y-119488863D01*
X153795002Y-119336518D01*
X153642657Y-119211491D01*
X153532469Y-119152594D01*
X153468847Y-119118587D01*
X153280244Y-119061375D01*
X153084122Y-119042060D01*
X153084116Y-119042060D01*
X152887994Y-119061375D01*
X152887989Y-119061376D01*
X152707393Y-119116159D01*
X152636399Y-119116792D01*
X152581723Y-119084679D01*
X151160041Y-117662996D01*
X151126015Y-117600684D01*
X151131080Y-117529868D01*
X151173627Y-117473033D01*
X151240147Y-117448222D01*
X151249136Y-117447901D01*
X152512102Y-117447901D01*
X152580223Y-117467903D01*
X152601197Y-117484806D01*
X154661397Y-119545005D01*
X154695422Y-119607317D01*
X154692877Y-119670675D01*
X154638094Y-119851271D01*
X154638093Y-119851276D01*
X154618778Y-120047397D01*
X154618778Y-120047404D01*
X154638093Y-120243525D01*
X154638093Y-120243527D01*
X154695305Y-120432129D01*
X154699248Y-120439505D01*
X154788209Y-120605939D01*
X154913236Y-120758284D01*
X155065581Y-120883311D01*
X155239392Y-120976215D01*
X155427987Y-121033425D01*
X155427991Y-121033425D01*
X155427993Y-121033426D01*
X155624116Y-121052742D01*
X155624119Y-121052742D01*
X155624122Y-121052742D01*
X155820243Y-121033426D01*
X155820245Y-121033426D01*
X155820246Y-121033425D01*
X155820251Y-121033425D01*
X156008846Y-120976215D01*
X156182657Y-120883311D01*
X156335002Y-120758284D01*
X156460029Y-120605939D01*
X156552933Y-120432128D01*
X156610143Y-120243533D01*
X156629460Y-120047401D01*
X156629460Y-120047397D01*
X159698778Y-120047397D01*
X159698778Y-120047404D01*
X159718093Y-120243525D01*
X159718093Y-120243527D01*
X159775305Y-120432129D01*
X159779248Y-120439505D01*
X159868209Y-120605939D01*
X159993236Y-120758284D01*
X160145581Y-120883311D01*
X160319392Y-120976215D01*
X160507987Y-121033425D01*
X160507991Y-121033425D01*
X160507993Y-121033426D01*
X160704116Y-121052742D01*
X160704119Y-121052742D01*
X160704122Y-121052742D01*
X160900243Y-121033426D01*
X160900245Y-121033426D01*
X160900246Y-121033425D01*
X160900251Y-121033425D01*
X161088846Y-120976215D01*
X161262657Y-120883311D01*
X161415002Y-120758284D01*
X161540029Y-120605939D01*
X161632933Y-120432128D01*
X161690143Y-120243533D01*
X161709460Y-120047401D01*
X161709460Y-120047397D01*
X162238778Y-120047397D01*
X162238778Y-120047404D01*
X162258093Y-120243525D01*
X162258093Y-120243527D01*
X162315305Y-120432129D01*
X162319248Y-120439505D01*
X162408209Y-120605939D01*
X162533236Y-120758284D01*
X162685581Y-120883311D01*
X162859392Y-120976215D01*
X163047987Y-121033425D01*
X163047991Y-121033425D01*
X163047993Y-121033426D01*
X163244116Y-121052742D01*
X163244119Y-121052742D01*
X163244122Y-121052742D01*
X163440243Y-121033426D01*
X163440245Y-121033426D01*
X163440246Y-121033425D01*
X163440251Y-121033425D01*
X163628846Y-120976215D01*
X163802657Y-120883311D01*
X163955002Y-120758284D01*
X164080029Y-120605939D01*
X164172933Y-120432128D01*
X164230143Y-120243533D01*
X164249460Y-120047401D01*
X164249460Y-120047397D01*
X164778778Y-120047397D01*
X164778778Y-120047404D01*
X164798093Y-120243525D01*
X164798093Y-120243527D01*
X164855305Y-120432129D01*
X164859248Y-120439505D01*
X164948209Y-120605939D01*
X165073236Y-120758284D01*
X165225581Y-120883311D01*
X165399392Y-120976215D01*
X165587987Y-121033425D01*
X165587991Y-121033425D01*
X165587993Y-121033426D01*
X165784116Y-121052742D01*
X165784119Y-121052742D01*
X165784122Y-121052742D01*
X165980243Y-121033426D01*
X165980245Y-121033426D01*
X165980246Y-121033425D01*
X165980251Y-121033425D01*
X166168846Y-120976215D01*
X166342657Y-120883311D01*
X166495002Y-120758284D01*
X166620029Y-120605939D01*
X166712933Y-120432128D01*
X166770143Y-120243533D01*
X166789460Y-120047401D01*
X166770144Y-119851276D01*
X166770144Y-119851274D01*
X166770143Y-119851271D01*
X166770143Y-119851269D01*
X166712933Y-119662674D01*
X166620029Y-119488863D01*
X166495002Y-119336518D01*
X166342657Y-119211491D01*
X166232469Y-119152594D01*
X166168847Y-119118587D01*
X165980244Y-119061375D01*
X165784122Y-119042060D01*
X165784116Y-119042060D01*
X165587994Y-119061375D01*
X165587992Y-119061375D01*
X165399390Y-119118587D01*
X165225580Y-119211491D01*
X165073236Y-119336518D01*
X164948209Y-119488862D01*
X164855305Y-119662672D01*
X164798093Y-119851274D01*
X164798093Y-119851276D01*
X164778778Y-120047397D01*
X164249460Y-120047397D01*
X164230144Y-119851276D01*
X164230144Y-119851274D01*
X164230143Y-119851271D01*
X164230143Y-119851269D01*
X164172933Y-119662674D01*
X164080029Y-119488863D01*
X163955002Y-119336518D01*
X163802657Y-119211491D01*
X163692469Y-119152594D01*
X163628847Y-119118587D01*
X163440244Y-119061375D01*
X163244122Y-119042060D01*
X163244116Y-119042060D01*
X163047994Y-119061375D01*
X163047992Y-119061375D01*
X162859390Y-119118587D01*
X162685580Y-119211491D01*
X162533236Y-119336518D01*
X162408209Y-119488862D01*
X162315305Y-119662672D01*
X162258093Y-119851274D01*
X162258093Y-119851276D01*
X162238778Y-120047397D01*
X161709460Y-120047397D01*
X161690144Y-119851276D01*
X161690144Y-119851274D01*
X161690143Y-119851271D01*
X161690143Y-119851269D01*
X161632933Y-119662674D01*
X161540029Y-119488863D01*
X161415002Y-119336518D01*
X161262657Y-119211491D01*
X161152469Y-119152594D01*
X161088847Y-119118587D01*
X160900244Y-119061375D01*
X160704122Y-119042060D01*
X160704116Y-119042060D01*
X160507994Y-119061375D01*
X160507992Y-119061375D01*
X160319390Y-119118587D01*
X160145580Y-119211491D01*
X159993236Y-119336518D01*
X159868209Y-119488862D01*
X159775305Y-119662672D01*
X159718093Y-119851274D01*
X159718093Y-119851276D01*
X159698778Y-120047397D01*
X156629460Y-120047397D01*
X156610144Y-119851276D01*
X156610144Y-119851274D01*
X156610143Y-119851271D01*
X156610143Y-119851269D01*
X156552933Y-119662674D01*
X156460029Y-119488863D01*
X156335002Y-119336518D01*
X156182657Y-119211491D01*
X156072469Y-119152594D01*
X156008847Y-119118587D01*
X155820244Y-119061375D01*
X155624122Y-119042060D01*
X155624116Y-119042060D01*
X155427994Y-119061375D01*
X155427989Y-119061376D01*
X155247393Y-119116159D01*
X155176399Y-119116792D01*
X155121723Y-119084679D01*
X152898987Y-116861941D01*
X152898977Y-116861933D01*
X152824762Y-116819085D01*
X152824760Y-116819084D01*
X152824758Y-116819083D01*
X152741972Y-116796901D01*
X152741970Y-116796901D01*
X141678928Y-116796901D01*
X141610807Y-116776899D01*
X141589832Y-116759996D01*
X141309263Y-116479426D01*
X141275238Y-116417114D01*
X141280303Y-116346298D01*
X141322850Y-116289463D01*
X141350134Y-116273925D01*
X141466460Y-116225742D01*
X141591901Y-116129488D01*
X141688155Y-116004047D01*
X141748663Y-115857968D01*
X141769301Y-115701206D01*
X141748663Y-115544444D01*
X141688155Y-115398365D01*
X141591901Y-115272924D01*
X141466460Y-115176670D01*
X141320381Y-115116162D01*
X141320380Y-115116161D01*
X141320376Y-115116160D01*
X141312403Y-115114024D01*
X141313018Y-115111727D01*
X141259240Y-115087934D01*
X141220152Y-115028667D01*
X141214619Y-114991739D01*
X141214619Y-113215664D01*
X171214619Y-113215664D01*
X171214619Y-113445137D01*
X171244569Y-113672632D01*
X171244571Y-113672639D01*
X171303961Y-113894288D01*
X171391775Y-114106289D01*
X171391776Y-114106290D01*
X171391781Y-114106301D01*
X171506505Y-114305009D01*
X171506510Y-114305016D01*
X171646192Y-114487053D01*
X171646211Y-114487074D01*
X171808445Y-114649308D01*
X171808466Y-114649327D01*
X171990503Y-114789009D01*
X171990510Y-114789014D01*
X172189218Y-114903738D01*
X172189222Y-114903739D01*
X172189231Y-114903745D01*
X172401232Y-114991559D01*
X172622881Y-115050949D01*
X172622885Y-115050949D01*
X172622887Y-115050950D01*
X172681517Y-115058668D01*
X172850385Y-115080901D01*
X172850392Y-115080901D01*
X173079846Y-115080901D01*
X173079853Y-115080901D01*
X173285464Y-115053831D01*
X173307350Y-115050950D01*
X173307350Y-115050949D01*
X173307357Y-115050949D01*
X173529006Y-114991559D01*
X173741007Y-114903745D01*
X173939731Y-114789012D01*
X174121780Y-114649320D01*
X174284038Y-114487062D01*
X174423730Y-114305013D01*
X174538463Y-114106289D01*
X174626277Y-113894288D01*
X174685667Y-113672639D01*
X174715619Y-113445135D01*
X174715619Y-113215667D01*
X174685667Y-112988163D01*
X174626277Y-112766514D01*
X174538463Y-112554513D01*
X174538457Y-112554504D01*
X174538456Y-112554500D01*
X174423732Y-112355792D01*
X174423727Y-112355785D01*
X174284045Y-112173748D01*
X174284026Y-112173727D01*
X174121792Y-112011493D01*
X174121771Y-112011474D01*
X173939734Y-111871792D01*
X173939727Y-111871787D01*
X173741019Y-111757063D01*
X173741011Y-111757059D01*
X173741007Y-111757057D01*
X173529006Y-111669243D01*
X173307357Y-111609853D01*
X173307350Y-111609851D01*
X173079855Y-111579901D01*
X173079853Y-111579901D01*
X172850385Y-111579901D01*
X172850382Y-111579901D01*
X172622887Y-111609851D01*
X172401232Y-111669243D01*
X172189229Y-111757058D01*
X172189218Y-111757063D01*
X171990510Y-111871787D01*
X171990503Y-111871792D01*
X171808466Y-112011474D01*
X171808445Y-112011493D01*
X171646211Y-112173727D01*
X171646192Y-112173748D01*
X171506510Y-112355785D01*
X171506505Y-112355792D01*
X171391781Y-112554500D01*
X171391776Y-112554511D01*
X171303961Y-112766514D01*
X171244569Y-112988169D01*
X171214619Y-113215664D01*
X141214619Y-113215664D01*
X141214619Y-75813901D01*
X141234621Y-75745780D01*
X141288277Y-75699287D01*
X141340619Y-75687901D01*
X152426970Y-75687901D01*
X152426972Y-75687901D01*
X152509758Y-75665719D01*
X152583981Y-75622866D01*
X155498608Y-72708236D01*
X155498613Y-72708233D01*
X155500994Y-72705852D01*
X155504810Y-72703767D01*
X155531346Y-72684641D01*
X155531354Y-72684637D01*
X155533171Y-72688272D01*
X155563299Y-72671814D01*
X155634116Y-72676864D01*
X155690960Y-72719399D01*
X155694850Y-72724894D01*
X155699567Y-72731953D01*
X155699568Y-72731954D01*
X155726570Y-72749996D01*
X155765888Y-72776268D01*
X155824371Y-72787901D01*
X155824372Y-72787901D01*
X157463866Y-72787901D01*
X157463867Y-72787901D01*
X157522350Y-72776268D01*
X157588671Y-72731953D01*
X157632986Y-72665632D01*
X157644619Y-72607149D01*
X157644619Y-70967653D01*
X157632986Y-70909170D01*
X157588671Y-70842849D01*
X157522350Y-70798534D01*
X157522347Y-70798533D01*
X157463869Y-70786901D01*
X157463867Y-70786901D01*
X155824371Y-70786901D01*
X155824365Y-70786901D01*
X155785200Y-70794692D01*
X155714486Y-70788364D01*
X155658419Y-70744809D01*
X155634800Y-70677857D01*
X155634619Y-70671113D01*
X155634619Y-70578612D01*
X155634620Y-70578599D01*
X155634620Y-70482744D01*
X155634619Y-70482740D01*
X155612439Y-70399964D01*
X155612435Y-70399954D01*
X155606120Y-70389017D01*
X155606118Y-70389014D01*
X155580413Y-70344491D01*
X155569584Y-70325734D01*
X155569581Y-70325731D01*
X155569578Y-70325727D01*
X155504592Y-70260741D01*
X155504569Y-70260720D01*
X151946524Y-66702674D01*
X151912498Y-66640362D01*
X151909619Y-66613579D01*
X151909619Y-66449826D01*
X151929621Y-66381705D01*
X151983277Y-66335212D01*
X152053551Y-66325108D01*
X152115549Y-66352424D01*
X152268669Y-66478086D01*
X152451165Y-66575633D01*
X152649185Y-66635701D01*
X152649189Y-66635701D01*
X152649191Y-66635702D01*
X152855116Y-66655984D01*
X152855119Y-66655984D01*
X152855122Y-66655984D01*
X153061046Y-66635702D01*
X153061047Y-66635701D01*
X153061053Y-66635701D01*
X153259073Y-66575633D01*
X153441569Y-66478086D01*
X153601529Y-66346811D01*
X153732804Y-66186851D01*
X153830351Y-66004355D01*
X153890419Y-65806335D01*
X153892126Y-65789009D01*
X153910702Y-65600404D01*
X153910702Y-65600397D01*
X154339536Y-65600397D01*
X154339536Y-65600404D01*
X154359817Y-65806328D01*
X154419887Y-66004355D01*
X154516618Y-66185326D01*
X154517434Y-66186851D01*
X154648709Y-66346811D01*
X154808669Y-66478086D01*
X154991165Y-66575633D01*
X155189185Y-66635701D01*
X155189189Y-66635701D01*
X155189191Y-66635702D01*
X155395116Y-66655984D01*
X155395119Y-66655984D01*
X155395122Y-66655984D01*
X155601046Y-66635702D01*
X155601047Y-66635701D01*
X155601053Y-66635701D01*
X155799073Y-66575633D01*
X155799088Y-66575624D01*
X155799740Y-66575356D01*
X155800121Y-66575314D01*
X155804997Y-66573836D01*
X155805277Y-66574760D01*
X155870330Y-66567764D01*
X155933818Y-66599540D01*
X155937059Y-66602668D01*
X155985428Y-66651037D01*
X156019454Y-66713349D01*
X156022333Y-66740132D01*
X156022333Y-68506829D01*
X156002331Y-68574950D01*
X155973037Y-68606791D01*
X155919553Y-68647830D01*
X155823298Y-68773272D01*
X155823296Y-68773275D01*
X155762788Y-68919354D01*
X155742151Y-69076114D01*
X155742151Y-69076115D01*
X155762788Y-69232875D01*
X155807537Y-69340907D01*
X155823297Y-69378956D01*
X155919551Y-69504397D01*
X156044992Y-69600651D01*
X156191071Y-69661159D01*
X156347833Y-69681797D01*
X156504595Y-69661159D01*
X156650674Y-69600651D01*
X156776115Y-69504397D01*
X156872369Y-69378956D01*
X156932877Y-69232877D01*
X156953515Y-69076115D01*
X156951639Y-69061869D01*
X156932877Y-68919354D01*
X156932615Y-68918720D01*
X156872369Y-68773274D01*
X156776115Y-68647833D01*
X156776113Y-68647831D01*
X156776112Y-68647830D01*
X156722629Y-68606791D01*
X156680762Y-68549453D01*
X156673333Y-68506829D01*
X156673333Y-66510264D01*
X156673332Y-66510259D01*
X156660472Y-66462260D01*
X156660472Y-66462259D01*
X156651152Y-66427478D01*
X156651147Y-66427470D01*
X156626374Y-66384561D01*
X156608300Y-66353256D01*
X156608295Y-66353250D01*
X156507490Y-66252445D01*
X156397384Y-66142339D01*
X156363361Y-66080030D01*
X156368425Y-66009214D01*
X156370074Y-66005022D01*
X156370342Y-66004370D01*
X156370351Y-66004355D01*
X156430419Y-65806335D01*
X156432126Y-65789009D01*
X156450702Y-65600404D01*
X156450702Y-65600397D01*
X156879536Y-65600397D01*
X156879536Y-65600404D01*
X156899817Y-65806328D01*
X156959887Y-66004355D01*
X157056618Y-66185326D01*
X157057434Y-66186851D01*
X157188709Y-66346811D01*
X157348669Y-66478086D01*
X157531165Y-66575633D01*
X157729185Y-66635701D01*
X157729189Y-66635701D01*
X157729191Y-66635702D01*
X157935116Y-66655984D01*
X157935119Y-66655984D01*
X157935122Y-66655984D01*
X158141046Y-66635702D01*
X158141047Y-66635701D01*
X158141053Y-66635701D01*
X158339073Y-66575633D01*
X158521569Y-66478086D01*
X158681529Y-66346811D01*
X158812804Y-66186851D01*
X158910351Y-66004355D01*
X158970419Y-65806335D01*
X158972126Y-65789009D01*
X158990702Y-65600404D01*
X158990702Y-65600397D01*
X159419536Y-65600397D01*
X159419536Y-65600404D01*
X159439817Y-65806328D01*
X159499887Y-66004355D01*
X159596618Y-66185326D01*
X159597434Y-66186851D01*
X159728709Y-66346811D01*
X159888669Y-66478086D01*
X160071165Y-66575633D01*
X160269185Y-66635701D01*
X160269189Y-66635701D01*
X160269191Y-66635702D01*
X160475116Y-66655984D01*
X160475119Y-66655984D01*
X160475122Y-66655984D01*
X160681046Y-66635702D01*
X160681047Y-66635701D01*
X160681053Y-66635701D01*
X160879073Y-66575633D01*
X161061569Y-66478086D01*
X161221529Y-66346811D01*
X161352804Y-66186851D01*
X161450351Y-66004355D01*
X161510419Y-65806335D01*
X161512126Y-65789009D01*
X161530702Y-65600404D01*
X161530702Y-65600397D01*
X161959536Y-65600397D01*
X161959536Y-65600404D01*
X161979817Y-65806328D01*
X162039887Y-66004355D01*
X162136618Y-66185326D01*
X162137434Y-66186851D01*
X162268709Y-66346811D01*
X162428669Y-66478086D01*
X162611165Y-66575633D01*
X162809185Y-66635701D01*
X162809189Y-66635701D01*
X162809191Y-66635702D01*
X163015116Y-66655984D01*
X163015119Y-66655984D01*
X163015122Y-66655984D01*
X163221046Y-66635702D01*
X163221047Y-66635701D01*
X163221053Y-66635701D01*
X163419073Y-66575633D01*
X163601569Y-66478086D01*
X163761529Y-66346811D01*
X163892804Y-66186851D01*
X163990351Y-66004355D01*
X164050419Y-65806335D01*
X164052126Y-65789009D01*
X164070702Y-65600404D01*
X164070702Y-65600397D01*
X164499536Y-65600397D01*
X164499536Y-65600404D01*
X164519817Y-65806328D01*
X164579887Y-66004355D01*
X164676618Y-66185326D01*
X164677434Y-66186851D01*
X164808709Y-66346811D01*
X164968669Y-66478086D01*
X165151165Y-66575633D01*
X165349185Y-66635701D01*
X165349189Y-66635701D01*
X165349191Y-66635702D01*
X165555116Y-66655984D01*
X165555119Y-66655984D01*
X165555122Y-66655984D01*
X165761046Y-66635702D01*
X165761047Y-66635701D01*
X165761053Y-66635701D01*
X165959073Y-66575633D01*
X166141569Y-66478086D01*
X166301529Y-66346811D01*
X166432804Y-66186851D01*
X166530351Y-66004355D01*
X166590419Y-65806335D01*
X166592126Y-65789009D01*
X166610702Y-65600404D01*
X166610702Y-65600397D01*
X166590420Y-65394473D01*
X166590419Y-65394471D01*
X166590419Y-65394467D01*
X166530351Y-65196447D01*
X166432804Y-65013951D01*
X166301529Y-64853991D01*
X166141569Y-64722716D01*
X166141567Y-64722715D01*
X166141566Y-64722714D01*
X165959073Y-64625169D01*
X165877479Y-64600418D01*
X165761053Y-64565101D01*
X165761052Y-64565100D01*
X165761046Y-64565099D01*
X165555122Y-64544818D01*
X165555116Y-64544818D01*
X165349191Y-64565099D01*
X165151164Y-64625169D01*
X164968671Y-64722714D01*
X164808709Y-64853991D01*
X164677432Y-65013953D01*
X164579887Y-65196446D01*
X164519817Y-65394473D01*
X164499536Y-65600397D01*
X164070702Y-65600397D01*
X164050420Y-65394473D01*
X164050419Y-65394471D01*
X164050419Y-65394467D01*
X163990351Y-65196447D01*
X163892804Y-65013951D01*
X163761529Y-64853991D01*
X163601569Y-64722716D01*
X163601567Y-64722715D01*
X163601566Y-64722714D01*
X163419073Y-64625169D01*
X163337479Y-64600418D01*
X163221053Y-64565101D01*
X163221052Y-64565100D01*
X163221046Y-64565099D01*
X163015122Y-64544818D01*
X163015116Y-64544818D01*
X162809191Y-64565099D01*
X162611164Y-64625169D01*
X162428671Y-64722714D01*
X162268709Y-64853991D01*
X162137432Y-65013953D01*
X162039887Y-65196446D01*
X161979817Y-65394473D01*
X161959536Y-65600397D01*
X161530702Y-65600397D01*
X161510420Y-65394473D01*
X161510419Y-65394471D01*
X161510419Y-65394467D01*
X161450351Y-65196447D01*
X161352804Y-65013951D01*
X161221529Y-64853991D01*
X161061569Y-64722716D01*
X161061567Y-64722715D01*
X161061566Y-64722714D01*
X160879073Y-64625169D01*
X160797479Y-64600418D01*
X160681053Y-64565101D01*
X160681052Y-64565100D01*
X160681046Y-64565099D01*
X160475122Y-64544818D01*
X160475116Y-64544818D01*
X160269191Y-64565099D01*
X160071164Y-64625169D01*
X159888671Y-64722714D01*
X159728709Y-64853991D01*
X159597432Y-65013953D01*
X159499887Y-65196446D01*
X159439817Y-65394473D01*
X159419536Y-65600397D01*
X158990702Y-65600397D01*
X158970420Y-65394473D01*
X158970419Y-65394471D01*
X158970419Y-65394467D01*
X158910351Y-65196447D01*
X158812804Y-65013951D01*
X158681529Y-64853991D01*
X158521569Y-64722716D01*
X158521567Y-64722715D01*
X158521566Y-64722714D01*
X158339073Y-64625169D01*
X158257479Y-64600418D01*
X158141053Y-64565101D01*
X158141052Y-64565100D01*
X158141046Y-64565099D01*
X157935122Y-64544818D01*
X157935116Y-64544818D01*
X157729191Y-64565099D01*
X157531164Y-64625169D01*
X157348671Y-64722714D01*
X157188709Y-64853991D01*
X157057432Y-65013953D01*
X156959887Y-65196446D01*
X156899817Y-65394473D01*
X156879536Y-65600397D01*
X156450702Y-65600397D01*
X156430420Y-65394473D01*
X156430419Y-65394471D01*
X156430419Y-65394467D01*
X156370351Y-65196447D01*
X156272804Y-65013951D01*
X156141529Y-64853991D01*
X155981569Y-64722716D01*
X155981567Y-64722715D01*
X155981566Y-64722714D01*
X155799073Y-64625169D01*
X155717479Y-64600418D01*
X155601053Y-64565101D01*
X155601052Y-64565100D01*
X155601046Y-64565099D01*
X155395122Y-64544818D01*
X155395116Y-64544818D01*
X155189191Y-64565099D01*
X154991164Y-64625169D01*
X154808671Y-64722714D01*
X154648709Y-64853991D01*
X154517432Y-65013953D01*
X154419887Y-65196446D01*
X154359817Y-65394473D01*
X154339536Y-65600397D01*
X153910702Y-65600397D01*
X153890420Y-65394473D01*
X153890419Y-65394471D01*
X153890419Y-65394467D01*
X153830351Y-65196447D01*
X153732804Y-65013951D01*
X153601529Y-64853991D01*
X153441569Y-64722716D01*
X153441567Y-64722715D01*
X153441566Y-64722714D01*
X153259073Y-64625169D01*
X153177479Y-64600418D01*
X153061053Y-64565101D01*
X153061052Y-64565100D01*
X153061046Y-64565099D01*
X152855122Y-64544818D01*
X152855116Y-64544818D01*
X152649191Y-64565099D01*
X152451164Y-64625169D01*
X152268671Y-64722714D01*
X152115552Y-64848375D01*
X152050204Y-64876128D01*
X151980226Y-64864146D01*
X151927835Y-64816233D01*
X151909619Y-64750975D01*
X151909619Y-64286550D01*
X151909618Y-64286545D01*
X151909548Y-64286285D01*
X151901077Y-64254667D01*
X151901077Y-64254666D01*
X151901077Y-64254665D01*
X151890626Y-64215664D01*
X171214619Y-64215664D01*
X171214619Y-64445137D01*
X171244569Y-64672632D01*
X171247857Y-64684903D01*
X171303961Y-64894288D01*
X171391775Y-65106289D01*
X171391776Y-65106290D01*
X171391781Y-65106301D01*
X171506505Y-65305009D01*
X171506510Y-65305016D01*
X171646192Y-65487053D01*
X171646211Y-65487074D01*
X171808445Y-65649308D01*
X171808466Y-65649327D01*
X171990503Y-65789009D01*
X171990510Y-65789014D01*
X172189218Y-65903738D01*
X172189222Y-65903739D01*
X172189231Y-65903745D01*
X172401232Y-65991559D01*
X172622881Y-66050949D01*
X172622885Y-66050949D01*
X172622887Y-66050950D01*
X172677258Y-66058108D01*
X172850385Y-66080901D01*
X172850392Y-66080901D01*
X173079846Y-66080901D01*
X173079853Y-66080901D01*
X173285464Y-66053831D01*
X173307350Y-66050950D01*
X173307350Y-66050949D01*
X173307357Y-66050949D01*
X173529006Y-65991559D01*
X173741007Y-65903745D01*
X173939731Y-65789012D01*
X174121780Y-65649320D01*
X174284038Y-65487062D01*
X174423730Y-65305013D01*
X174538463Y-65106289D01*
X174626277Y-64894288D01*
X174685667Y-64672639D01*
X174715619Y-64445135D01*
X174715619Y-64215667D01*
X174686958Y-63997970D01*
X174685668Y-63988169D01*
X174685667Y-63988167D01*
X174685667Y-63988163D01*
X174626277Y-63766514D01*
X174538463Y-63554513D01*
X174538457Y-63554504D01*
X174538456Y-63554500D01*
X174423732Y-63355792D01*
X174423727Y-63355785D01*
X174284045Y-63173748D01*
X174284026Y-63173727D01*
X174121792Y-63011493D01*
X174121771Y-63011474D01*
X173939734Y-62871792D01*
X173939727Y-62871787D01*
X173741019Y-62757063D01*
X173741011Y-62757059D01*
X173741007Y-62757057D01*
X173529006Y-62669243D01*
X173307357Y-62609853D01*
X173307350Y-62609851D01*
X173079855Y-62579901D01*
X173079853Y-62579901D01*
X172850385Y-62579901D01*
X172850382Y-62579901D01*
X172622887Y-62609851D01*
X172448988Y-62656447D01*
X172401232Y-62669243D01*
X172331532Y-62698114D01*
X172189229Y-62757058D01*
X172189218Y-62757063D01*
X171990510Y-62871787D01*
X171990503Y-62871792D01*
X171808466Y-63011474D01*
X171808445Y-63011493D01*
X171646211Y-63173727D01*
X171646192Y-63173748D01*
X171506510Y-63355785D01*
X171506505Y-63355792D01*
X171391781Y-63554500D01*
X171391776Y-63554511D01*
X171391775Y-63554513D01*
X171353527Y-63646851D01*
X171303961Y-63766514D01*
X171244569Y-63988169D01*
X171214619Y-64215664D01*
X151890626Y-64215664D01*
X151887439Y-64203769D01*
X151887438Y-64203768D01*
X151887437Y-64203762D01*
X151857396Y-64151729D01*
X151844586Y-64129542D01*
X151844581Y-64129536D01*
X151581014Y-63865969D01*
X151317384Y-63602339D01*
X151283361Y-63540029D01*
X151288425Y-63469214D01*
X151290074Y-63465022D01*
X151290342Y-63464370D01*
X151290351Y-63464355D01*
X151350419Y-63266335D01*
X151354492Y-63224987D01*
X151370702Y-63060404D01*
X151370702Y-63060397D01*
X151799536Y-63060397D01*
X151799536Y-63060404D01*
X151819817Y-63266328D01*
X151879887Y-63464355D01*
X151953641Y-63602339D01*
X151977434Y-63646851D01*
X152108709Y-63806811D01*
X152268669Y-63938086D01*
X152451165Y-64035633D01*
X152649185Y-64095701D01*
X152649189Y-64095701D01*
X152649191Y-64095702D01*
X152855116Y-64115984D01*
X152855119Y-64115984D01*
X152855122Y-64115984D01*
X153061046Y-64095702D01*
X153061047Y-64095701D01*
X153061053Y-64095701D01*
X153259073Y-64035633D01*
X153441569Y-63938086D01*
X153601529Y-63806811D01*
X153732804Y-63646851D01*
X153830351Y-63464355D01*
X153890419Y-63266335D01*
X153894492Y-63224987D01*
X153910702Y-63060404D01*
X153910702Y-63060397D01*
X156879536Y-63060397D01*
X156879536Y-63060404D01*
X156899817Y-63266328D01*
X156959887Y-63464355D01*
X157033641Y-63602339D01*
X157057434Y-63646851D01*
X157188709Y-63806811D01*
X157348669Y-63938086D01*
X157531165Y-64035633D01*
X157729185Y-64095701D01*
X157729189Y-64095701D01*
X157729191Y-64095702D01*
X157935116Y-64115984D01*
X157935119Y-64115984D01*
X157935122Y-64115984D01*
X158141046Y-64095702D01*
X158141047Y-64095701D01*
X158141053Y-64095701D01*
X158339073Y-64035633D01*
X158521569Y-63938086D01*
X158681529Y-63806811D01*
X158812804Y-63646851D01*
X158910351Y-63464355D01*
X158970419Y-63266335D01*
X158974492Y-63224987D01*
X158990702Y-63060404D01*
X158990702Y-63060397D01*
X161959536Y-63060397D01*
X161959536Y-63060404D01*
X161979817Y-63266328D01*
X162039887Y-63464355D01*
X162113641Y-63602339D01*
X162137434Y-63646851D01*
X162268709Y-63806811D01*
X162428669Y-63938086D01*
X162611165Y-64035633D01*
X162809185Y-64095701D01*
X162809189Y-64095701D01*
X162809191Y-64095702D01*
X163015116Y-64115984D01*
X163015119Y-64115984D01*
X163015122Y-64115984D01*
X163221046Y-64095702D01*
X163221047Y-64095701D01*
X163221053Y-64095701D01*
X163419073Y-64035633D01*
X163601569Y-63938086D01*
X163761529Y-63806811D01*
X163892804Y-63646851D01*
X163990351Y-63464355D01*
X164050419Y-63266335D01*
X164054492Y-63224987D01*
X164070702Y-63060404D01*
X164070702Y-63060397D01*
X164499536Y-63060397D01*
X164499536Y-63060404D01*
X164519817Y-63266328D01*
X164579887Y-63464355D01*
X164653641Y-63602339D01*
X164677434Y-63646851D01*
X164808709Y-63806811D01*
X164968669Y-63938086D01*
X165151165Y-64035633D01*
X165349185Y-64095701D01*
X165349189Y-64095701D01*
X165349191Y-64095702D01*
X165555116Y-64115984D01*
X165555119Y-64115984D01*
X165555122Y-64115984D01*
X165761046Y-64095702D01*
X165761047Y-64095701D01*
X165761053Y-64095701D01*
X165959073Y-64035633D01*
X166141569Y-63938086D01*
X166301529Y-63806811D01*
X166432804Y-63646851D01*
X166530351Y-63464355D01*
X166590419Y-63266335D01*
X166594492Y-63224987D01*
X166610702Y-63060404D01*
X166610702Y-63060397D01*
X167039536Y-63060397D01*
X167039536Y-63060404D01*
X167059817Y-63266328D01*
X167119887Y-63464355D01*
X167193641Y-63602339D01*
X167217434Y-63646851D01*
X167348709Y-63806811D01*
X167508669Y-63938086D01*
X167691165Y-64035633D01*
X167889185Y-64095701D01*
X167889189Y-64095701D01*
X167889191Y-64095702D01*
X168095116Y-64115984D01*
X168095119Y-64115984D01*
X168095122Y-64115984D01*
X168301046Y-64095702D01*
X168301047Y-64095701D01*
X168301053Y-64095701D01*
X168499073Y-64035633D01*
X168681569Y-63938086D01*
X168841529Y-63806811D01*
X168972804Y-63646851D01*
X169070351Y-63464355D01*
X169130419Y-63266335D01*
X169134492Y-63224987D01*
X169150702Y-63060404D01*
X169150702Y-63060397D01*
X169130420Y-62854473D01*
X169130419Y-62854471D01*
X169130419Y-62854467D01*
X169070351Y-62656447D01*
X168972804Y-62473951D01*
X168841529Y-62313991D01*
X168681569Y-62182716D01*
X168681567Y-62182715D01*
X168681566Y-62182714D01*
X168499073Y-62085169D01*
X168301046Y-62025099D01*
X168095122Y-62004818D01*
X168095116Y-62004818D01*
X167889191Y-62025099D01*
X167691164Y-62085169D01*
X167508671Y-62182714D01*
X167348709Y-62313991D01*
X167217432Y-62473953D01*
X167119887Y-62656446D01*
X167059817Y-62854473D01*
X167039536Y-63060397D01*
X166610702Y-63060397D01*
X166590420Y-62854473D01*
X166590419Y-62854471D01*
X166590419Y-62854467D01*
X166530351Y-62656447D01*
X166432804Y-62473951D01*
X166301529Y-62313991D01*
X166141569Y-62182716D01*
X166141567Y-62182715D01*
X166141566Y-62182714D01*
X165959073Y-62085169D01*
X165761046Y-62025099D01*
X165555122Y-62004818D01*
X165555116Y-62004818D01*
X165349191Y-62025099D01*
X165151164Y-62085169D01*
X164968671Y-62182714D01*
X164808709Y-62313991D01*
X164677432Y-62473953D01*
X164579887Y-62656446D01*
X164519817Y-62854473D01*
X164499536Y-63060397D01*
X164070702Y-63060397D01*
X164050420Y-62854473D01*
X164050419Y-62854471D01*
X164050419Y-62854467D01*
X163990351Y-62656447D01*
X163892804Y-62473951D01*
X163761529Y-62313991D01*
X163601569Y-62182716D01*
X163601567Y-62182715D01*
X163601566Y-62182714D01*
X163419073Y-62085169D01*
X163221046Y-62025099D01*
X163015122Y-62004818D01*
X163015116Y-62004818D01*
X162809191Y-62025099D01*
X162611164Y-62085169D01*
X162428671Y-62182714D01*
X162268709Y-62313991D01*
X162137432Y-62473953D01*
X162039887Y-62656446D01*
X161979817Y-62854473D01*
X161959536Y-63060397D01*
X158990702Y-63060397D01*
X158970420Y-62854473D01*
X158970419Y-62854471D01*
X158970419Y-62854467D01*
X158910351Y-62656447D01*
X158812804Y-62473951D01*
X158681529Y-62313991D01*
X158521569Y-62182716D01*
X158521567Y-62182715D01*
X158521566Y-62182714D01*
X158339073Y-62085169D01*
X158141046Y-62025099D01*
X157935122Y-62004818D01*
X157935116Y-62004818D01*
X157729191Y-62025099D01*
X157531164Y-62085169D01*
X157348671Y-62182714D01*
X157188709Y-62313991D01*
X157057432Y-62473953D01*
X156959887Y-62656446D01*
X156899817Y-62854473D01*
X156879536Y-63060397D01*
X153910702Y-63060397D01*
X153890420Y-62854473D01*
X153890419Y-62854471D01*
X153890419Y-62854467D01*
X153830351Y-62656447D01*
X153732804Y-62473951D01*
X153601529Y-62313991D01*
X153441569Y-62182716D01*
X153441567Y-62182715D01*
X153441566Y-62182714D01*
X153259073Y-62085169D01*
X153061046Y-62025099D01*
X152855122Y-62004818D01*
X152855116Y-62004818D01*
X152649191Y-62025099D01*
X152451164Y-62085169D01*
X152268671Y-62182714D01*
X152108709Y-62313991D01*
X151977432Y-62473953D01*
X151879887Y-62656446D01*
X151819817Y-62854473D01*
X151799536Y-63060397D01*
X151370702Y-63060397D01*
X151350420Y-62854473D01*
X151350419Y-62854471D01*
X151350419Y-62854467D01*
X151290351Y-62656447D01*
X151192804Y-62473951D01*
X151061529Y-62313991D01*
X150901569Y-62182716D01*
X150901567Y-62182715D01*
X150901566Y-62182714D01*
X150719073Y-62085169D01*
X150521046Y-62025099D01*
X150315122Y-62004818D01*
X150315116Y-62004818D01*
X150109191Y-62025099D01*
X149911164Y-62085169D01*
X149728671Y-62182714D01*
X149568709Y-62313991D01*
X149437432Y-62473953D01*
X149339887Y-62656446D01*
X149279817Y-62854473D01*
X149259536Y-63060397D01*
X149259536Y-63060404D01*
X149279817Y-63266328D01*
X149339887Y-63464355D01*
X149413641Y-63602339D01*
X149437434Y-63646851D01*
X149568709Y-63806811D01*
X149728669Y-63938086D01*
X149911165Y-64035633D01*
X150109185Y-64095701D01*
X150109189Y-64095701D01*
X150109191Y-64095702D01*
X150315116Y-64115984D01*
X150315119Y-64115984D01*
X150315122Y-64115984D01*
X150521046Y-64095702D01*
X150521047Y-64095701D01*
X150521053Y-64095701D01*
X150719073Y-64035633D01*
X150719088Y-64035624D01*
X150719740Y-64035356D01*
X150720121Y-64035314D01*
X150724997Y-64033836D01*
X150725277Y-64034760D01*
X150790330Y-64027764D01*
X150853818Y-64059540D01*
X150857059Y-64062668D01*
X151221714Y-64427323D01*
X151255740Y-64489635D01*
X151258619Y-64516418D01*
X151258619Y-66757743D01*
X151258619Y-66843449D01*
X151280801Y-66926235D01*
X151280802Y-66926237D01*
X151280803Y-66926239D01*
X151323651Y-67000454D01*
X151323659Y-67000464D01*
X152590675Y-68267479D01*
X152624700Y-68329791D01*
X152619636Y-68400606D01*
X152577089Y-68457442D01*
X152549799Y-68472982D01*
X152481283Y-68501362D01*
X152481276Y-68501366D01*
X152355837Y-68597619D01*
X152259584Y-68723058D01*
X152259582Y-68723061D01*
X152199074Y-68869140D01*
X152178437Y-69025900D01*
X152178437Y-69025901D01*
X152199074Y-69182661D01*
X152226335Y-69248474D01*
X152233924Y-69319064D01*
X152202144Y-69382551D01*
X152141086Y-69418778D01*
X152070135Y-69416244D01*
X152020831Y-69385787D01*
X150875287Y-68240243D01*
X148777386Y-66142341D01*
X148743360Y-66080029D01*
X148748425Y-66009213D01*
X148750074Y-66005022D01*
X148750342Y-66004370D01*
X148750351Y-66004355D01*
X148810419Y-65806335D01*
X148812126Y-65789009D01*
X148830702Y-65600404D01*
X148830702Y-65600397D01*
X148810420Y-65394473D01*
X148810419Y-65394471D01*
X148810419Y-65394467D01*
X148750351Y-65196447D01*
X148652804Y-65013951D01*
X148521529Y-64853991D01*
X148361569Y-64722716D01*
X148361567Y-64722715D01*
X148361566Y-64722714D01*
X148179073Y-64625169D01*
X148097479Y-64600418D01*
X147981053Y-64565101D01*
X147981052Y-64565100D01*
X147981046Y-64565099D01*
X147775122Y-64544818D01*
X147775116Y-64544818D01*
X147569191Y-64565099D01*
X147371164Y-64625169D01*
X147188671Y-64722714D01*
X147040552Y-64844271D01*
X146975204Y-64872024D01*
X146905226Y-64860042D01*
X146852835Y-64812129D01*
X146834619Y-64746871D01*
X146834619Y-64513418D01*
X146854621Y-64445297D01*
X146871519Y-64424327D01*
X147233179Y-64062666D01*
X147295490Y-64028643D01*
X147366305Y-64033707D01*
X147370490Y-64035354D01*
X147371159Y-64035631D01*
X147371164Y-64035632D01*
X147371165Y-64035633D01*
X147569185Y-64095701D01*
X147569189Y-64095701D01*
X147569191Y-64095702D01*
X147775116Y-64115984D01*
X147775119Y-64115984D01*
X147775122Y-64115984D01*
X147981046Y-64095702D01*
X147981047Y-64095701D01*
X147981053Y-64095701D01*
X148179073Y-64035633D01*
X148361569Y-63938086D01*
X148521529Y-63806811D01*
X148652804Y-63646851D01*
X148750351Y-63464355D01*
X148810419Y-63266335D01*
X148814492Y-63224987D01*
X148830702Y-63060404D01*
X148830702Y-63060397D01*
X148810420Y-62854473D01*
X148810419Y-62854471D01*
X148810419Y-62854467D01*
X148750351Y-62656447D01*
X148652804Y-62473951D01*
X148521529Y-62313991D01*
X148361569Y-62182716D01*
X148361567Y-62182715D01*
X148361566Y-62182714D01*
X148179073Y-62085169D01*
X147981046Y-62025099D01*
X147775122Y-62004818D01*
X147775116Y-62004818D01*
X147569191Y-62025099D01*
X147371164Y-62085169D01*
X147188671Y-62182714D01*
X147028709Y-62313991D01*
X146897432Y-62473953D01*
X146799887Y-62656446D01*
X146739817Y-62854473D01*
X146719536Y-63060397D01*
X146719536Y-63060404D01*
X146739817Y-63266328D01*
X146799886Y-63464352D01*
X146800164Y-63465023D01*
X146800204Y-63465402D01*
X146801684Y-63470279D01*
X146800759Y-63470559D01*
X146807755Y-63535613D01*
X146775977Y-63599101D01*
X146772852Y-63602339D01*
X146248656Y-64126536D01*
X146248651Y-64126542D01*
X146205803Y-64200757D01*
X146205802Y-64200759D01*
X146205801Y-64200762D01*
X146187441Y-64269285D01*
X146183619Y-64283548D01*
X146183619Y-64753437D01*
X146163617Y-64821558D01*
X146109961Y-64868051D01*
X146039687Y-64878155D01*
X145977686Y-64850837D01*
X145861002Y-64755078D01*
X145821569Y-64722716D01*
X145821567Y-64722715D01*
X145821566Y-64722714D01*
X145639073Y-64625169D01*
X145557479Y-64600418D01*
X145441053Y-64565101D01*
X145441052Y-64565100D01*
X145441046Y-64565099D01*
X145235122Y-64544818D01*
X145235116Y-64544818D01*
X145029191Y-64565099D01*
X144831164Y-64625169D01*
X144648671Y-64722714D01*
X144490552Y-64852478D01*
X144425204Y-64880231D01*
X144355226Y-64868249D01*
X144302835Y-64820336D01*
X144284619Y-64755078D01*
X144284619Y-64523417D01*
X144304621Y-64455296D01*
X144321518Y-64434327D01*
X144693181Y-64062664D01*
X144755490Y-64028642D01*
X144826305Y-64033706D01*
X144830506Y-64035359D01*
X144831154Y-64035627D01*
X144831165Y-64035633D01*
X145029185Y-64095701D01*
X145029189Y-64095701D01*
X145029191Y-64095702D01*
X145235116Y-64115984D01*
X145235119Y-64115984D01*
X145235122Y-64115984D01*
X145441046Y-64095702D01*
X145441047Y-64095701D01*
X145441053Y-64095701D01*
X145639073Y-64035633D01*
X145821569Y-63938086D01*
X145981529Y-63806811D01*
X146112804Y-63646851D01*
X146210351Y-63464355D01*
X146270419Y-63266335D01*
X146274492Y-63224987D01*
X146290702Y-63060404D01*
X146290702Y-63060397D01*
X146270420Y-62854473D01*
X146270419Y-62854471D01*
X146270419Y-62854467D01*
X146210351Y-62656447D01*
X146112804Y-62473951D01*
X145981529Y-62313991D01*
X145821569Y-62182716D01*
X145821567Y-62182715D01*
X145821566Y-62182714D01*
X145639073Y-62085169D01*
X145441046Y-62025099D01*
X145235122Y-62004818D01*
X145235116Y-62004818D01*
X145029191Y-62025099D01*
X144831164Y-62085169D01*
X144648671Y-62182714D01*
X144488709Y-62313991D01*
X144357432Y-62473953D01*
X144259887Y-62656446D01*
X144199817Y-62854473D01*
X144179536Y-63060397D01*
X144179536Y-63060404D01*
X144199817Y-63266328D01*
X144259886Y-63464352D01*
X144260164Y-63465023D01*
X144260204Y-63465402D01*
X144261684Y-63470279D01*
X144260759Y-63470559D01*
X144267755Y-63535613D01*
X144235977Y-63599101D01*
X144232852Y-63602339D01*
X143698656Y-64136536D01*
X143698651Y-64136542D01*
X143655800Y-64210762D01*
X143655800Y-64210766D01*
X143633619Y-64293547D01*
X143633619Y-64745230D01*
X143613617Y-64813351D01*
X143559961Y-64859844D01*
X143489687Y-64869948D01*
X143427686Y-64842630D01*
X143314002Y-64749333D01*
X143281569Y-64722716D01*
X143281567Y-64722715D01*
X143281566Y-64722714D01*
X143099073Y-64625169D01*
X143017479Y-64600418D01*
X142901053Y-64565101D01*
X142901052Y-64565100D01*
X142901046Y-64565099D01*
X142695122Y-64544818D01*
X142695116Y-64544818D01*
X142489191Y-64565099D01*
X142291164Y-64625169D01*
X142108671Y-64722714D01*
X141948708Y-64853991D01*
X141908018Y-64903573D01*
X141849341Y-64943541D01*
X141778370Y-64945442D01*
X141717638Y-64908671D01*
X141686426Y-64844903D01*
X141684619Y-64823639D01*
X141684619Y-64221550D01*
X141684618Y-64221543D01*
X141679050Y-64200763D01*
X141662437Y-64138762D01*
X141624086Y-64072336D01*
X141619586Y-64064542D01*
X141619581Y-64064536D01*
X141399361Y-63844316D01*
X141157384Y-63602339D01*
X141123361Y-63540029D01*
X141128425Y-63469214D01*
X141130074Y-63465022D01*
X141130342Y-63464370D01*
X141130351Y-63464355D01*
X141190419Y-63266335D01*
X141194492Y-63224987D01*
X141210702Y-63060404D01*
X141210702Y-63060397D01*
X141190420Y-62854473D01*
X141190419Y-62854471D01*
X141190419Y-62854467D01*
X141130351Y-62656447D01*
X141032804Y-62473951D01*
X140901529Y-62313991D01*
X140741569Y-62182716D01*
X140741567Y-62182715D01*
X140741566Y-62182714D01*
X140559073Y-62085169D01*
X140361046Y-62025099D01*
X140155122Y-62004818D01*
X140155116Y-62004818D01*
X139949191Y-62025099D01*
X139751164Y-62085169D01*
X139568671Y-62182714D01*
X139408709Y-62313991D01*
X139277432Y-62473953D01*
X139179887Y-62656446D01*
X139119817Y-62854473D01*
X139099536Y-63060397D01*
X139099536Y-63060404D01*
X139119817Y-63266328D01*
X139179887Y-63464355D01*
X139253641Y-63602339D01*
X139277434Y-63646851D01*
X139408709Y-63806811D01*
X139568669Y-63938086D01*
X139751165Y-64035633D01*
X139949185Y-64095701D01*
X139949189Y-64095701D01*
X139949191Y-64095702D01*
X140155116Y-64115984D01*
X140155119Y-64115984D01*
X140155122Y-64115984D01*
X140361046Y-64095702D01*
X140361047Y-64095701D01*
X140361053Y-64095701D01*
X140559073Y-64035633D01*
X140559088Y-64035624D01*
X140559740Y-64035356D01*
X140560121Y-64035314D01*
X140564997Y-64033836D01*
X140565277Y-64034760D01*
X140630330Y-64027764D01*
X140693818Y-64059540D01*
X140697059Y-64062668D01*
X140996714Y-64362323D01*
X141030740Y-64424635D01*
X141033619Y-64451418D01*
X141033619Y-64695990D01*
X141013617Y-64764111D01*
X140959961Y-64810604D01*
X140889687Y-64820708D01*
X140827686Y-64793390D01*
X140774002Y-64749333D01*
X140741569Y-64722716D01*
X140741567Y-64722715D01*
X140741566Y-64722714D01*
X140559073Y-64625169D01*
X140477479Y-64600418D01*
X140361053Y-64565101D01*
X140361052Y-64565100D01*
X140361046Y-64565099D01*
X140155122Y-64544818D01*
X140155116Y-64544818D01*
X139949191Y-64565099D01*
X139751164Y-64625169D01*
X139568671Y-64722714D01*
X139417552Y-64846733D01*
X139352204Y-64874486D01*
X139282226Y-64862504D01*
X139229835Y-64814591D01*
X139211619Y-64749333D01*
X139211619Y-64286285D01*
X139211618Y-64286281D01*
X139189300Y-64202991D01*
X139189299Y-64202988D01*
X139146186Y-64128314D01*
X139146182Y-64128309D01*
X139117640Y-64099767D01*
X139085209Y-64067336D01*
X138618214Y-63600341D01*
X138584188Y-63538029D01*
X138589023Y-63470421D01*
X138588554Y-63470279D01*
X138589181Y-63468209D01*
X138589253Y-63467214D01*
X138590260Y-63464652D01*
X138590348Y-63464358D01*
X138590351Y-63464355D01*
X138650419Y-63266335D01*
X138654492Y-63224987D01*
X138670702Y-63060404D01*
X138670702Y-63060397D01*
X138650420Y-62854473D01*
X138650419Y-62854471D01*
X138650419Y-62854467D01*
X138590351Y-62656447D01*
X138492804Y-62473951D01*
X138361529Y-62313991D01*
X138201569Y-62182716D01*
X138201567Y-62182715D01*
X138201566Y-62182714D01*
X138019073Y-62085169D01*
X137821046Y-62025099D01*
X137615122Y-62004818D01*
X137615116Y-62004818D01*
X137409191Y-62025099D01*
X137211164Y-62085169D01*
X137028671Y-62182714D01*
X136868709Y-62313991D01*
X136737432Y-62473953D01*
X136639887Y-62656446D01*
X136579817Y-62854473D01*
X136559536Y-63060397D01*
X136559536Y-63060404D01*
X136579817Y-63266328D01*
X136639887Y-63464355D01*
X136713641Y-63602339D01*
X136737434Y-63646851D01*
X136868709Y-63806811D01*
X137028669Y-63938086D01*
X137211165Y-64035633D01*
X137409185Y-64095701D01*
X137409189Y-64095701D01*
X137409191Y-64095702D01*
X137615116Y-64115984D01*
X137615119Y-64115984D01*
X137615122Y-64115984D01*
X137821046Y-64095702D01*
X137821047Y-64095701D01*
X137821053Y-64095701D01*
X138019073Y-64035633D01*
X138019073Y-64035632D01*
X138024997Y-64033836D01*
X138025458Y-64035356D01*
X138088317Y-64028590D01*
X138151809Y-64060359D01*
X138155059Y-64063496D01*
X138519714Y-64428151D01*
X138553740Y-64490463D01*
X138556619Y-64517246D01*
X138556619Y-64747692D01*
X138536617Y-64815813D01*
X138482961Y-64862306D01*
X138412687Y-64872410D01*
X138350686Y-64845092D01*
X138234002Y-64749333D01*
X138201569Y-64722716D01*
X138201567Y-64722715D01*
X138201566Y-64722714D01*
X138019073Y-64625169D01*
X137937479Y-64600418D01*
X137821053Y-64565101D01*
X137821052Y-64565100D01*
X137821046Y-64565099D01*
X137615122Y-64544818D01*
X137615116Y-64544818D01*
X137409191Y-64565099D01*
X137211164Y-64625169D01*
X137028671Y-64722714D01*
X136868709Y-64853991D01*
X136737432Y-65013953D01*
X136639887Y-65196446D01*
X136579817Y-65394473D01*
X136559536Y-65600397D01*
X136559536Y-65600404D01*
X136579817Y-65806328D01*
X136639887Y-66004355D01*
X136736618Y-66185326D01*
X136737434Y-66186851D01*
X136868709Y-66346811D01*
X136868710Y-66346812D01*
X136868712Y-66346814D01*
X136868715Y-66346817D01*
X136909551Y-66380329D01*
X136949521Y-66439005D01*
X136955619Y-66477729D01*
X136955619Y-66713556D01*
X136935617Y-66781677D01*
X136881961Y-66828170D01*
X136811687Y-66838274D01*
X136747107Y-66808780D01*
X136740524Y-66802651D01*
X136078214Y-66140341D01*
X136044188Y-66078029D01*
X136049023Y-66010421D01*
X136048554Y-66010279D01*
X136049181Y-66008209D01*
X136049253Y-66007214D01*
X136050260Y-66004652D01*
X136050348Y-66004358D01*
X136050351Y-66004355D01*
X136110419Y-65806335D01*
X136112126Y-65789009D01*
X136130702Y-65600404D01*
X136130702Y-65600397D01*
X136110420Y-65394473D01*
X136110419Y-65394471D01*
X136110419Y-65394467D01*
X136050351Y-65196447D01*
X135952804Y-65013951D01*
X135821529Y-64853991D01*
X135661569Y-64722716D01*
X135661567Y-64722715D01*
X135661566Y-64722714D01*
X135479073Y-64625169D01*
X135397479Y-64600418D01*
X135281053Y-64565101D01*
X135281052Y-64565100D01*
X135281046Y-64565099D01*
X135075122Y-64544818D01*
X135075116Y-64544818D01*
X134869191Y-64565099D01*
X134671164Y-64625169D01*
X134488671Y-64722714D01*
X134342552Y-64842630D01*
X134277204Y-64870383D01*
X134207226Y-64858401D01*
X134154835Y-64810488D01*
X134136619Y-64745230D01*
X134136619Y-64291285D01*
X134136618Y-64291281D01*
X134114300Y-64207991D01*
X134114299Y-64207988D01*
X134071186Y-64133314D01*
X134071182Y-64133309D01*
X134053857Y-64115984D01*
X134010209Y-64072336D01*
X133538214Y-63600341D01*
X133504188Y-63538029D01*
X133509023Y-63470421D01*
X133508554Y-63470279D01*
X133509181Y-63468209D01*
X133509253Y-63467214D01*
X133510260Y-63464652D01*
X133510348Y-63464358D01*
X133510351Y-63464355D01*
X133570419Y-63266335D01*
X133574492Y-63224987D01*
X133590702Y-63060404D01*
X133590702Y-63060397D01*
X133570420Y-62854473D01*
X133570419Y-62854471D01*
X133570419Y-62854467D01*
X133510351Y-62656447D01*
X133412804Y-62473951D01*
X133281529Y-62313991D01*
X133121569Y-62182716D01*
X133121567Y-62182715D01*
X133121566Y-62182714D01*
X132939073Y-62085169D01*
X132741046Y-62025099D01*
X132535122Y-62004818D01*
X132535116Y-62004818D01*
X132329191Y-62025099D01*
X132131164Y-62085169D01*
X131948671Y-62182714D01*
X131788709Y-62313991D01*
X131657432Y-62473953D01*
X131559887Y-62656446D01*
X131499817Y-62854473D01*
X131479536Y-63060397D01*
X131479536Y-63060404D01*
X131499817Y-63266328D01*
X131559887Y-63464355D01*
X131633641Y-63602339D01*
X131657434Y-63646851D01*
X131788709Y-63806811D01*
X131948669Y-63938086D01*
X132131165Y-64035633D01*
X132329185Y-64095701D01*
X132329189Y-64095701D01*
X132329191Y-64095702D01*
X132535116Y-64115984D01*
X132535119Y-64115984D01*
X132535122Y-64115984D01*
X132741046Y-64095702D01*
X132741047Y-64095701D01*
X132741053Y-64095701D01*
X132939073Y-64035633D01*
X132939073Y-64035632D01*
X132944997Y-64033836D01*
X132945458Y-64035356D01*
X133008317Y-64028590D01*
X133071809Y-64060359D01*
X133075059Y-64063496D01*
X133444714Y-64433151D01*
X133478740Y-64495463D01*
X133481619Y-64522246D01*
X133481619Y-64751795D01*
X133461617Y-64819916D01*
X133407961Y-64866409D01*
X133337687Y-64876513D01*
X133275686Y-64849195D01*
X133154002Y-64749333D01*
X133121569Y-64722716D01*
X133121567Y-64722715D01*
X133121566Y-64722714D01*
X132939073Y-64625169D01*
X132857479Y-64600418D01*
X132741053Y-64565101D01*
X132741052Y-64565100D01*
X132741046Y-64565099D01*
X132535122Y-64544818D01*
X132535116Y-64544818D01*
X132329191Y-64565099D01*
X132131164Y-64625169D01*
X131948671Y-64722714D01*
X131788710Y-64853989D01*
X131756096Y-64893730D01*
X131697418Y-64933698D01*
X131626447Y-64935598D01*
X131565715Y-64898826D01*
X131542284Y-64862004D01*
X131539296Y-64854788D01*
X131496186Y-64780120D01*
X131496182Y-64780115D01*
X131467042Y-64750975D01*
X131435209Y-64719142D01*
X130766403Y-64050336D01*
X130766401Y-64050335D01*
X130766399Y-64050333D01*
X130735269Y-64032360D01*
X130686277Y-63980977D01*
X130672842Y-63911263D01*
X130699229Y-63845353D01*
X130718331Y-63825848D01*
X130741529Y-63806811D01*
X130872804Y-63646851D01*
X130970351Y-63464355D01*
X131030419Y-63266335D01*
X131034492Y-63224987D01*
X131050702Y-63060404D01*
X131050702Y-63060397D01*
X131030420Y-62854473D01*
X131030419Y-62854471D01*
X131030419Y-62854467D01*
X130970351Y-62656447D01*
X130872804Y-62473951D01*
X130741529Y-62313991D01*
X130581569Y-62182716D01*
X130581567Y-62182715D01*
X130581566Y-62182714D01*
X130399073Y-62085169D01*
X130201046Y-62025099D01*
X129995122Y-62004818D01*
X129995116Y-62004818D01*
X129789191Y-62025099D01*
X129591164Y-62085169D01*
X129408671Y-62182714D01*
X129248709Y-62313991D01*
X129117432Y-62473953D01*
X129019887Y-62656446D01*
X128959817Y-62854473D01*
X128939536Y-63060397D01*
X128939536Y-63060404D01*
X128959817Y-63266328D01*
X129019887Y-63464355D01*
X129093641Y-63602339D01*
X129117434Y-63646851D01*
X129211932Y-63761998D01*
X129225859Y-63778968D01*
X129253612Y-63844316D01*
X129241630Y-63914294D01*
X129193717Y-63966685D01*
X129128459Y-63984901D01*
X128894964Y-63984901D01*
X128826843Y-63964899D01*
X128805869Y-63947996D01*
X128458214Y-63600341D01*
X128424188Y-63538029D01*
X128429023Y-63470421D01*
X128428554Y-63470279D01*
X128429181Y-63468209D01*
X128429253Y-63467214D01*
X128430260Y-63464652D01*
X128430348Y-63464358D01*
X128430351Y-63464355D01*
X128490419Y-63266335D01*
X128494492Y-63224987D01*
X128510702Y-63060404D01*
X128510702Y-63060397D01*
X128490420Y-62854473D01*
X128490419Y-62854471D01*
X128490419Y-62854467D01*
X128430351Y-62656447D01*
X128332804Y-62473951D01*
X128201529Y-62313991D01*
X128041569Y-62182716D01*
X128041567Y-62182715D01*
X128041566Y-62182714D01*
X127859073Y-62085169D01*
X127661046Y-62025099D01*
X127455122Y-62004818D01*
X127455116Y-62004818D01*
X127249191Y-62025099D01*
X127051164Y-62085169D01*
X126868671Y-62182714D01*
X126708709Y-62313991D01*
X126577432Y-62473953D01*
X126479887Y-62656446D01*
X126419817Y-62854473D01*
X126399536Y-63060397D01*
X126399536Y-63060404D01*
X126419817Y-63266328D01*
X126479887Y-63464355D01*
X126553641Y-63602339D01*
X126577434Y-63646851D01*
X126708709Y-63806811D01*
X126868669Y-63938086D01*
X127051165Y-64035633D01*
X127249185Y-64095701D01*
X127249189Y-64095701D01*
X127249191Y-64095702D01*
X127455116Y-64115984D01*
X127455119Y-64115984D01*
X127455122Y-64115984D01*
X127661046Y-64095702D01*
X127661047Y-64095701D01*
X127661053Y-64095701D01*
X127859073Y-64035633D01*
X127859073Y-64035632D01*
X127864997Y-64033836D01*
X127865458Y-64035356D01*
X127928317Y-64028590D01*
X127991809Y-64060359D01*
X127995031Y-64063468D01*
X128506029Y-64574466D01*
X128506030Y-64574467D01*
X128506032Y-64574468D01*
X128580706Y-64617581D01*
X128580709Y-64617582D01*
X128620704Y-64628299D01*
X128664003Y-64639901D01*
X128750235Y-64639901D01*
X130377468Y-64639901D01*
X130445589Y-64659903D01*
X130466563Y-64676806D01*
X130869714Y-65079957D01*
X130903740Y-65142269D01*
X130906619Y-65169052D01*
X130906619Y-66330520D01*
X130928937Y-66413810D01*
X130928938Y-66413813D01*
X130972051Y-66488487D01*
X130972059Y-66488497D01*
X131733022Y-67249460D01*
X131733027Y-67249464D01*
X131733029Y-67249466D01*
X131807708Y-67292582D01*
X131891003Y-67314901D01*
X132499363Y-67314901D01*
X132567484Y-67334903D01*
X132613977Y-67388559D01*
X132624081Y-67458833D01*
X132599326Y-67517603D01*
X132584136Y-67537401D01*
X132509584Y-67634558D01*
X132509582Y-67634561D01*
X132449074Y-67780640D01*
X132428437Y-67937400D01*
X132428437Y-67937401D01*
X132449074Y-68094161D01*
X132470224Y-68145220D01*
X132509583Y-68240242D01*
X132605837Y-68365683D01*
X132731278Y-68461937D01*
X132877357Y-68522445D01*
X133034119Y-68543083D01*
X133190881Y-68522445D01*
X133336960Y-68461937D01*
X133409730Y-68406099D01*
X133475950Y-68380498D01*
X133545499Y-68394763D01*
X133575529Y-68416966D01*
X134648714Y-69490151D01*
X134682740Y-69552463D01*
X134685619Y-69579246D01*
X134685619Y-70966548D01*
X134665617Y-71034669D01*
X134611961Y-71081162D01*
X134541687Y-71091266D01*
X134479685Y-71063947D01*
X134342657Y-70951491D01*
X134168847Y-70858587D01*
X133980244Y-70801375D01*
X133784122Y-70782060D01*
X133784116Y-70782060D01*
X133587994Y-70801375D01*
X133587992Y-70801375D01*
X133409565Y-70855501D01*
X133338571Y-70856134D01*
X133283894Y-70824021D01*
X128491636Y-66031763D01*
X128457610Y-65969451D01*
X128460156Y-65906095D01*
X128490419Y-65806335D01*
X128492125Y-65789012D01*
X128510702Y-65600404D01*
X128510702Y-65600397D01*
X128490420Y-65394473D01*
X128490419Y-65394471D01*
X128490419Y-65394467D01*
X128430351Y-65196447D01*
X128332804Y-65013951D01*
X128201529Y-64853991D01*
X128041569Y-64722716D01*
X128041567Y-64722715D01*
X128041566Y-64722714D01*
X127859073Y-64625169D01*
X127777479Y-64600418D01*
X127661053Y-64565101D01*
X127661052Y-64565100D01*
X127661046Y-64565099D01*
X127455122Y-64544818D01*
X127455116Y-64544818D01*
X127249191Y-64565099D01*
X127051164Y-64625169D01*
X126868671Y-64722714D01*
X126708709Y-64853991D01*
X126577432Y-65013953D01*
X126479887Y-65196446D01*
X126419817Y-65394473D01*
X126399536Y-65600397D01*
X126399536Y-65600404D01*
X126419817Y-65806328D01*
X126479887Y-66004355D01*
X126576618Y-66185326D01*
X126577434Y-66186851D01*
X126708709Y-66346811D01*
X126868669Y-66478086D01*
X127051165Y-66575633D01*
X127249185Y-66635701D01*
X127249189Y-66635701D01*
X127249191Y-66635702D01*
X127455116Y-66655984D01*
X127455119Y-66655984D01*
X127455122Y-66655984D01*
X127661046Y-66635702D01*
X127661047Y-66635701D01*
X127661053Y-66635701D01*
X127859073Y-66575633D01*
X127939658Y-66532558D01*
X128009160Y-66518086D01*
X128075457Y-66543488D01*
X128088148Y-66554585D01*
X132820739Y-71287176D01*
X132854765Y-71349488D01*
X132852219Y-71412847D01*
X132798093Y-71591274D01*
X132798093Y-71591276D01*
X132778778Y-71787397D01*
X132778778Y-71787404D01*
X132798093Y-71983525D01*
X132798093Y-71983527D01*
X132855305Y-72172129D01*
X132911667Y-72277574D01*
X132948209Y-72345939D01*
X133073236Y-72498284D01*
X133225581Y-72623311D01*
X133399392Y-72716215D01*
X133587987Y-72773425D01*
X133587991Y-72773425D01*
X133587993Y-72773426D01*
X133784116Y-72792742D01*
X133784119Y-72792742D01*
X133784122Y-72792742D01*
X133980243Y-72773426D01*
X133980245Y-72773426D01*
X133980246Y-72773425D01*
X133980251Y-72773425D01*
X134168846Y-72716215D01*
X134342657Y-72623311D01*
X134479686Y-72510853D01*
X134545032Y-72483100D01*
X134615010Y-72495081D01*
X134667402Y-72542994D01*
X134685619Y-72608253D01*
X134685619Y-116079046D01*
X134665617Y-116147167D01*
X134648714Y-116168141D01*
X133780859Y-117035996D01*
X133718547Y-117070022D01*
X133691764Y-117072901D01*
X123687999Y-117072901D01*
X123604709Y-117095219D01*
X123604706Y-117095220D01*
X123530032Y-117138333D01*
X123530022Y-117138341D01*
X121584342Y-119084021D01*
X121522030Y-119118047D01*
X121458671Y-119115500D01*
X121280254Y-119061377D01*
X121280243Y-119061375D01*
X121084122Y-119042060D01*
X121084116Y-119042060D01*
X120887994Y-119061375D01*
X120887992Y-119061375D01*
X120699390Y-119118587D01*
X120525580Y-119211491D01*
X120373236Y-119336518D01*
X120248209Y-119488862D01*
X120155305Y-119662672D01*
X120098093Y-119851274D01*
X120098093Y-119851276D01*
X120078778Y-120047397D01*
X83270919Y-120047397D01*
X83270919Y-114956741D01*
X105934619Y-114956741D01*
X105934619Y-115179660D01*
X105963713Y-115400657D01*
X105963715Y-115400664D01*
X106021409Y-115615982D01*
X106106714Y-115821927D01*
X106106715Y-115821928D01*
X106106720Y-115821938D01*
X106218168Y-116014971D01*
X106353872Y-116191825D01*
X106353881Y-116191835D01*
X106511484Y-116349438D01*
X106511494Y-116349447D01*
X106511495Y-116349448D01*
X106688345Y-116485149D01*
X106881393Y-116596606D01*
X107087338Y-116681911D01*
X107302656Y-116739605D01*
X107302660Y-116739605D01*
X107302662Y-116739606D01*
X107359620Y-116747104D01*
X107523662Y-116768701D01*
X107523669Y-116768701D01*
X109846569Y-116768701D01*
X109846576Y-116768701D01*
X110046310Y-116742405D01*
X110067575Y-116739606D01*
X110067575Y-116739605D01*
X110067582Y-116739605D01*
X110282900Y-116681911D01*
X110488845Y-116596606D01*
X110681893Y-116485149D01*
X110858743Y-116349448D01*
X111016366Y-116191825D01*
X111152067Y-116014975D01*
X111263524Y-115821927D01*
X111348829Y-115615982D01*
X111406523Y-115400664D01*
X111408267Y-115387421D01*
X111423340Y-115272924D01*
X111435619Y-115179658D01*
X111435619Y-114956744D01*
X111406523Y-114735738D01*
X111348829Y-114520420D01*
X111263524Y-114314475D01*
X111152067Y-114121427D01*
X111016366Y-113944577D01*
X111016365Y-113944576D01*
X111016356Y-113944566D01*
X110858753Y-113786963D01*
X110858743Y-113786954D01*
X110681889Y-113651250D01*
X110488856Y-113539802D01*
X110488851Y-113539799D01*
X110488845Y-113539796D01*
X110282900Y-113454491D01*
X110067582Y-113396797D01*
X110067575Y-113396795D01*
X109846578Y-113367701D01*
X109846576Y-113367701D01*
X107523662Y-113367701D01*
X107523659Y-113367701D01*
X107302662Y-113396795D01*
X107087338Y-113454491D01*
X106881391Y-113539797D01*
X106881381Y-113539802D01*
X106688348Y-113651250D01*
X106511494Y-113786954D01*
X106511484Y-113786963D01*
X106353881Y-113944566D01*
X106353872Y-113944576D01*
X106218168Y-114121430D01*
X106106720Y-114314463D01*
X106106715Y-114314473D01*
X106021409Y-114520420D01*
X105963713Y-114735744D01*
X105934619Y-114956741D01*
X83270919Y-114956741D01*
X83270919Y-113215664D01*
X113214619Y-113215664D01*
X113214619Y-113445137D01*
X113244569Y-113672632D01*
X113244571Y-113672639D01*
X113303961Y-113894288D01*
X113391775Y-114106289D01*
X113391776Y-114106290D01*
X113391781Y-114106301D01*
X113506505Y-114305009D01*
X113506510Y-114305016D01*
X113646192Y-114487053D01*
X113646211Y-114487074D01*
X113808445Y-114649308D01*
X113808466Y-114649327D01*
X113990503Y-114789009D01*
X113990510Y-114789014D01*
X114189218Y-114903738D01*
X114189222Y-114903739D01*
X114189231Y-114903745D01*
X114401232Y-114991559D01*
X114622881Y-115050949D01*
X114622885Y-115050949D01*
X114622887Y-115050950D01*
X114681517Y-115058668D01*
X114850385Y-115080901D01*
X114850392Y-115080901D01*
X115079846Y-115080901D01*
X115079853Y-115080901D01*
X115285464Y-115053831D01*
X115307350Y-115050950D01*
X115307350Y-115050949D01*
X115307357Y-115050949D01*
X115529006Y-114991559D01*
X115741007Y-114903745D01*
X115939731Y-114789012D01*
X116121780Y-114649320D01*
X116284038Y-114487062D01*
X116423730Y-114305013D01*
X116538463Y-114106289D01*
X116626277Y-113894288D01*
X116685667Y-113672639D01*
X116715619Y-113445135D01*
X116715619Y-113215667D01*
X116685667Y-112988163D01*
X116626277Y-112766514D01*
X116538463Y-112554513D01*
X116538457Y-112554504D01*
X116538456Y-112554500D01*
X116423732Y-112355792D01*
X116423727Y-112355785D01*
X116284045Y-112173748D01*
X116284026Y-112173727D01*
X116121792Y-112011493D01*
X116121771Y-112011474D01*
X115939734Y-111871792D01*
X115939727Y-111871787D01*
X115741019Y-111757063D01*
X115741011Y-111757059D01*
X115741007Y-111757057D01*
X115529006Y-111669243D01*
X115307357Y-111609853D01*
X115307350Y-111609851D01*
X115079855Y-111579901D01*
X115079853Y-111579901D01*
X114850385Y-111579901D01*
X114850382Y-111579901D01*
X114622887Y-111609851D01*
X114401232Y-111669243D01*
X114189229Y-111757058D01*
X114189218Y-111757063D01*
X113990510Y-111871787D01*
X113990503Y-111871792D01*
X113808466Y-112011474D01*
X113808445Y-112011493D01*
X113646211Y-112173727D01*
X113646192Y-112173748D01*
X113506510Y-112355785D01*
X113506505Y-112355792D01*
X113391781Y-112554500D01*
X113391776Y-112554511D01*
X113303961Y-112766514D01*
X113244569Y-112988169D01*
X113214619Y-113215664D01*
X83270919Y-113215664D01*
X83270919Y-111579901D01*
X83270919Y-91641600D01*
X89249529Y-91641600D01*
X89269381Y-91881170D01*
X89328388Y-92114187D01*
X89328390Y-92114191D01*
X89424951Y-92334328D01*
X89556429Y-92535569D01*
X89719236Y-92712425D01*
X89908932Y-92860071D01*
X89908933Y-92860072D01*
X90120344Y-92974482D01*
X90120346Y-92974483D01*
X90239715Y-93015461D01*
X90347703Y-93052534D01*
X90584808Y-93092100D01*
X90584812Y-93092100D01*
X90825188Y-93092100D01*
X90825192Y-93092100D01*
X91062297Y-93052534D01*
X91289656Y-92974482D01*
X91501067Y-92860072D01*
X91690764Y-92712425D01*
X91853571Y-92535569D01*
X91985049Y-92334328D01*
X92081610Y-92114191D01*
X92140620Y-91881163D01*
X92160471Y-91641600D01*
X92140620Y-91402037D01*
X92081610Y-91169009D01*
X91985049Y-90948872D01*
X91853571Y-90747631D01*
X91690764Y-90570775D01*
X91501067Y-90423128D01*
X91501066Y-90423127D01*
X91289655Y-90308717D01*
X91289653Y-90308716D01*
X91062301Y-90230667D01*
X91062294Y-90230665D01*
X90960819Y-90213732D01*
X90825192Y-90191100D01*
X90584808Y-90191100D01*
X90466149Y-90210900D01*
X90347705Y-90230665D01*
X90347698Y-90230667D01*
X90120346Y-90308716D01*
X90120344Y-90308717D01*
X89908933Y-90423127D01*
X89908932Y-90423128D01*
X89719233Y-90570777D01*
X89556431Y-90747628D01*
X89424949Y-90948875D01*
X89328391Y-91169005D01*
X89328388Y-91169012D01*
X89269381Y-91402029D01*
X89249529Y-91641600D01*
X83270919Y-91641600D01*
X83270919Y-81481600D01*
X89249529Y-81481600D01*
X89269381Y-81721170D01*
X89328388Y-81954187D01*
X89328390Y-81954191D01*
X89424951Y-82174328D01*
X89556429Y-82375569D01*
X89719236Y-82552425D01*
X89908932Y-82700071D01*
X89908933Y-82700072D01*
X90120344Y-82814482D01*
X90120346Y-82814483D01*
X90239715Y-82855461D01*
X90347703Y-82892534D01*
X90584808Y-82932100D01*
X90584812Y-82932100D01*
X90825188Y-82932100D01*
X90825192Y-82932100D01*
X91062297Y-82892534D01*
X91289656Y-82814482D01*
X91501067Y-82700072D01*
X91690764Y-82552425D01*
X91853571Y-82375569D01*
X91985049Y-82174328D01*
X92081610Y-81954191D01*
X92140620Y-81721163D01*
X92160471Y-81481600D01*
X92140620Y-81242037D01*
X92081610Y-81009009D01*
X91985049Y-80788872D01*
X91853571Y-80587631D01*
X91690764Y-80410775D01*
X91501067Y-80263128D01*
X91501066Y-80263127D01*
X91289655Y-80148717D01*
X91289653Y-80148716D01*
X91062301Y-80070667D01*
X91062294Y-80070665D01*
X90960819Y-80053732D01*
X90825192Y-80031100D01*
X90584808Y-80031100D01*
X90466149Y-80050900D01*
X90347705Y-80070665D01*
X90347698Y-80070667D01*
X90120346Y-80148716D01*
X90120344Y-80148717D01*
X89908933Y-80263127D01*
X89908932Y-80263128D01*
X89719233Y-80410777D01*
X89556431Y-80587628D01*
X89424949Y-80788875D01*
X89328391Y-81009005D01*
X89328388Y-81009012D01*
X89269381Y-81242029D01*
X89249529Y-81481600D01*
X83270919Y-81481600D01*
X83270919Y-76492959D01*
X106722878Y-76492959D01*
X106722878Y-76492960D01*
X106743515Y-76649720D01*
X106804023Y-76795799D01*
X106804025Y-76795802D01*
X106900279Y-76921243D01*
X106953763Y-76962282D01*
X106995631Y-77019619D01*
X107003060Y-77062245D01*
X107003060Y-79777507D01*
X107003060Y-79863213D01*
X107025242Y-79945999D01*
X107025243Y-79946001D01*
X107025244Y-79946003D01*
X107068092Y-80020218D01*
X107068100Y-80020228D01*
X110662595Y-83614721D01*
X110696620Y-83677033D01*
X110699500Y-83703816D01*
X110699500Y-87589787D01*
X110679498Y-87657908D01*
X110625842Y-87704401D01*
X110614412Y-87708960D01*
X110440347Y-87768716D01*
X110440344Y-87768717D01*
X110228933Y-87883127D01*
X110228932Y-87883128D01*
X110039233Y-88030777D01*
X109876431Y-88207628D01*
X109744949Y-88408875D01*
X109648391Y-88629005D01*
X109648388Y-88629012D01*
X109589381Y-88862029D01*
X109569529Y-89101600D01*
X109589381Y-89341170D01*
X109648388Y-89574187D01*
X109648390Y-89574191D01*
X109744951Y-89794328D01*
X109876429Y-89995569D01*
X110039236Y-90172425D01*
X110228932Y-90320071D01*
X110228933Y-90320072D01*
X110440344Y-90434482D01*
X110440346Y-90434483D01*
X110559715Y-90475461D01*
X110667703Y-90512534D01*
X110904808Y-90552100D01*
X110904812Y-90552100D01*
X111145188Y-90552100D01*
X111145192Y-90552100D01*
X111382297Y-90512534D01*
X111609656Y-90434482D01*
X111821067Y-90320072D01*
X112010764Y-90172425D01*
X112173571Y-89995569D01*
X112305049Y-89794328D01*
X112401610Y-89574191D01*
X112460620Y-89341163D01*
X112480471Y-89101600D01*
X112460620Y-88862037D01*
X112401610Y-88629009D01*
X112305049Y-88408872D01*
X112173571Y-88207631D01*
X112010764Y-88030775D01*
X111821067Y-87883128D01*
X111821066Y-87883127D01*
X111609655Y-87768717D01*
X111609652Y-87768716D01*
X111435588Y-87708960D01*
X111377653Y-87667923D01*
X111351101Y-87602078D01*
X111350500Y-87589787D01*
X111350500Y-83569816D01*
X111350501Y-83569803D01*
X111350501Y-83473948D01*
X111350500Y-83473944D01*
X111328319Y-83391165D01*
X111328318Y-83391164D01*
X111328318Y-83391162D01*
X111285465Y-83316938D01*
X111285462Y-83316935D01*
X111285459Y-83316931D01*
X111220473Y-83251945D01*
X111220450Y-83251924D01*
X107690965Y-79722438D01*
X107656939Y-79660126D01*
X107654060Y-79633343D01*
X107654060Y-77062245D01*
X107674062Y-76994124D01*
X107703357Y-76962282D01*
X107756842Y-76921242D01*
X107853096Y-76795801D01*
X107913604Y-76649722D01*
X107934242Y-76492960D01*
X107913604Y-76336198D01*
X107853096Y-76190119D01*
X107756842Y-76064678D01*
X107631401Y-75968424D01*
X107485322Y-75907916D01*
X107485320Y-75907915D01*
X107328560Y-75887278D01*
X107171799Y-75907915D01*
X107025720Y-75968423D01*
X107025717Y-75968425D01*
X106900278Y-76064678D01*
X106804025Y-76190117D01*
X106804023Y-76190120D01*
X106743515Y-76336199D01*
X106722878Y-76492959D01*
X83270919Y-76492959D01*
X83270919Y-66812714D01*
X83290921Y-66744597D01*
X83344577Y-66698104D01*
X83414851Y-66688000D01*
X83479431Y-66717494D01*
X83517493Y-66776142D01*
X83565765Y-66935272D01*
X83565772Y-66935293D01*
X83715185Y-67296006D01*
X83899234Y-67640337D01*
X84116139Y-67964959D01*
X84116150Y-67964974D01*
X84363825Y-68266766D01*
X84363843Y-68266786D01*
X84639893Y-68542836D01*
X84639913Y-68542854D01*
X84920677Y-68773272D01*
X84941714Y-68790536D01*
X85266345Y-69007447D01*
X85610674Y-69191495D01*
X85971385Y-69340907D01*
X86345004Y-69454243D01*
X86345013Y-69454244D01*
X86345017Y-69454246D01*
X86474929Y-69480086D01*
X86727933Y-69530412D01*
X87116484Y-69568681D01*
X87116493Y-69568681D01*
X87506905Y-69568681D01*
X87506914Y-69568681D01*
X87895465Y-69530412D01*
X88210862Y-69467675D01*
X88278380Y-69454246D01*
X88278382Y-69454245D01*
X88278394Y-69454243D01*
X88652013Y-69340907D01*
X89012724Y-69191495D01*
X89357053Y-69007447D01*
X89681684Y-68790536D01*
X89983491Y-68542849D01*
X90259567Y-68266773D01*
X90507254Y-67964966D01*
X90724165Y-67640335D01*
X90908213Y-67296006D01*
X91057625Y-66935295D01*
X91079737Y-66862400D01*
X110828437Y-66862400D01*
X110828437Y-66862401D01*
X110849074Y-67019161D01*
X110893845Y-67127246D01*
X110909583Y-67165242D01*
X111005837Y-67290683D01*
X111131278Y-67386937D01*
X111277357Y-67447445D01*
X111434119Y-67468083D01*
X111590881Y-67447445D01*
X111736960Y-67386937D01*
X111862401Y-67290683D01*
X111868085Y-67283274D01*
X111882725Y-67264197D01*
X111940063Y-67222330D01*
X111982687Y-67214901D01*
X118591235Y-67214901D01*
X118674529Y-67192582D01*
X118749209Y-67149466D01*
X119295179Y-66603494D01*
X119357490Y-66569471D01*
X119425098Y-66574305D01*
X119425241Y-66573836D01*
X119427311Y-66574463D01*
X119428305Y-66574535D01*
X119430856Y-66575539D01*
X119431163Y-66575632D01*
X119431165Y-66575633D01*
X119629185Y-66635701D01*
X119629189Y-66635701D01*
X119629191Y-66635702D01*
X119835116Y-66655984D01*
X119835119Y-66655984D01*
X119835122Y-66655984D01*
X120041046Y-66635702D01*
X120041047Y-66635701D01*
X120041053Y-66635701D01*
X120239073Y-66575633D01*
X120421569Y-66478086D01*
X120575686Y-66351605D01*
X120641033Y-66323853D01*
X120711012Y-66335835D01*
X120763403Y-66383748D01*
X120781619Y-66449006D01*
X120781619Y-70740337D01*
X120761617Y-70808458D01*
X120707961Y-70854951D01*
X120703836Y-70856746D01*
X120699393Y-70858586D01*
X120525580Y-70951491D01*
X120373236Y-71076518D01*
X120248209Y-71228862D01*
X120155305Y-71402672D01*
X120098093Y-71591274D01*
X120098093Y-71591276D01*
X120078778Y-71787397D01*
X120078778Y-71787404D01*
X120098093Y-71983525D01*
X120098093Y-71983527D01*
X120155305Y-72172129D01*
X120211667Y-72277574D01*
X120248209Y-72345939D01*
X120373236Y-72498284D01*
X120525581Y-72623311D01*
X120699392Y-72716215D01*
X120887987Y-72773425D01*
X120887991Y-72773425D01*
X120887993Y-72773426D01*
X121084116Y-72792742D01*
X121084119Y-72792742D01*
X121084122Y-72792742D01*
X121280243Y-72773426D01*
X121280245Y-72773426D01*
X121280246Y-72773425D01*
X121280251Y-72773425D01*
X121468846Y-72716215D01*
X121642657Y-72623311D01*
X121795002Y-72498284D01*
X121920029Y-72345939D01*
X122012933Y-72172128D01*
X122070143Y-71983533D01*
X122089460Y-71787401D01*
X122070144Y-71591276D01*
X122070144Y-71591274D01*
X122070143Y-71591271D01*
X122070143Y-71591269D01*
X122012933Y-71402674D01*
X121920029Y-71228863D01*
X121795002Y-71076518D01*
X121709487Y-71006337D01*
X121642659Y-70951492D01*
X121503222Y-70876961D01*
X121452574Y-70827208D01*
X121436619Y-70765839D01*
X121436619Y-66455571D01*
X121456621Y-66387450D01*
X121510277Y-66340957D01*
X121580551Y-66330853D01*
X121642550Y-66358170D01*
X121788669Y-66478086D01*
X121971165Y-66575633D01*
X122169185Y-66635701D01*
X122169189Y-66635701D01*
X122169191Y-66635702D01*
X122375116Y-66655984D01*
X122375119Y-66655984D01*
X122375122Y-66655984D01*
X122581046Y-66635702D01*
X122581047Y-66635701D01*
X122581053Y-66635701D01*
X122779073Y-66575633D01*
X122779073Y-66575632D01*
X122784997Y-66573836D01*
X122785458Y-66575356D01*
X122848317Y-66568590D01*
X122911809Y-66600359D01*
X122915059Y-66603496D01*
X123349714Y-67038151D01*
X123383740Y-67100463D01*
X123386619Y-67127246D01*
X123386619Y-70720478D01*
X123366617Y-70788599D01*
X123312961Y-70835092D01*
X123297196Y-70841052D01*
X123239390Y-70858587D01*
X123065580Y-70951491D01*
X122913236Y-71076518D01*
X122788209Y-71228862D01*
X122695305Y-71402672D01*
X122638093Y-71591274D01*
X122638093Y-71591276D01*
X122618778Y-71787397D01*
X122618778Y-71787404D01*
X122638093Y-71983525D01*
X122638093Y-71983527D01*
X122695305Y-72172129D01*
X122751667Y-72277574D01*
X122788209Y-72345939D01*
X122913236Y-72498284D01*
X123065581Y-72623311D01*
X123239392Y-72716215D01*
X123427987Y-72773425D01*
X123427991Y-72773425D01*
X123427993Y-72773426D01*
X123624116Y-72792742D01*
X123624119Y-72792742D01*
X123624122Y-72792742D01*
X123820243Y-72773426D01*
X123820245Y-72773426D01*
X123820246Y-72773425D01*
X123820251Y-72773425D01*
X124008846Y-72716215D01*
X124182657Y-72623311D01*
X124335002Y-72498284D01*
X124460029Y-72345939D01*
X124552933Y-72172128D01*
X124610143Y-71983533D01*
X124629460Y-71787401D01*
X124629460Y-71787397D01*
X125158778Y-71787397D01*
X125158778Y-71787404D01*
X125178093Y-71983525D01*
X125178093Y-71983527D01*
X125235305Y-72172129D01*
X125291667Y-72277574D01*
X125328209Y-72345939D01*
X125453236Y-72498284D01*
X125605581Y-72623311D01*
X125779392Y-72716215D01*
X125967987Y-72773425D01*
X125967991Y-72773425D01*
X125967993Y-72773426D01*
X126164116Y-72792742D01*
X126164119Y-72792742D01*
X126164122Y-72792742D01*
X126360243Y-72773426D01*
X126360245Y-72773426D01*
X126360246Y-72773425D01*
X126360251Y-72773425D01*
X126548846Y-72716215D01*
X126722657Y-72623311D01*
X126875002Y-72498284D01*
X127000029Y-72345939D01*
X127092933Y-72172128D01*
X127150143Y-71983533D01*
X127169460Y-71787401D01*
X127169460Y-71787397D01*
X127698778Y-71787397D01*
X127698778Y-71787404D01*
X127718093Y-71983525D01*
X127718093Y-71983527D01*
X127775305Y-72172129D01*
X127831667Y-72277574D01*
X127868209Y-72345939D01*
X127993236Y-72498284D01*
X128145581Y-72623311D01*
X128319392Y-72716215D01*
X128507987Y-72773425D01*
X128507991Y-72773425D01*
X128507993Y-72773426D01*
X128704116Y-72792742D01*
X128704119Y-72792742D01*
X128704122Y-72792742D01*
X128900243Y-72773426D01*
X128900245Y-72773426D01*
X128900246Y-72773425D01*
X128900251Y-72773425D01*
X129088846Y-72716215D01*
X129262657Y-72623311D01*
X129415002Y-72498284D01*
X129540029Y-72345939D01*
X129632933Y-72172128D01*
X129690143Y-71983533D01*
X129709460Y-71787401D01*
X129709460Y-71787397D01*
X130238778Y-71787397D01*
X130238778Y-71787404D01*
X130258093Y-71983525D01*
X130258093Y-71983527D01*
X130315305Y-72172129D01*
X130371667Y-72277574D01*
X130408209Y-72345939D01*
X130533236Y-72498284D01*
X130685581Y-72623311D01*
X130859392Y-72716215D01*
X131047987Y-72773425D01*
X131047991Y-72773425D01*
X131047993Y-72773426D01*
X131244116Y-72792742D01*
X131244119Y-72792742D01*
X131244122Y-72792742D01*
X131440243Y-72773426D01*
X131440245Y-72773426D01*
X131440246Y-72773425D01*
X131440251Y-72773425D01*
X131628846Y-72716215D01*
X131802657Y-72623311D01*
X131955002Y-72498284D01*
X132080029Y-72345939D01*
X132172933Y-72172128D01*
X132230143Y-71983533D01*
X132249460Y-71787401D01*
X132230144Y-71591276D01*
X132230144Y-71591274D01*
X132230143Y-71591271D01*
X132230143Y-71591269D01*
X132172933Y-71402674D01*
X132080029Y-71228863D01*
X131955002Y-71076518D01*
X131802657Y-70951491D01*
X131723484Y-70909172D01*
X131628847Y-70858587D01*
X131440244Y-70801375D01*
X131244122Y-70782060D01*
X131244116Y-70782060D01*
X131047994Y-70801375D01*
X131047992Y-70801375D01*
X130859390Y-70858587D01*
X130685580Y-70951491D01*
X130533236Y-71076518D01*
X130408209Y-71228862D01*
X130315305Y-71402672D01*
X130258093Y-71591274D01*
X130258093Y-71591276D01*
X130238778Y-71787397D01*
X129709460Y-71787397D01*
X129690144Y-71591276D01*
X129690144Y-71591274D01*
X129690143Y-71591271D01*
X129690143Y-71591269D01*
X129632933Y-71402674D01*
X129540029Y-71228863D01*
X129415002Y-71076518D01*
X129262657Y-70951491D01*
X129183484Y-70909172D01*
X129088847Y-70858587D01*
X128900244Y-70801375D01*
X128704122Y-70782060D01*
X128704116Y-70782060D01*
X128507994Y-70801375D01*
X128507992Y-70801375D01*
X128319390Y-70858587D01*
X128145580Y-70951491D01*
X127993236Y-71076518D01*
X127868209Y-71228862D01*
X127775305Y-71402672D01*
X127718093Y-71591274D01*
X127718093Y-71591276D01*
X127698778Y-71787397D01*
X127169460Y-71787397D01*
X127150144Y-71591276D01*
X127150144Y-71591274D01*
X127150143Y-71591271D01*
X127150143Y-71591269D01*
X127092933Y-71402674D01*
X127000029Y-71228863D01*
X126875002Y-71076518D01*
X126722657Y-70951491D01*
X126643484Y-70909172D01*
X126548847Y-70858587D01*
X126360244Y-70801375D01*
X126164122Y-70782060D01*
X126164116Y-70782060D01*
X125967994Y-70801375D01*
X125967992Y-70801375D01*
X125779390Y-70858587D01*
X125605580Y-70951491D01*
X125453236Y-71076518D01*
X125328209Y-71228862D01*
X125235305Y-71402672D01*
X125178093Y-71591274D01*
X125178093Y-71591276D01*
X125158778Y-71787397D01*
X124629460Y-71787397D01*
X124610144Y-71591276D01*
X124610144Y-71591274D01*
X124610143Y-71591271D01*
X124610143Y-71591269D01*
X124552933Y-71402674D01*
X124460029Y-71228863D01*
X124335002Y-71076518D01*
X124202352Y-70967654D01*
X124182655Y-70951489D01*
X124108222Y-70911703D01*
X124057574Y-70861951D01*
X124041619Y-70800582D01*
X124041619Y-66896285D01*
X124041618Y-66896281D01*
X124019300Y-66812991D01*
X124019299Y-66812988D01*
X123976186Y-66738314D01*
X123976182Y-66738309D01*
X123947277Y-66709404D01*
X123915209Y-66677336D01*
X123378213Y-66140340D01*
X123344188Y-66078029D01*
X123349023Y-66010421D01*
X123348554Y-66010279D01*
X123349181Y-66008209D01*
X123349253Y-66007214D01*
X123350260Y-66004652D01*
X123350348Y-66004358D01*
X123350351Y-66004355D01*
X123410419Y-65806335D01*
X123412126Y-65789009D01*
X123430702Y-65600404D01*
X123430702Y-65600397D01*
X123410420Y-65394473D01*
X123410419Y-65394471D01*
X123410419Y-65394467D01*
X123350351Y-65196447D01*
X123252804Y-65013951D01*
X123135350Y-64870832D01*
X123107598Y-64805487D01*
X123119580Y-64735509D01*
X123167493Y-64683117D01*
X123232751Y-64664901D01*
X123464274Y-64664901D01*
X123532395Y-64684903D01*
X123553369Y-64701806D01*
X123912023Y-65060460D01*
X123946049Y-65122772D01*
X123941213Y-65190380D01*
X123941684Y-65190523D01*
X123941054Y-65192597D01*
X123940984Y-65193587D01*
X123939981Y-65196136D01*
X123879817Y-65394473D01*
X123859536Y-65600397D01*
X123859536Y-65600404D01*
X123879817Y-65806328D01*
X123939887Y-66004355D01*
X124036618Y-66185326D01*
X124037434Y-66186851D01*
X124168709Y-66346811D01*
X124328669Y-66478086D01*
X124511165Y-66575633D01*
X124709185Y-66635701D01*
X124709189Y-66635701D01*
X124709191Y-66635702D01*
X124915116Y-66655984D01*
X124915119Y-66655984D01*
X124915122Y-66655984D01*
X125121046Y-66635702D01*
X125121047Y-66635701D01*
X125121053Y-66635701D01*
X125319073Y-66575633D01*
X125501569Y-66478086D01*
X125661529Y-66346811D01*
X125792804Y-66186851D01*
X125890351Y-66004355D01*
X125950419Y-65806335D01*
X125952126Y-65789009D01*
X125970702Y-65600404D01*
X125970702Y-65600397D01*
X125950420Y-65394473D01*
X125950419Y-65394471D01*
X125950419Y-65394467D01*
X125890351Y-65196447D01*
X125792804Y-65013951D01*
X125661529Y-64853991D01*
X125501569Y-64722716D01*
X125501567Y-64722715D01*
X125501566Y-64722714D01*
X125319073Y-64625169D01*
X125237479Y-64600418D01*
X125121053Y-64565101D01*
X125121052Y-64565100D01*
X125121046Y-64565099D01*
X124915122Y-64544818D01*
X124915116Y-64544818D01*
X124709191Y-64565099D01*
X124505241Y-64626966D01*
X124504781Y-64625451D01*
X124441886Y-64632205D01*
X124378403Y-64600418D01*
X124375205Y-64597332D01*
X123853209Y-64075336D01*
X123853207Y-64075335D01*
X123853205Y-64075333D01*
X123778531Y-64032220D01*
X123778528Y-64032219D01*
X123695238Y-64009901D01*
X123695235Y-64009901D01*
X123221262Y-64009901D01*
X123153141Y-63989899D01*
X123106648Y-63936243D01*
X123096544Y-63865969D01*
X123123862Y-63803968D01*
X123144379Y-63778968D01*
X123252804Y-63646851D01*
X123350351Y-63464355D01*
X123410419Y-63266335D01*
X123414492Y-63224987D01*
X123430702Y-63060404D01*
X123430702Y-63060397D01*
X123410420Y-62854473D01*
X123410419Y-62854471D01*
X123410419Y-62854467D01*
X123350351Y-62656447D01*
X123252804Y-62473951D01*
X123121529Y-62313991D01*
X122961569Y-62182716D01*
X122961567Y-62182715D01*
X122961566Y-62182714D01*
X122779073Y-62085169D01*
X122581046Y-62025099D01*
X122375122Y-62004818D01*
X122375116Y-62004818D01*
X122169191Y-62025099D01*
X121971164Y-62085169D01*
X121788671Y-62182714D01*
X121628709Y-62313991D01*
X121497432Y-62473953D01*
X121399887Y-62656446D01*
X121339817Y-62854473D01*
X121319536Y-63060397D01*
X121319536Y-63060404D01*
X121339817Y-63266328D01*
X121399887Y-63464355D01*
X121473641Y-63602339D01*
X121497434Y-63646851D01*
X121628709Y-63806811D01*
X121650865Y-63824994D01*
X121690834Y-63883668D01*
X121692736Y-63954640D01*
X121655966Y-64015373D01*
X121633933Y-64031512D01*
X121558030Y-64075335D01*
X121558026Y-64075338D01*
X121378700Y-64254665D01*
X120908029Y-64725336D01*
X120888135Y-64745230D01*
X120847055Y-64786309D01*
X120847053Y-64786312D01*
X120805486Y-64858308D01*
X120754103Y-64907301D01*
X120684389Y-64920736D01*
X120618478Y-64894349D01*
X120598967Y-64875239D01*
X120581531Y-64853992D01*
X120454002Y-64749333D01*
X120421569Y-64722716D01*
X120421567Y-64722715D01*
X120421566Y-64722714D01*
X120239073Y-64625169D01*
X120157479Y-64600418D01*
X120041053Y-64565101D01*
X120041052Y-64565100D01*
X120041046Y-64565099D01*
X119835122Y-64544818D01*
X119835116Y-64544818D01*
X119629191Y-64565099D01*
X119431164Y-64625169D01*
X119248671Y-64722714D01*
X119088709Y-64853991D01*
X118957432Y-65013953D01*
X118859887Y-65196446D01*
X118799817Y-65394473D01*
X118779536Y-65600397D01*
X118779536Y-65600404D01*
X118799817Y-65806328D01*
X118861684Y-66010279D01*
X118860168Y-66010738D01*
X118866921Y-66073636D01*
X118835132Y-66137118D01*
X118832023Y-66140340D01*
X118449369Y-66522996D01*
X118387057Y-66557021D01*
X118360273Y-66559901D01*
X112021053Y-66559901D01*
X111952932Y-66539899D01*
X111921092Y-66510606D01*
X111862401Y-66434119D01*
X111736960Y-66337865D01*
X111732060Y-66335835D01*
X111590879Y-66277356D01*
X111434119Y-66256719D01*
X111277358Y-66277356D01*
X111131279Y-66337864D01*
X111131276Y-66337866D01*
X111005837Y-66434119D01*
X110909584Y-66559558D01*
X110909582Y-66559561D01*
X110849074Y-66705640D01*
X110828437Y-66862400D01*
X91079737Y-66862400D01*
X91170961Y-66561676D01*
X91171383Y-66559558D01*
X91190735Y-66462263D01*
X91247130Y-66178747D01*
X91285399Y-65790196D01*
X91285399Y-65399766D01*
X91247130Y-65011215D01*
X91180612Y-64676806D01*
X91170964Y-64628299D01*
X91170962Y-64628295D01*
X91170961Y-64628286D01*
X91057625Y-64254667D01*
X91041469Y-64215664D01*
X113214619Y-64215664D01*
X113214619Y-64445137D01*
X113244569Y-64672632D01*
X113247857Y-64684903D01*
X113303961Y-64894288D01*
X113391775Y-65106289D01*
X113391776Y-65106290D01*
X113391781Y-65106301D01*
X113506505Y-65305009D01*
X113506510Y-65305016D01*
X113646192Y-65487053D01*
X113646211Y-65487074D01*
X113808445Y-65649308D01*
X113808466Y-65649327D01*
X113990503Y-65789009D01*
X113990510Y-65789014D01*
X114189218Y-65903738D01*
X114189222Y-65903739D01*
X114189231Y-65903745D01*
X114401232Y-65991559D01*
X114622881Y-66050949D01*
X114622885Y-66050949D01*
X114622887Y-66050950D01*
X114677258Y-66058108D01*
X114850385Y-66080901D01*
X114850392Y-66080901D01*
X115079846Y-66080901D01*
X115079853Y-66080901D01*
X115285464Y-66053831D01*
X115307350Y-66050950D01*
X115307350Y-66050949D01*
X115307357Y-66050949D01*
X115529006Y-65991559D01*
X115741007Y-65903745D01*
X115939731Y-65789012D01*
X116121780Y-65649320D01*
X116284038Y-65487062D01*
X116423730Y-65305013D01*
X116538463Y-65106289D01*
X116626277Y-64894288D01*
X116685667Y-64672639D01*
X116715619Y-64445135D01*
X116715619Y-64215667D01*
X116686958Y-63997970D01*
X116685668Y-63988169D01*
X116685667Y-63988167D01*
X116685667Y-63988163D01*
X116626277Y-63766514D01*
X116538463Y-63554513D01*
X116538457Y-63554504D01*
X116538456Y-63554500D01*
X116423732Y-63355792D01*
X116423727Y-63355785D01*
X116284045Y-63173748D01*
X116284026Y-63173727D01*
X116170696Y-63060397D01*
X118779536Y-63060397D01*
X118779536Y-63060404D01*
X118799817Y-63266328D01*
X118859887Y-63464355D01*
X118933641Y-63602339D01*
X118957434Y-63646851D01*
X119088709Y-63806811D01*
X119248669Y-63938086D01*
X119431165Y-64035633D01*
X119629185Y-64095701D01*
X119629189Y-64095701D01*
X119629191Y-64095702D01*
X119835116Y-64115984D01*
X119835119Y-64115984D01*
X119835122Y-64115984D01*
X120041046Y-64095702D01*
X120041047Y-64095701D01*
X120041053Y-64095701D01*
X120239073Y-64035633D01*
X120421569Y-63938086D01*
X120581529Y-63806811D01*
X120712804Y-63646851D01*
X120810351Y-63464355D01*
X120870419Y-63266335D01*
X120874492Y-63224987D01*
X120890702Y-63060404D01*
X120890702Y-63060397D01*
X120870420Y-62854473D01*
X120870419Y-62854471D01*
X120870419Y-62854467D01*
X120810351Y-62656447D01*
X120712804Y-62473951D01*
X120581529Y-62313991D01*
X120421569Y-62182716D01*
X120421567Y-62182715D01*
X120421566Y-62182714D01*
X120239073Y-62085169D01*
X120041046Y-62025099D01*
X119835122Y-62004818D01*
X119835116Y-62004818D01*
X119629191Y-62025099D01*
X119431164Y-62085169D01*
X119248671Y-62182714D01*
X119088709Y-62313991D01*
X118957432Y-62473953D01*
X118859887Y-62656446D01*
X118799817Y-62854473D01*
X118779536Y-63060397D01*
X116170696Y-63060397D01*
X116121792Y-63011493D01*
X116121771Y-63011474D01*
X115939734Y-62871792D01*
X115939727Y-62871787D01*
X115741019Y-62757063D01*
X115741011Y-62757059D01*
X115741007Y-62757057D01*
X115529006Y-62669243D01*
X115307357Y-62609853D01*
X115307350Y-62609851D01*
X115079855Y-62579901D01*
X115079853Y-62579901D01*
X114850385Y-62579901D01*
X114850382Y-62579901D01*
X114622887Y-62609851D01*
X114448988Y-62656447D01*
X114401232Y-62669243D01*
X114331532Y-62698114D01*
X114189229Y-62757058D01*
X114189218Y-62757063D01*
X113990510Y-62871787D01*
X113990503Y-62871792D01*
X113808466Y-63011474D01*
X113808445Y-63011493D01*
X113646211Y-63173727D01*
X113646192Y-63173748D01*
X113506510Y-63355785D01*
X113506505Y-63355792D01*
X113391781Y-63554500D01*
X113391776Y-63554511D01*
X113391775Y-63554513D01*
X113353527Y-63646851D01*
X113303961Y-63766514D01*
X113244569Y-63988169D01*
X113214619Y-64215664D01*
X91041469Y-64215664D01*
X90908213Y-63893956D01*
X90724165Y-63549627D01*
X90507254Y-63224996D01*
X90465189Y-63173740D01*
X90259572Y-62923195D01*
X90259554Y-62923175D01*
X89983504Y-62647125D01*
X89983484Y-62647107D01*
X89681692Y-62399432D01*
X89681677Y-62399421D01*
X89357055Y-62182516D01*
X89012724Y-61998467D01*
X88652011Y-61849054D01*
X88652008Y-61849053D01*
X88404702Y-61774034D01*
X88278394Y-61735719D01*
X88278391Y-61735718D01*
X88278380Y-61735715D01*
X87895470Y-61659551D01*
X87895465Y-61659550D01*
X87895460Y-61659549D01*
X87895450Y-61659548D01*
X87506920Y-61621281D01*
X87506914Y-61621281D01*
X87116484Y-61621281D01*
X87116477Y-61621281D01*
X86727947Y-61659548D01*
X86727934Y-61659549D01*
X86727933Y-61659550D01*
X86727930Y-61659550D01*
X86727927Y-61659551D01*
X86345017Y-61735715D01*
X85971389Y-61849053D01*
X85971386Y-61849054D01*
X85610673Y-61998467D01*
X85266342Y-62182516D01*
X84941720Y-62399421D01*
X84941705Y-62399432D01*
X84639913Y-62647107D01*
X84639893Y-62647125D01*
X84363843Y-62923175D01*
X84363825Y-62923195D01*
X84116150Y-63224987D01*
X84116139Y-63225002D01*
X83899234Y-63549624D01*
X83715187Y-63893952D01*
X83633323Y-64091587D01*
X83588774Y-64146867D01*
X83521411Y-64169288D01*
X83452619Y-64151729D01*
X83404241Y-64099767D01*
X83391636Y-64029899D01*
X83395354Y-64010214D01*
X83463076Y-63761998D01*
X83466955Y-63750135D01*
X83604761Y-63390295D01*
X83609794Y-63378885D01*
X83782616Y-63034503D01*
X83788758Y-63023647D01*
X83994894Y-62698114D01*
X84002093Y-62687905D01*
X84239514Y-62384426D01*
X84247676Y-62375000D01*
X84514023Y-62096589D01*
X84523111Y-62087990D01*
X84815754Y-61837389D01*
X84825638Y-61829740D01*
X85141728Y-61609393D01*
X85152307Y-61602774D01*
X85488705Y-61414873D01*
X85499883Y-61409339D01*
X85853252Y-61255746D01*
X85864936Y-61251343D01*
X86231799Y-61133570D01*
X86243874Y-61130345D01*
X86620615Y-61049551D01*
X86632934Y-61047543D01*
X87016605Y-61004440D01*
X87027507Y-61003694D01*
X87219345Y-60998931D01*
X87222435Y-60998893D01*
X173704113Y-61024400D01*
G37*
%TD.AperFunction*%
%TD*%
M02*
