M48
; DRILL file {KiCad 8.0.5} date 2024-10-31T23:34:51-0500
; FORMAT={-:-/ absolute / inch / decimal}
; #@! TF.CreationDate,2024-10-31T23:34:51-05:00
; #@! TF.GenerationSoftware,Kicad,Pcbnew,8.0.5
; #@! TF.FileFunction,Plated,1,2,PTH
FMAT,2
INCH
; #@! TA.AperFunction,Plated,PTH,ViaDrill
T1C0.0157
; #@! TA.AperFunction,Plated,PTH,ComponentDrill
T2C0.0354
; #@! TA.AperFunction,Plated,PTH,ComponentDrill
T3C0.0394
; #@! TA.AperFunction,Plated,PTH,ComponentDrill
T4C0.0551
; #@! TA.AperFunction,Plated,PTH,ComponentDrill
T5C0.0787
%
G90
G05
T1
X4.2255Y-3.0115
X4.3872Y-2.6324
X4.5112Y-2.7977
X4.6214Y-2.6845
X4.7346Y-2.7721
X4.9275Y-2.7584
X5.2376Y-2.6747
X5.4689Y-2.6708
X5.5576Y-4.5552
X5.7593Y-2.6894
X5.7956Y-2.659
X5.8202Y-2.8912
X5.8596Y-2.6688
X5.9118Y-2.8971
X6.0151Y-2.7176
X6.0181Y-2.9001
X6.1554Y-2.7195
T2
X4.7179Y-2.4827
X4.7179Y-2.5827
X4.8179Y-2.4827
X4.8179Y-2.5827
X4.9179Y-2.4827
X4.9179Y-2.5827
X5.0179Y-2.4827
X5.0179Y-2.5827
X5.1179Y-2.4827
X5.1179Y-2.5827
X5.2179Y-2.4827
X5.2179Y-2.5827
X5.3179Y-2.4827
X5.3179Y-2.5827
X5.4179Y-2.4827
X5.4179Y-2.5827
X5.5179Y-2.4827
X5.5179Y-2.5827
X5.6179Y-2.4827
X5.6179Y-2.5827
X5.7179Y-2.4827
X5.7179Y-2.5827
X5.8179Y-2.4827
X5.8179Y-2.5827
X5.9179Y-2.4827
X5.9179Y-2.5827
X6.0179Y-2.4827
X6.0179Y-2.5827
X6.1179Y-2.4827
X6.1179Y-2.5827
X6.2179Y-2.4827
X6.2179Y-2.5827
X6.3179Y-2.4827
X6.3179Y-2.5827
X6.4179Y-2.4827
X6.4179Y-2.5827
X6.5179Y-2.4827
X6.5179Y-2.5827
X6.6179Y-2.4827
X6.6179Y-2.5827
T3
X4.7671Y-2.8263
X4.7671Y-4.7263
X4.8671Y-2.8263
X4.8671Y-4.7263
X4.9671Y-2.8263
X4.9671Y-4.7263
X5.0671Y-2.8263
X5.0671Y-4.7263
X5.1671Y-2.8263
X5.1671Y-4.7263
X5.2671Y-2.8263
X5.2671Y-4.7263
X5.3671Y-4.7263
X5.4671Y-2.8263
X5.4671Y-4.7263
X5.5671Y-2.8263
X5.6269Y-4.7263
X5.6671Y-2.8263
X5.7269Y-4.7263
X5.7671Y-2.8263
X5.8269Y-4.7263
X5.8671Y-2.8263
X5.9269Y-4.7263
X5.9671Y-2.8263
X6.0269Y-4.7263
X6.0671Y-2.8263
X6.1269Y-4.7263
X6.1671Y-2.8263
X6.2269Y-4.7263
X6.3269Y-4.7263
X6.4269Y-4.7263
X6.5269Y-4.7263
T4
X3.5711Y-3.2079
X3.5711Y-3.6079
X3.5711Y-4.0079
X4.3711Y-3.5079
X4.3711Y-3.7079
X4.3711Y-4.0079
T5
G00X3.9276Y-4.5302
M15
G01X4.0103Y-4.5302
M16
G05
G00X4.2376Y-4.5302
M15
G01X4.3203Y-4.5302
M16
G05
M30
