%TF.GenerationSoftware,KiCad,Pcbnew,8.0.5*%
%TF.CreationDate,2024-10-31T23:34:31-05:00*%
%TF.ProjectId,DiffGPSBreakout,44696666-4750-4534-9272-65616b6f7574,rev?*%
%TF.SameCoordinates,Original*%
%TF.FileFunction,Legend,Top*%
%TF.FilePolarity,Positive*%
%FSLAX46Y46*%
G04 Gerber Fmt 4.6, Leading zero omitted, Abs format (unit mm)*
G04 Created by KiCad (PCBNEW 8.0.5) date 2024-10-31 23:34:31*
%MOMM*%
%LPD*%
G01*
G04 APERTURE LIST*
%ADD10C,0.150000*%
%ADD11C,0.203200*%
%ADD12C,0.100000*%
%ADD13C,0.120000*%
%ADD14C,0.010000*%
G04 APERTURE END LIST*
D10*
X98648119Y-130112401D02*
X103728119Y-130112401D01*
X114478898Y-126374304D02*
X114478898Y-125374304D01*
X114478898Y-125374304D02*
X114716993Y-125374304D01*
X114716993Y-125374304D02*
X114859850Y-125421923D01*
X114859850Y-125421923D02*
X114955088Y-125517161D01*
X114955088Y-125517161D02*
X115002707Y-125612399D01*
X115002707Y-125612399D02*
X115050326Y-125802875D01*
X115050326Y-125802875D02*
X115050326Y-125945732D01*
X115050326Y-125945732D02*
X115002707Y-126136208D01*
X115002707Y-126136208D02*
X114955088Y-126231446D01*
X114955088Y-126231446D02*
X114859850Y-126326685D01*
X114859850Y-126326685D02*
X114716993Y-126374304D01*
X114716993Y-126374304D02*
X114478898Y-126374304D01*
X115478898Y-126374304D02*
X115478898Y-125707637D01*
X115478898Y-125374304D02*
X115431279Y-125421923D01*
X115431279Y-125421923D02*
X115478898Y-125469542D01*
X115478898Y-125469542D02*
X115526517Y-125421923D01*
X115526517Y-125421923D02*
X115478898Y-125374304D01*
X115478898Y-125374304D02*
X115478898Y-125469542D01*
X115812231Y-125707637D02*
X116193183Y-125707637D01*
X115955088Y-126374304D02*
X115955088Y-125517161D01*
X115955088Y-125517161D02*
X116002707Y-125421923D01*
X116002707Y-125421923D02*
X116097945Y-125374304D01*
X116097945Y-125374304D02*
X116193183Y-125374304D01*
X116383660Y-125707637D02*
X116764612Y-125707637D01*
X116526517Y-126374304D02*
X116526517Y-125517161D01*
X116526517Y-125517161D02*
X116574136Y-125421923D01*
X116574136Y-125421923D02*
X116669374Y-125374304D01*
X116669374Y-125374304D02*
X116764612Y-125374304D01*
X117478898Y-126326685D02*
X117383660Y-126374304D01*
X117383660Y-126374304D02*
X117193184Y-126374304D01*
X117193184Y-126374304D02*
X117097946Y-126326685D01*
X117097946Y-126326685D02*
X117050327Y-126231446D01*
X117050327Y-126231446D02*
X117050327Y-125850494D01*
X117050327Y-125850494D02*
X117097946Y-125755256D01*
X117097946Y-125755256D02*
X117193184Y-125707637D01*
X117193184Y-125707637D02*
X117383660Y-125707637D01*
X117383660Y-125707637D02*
X117478898Y-125755256D01*
X117478898Y-125755256D02*
X117526517Y-125850494D01*
X117526517Y-125850494D02*
X117526517Y-125945732D01*
X117526517Y-125945732D02*
X117050327Y-126040970D01*
X117955089Y-126374304D02*
X117955089Y-125707637D01*
X117955089Y-125898113D02*
X118002708Y-125802875D01*
X118002708Y-125802875D02*
X118050327Y-125755256D01*
X118050327Y-125755256D02*
X118145565Y-125707637D01*
X118145565Y-125707637D02*
X118240803Y-125707637D01*
X118955089Y-126326685D02*
X118859851Y-126374304D01*
X118859851Y-126374304D02*
X118669375Y-126374304D01*
X118669375Y-126374304D02*
X118574137Y-126326685D01*
X118574137Y-126326685D02*
X118526518Y-126231446D01*
X118526518Y-126231446D02*
X118526518Y-125850494D01*
X118526518Y-125850494D02*
X118574137Y-125755256D01*
X118574137Y-125755256D02*
X118669375Y-125707637D01*
X118669375Y-125707637D02*
X118859851Y-125707637D01*
X118859851Y-125707637D02*
X118955089Y-125755256D01*
X118955089Y-125755256D02*
X119002708Y-125850494D01*
X119002708Y-125850494D02*
X119002708Y-125945732D01*
X119002708Y-125945732D02*
X118526518Y-126040970D01*
X119431280Y-125707637D02*
X119431280Y-126374304D01*
X119431280Y-125802875D02*
X119478899Y-125755256D01*
X119478899Y-125755256D02*
X119574137Y-125707637D01*
X119574137Y-125707637D02*
X119716994Y-125707637D01*
X119716994Y-125707637D02*
X119812232Y-125755256D01*
X119812232Y-125755256D02*
X119859851Y-125850494D01*
X119859851Y-125850494D02*
X119859851Y-126374304D01*
X120193185Y-125707637D02*
X120574137Y-125707637D01*
X120336042Y-125374304D02*
X120336042Y-126231446D01*
X120336042Y-126231446D02*
X120383661Y-126326685D01*
X120383661Y-126326685D02*
X120478899Y-126374304D01*
X120478899Y-126374304D02*
X120574137Y-126374304D01*
X120907471Y-126374304D02*
X120907471Y-125707637D01*
X120907471Y-125374304D02*
X120859852Y-125421923D01*
X120859852Y-125421923D02*
X120907471Y-125469542D01*
X120907471Y-125469542D02*
X120955090Y-125421923D01*
X120955090Y-125421923D02*
X120907471Y-125374304D01*
X120907471Y-125374304D02*
X120907471Y-125469542D01*
X121812232Y-126374304D02*
X121812232Y-125850494D01*
X121812232Y-125850494D02*
X121764613Y-125755256D01*
X121764613Y-125755256D02*
X121669375Y-125707637D01*
X121669375Y-125707637D02*
X121478899Y-125707637D01*
X121478899Y-125707637D02*
X121383661Y-125755256D01*
X121812232Y-126326685D02*
X121716994Y-126374304D01*
X121716994Y-126374304D02*
X121478899Y-126374304D01*
X121478899Y-126374304D02*
X121383661Y-126326685D01*
X121383661Y-126326685D02*
X121336042Y-126231446D01*
X121336042Y-126231446D02*
X121336042Y-126136208D01*
X121336042Y-126136208D02*
X121383661Y-126040970D01*
X121383661Y-126040970D02*
X121478899Y-125993351D01*
X121478899Y-125993351D02*
X121716994Y-125993351D01*
X121716994Y-125993351D02*
X121812232Y-125945732D01*
X122431280Y-126374304D02*
X122336042Y-126326685D01*
X122336042Y-126326685D02*
X122288423Y-126231446D01*
X122288423Y-126231446D02*
X122288423Y-125374304D01*
X124097947Y-125421923D02*
X124002709Y-125374304D01*
X124002709Y-125374304D02*
X123859852Y-125374304D01*
X123859852Y-125374304D02*
X123716995Y-125421923D01*
X123716995Y-125421923D02*
X123621757Y-125517161D01*
X123621757Y-125517161D02*
X123574138Y-125612399D01*
X123574138Y-125612399D02*
X123526519Y-125802875D01*
X123526519Y-125802875D02*
X123526519Y-125945732D01*
X123526519Y-125945732D02*
X123574138Y-126136208D01*
X123574138Y-126136208D02*
X123621757Y-126231446D01*
X123621757Y-126231446D02*
X123716995Y-126326685D01*
X123716995Y-126326685D02*
X123859852Y-126374304D01*
X123859852Y-126374304D02*
X123955090Y-126374304D01*
X123955090Y-126374304D02*
X124097947Y-126326685D01*
X124097947Y-126326685D02*
X124145566Y-126279065D01*
X124145566Y-126279065D02*
X124145566Y-125945732D01*
X124145566Y-125945732D02*
X123955090Y-125945732D01*
X124574138Y-126374304D02*
X124574138Y-125374304D01*
X124574138Y-125374304D02*
X124955090Y-125374304D01*
X124955090Y-125374304D02*
X125050328Y-125421923D01*
X125050328Y-125421923D02*
X125097947Y-125469542D01*
X125097947Y-125469542D02*
X125145566Y-125564780D01*
X125145566Y-125564780D02*
X125145566Y-125707637D01*
X125145566Y-125707637D02*
X125097947Y-125802875D01*
X125097947Y-125802875D02*
X125050328Y-125850494D01*
X125050328Y-125850494D02*
X124955090Y-125898113D01*
X124955090Y-125898113D02*
X124574138Y-125898113D01*
X125526519Y-126326685D02*
X125669376Y-126374304D01*
X125669376Y-126374304D02*
X125907471Y-126374304D01*
X125907471Y-126374304D02*
X126002709Y-126326685D01*
X126002709Y-126326685D02*
X126050328Y-126279065D01*
X126050328Y-126279065D02*
X126097947Y-126183827D01*
X126097947Y-126183827D02*
X126097947Y-126088589D01*
X126097947Y-126088589D02*
X126050328Y-125993351D01*
X126050328Y-125993351D02*
X126002709Y-125945732D01*
X126002709Y-125945732D02*
X125907471Y-125898113D01*
X125907471Y-125898113D02*
X125716995Y-125850494D01*
X125716995Y-125850494D02*
X125621757Y-125802875D01*
X125621757Y-125802875D02*
X125574138Y-125755256D01*
X125574138Y-125755256D02*
X125526519Y-125660018D01*
X125526519Y-125660018D02*
X125526519Y-125564780D01*
X125526519Y-125564780D02*
X125574138Y-125469542D01*
X125574138Y-125469542D02*
X125621757Y-125421923D01*
X125621757Y-125421923D02*
X125716995Y-125374304D01*
X125716995Y-125374304D02*
X125955090Y-125374304D01*
X125955090Y-125374304D02*
X126097947Y-125421923D01*
X127621757Y-125850494D02*
X127764614Y-125898113D01*
X127764614Y-125898113D02*
X127812233Y-125945732D01*
X127812233Y-125945732D02*
X127859852Y-126040970D01*
X127859852Y-126040970D02*
X127859852Y-126183827D01*
X127859852Y-126183827D02*
X127812233Y-126279065D01*
X127812233Y-126279065D02*
X127764614Y-126326685D01*
X127764614Y-126326685D02*
X127669376Y-126374304D01*
X127669376Y-126374304D02*
X127288424Y-126374304D01*
X127288424Y-126374304D02*
X127288424Y-125374304D01*
X127288424Y-125374304D02*
X127621757Y-125374304D01*
X127621757Y-125374304D02*
X127716995Y-125421923D01*
X127716995Y-125421923D02*
X127764614Y-125469542D01*
X127764614Y-125469542D02*
X127812233Y-125564780D01*
X127812233Y-125564780D02*
X127812233Y-125660018D01*
X127812233Y-125660018D02*
X127764614Y-125755256D01*
X127764614Y-125755256D02*
X127716995Y-125802875D01*
X127716995Y-125802875D02*
X127621757Y-125850494D01*
X127621757Y-125850494D02*
X127288424Y-125850494D01*
X128288424Y-126374304D02*
X128288424Y-125707637D01*
X128288424Y-125898113D02*
X128336043Y-125802875D01*
X128336043Y-125802875D02*
X128383662Y-125755256D01*
X128383662Y-125755256D02*
X128478900Y-125707637D01*
X128478900Y-125707637D02*
X128574138Y-125707637D01*
X129288424Y-126326685D02*
X129193186Y-126374304D01*
X129193186Y-126374304D02*
X129002710Y-126374304D01*
X129002710Y-126374304D02*
X128907472Y-126326685D01*
X128907472Y-126326685D02*
X128859853Y-126231446D01*
X128859853Y-126231446D02*
X128859853Y-125850494D01*
X128859853Y-125850494D02*
X128907472Y-125755256D01*
X128907472Y-125755256D02*
X129002710Y-125707637D01*
X129002710Y-125707637D02*
X129193186Y-125707637D01*
X129193186Y-125707637D02*
X129288424Y-125755256D01*
X129288424Y-125755256D02*
X129336043Y-125850494D01*
X129336043Y-125850494D02*
X129336043Y-125945732D01*
X129336043Y-125945732D02*
X128859853Y-126040970D01*
X130193186Y-126374304D02*
X130193186Y-125850494D01*
X130193186Y-125850494D02*
X130145567Y-125755256D01*
X130145567Y-125755256D02*
X130050329Y-125707637D01*
X130050329Y-125707637D02*
X129859853Y-125707637D01*
X129859853Y-125707637D02*
X129764615Y-125755256D01*
X130193186Y-126326685D02*
X130097948Y-126374304D01*
X130097948Y-126374304D02*
X129859853Y-126374304D01*
X129859853Y-126374304D02*
X129764615Y-126326685D01*
X129764615Y-126326685D02*
X129716996Y-126231446D01*
X129716996Y-126231446D02*
X129716996Y-126136208D01*
X129716996Y-126136208D02*
X129764615Y-126040970D01*
X129764615Y-126040970D02*
X129859853Y-125993351D01*
X129859853Y-125993351D02*
X130097948Y-125993351D01*
X130097948Y-125993351D02*
X130193186Y-125945732D01*
X130669377Y-126374304D02*
X130669377Y-125374304D01*
X130764615Y-125993351D02*
X131050329Y-126374304D01*
X131050329Y-125707637D02*
X130669377Y-126088589D01*
X131621758Y-126374304D02*
X131526520Y-126326685D01*
X131526520Y-126326685D02*
X131478901Y-126279065D01*
X131478901Y-126279065D02*
X131431282Y-126183827D01*
X131431282Y-126183827D02*
X131431282Y-125898113D01*
X131431282Y-125898113D02*
X131478901Y-125802875D01*
X131478901Y-125802875D02*
X131526520Y-125755256D01*
X131526520Y-125755256D02*
X131621758Y-125707637D01*
X131621758Y-125707637D02*
X131764615Y-125707637D01*
X131764615Y-125707637D02*
X131859853Y-125755256D01*
X131859853Y-125755256D02*
X131907472Y-125802875D01*
X131907472Y-125802875D02*
X131955091Y-125898113D01*
X131955091Y-125898113D02*
X131955091Y-126183827D01*
X131955091Y-126183827D02*
X131907472Y-126279065D01*
X131907472Y-126279065D02*
X131859853Y-126326685D01*
X131859853Y-126326685D02*
X131764615Y-126374304D01*
X131764615Y-126374304D02*
X131621758Y-126374304D01*
X132812234Y-125707637D02*
X132812234Y-126374304D01*
X132383663Y-125707637D02*
X132383663Y-126231446D01*
X132383663Y-126231446D02*
X132431282Y-126326685D01*
X132431282Y-126326685D02*
X132526520Y-126374304D01*
X132526520Y-126374304D02*
X132669377Y-126374304D01*
X132669377Y-126374304D02*
X132764615Y-126326685D01*
X132764615Y-126326685D02*
X132812234Y-126279065D01*
X133145568Y-125707637D02*
X133526520Y-125707637D01*
X133288425Y-125374304D02*
X133288425Y-126231446D01*
X133288425Y-126231446D02*
X133336044Y-126326685D01*
X133336044Y-126326685D02*
X133431282Y-126374304D01*
X133431282Y-126374304D02*
X133526520Y-126374304D01*
X134955092Y-125850494D02*
X135097949Y-125898113D01*
X135097949Y-125898113D02*
X135145568Y-125945732D01*
X135145568Y-125945732D02*
X135193187Y-126040970D01*
X135193187Y-126040970D02*
X135193187Y-126183827D01*
X135193187Y-126183827D02*
X135145568Y-126279065D01*
X135145568Y-126279065D02*
X135097949Y-126326685D01*
X135097949Y-126326685D02*
X135002711Y-126374304D01*
X135002711Y-126374304D02*
X134621759Y-126374304D01*
X134621759Y-126374304D02*
X134621759Y-125374304D01*
X134621759Y-125374304D02*
X134955092Y-125374304D01*
X134955092Y-125374304D02*
X135050330Y-125421923D01*
X135050330Y-125421923D02*
X135097949Y-125469542D01*
X135097949Y-125469542D02*
X135145568Y-125564780D01*
X135145568Y-125564780D02*
X135145568Y-125660018D01*
X135145568Y-125660018D02*
X135097949Y-125755256D01*
X135097949Y-125755256D02*
X135050330Y-125802875D01*
X135050330Y-125802875D02*
X134955092Y-125850494D01*
X134955092Y-125850494D02*
X134621759Y-125850494D01*
X135764616Y-126374304D02*
X135669378Y-126326685D01*
X135669378Y-126326685D02*
X135621759Y-126279065D01*
X135621759Y-126279065D02*
X135574140Y-126183827D01*
X135574140Y-126183827D02*
X135574140Y-125898113D01*
X135574140Y-125898113D02*
X135621759Y-125802875D01*
X135621759Y-125802875D02*
X135669378Y-125755256D01*
X135669378Y-125755256D02*
X135764616Y-125707637D01*
X135764616Y-125707637D02*
X135907473Y-125707637D01*
X135907473Y-125707637D02*
X136002711Y-125755256D01*
X136002711Y-125755256D02*
X136050330Y-125802875D01*
X136050330Y-125802875D02*
X136097949Y-125898113D01*
X136097949Y-125898113D02*
X136097949Y-126183827D01*
X136097949Y-126183827D02*
X136050330Y-126279065D01*
X136050330Y-126279065D02*
X136002711Y-126326685D01*
X136002711Y-126326685D02*
X135907473Y-126374304D01*
X135907473Y-126374304D02*
X135764616Y-126374304D01*
X136955092Y-126374304D02*
X136955092Y-125850494D01*
X136955092Y-125850494D02*
X136907473Y-125755256D01*
X136907473Y-125755256D02*
X136812235Y-125707637D01*
X136812235Y-125707637D02*
X136621759Y-125707637D01*
X136621759Y-125707637D02*
X136526521Y-125755256D01*
X136955092Y-126326685D02*
X136859854Y-126374304D01*
X136859854Y-126374304D02*
X136621759Y-126374304D01*
X136621759Y-126374304D02*
X136526521Y-126326685D01*
X136526521Y-126326685D02*
X136478902Y-126231446D01*
X136478902Y-126231446D02*
X136478902Y-126136208D01*
X136478902Y-126136208D02*
X136526521Y-126040970D01*
X136526521Y-126040970D02*
X136621759Y-125993351D01*
X136621759Y-125993351D02*
X136859854Y-125993351D01*
X136859854Y-125993351D02*
X136955092Y-125945732D01*
X137431283Y-126374304D02*
X137431283Y-125707637D01*
X137431283Y-125898113D02*
X137478902Y-125802875D01*
X137478902Y-125802875D02*
X137526521Y-125755256D01*
X137526521Y-125755256D02*
X137621759Y-125707637D01*
X137621759Y-125707637D02*
X137716997Y-125707637D01*
X138478902Y-126374304D02*
X138478902Y-125374304D01*
X138478902Y-126326685D02*
X138383664Y-126374304D01*
X138383664Y-126374304D02*
X138193188Y-126374304D01*
X138193188Y-126374304D02*
X138097950Y-126326685D01*
X138097950Y-126326685D02*
X138050331Y-126279065D01*
X138050331Y-126279065D02*
X138002712Y-126183827D01*
X138002712Y-126183827D02*
X138002712Y-125898113D01*
X138002712Y-125898113D02*
X138050331Y-125802875D01*
X138050331Y-125802875D02*
X138097950Y-125755256D01*
X138097950Y-125755256D02*
X138193188Y-125707637D01*
X138193188Y-125707637D02*
X138383664Y-125707637D01*
X138383664Y-125707637D02*
X138478902Y-125755256D01*
X139002712Y-126326685D02*
X139002712Y-126374304D01*
X139002712Y-126374304D02*
X138955093Y-126469542D01*
X138955093Y-126469542D02*
X138907474Y-126517161D01*
X140764616Y-126374304D02*
X140431283Y-125898113D01*
X140193188Y-126374304D02*
X140193188Y-125374304D01*
X140193188Y-125374304D02*
X140574140Y-125374304D01*
X140574140Y-125374304D02*
X140669378Y-125421923D01*
X140669378Y-125421923D02*
X140716997Y-125469542D01*
X140716997Y-125469542D02*
X140764616Y-125564780D01*
X140764616Y-125564780D02*
X140764616Y-125707637D01*
X140764616Y-125707637D02*
X140716997Y-125802875D01*
X140716997Y-125802875D02*
X140669378Y-125850494D01*
X140669378Y-125850494D02*
X140574140Y-125898113D01*
X140574140Y-125898113D02*
X140193188Y-125898113D01*
X141574140Y-126326685D02*
X141478902Y-126374304D01*
X141478902Y-126374304D02*
X141288426Y-126374304D01*
X141288426Y-126374304D02*
X141193188Y-126326685D01*
X141193188Y-126326685D02*
X141145569Y-126231446D01*
X141145569Y-126231446D02*
X141145569Y-125850494D01*
X141145569Y-125850494D02*
X141193188Y-125755256D01*
X141193188Y-125755256D02*
X141288426Y-125707637D01*
X141288426Y-125707637D02*
X141478902Y-125707637D01*
X141478902Y-125707637D02*
X141574140Y-125755256D01*
X141574140Y-125755256D02*
X141621759Y-125850494D01*
X141621759Y-125850494D02*
X141621759Y-125945732D01*
X141621759Y-125945732D02*
X141145569Y-126040970D01*
X141955093Y-125707637D02*
X142193188Y-126374304D01*
X142193188Y-126374304D02*
X142431283Y-125707637D01*
X143336045Y-126374304D02*
X142764617Y-126374304D01*
X143050331Y-126374304D02*
X143050331Y-125374304D01*
X143050331Y-125374304D02*
X142955093Y-125517161D01*
X142955093Y-125517161D02*
X142859855Y-125612399D01*
X142859855Y-125612399D02*
X142764617Y-125660018D01*
X114478898Y-127984248D02*
X114478898Y-126984248D01*
X114478898Y-126984248D02*
X114812231Y-127698533D01*
X114812231Y-127698533D02*
X115145564Y-126984248D01*
X115145564Y-126984248D02*
X115145564Y-127984248D01*
X116050326Y-127984248D02*
X116050326Y-127460438D01*
X116050326Y-127460438D02*
X116002707Y-127365200D01*
X116002707Y-127365200D02*
X115907469Y-127317581D01*
X115907469Y-127317581D02*
X115716993Y-127317581D01*
X115716993Y-127317581D02*
X115621755Y-127365200D01*
X116050326Y-127936629D02*
X115955088Y-127984248D01*
X115955088Y-127984248D02*
X115716993Y-127984248D01*
X115716993Y-127984248D02*
X115621755Y-127936629D01*
X115621755Y-127936629D02*
X115574136Y-127841390D01*
X115574136Y-127841390D02*
X115574136Y-127746152D01*
X115574136Y-127746152D02*
X115621755Y-127650914D01*
X115621755Y-127650914D02*
X115716993Y-127603295D01*
X115716993Y-127603295D02*
X115955088Y-127603295D01*
X115955088Y-127603295D02*
X116050326Y-127555676D01*
X116526517Y-127984248D02*
X116526517Y-127317581D01*
X116526517Y-127508057D02*
X116574136Y-127412819D01*
X116574136Y-127412819D02*
X116621755Y-127365200D01*
X116621755Y-127365200D02*
X116716993Y-127317581D01*
X116716993Y-127317581D02*
X116812231Y-127317581D01*
X117097946Y-127936629D02*
X117193184Y-127984248D01*
X117193184Y-127984248D02*
X117383660Y-127984248D01*
X117383660Y-127984248D02*
X117478898Y-127936629D01*
X117478898Y-127936629D02*
X117526517Y-127841390D01*
X117526517Y-127841390D02*
X117526517Y-127793771D01*
X117526517Y-127793771D02*
X117478898Y-127698533D01*
X117478898Y-127698533D02*
X117383660Y-127650914D01*
X117383660Y-127650914D02*
X117240803Y-127650914D01*
X117240803Y-127650914D02*
X117145565Y-127603295D01*
X117145565Y-127603295D02*
X117097946Y-127508057D01*
X117097946Y-127508057D02*
X117097946Y-127460438D01*
X117097946Y-127460438D02*
X117145565Y-127365200D01*
X117145565Y-127365200D02*
X117240803Y-127317581D01*
X117240803Y-127317581D02*
X117383660Y-127317581D01*
X117383660Y-127317581D02*
X117478898Y-127365200D01*
X119288422Y-127984248D02*
X118955089Y-127508057D01*
X118716994Y-127984248D02*
X118716994Y-126984248D01*
X118716994Y-126984248D02*
X119097946Y-126984248D01*
X119097946Y-126984248D02*
X119193184Y-127031867D01*
X119193184Y-127031867D02*
X119240803Y-127079486D01*
X119240803Y-127079486D02*
X119288422Y-127174724D01*
X119288422Y-127174724D02*
X119288422Y-127317581D01*
X119288422Y-127317581D02*
X119240803Y-127412819D01*
X119240803Y-127412819D02*
X119193184Y-127460438D01*
X119193184Y-127460438D02*
X119097946Y-127508057D01*
X119097946Y-127508057D02*
X118716994Y-127508057D01*
X119859851Y-127984248D02*
X119764613Y-127936629D01*
X119764613Y-127936629D02*
X119716994Y-127889009D01*
X119716994Y-127889009D02*
X119669375Y-127793771D01*
X119669375Y-127793771D02*
X119669375Y-127508057D01*
X119669375Y-127508057D02*
X119716994Y-127412819D01*
X119716994Y-127412819D02*
X119764613Y-127365200D01*
X119764613Y-127365200D02*
X119859851Y-127317581D01*
X119859851Y-127317581D02*
X120002708Y-127317581D01*
X120002708Y-127317581D02*
X120097946Y-127365200D01*
X120097946Y-127365200D02*
X120145565Y-127412819D01*
X120145565Y-127412819D02*
X120193184Y-127508057D01*
X120193184Y-127508057D02*
X120193184Y-127793771D01*
X120193184Y-127793771D02*
X120145565Y-127889009D01*
X120145565Y-127889009D02*
X120097946Y-127936629D01*
X120097946Y-127936629D02*
X120002708Y-127984248D01*
X120002708Y-127984248D02*
X119859851Y-127984248D01*
X120526518Y-127317581D02*
X120764613Y-127984248D01*
X120764613Y-127984248D02*
X121002708Y-127317581D01*
X121764613Y-127936629D02*
X121669375Y-127984248D01*
X121669375Y-127984248D02*
X121478899Y-127984248D01*
X121478899Y-127984248D02*
X121383661Y-127936629D01*
X121383661Y-127936629D02*
X121336042Y-127841390D01*
X121336042Y-127841390D02*
X121336042Y-127460438D01*
X121336042Y-127460438D02*
X121383661Y-127365200D01*
X121383661Y-127365200D02*
X121478899Y-127317581D01*
X121478899Y-127317581D02*
X121669375Y-127317581D01*
X121669375Y-127317581D02*
X121764613Y-127365200D01*
X121764613Y-127365200D02*
X121812232Y-127460438D01*
X121812232Y-127460438D02*
X121812232Y-127555676D01*
X121812232Y-127555676D02*
X121336042Y-127650914D01*
X122240804Y-127984248D02*
X122240804Y-127317581D01*
X122240804Y-127508057D02*
X122288423Y-127412819D01*
X122288423Y-127412819D02*
X122336042Y-127365200D01*
X122336042Y-127365200D02*
X122431280Y-127317581D01*
X122431280Y-127317581D02*
X122526518Y-127317581D01*
X123621757Y-127984248D02*
X123621757Y-126984248D01*
X123621757Y-126984248D02*
X123859852Y-126984248D01*
X123859852Y-126984248D02*
X124002709Y-127031867D01*
X124002709Y-127031867D02*
X124097947Y-127127105D01*
X124097947Y-127127105D02*
X124145566Y-127222343D01*
X124145566Y-127222343D02*
X124193185Y-127412819D01*
X124193185Y-127412819D02*
X124193185Y-127555676D01*
X124193185Y-127555676D02*
X124145566Y-127746152D01*
X124145566Y-127746152D02*
X124097947Y-127841390D01*
X124097947Y-127841390D02*
X124002709Y-127936629D01*
X124002709Y-127936629D02*
X123859852Y-127984248D01*
X123859852Y-127984248D02*
X123621757Y-127984248D01*
X125002709Y-127936629D02*
X124907471Y-127984248D01*
X124907471Y-127984248D02*
X124716995Y-127984248D01*
X124716995Y-127984248D02*
X124621757Y-127936629D01*
X124621757Y-127936629D02*
X124574138Y-127841390D01*
X124574138Y-127841390D02*
X124574138Y-127460438D01*
X124574138Y-127460438D02*
X124621757Y-127365200D01*
X124621757Y-127365200D02*
X124716995Y-127317581D01*
X124716995Y-127317581D02*
X124907471Y-127317581D01*
X124907471Y-127317581D02*
X125002709Y-127365200D01*
X125002709Y-127365200D02*
X125050328Y-127460438D01*
X125050328Y-127460438D02*
X125050328Y-127555676D01*
X125050328Y-127555676D02*
X124574138Y-127650914D01*
X125431281Y-127936629D02*
X125526519Y-127984248D01*
X125526519Y-127984248D02*
X125716995Y-127984248D01*
X125716995Y-127984248D02*
X125812233Y-127936629D01*
X125812233Y-127936629D02*
X125859852Y-127841390D01*
X125859852Y-127841390D02*
X125859852Y-127793771D01*
X125859852Y-127793771D02*
X125812233Y-127698533D01*
X125812233Y-127698533D02*
X125716995Y-127650914D01*
X125716995Y-127650914D02*
X125574138Y-127650914D01*
X125574138Y-127650914D02*
X125478900Y-127603295D01*
X125478900Y-127603295D02*
X125431281Y-127508057D01*
X125431281Y-127508057D02*
X125431281Y-127460438D01*
X125431281Y-127460438D02*
X125478900Y-127365200D01*
X125478900Y-127365200D02*
X125574138Y-127317581D01*
X125574138Y-127317581D02*
X125716995Y-127317581D01*
X125716995Y-127317581D02*
X125812233Y-127365200D01*
X126288424Y-127984248D02*
X126288424Y-127317581D01*
X126288424Y-126984248D02*
X126240805Y-127031867D01*
X126240805Y-127031867D02*
X126288424Y-127079486D01*
X126288424Y-127079486D02*
X126336043Y-127031867D01*
X126336043Y-127031867D02*
X126288424Y-126984248D01*
X126288424Y-126984248D02*
X126288424Y-127079486D01*
X127193185Y-127317581D02*
X127193185Y-128127105D01*
X127193185Y-128127105D02*
X127145566Y-128222343D01*
X127145566Y-128222343D02*
X127097947Y-128269962D01*
X127097947Y-128269962D02*
X127002709Y-128317581D01*
X127002709Y-128317581D02*
X126859852Y-128317581D01*
X126859852Y-128317581D02*
X126764614Y-128269962D01*
X127193185Y-127936629D02*
X127097947Y-127984248D01*
X127097947Y-127984248D02*
X126907471Y-127984248D01*
X126907471Y-127984248D02*
X126812233Y-127936629D01*
X126812233Y-127936629D02*
X126764614Y-127889009D01*
X126764614Y-127889009D02*
X126716995Y-127793771D01*
X126716995Y-127793771D02*
X126716995Y-127508057D01*
X126716995Y-127508057D02*
X126764614Y-127412819D01*
X126764614Y-127412819D02*
X126812233Y-127365200D01*
X126812233Y-127365200D02*
X126907471Y-127317581D01*
X126907471Y-127317581D02*
X127097947Y-127317581D01*
X127097947Y-127317581D02*
X127193185Y-127365200D01*
X127669376Y-127317581D02*
X127669376Y-127984248D01*
X127669376Y-127412819D02*
X127716995Y-127365200D01*
X127716995Y-127365200D02*
X127812233Y-127317581D01*
X127812233Y-127317581D02*
X127955090Y-127317581D01*
X127955090Y-127317581D02*
X128050328Y-127365200D01*
X128050328Y-127365200D02*
X128097947Y-127460438D01*
X128097947Y-127460438D02*
X128097947Y-127984248D01*
X129193186Y-126984248D02*
X129764614Y-126984248D01*
X129478900Y-127984248D02*
X129478900Y-126984248D01*
X130478900Y-127936629D02*
X130383662Y-127984248D01*
X130383662Y-127984248D02*
X130193186Y-127984248D01*
X130193186Y-127984248D02*
X130097948Y-127936629D01*
X130097948Y-127936629D02*
X130050329Y-127841390D01*
X130050329Y-127841390D02*
X130050329Y-127460438D01*
X130050329Y-127460438D02*
X130097948Y-127365200D01*
X130097948Y-127365200D02*
X130193186Y-127317581D01*
X130193186Y-127317581D02*
X130383662Y-127317581D01*
X130383662Y-127317581D02*
X130478900Y-127365200D01*
X130478900Y-127365200D02*
X130526519Y-127460438D01*
X130526519Y-127460438D02*
X130526519Y-127555676D01*
X130526519Y-127555676D02*
X130050329Y-127650914D01*
X131383662Y-127984248D02*
X131383662Y-127460438D01*
X131383662Y-127460438D02*
X131336043Y-127365200D01*
X131336043Y-127365200D02*
X131240805Y-127317581D01*
X131240805Y-127317581D02*
X131050329Y-127317581D01*
X131050329Y-127317581D02*
X130955091Y-127365200D01*
X131383662Y-127936629D02*
X131288424Y-127984248D01*
X131288424Y-127984248D02*
X131050329Y-127984248D01*
X131050329Y-127984248D02*
X130955091Y-127936629D01*
X130955091Y-127936629D02*
X130907472Y-127841390D01*
X130907472Y-127841390D02*
X130907472Y-127746152D01*
X130907472Y-127746152D02*
X130955091Y-127650914D01*
X130955091Y-127650914D02*
X131050329Y-127603295D01*
X131050329Y-127603295D02*
X131288424Y-127603295D01*
X131288424Y-127603295D02*
X131383662Y-127555676D01*
X131859853Y-127984248D02*
X131859853Y-127317581D01*
X131859853Y-127412819D02*
X131907472Y-127365200D01*
X131907472Y-127365200D02*
X132002710Y-127317581D01*
X132002710Y-127317581D02*
X132145567Y-127317581D01*
X132145567Y-127317581D02*
X132240805Y-127365200D01*
X132240805Y-127365200D02*
X132288424Y-127460438D01*
X132288424Y-127460438D02*
X132288424Y-127984248D01*
X132288424Y-127460438D02*
X132336043Y-127365200D01*
X132336043Y-127365200D02*
X132431281Y-127317581D01*
X132431281Y-127317581D02*
X132574138Y-127317581D01*
X132574138Y-127317581D02*
X132669377Y-127365200D01*
X132669377Y-127365200D02*
X132716996Y-127460438D01*
X132716996Y-127460438D02*
X132716996Y-127984248D01*
X114478898Y-129594192D02*
X114478898Y-128594192D01*
X114478898Y-128594192D02*
X114812231Y-129308477D01*
X114812231Y-129308477D02*
X115145564Y-128594192D01*
X115145564Y-128594192D02*
X115145564Y-129594192D01*
X115621755Y-129594192D02*
X115621755Y-128927525D01*
X115621755Y-128594192D02*
X115574136Y-128641811D01*
X115574136Y-128641811D02*
X115621755Y-128689430D01*
X115621755Y-128689430D02*
X115669374Y-128641811D01*
X115669374Y-128641811D02*
X115621755Y-128594192D01*
X115621755Y-128594192D02*
X115621755Y-128689430D01*
X116050326Y-129546573D02*
X116145564Y-129594192D01*
X116145564Y-129594192D02*
X116336040Y-129594192D01*
X116336040Y-129594192D02*
X116431278Y-129546573D01*
X116431278Y-129546573D02*
X116478897Y-129451334D01*
X116478897Y-129451334D02*
X116478897Y-129403715D01*
X116478897Y-129403715D02*
X116431278Y-129308477D01*
X116431278Y-129308477D02*
X116336040Y-129260858D01*
X116336040Y-129260858D02*
X116193183Y-129260858D01*
X116193183Y-129260858D02*
X116097945Y-129213239D01*
X116097945Y-129213239D02*
X116050326Y-129118001D01*
X116050326Y-129118001D02*
X116050326Y-129070382D01*
X116050326Y-129070382D02*
X116097945Y-128975144D01*
X116097945Y-128975144D02*
X116193183Y-128927525D01*
X116193183Y-128927525D02*
X116336040Y-128927525D01*
X116336040Y-128927525D02*
X116431278Y-128975144D01*
X116859850Y-129546573D02*
X116955088Y-129594192D01*
X116955088Y-129594192D02*
X117145564Y-129594192D01*
X117145564Y-129594192D02*
X117240802Y-129546573D01*
X117240802Y-129546573D02*
X117288421Y-129451334D01*
X117288421Y-129451334D02*
X117288421Y-129403715D01*
X117288421Y-129403715D02*
X117240802Y-129308477D01*
X117240802Y-129308477D02*
X117145564Y-129260858D01*
X117145564Y-129260858D02*
X117002707Y-129260858D01*
X117002707Y-129260858D02*
X116907469Y-129213239D01*
X116907469Y-129213239D02*
X116859850Y-129118001D01*
X116859850Y-129118001D02*
X116859850Y-129070382D01*
X116859850Y-129070382D02*
X116907469Y-128975144D01*
X116907469Y-128975144D02*
X117002707Y-128927525D01*
X117002707Y-128927525D02*
X117145564Y-128927525D01*
X117145564Y-128927525D02*
X117240802Y-128975144D01*
X117859850Y-129594192D02*
X117764612Y-129546573D01*
X117764612Y-129546573D02*
X117716993Y-129498953D01*
X117716993Y-129498953D02*
X117669374Y-129403715D01*
X117669374Y-129403715D02*
X117669374Y-129118001D01*
X117669374Y-129118001D02*
X117716993Y-129022763D01*
X117716993Y-129022763D02*
X117764612Y-128975144D01*
X117764612Y-128975144D02*
X117859850Y-128927525D01*
X117859850Y-128927525D02*
X118002707Y-128927525D01*
X118002707Y-128927525D02*
X118097945Y-128975144D01*
X118097945Y-128975144D02*
X118145564Y-129022763D01*
X118145564Y-129022763D02*
X118193183Y-129118001D01*
X118193183Y-129118001D02*
X118193183Y-129403715D01*
X118193183Y-129403715D02*
X118145564Y-129498953D01*
X118145564Y-129498953D02*
X118097945Y-129546573D01*
X118097945Y-129546573D02*
X118002707Y-129594192D01*
X118002707Y-129594192D02*
X117859850Y-129594192D01*
X119050326Y-128927525D02*
X119050326Y-129594192D01*
X118621755Y-128927525D02*
X118621755Y-129451334D01*
X118621755Y-129451334D02*
X118669374Y-129546573D01*
X118669374Y-129546573D02*
X118764612Y-129594192D01*
X118764612Y-129594192D02*
X118907469Y-129594192D01*
X118907469Y-129594192D02*
X119002707Y-129546573D01*
X119002707Y-129546573D02*
X119050326Y-129498953D01*
X119526517Y-129594192D02*
X119526517Y-128927525D01*
X119526517Y-129118001D02*
X119574136Y-129022763D01*
X119574136Y-129022763D02*
X119621755Y-128975144D01*
X119621755Y-128975144D02*
X119716993Y-128927525D01*
X119716993Y-128927525D02*
X119812231Y-128927525D01*
X120145565Y-129594192D02*
X120145565Y-128927525D01*
X120145565Y-128594192D02*
X120097946Y-128641811D01*
X120097946Y-128641811D02*
X120145565Y-128689430D01*
X120145565Y-128689430D02*
X120193184Y-128641811D01*
X120193184Y-128641811D02*
X120145565Y-128594192D01*
X120145565Y-128594192D02*
X120145565Y-128689430D01*
X121336041Y-129546573D02*
X121478898Y-129594192D01*
X121478898Y-129594192D02*
X121716993Y-129594192D01*
X121716993Y-129594192D02*
X121812231Y-129546573D01*
X121812231Y-129546573D02*
X121859850Y-129498953D01*
X121859850Y-129498953D02*
X121907469Y-129403715D01*
X121907469Y-129403715D02*
X121907469Y-129308477D01*
X121907469Y-129308477D02*
X121859850Y-129213239D01*
X121859850Y-129213239D02*
X121812231Y-129165620D01*
X121812231Y-129165620D02*
X121716993Y-129118001D01*
X121716993Y-129118001D02*
X121526517Y-129070382D01*
X121526517Y-129070382D02*
X121431279Y-129022763D01*
X121431279Y-129022763D02*
X121383660Y-128975144D01*
X121383660Y-128975144D02*
X121336041Y-128879906D01*
X121336041Y-128879906D02*
X121336041Y-128784668D01*
X121336041Y-128784668D02*
X121383660Y-128689430D01*
X121383660Y-128689430D02*
X121431279Y-128641811D01*
X121431279Y-128641811D02*
X121526517Y-128594192D01*
X121526517Y-128594192D02*
X121764612Y-128594192D01*
X121764612Y-128594192D02*
X121907469Y-128641811D01*
X123145565Y-129594192D02*
X123097946Y-129594192D01*
X123097946Y-129594192D02*
X123002707Y-129546573D01*
X123002707Y-129546573D02*
X122859850Y-129403715D01*
X122859850Y-129403715D02*
X122621755Y-129118001D01*
X122621755Y-129118001D02*
X122526517Y-128975144D01*
X122526517Y-128975144D02*
X122478898Y-128832287D01*
X122478898Y-128832287D02*
X122478898Y-128737049D01*
X122478898Y-128737049D02*
X122526517Y-128641811D01*
X122526517Y-128641811D02*
X122621755Y-128594192D01*
X122621755Y-128594192D02*
X122669374Y-128594192D01*
X122669374Y-128594192D02*
X122764612Y-128641811D01*
X122764612Y-128641811D02*
X122812231Y-128737049D01*
X122812231Y-128737049D02*
X122812231Y-128784668D01*
X122812231Y-128784668D02*
X122764612Y-128879906D01*
X122764612Y-128879906D02*
X122716993Y-128927525D01*
X122716993Y-128927525D02*
X122431279Y-129118001D01*
X122431279Y-129118001D02*
X122383660Y-129165620D01*
X122383660Y-129165620D02*
X122336041Y-129260858D01*
X122336041Y-129260858D02*
X122336041Y-129403715D01*
X122336041Y-129403715D02*
X122383660Y-129498953D01*
X122383660Y-129498953D02*
X122431279Y-129546573D01*
X122431279Y-129546573D02*
X122526517Y-129594192D01*
X122526517Y-129594192D02*
X122669374Y-129594192D01*
X122669374Y-129594192D02*
X122764612Y-129546573D01*
X122764612Y-129546573D02*
X122812231Y-129498953D01*
X122812231Y-129498953D02*
X122955088Y-129308477D01*
X122955088Y-129308477D02*
X123002707Y-129165620D01*
X123002707Y-129165620D02*
X123002707Y-129070382D01*
X123431279Y-128594192D02*
X124002707Y-128594192D01*
X123716993Y-129594192D02*
X123716993Y-128594192D01*
X124383660Y-129546573D02*
X124383660Y-129594192D01*
X124383660Y-129594192D02*
X124336041Y-129689430D01*
X124336041Y-129689430D02*
X124288422Y-129737049D01*
X125526517Y-128689430D02*
X125574136Y-128641811D01*
X125574136Y-128641811D02*
X125669374Y-128594192D01*
X125669374Y-128594192D02*
X125907469Y-128594192D01*
X125907469Y-128594192D02*
X126002707Y-128641811D01*
X126002707Y-128641811D02*
X126050326Y-128689430D01*
X126050326Y-128689430D02*
X126097945Y-128784668D01*
X126097945Y-128784668D02*
X126097945Y-128879906D01*
X126097945Y-128879906D02*
X126050326Y-129022763D01*
X126050326Y-129022763D02*
X125478898Y-129594192D01*
X125478898Y-129594192D02*
X126097945Y-129594192D01*
X126716993Y-128594192D02*
X126812231Y-128594192D01*
X126812231Y-128594192D02*
X126907469Y-128641811D01*
X126907469Y-128641811D02*
X126955088Y-128689430D01*
X126955088Y-128689430D02*
X127002707Y-128784668D01*
X127002707Y-128784668D02*
X127050326Y-128975144D01*
X127050326Y-128975144D02*
X127050326Y-129213239D01*
X127050326Y-129213239D02*
X127002707Y-129403715D01*
X127002707Y-129403715D02*
X126955088Y-129498953D01*
X126955088Y-129498953D02*
X126907469Y-129546573D01*
X126907469Y-129546573D02*
X126812231Y-129594192D01*
X126812231Y-129594192D02*
X126716993Y-129594192D01*
X126716993Y-129594192D02*
X126621755Y-129546573D01*
X126621755Y-129546573D02*
X126574136Y-129498953D01*
X126574136Y-129498953D02*
X126526517Y-129403715D01*
X126526517Y-129403715D02*
X126478898Y-129213239D01*
X126478898Y-129213239D02*
X126478898Y-128975144D01*
X126478898Y-128975144D02*
X126526517Y-128784668D01*
X126526517Y-128784668D02*
X126574136Y-128689430D01*
X126574136Y-128689430D02*
X126621755Y-128641811D01*
X126621755Y-128641811D02*
X126716993Y-128594192D01*
X127431279Y-128689430D02*
X127478898Y-128641811D01*
X127478898Y-128641811D02*
X127574136Y-128594192D01*
X127574136Y-128594192D02*
X127812231Y-128594192D01*
X127812231Y-128594192D02*
X127907469Y-128641811D01*
X127907469Y-128641811D02*
X127955088Y-128689430D01*
X127955088Y-128689430D02*
X128002707Y-128784668D01*
X128002707Y-128784668D02*
X128002707Y-128879906D01*
X128002707Y-128879906D02*
X127955088Y-129022763D01*
X127955088Y-129022763D02*
X127383660Y-129594192D01*
X127383660Y-129594192D02*
X128002707Y-129594192D01*
X128907469Y-128594192D02*
X128431279Y-128594192D01*
X128431279Y-128594192D02*
X128383660Y-129070382D01*
X128383660Y-129070382D02*
X128431279Y-129022763D01*
X128431279Y-129022763D02*
X128526517Y-128975144D01*
X128526517Y-128975144D02*
X128764612Y-128975144D01*
X128764612Y-128975144D02*
X128859850Y-129022763D01*
X128859850Y-129022763D02*
X128907469Y-129070382D01*
X128907469Y-129070382D02*
X128955088Y-129165620D01*
X128955088Y-129165620D02*
X128955088Y-129403715D01*
X128955088Y-129403715D02*
X128907469Y-129498953D01*
X128907469Y-129498953D02*
X128859850Y-129546573D01*
X128859850Y-129546573D02*
X128764612Y-129594192D01*
X128764612Y-129594192D02*
X128526517Y-129594192D01*
X128526517Y-129594192D02*
X128431279Y-129546573D01*
X128431279Y-129546573D02*
X128383660Y-129498953D01*
X115050326Y-131108897D02*
X115002707Y-131156517D01*
X115002707Y-131156517D02*
X114859850Y-131204136D01*
X114859850Y-131204136D02*
X114764612Y-131204136D01*
X114764612Y-131204136D02*
X114621755Y-131156517D01*
X114621755Y-131156517D02*
X114526517Y-131061278D01*
X114526517Y-131061278D02*
X114478898Y-130966040D01*
X114478898Y-130966040D02*
X114431279Y-130775564D01*
X114431279Y-130775564D02*
X114431279Y-130632707D01*
X114431279Y-130632707D02*
X114478898Y-130442231D01*
X114478898Y-130442231D02*
X114526517Y-130346993D01*
X114526517Y-130346993D02*
X114621755Y-130251755D01*
X114621755Y-130251755D02*
X114764612Y-130204136D01*
X114764612Y-130204136D02*
X114859850Y-130204136D01*
X114859850Y-130204136D02*
X115002707Y-130251755D01*
X115002707Y-130251755D02*
X115050326Y-130299374D01*
X115621755Y-131204136D02*
X115526517Y-131156517D01*
X115526517Y-131156517D02*
X115478898Y-131108897D01*
X115478898Y-131108897D02*
X115431279Y-131013659D01*
X115431279Y-131013659D02*
X115431279Y-130727945D01*
X115431279Y-130727945D02*
X115478898Y-130632707D01*
X115478898Y-130632707D02*
X115526517Y-130585088D01*
X115526517Y-130585088D02*
X115621755Y-130537469D01*
X115621755Y-130537469D02*
X115764612Y-130537469D01*
X115764612Y-130537469D02*
X115859850Y-130585088D01*
X115859850Y-130585088D02*
X115907469Y-130632707D01*
X115907469Y-130632707D02*
X115955088Y-130727945D01*
X115955088Y-130727945D02*
X115955088Y-131013659D01*
X115955088Y-131013659D02*
X115907469Y-131108897D01*
X115907469Y-131108897D02*
X115859850Y-131156517D01*
X115859850Y-131156517D02*
X115764612Y-131204136D01*
X115764612Y-131204136D02*
X115621755Y-131204136D01*
X116526517Y-131204136D02*
X116431279Y-131156517D01*
X116431279Y-131156517D02*
X116383660Y-131108897D01*
X116383660Y-131108897D02*
X116336041Y-131013659D01*
X116336041Y-131013659D02*
X116336041Y-130727945D01*
X116336041Y-130727945D02*
X116383660Y-130632707D01*
X116383660Y-130632707D02*
X116431279Y-130585088D01*
X116431279Y-130585088D02*
X116526517Y-130537469D01*
X116526517Y-130537469D02*
X116669374Y-130537469D01*
X116669374Y-130537469D02*
X116764612Y-130585088D01*
X116764612Y-130585088D02*
X116812231Y-130632707D01*
X116812231Y-130632707D02*
X116859850Y-130727945D01*
X116859850Y-130727945D02*
X116859850Y-131013659D01*
X116859850Y-131013659D02*
X116812231Y-131108897D01*
X116812231Y-131108897D02*
X116764612Y-131156517D01*
X116764612Y-131156517D02*
X116669374Y-131204136D01*
X116669374Y-131204136D02*
X116526517Y-131204136D01*
X117288422Y-130537469D02*
X117288422Y-131537469D01*
X117288422Y-130585088D02*
X117383660Y-130537469D01*
X117383660Y-130537469D02*
X117574136Y-130537469D01*
X117574136Y-130537469D02*
X117669374Y-130585088D01*
X117669374Y-130585088D02*
X117716993Y-130632707D01*
X117716993Y-130632707D02*
X117764612Y-130727945D01*
X117764612Y-130727945D02*
X117764612Y-131013659D01*
X117764612Y-131013659D02*
X117716993Y-131108897D01*
X117716993Y-131108897D02*
X117669374Y-131156517D01*
X117669374Y-131156517D02*
X117574136Y-131204136D01*
X117574136Y-131204136D02*
X117383660Y-131204136D01*
X117383660Y-131204136D02*
X117288422Y-131156517D01*
X118574136Y-131156517D02*
X118478898Y-131204136D01*
X118478898Y-131204136D02*
X118288422Y-131204136D01*
X118288422Y-131204136D02*
X118193184Y-131156517D01*
X118193184Y-131156517D02*
X118145565Y-131061278D01*
X118145565Y-131061278D02*
X118145565Y-130680326D01*
X118145565Y-130680326D02*
X118193184Y-130585088D01*
X118193184Y-130585088D02*
X118288422Y-130537469D01*
X118288422Y-130537469D02*
X118478898Y-130537469D01*
X118478898Y-130537469D02*
X118574136Y-130585088D01*
X118574136Y-130585088D02*
X118621755Y-130680326D01*
X118621755Y-130680326D02*
X118621755Y-130775564D01*
X118621755Y-130775564D02*
X118145565Y-130870802D01*
X119050327Y-131204136D02*
X119050327Y-130537469D01*
X119050327Y-130727945D02*
X119097946Y-130632707D01*
X119097946Y-130632707D02*
X119145565Y-130585088D01*
X119145565Y-130585088D02*
X119240803Y-130537469D01*
X119240803Y-130537469D02*
X119336041Y-130537469D01*
X121002708Y-131204136D02*
X120669375Y-130727945D01*
X120431280Y-131204136D02*
X120431280Y-130204136D01*
X120431280Y-130204136D02*
X120812232Y-130204136D01*
X120812232Y-130204136D02*
X120907470Y-130251755D01*
X120907470Y-130251755D02*
X120955089Y-130299374D01*
X120955089Y-130299374D02*
X121002708Y-130394612D01*
X121002708Y-130394612D02*
X121002708Y-130537469D01*
X121002708Y-130537469D02*
X120955089Y-130632707D01*
X120955089Y-130632707D02*
X120907470Y-130680326D01*
X120907470Y-130680326D02*
X120812232Y-130727945D01*
X120812232Y-130727945D02*
X120431280Y-130727945D01*
X121431280Y-131204136D02*
X121431280Y-130537469D01*
X121431280Y-130204136D02*
X121383661Y-130251755D01*
X121383661Y-130251755D02*
X121431280Y-130299374D01*
X121431280Y-130299374D02*
X121478899Y-130251755D01*
X121478899Y-130251755D02*
X121431280Y-130204136D01*
X121431280Y-130204136D02*
X121431280Y-130299374D01*
X121764613Y-130537469D02*
X122145565Y-130537469D01*
X121907470Y-130204136D02*
X121907470Y-131061278D01*
X121907470Y-131061278D02*
X121955089Y-131156517D01*
X121955089Y-131156517D02*
X122050327Y-131204136D01*
X122050327Y-131204136D02*
X122145565Y-131204136D01*
X122383661Y-130537469D02*
X122907470Y-130537469D01*
X122907470Y-130537469D02*
X122383661Y-131204136D01*
X122383661Y-131204136D02*
X122907470Y-131204136D01*
X123288423Y-131204136D02*
X123288423Y-130537469D01*
X123288423Y-130632707D02*
X123336042Y-130585088D01*
X123336042Y-130585088D02*
X123431280Y-130537469D01*
X123431280Y-130537469D02*
X123574137Y-130537469D01*
X123574137Y-130537469D02*
X123669375Y-130585088D01*
X123669375Y-130585088D02*
X123716994Y-130680326D01*
X123716994Y-130680326D02*
X123716994Y-131204136D01*
X123716994Y-130680326D02*
X123764613Y-130585088D01*
X123764613Y-130585088D02*
X123859851Y-130537469D01*
X123859851Y-130537469D02*
X124002708Y-130537469D01*
X124002708Y-130537469D02*
X124097947Y-130585088D01*
X124097947Y-130585088D02*
X124145566Y-130680326D01*
X124145566Y-130680326D02*
X124145566Y-131204136D01*
X125050327Y-131204136D02*
X125050327Y-130680326D01*
X125050327Y-130680326D02*
X125002708Y-130585088D01*
X125002708Y-130585088D02*
X124907470Y-130537469D01*
X124907470Y-130537469D02*
X124716994Y-130537469D01*
X124716994Y-130537469D02*
X124621756Y-130585088D01*
X125050327Y-131156517D02*
X124955089Y-131204136D01*
X124955089Y-131204136D02*
X124716994Y-131204136D01*
X124716994Y-131204136D02*
X124621756Y-131156517D01*
X124621756Y-131156517D02*
X124574137Y-131061278D01*
X124574137Y-131061278D02*
X124574137Y-130966040D01*
X124574137Y-130966040D02*
X124621756Y-130870802D01*
X124621756Y-130870802D02*
X124716994Y-130823183D01*
X124716994Y-130823183D02*
X124955089Y-130823183D01*
X124955089Y-130823183D02*
X125050327Y-130775564D01*
D11*
X99034357Y-65169360D02*
X99820548Y-65169360D01*
X99820548Y-65169360D02*
X99397214Y-65653169D01*
X99397214Y-65653169D02*
X99578643Y-65653169D01*
X99578643Y-65653169D02*
X99699595Y-65713645D01*
X99699595Y-65713645D02*
X99760071Y-65774122D01*
X99760071Y-65774122D02*
X99820548Y-65895074D01*
X99820548Y-65895074D02*
X99820548Y-66197455D01*
X99820548Y-66197455D02*
X99760071Y-66318407D01*
X99760071Y-66318407D02*
X99699595Y-66378884D01*
X99699595Y-66378884D02*
X99578643Y-66439360D01*
X99578643Y-66439360D02*
X99215786Y-66439360D01*
X99215786Y-66439360D02*
X99094833Y-66378884D01*
X99094833Y-66378884D02*
X99034357Y-66318407D01*
X100364833Y-66318407D02*
X100425310Y-66378884D01*
X100425310Y-66378884D02*
X100364833Y-66439360D01*
X100364833Y-66439360D02*
X100304357Y-66378884D01*
X100304357Y-66378884D02*
X100364833Y-66318407D01*
X100364833Y-66318407D02*
X100364833Y-66439360D01*
X100848643Y-65169360D02*
X101634834Y-65169360D01*
X101634834Y-65169360D02*
X101211500Y-65653169D01*
X101211500Y-65653169D02*
X101392929Y-65653169D01*
X101392929Y-65653169D02*
X101513881Y-65713645D01*
X101513881Y-65713645D02*
X101574357Y-65774122D01*
X101574357Y-65774122D02*
X101634834Y-65895074D01*
X101634834Y-65895074D02*
X101634834Y-66197455D01*
X101634834Y-66197455D02*
X101574357Y-66318407D01*
X101574357Y-66318407D02*
X101513881Y-66378884D01*
X101513881Y-66378884D02*
X101392929Y-66439360D01*
X101392929Y-66439360D02*
X101030072Y-66439360D01*
X101030072Y-66439360D02*
X100909119Y-66378884D01*
X100909119Y-66378884D02*
X100848643Y-66318407D01*
X101997691Y-65169360D02*
X102421024Y-66439360D01*
X102421024Y-66439360D02*
X102844358Y-65169360D01*
D10*
X99253595Y-129635248D02*
X99378595Y-128635248D01*
X99259547Y-129587629D02*
X99158357Y-129635248D01*
X99158357Y-129635248D02*
X98967881Y-129635248D01*
X98967881Y-129635248D02*
X98878595Y-129587629D01*
X98878595Y-129587629D02*
X98836928Y-129540009D01*
X98836928Y-129540009D02*
X98801214Y-129444771D01*
X98801214Y-129444771D02*
X98836928Y-129159057D01*
X98836928Y-129159057D02*
X98896452Y-129063819D01*
X98896452Y-129063819D02*
X98950023Y-129016200D01*
X98950023Y-129016200D02*
X99051214Y-128968581D01*
X99051214Y-128968581D02*
X99241690Y-128968581D01*
X99241690Y-128968581D02*
X99330976Y-129016200D01*
X99967881Y-130016200D02*
X99926214Y-129968581D01*
X99926214Y-129968581D02*
X99848833Y-129825724D01*
X99848833Y-129825724D02*
X99813119Y-129730486D01*
X99813119Y-129730486D02*
X99783357Y-129587629D01*
X99783357Y-129587629D02*
X99765500Y-129349533D01*
X99765500Y-129349533D02*
X99789309Y-129159057D01*
X99789309Y-129159057D02*
X99866690Y-128920962D01*
X99866690Y-128920962D02*
X99932166Y-128778105D01*
X99932166Y-128778105D02*
X99991690Y-128682867D01*
X99991690Y-128682867D02*
X100104785Y-128540009D01*
X100104785Y-128540009D02*
X100158357Y-128492390D01*
X101039310Y-128682867D02*
X100950024Y-128635248D01*
X100950024Y-128635248D02*
X100807167Y-128635248D01*
X100807167Y-128635248D02*
X100658357Y-128682867D01*
X100658357Y-128682867D02*
X100551214Y-128778105D01*
X100551214Y-128778105D02*
X100491690Y-128873343D01*
X100491690Y-128873343D02*
X100420262Y-129063819D01*
X100420262Y-129063819D02*
X100402405Y-129206676D01*
X100402405Y-129206676D02*
X100426214Y-129397152D01*
X100426214Y-129397152D02*
X100461929Y-129492390D01*
X100461929Y-129492390D02*
X100545262Y-129587629D01*
X100545262Y-129587629D02*
X100682167Y-129635248D01*
X100682167Y-129635248D02*
X100777405Y-129635248D01*
X100777405Y-129635248D02*
X100926214Y-129587629D01*
X100926214Y-129587629D02*
X100979786Y-129540009D01*
X100979786Y-129540009D02*
X101021452Y-129206676D01*
X101021452Y-129206676D02*
X100830976Y-129206676D01*
X101396452Y-129635248D02*
X101521452Y-128635248D01*
X101521452Y-128635248D02*
X101902405Y-128635248D01*
X101902405Y-128635248D02*
X101991690Y-128682867D01*
X101991690Y-128682867D02*
X102033357Y-128730486D01*
X102033357Y-128730486D02*
X102069071Y-128825724D01*
X102069071Y-128825724D02*
X102051214Y-128968581D01*
X102051214Y-128968581D02*
X101991690Y-129063819D01*
X101991690Y-129063819D02*
X101938119Y-129111438D01*
X101938119Y-129111438D02*
X101836929Y-129159057D01*
X101836929Y-129159057D02*
X101455976Y-129159057D01*
X102354786Y-129587629D02*
X102491690Y-129635248D01*
X102491690Y-129635248D02*
X102729786Y-129635248D01*
X102729786Y-129635248D02*
X102830976Y-129587629D01*
X102830976Y-129587629D02*
X102884548Y-129540009D01*
X102884548Y-129540009D02*
X102944071Y-129444771D01*
X102944071Y-129444771D02*
X102955976Y-129349533D01*
X102955976Y-129349533D02*
X102920262Y-129254295D01*
X102920262Y-129254295D02*
X102878595Y-129206676D01*
X102878595Y-129206676D02*
X102789310Y-129159057D01*
X102789310Y-129159057D02*
X102604786Y-129111438D01*
X102604786Y-129111438D02*
X102515500Y-129063819D01*
X102515500Y-129063819D02*
X102473833Y-129016200D01*
X102473833Y-129016200D02*
X102438119Y-128920962D01*
X102438119Y-128920962D02*
X102450024Y-128825724D01*
X102450024Y-128825724D02*
X102509548Y-128730486D01*
X102509548Y-128730486D02*
X102563119Y-128682867D01*
X102563119Y-128682867D02*
X102664310Y-128635248D01*
X102664310Y-128635248D02*
X102902405Y-128635248D01*
X102902405Y-128635248D02*
X103039310Y-128682867D01*
X103205976Y-130016200D02*
X103259548Y-129968581D01*
X103259548Y-129968581D02*
X103372643Y-129825724D01*
X103372643Y-129825724D02*
X103432167Y-129730486D01*
X103432167Y-129730486D02*
X103497643Y-129587629D01*
X103497643Y-129587629D02*
X103575024Y-129349533D01*
X103575024Y-129349533D02*
X103598833Y-129159057D01*
X103598833Y-129159057D02*
X103580976Y-128920962D01*
X103580976Y-128920962D02*
X103551214Y-128778105D01*
X103551214Y-128778105D02*
X103515500Y-128682867D01*
X103515500Y-128682867D02*
X103438119Y-128540009D01*
X103438119Y-128540009D02*
X103396452Y-128492390D01*
X101110738Y-131245192D02*
X101235738Y-130245192D01*
X101116690Y-131197573D02*
X101015500Y-131245192D01*
X101015500Y-131245192D02*
X100825024Y-131245192D01*
X100825024Y-131245192D02*
X100735738Y-131197573D01*
X100735738Y-131197573D02*
X100694071Y-131149953D01*
X100694071Y-131149953D02*
X100658357Y-131054715D01*
X100658357Y-131054715D02*
X100694071Y-130769001D01*
X100694071Y-130769001D02*
X100753595Y-130673763D01*
X100753595Y-130673763D02*
X100807166Y-130626144D01*
X100807166Y-130626144D02*
X100908357Y-130578525D01*
X100908357Y-130578525D02*
X101098833Y-130578525D01*
X101098833Y-130578525D02*
X101188119Y-130626144D01*
X101527405Y-130578525D02*
X101908357Y-130578525D01*
X101711928Y-130245192D02*
X101604786Y-131102334D01*
X101604786Y-131102334D02*
X101640500Y-131197573D01*
X101640500Y-131197573D02*
X101729786Y-131245192D01*
X101729786Y-131245192D02*
X101825024Y-131245192D01*
D11*
X101557714Y-68181860D02*
X100952952Y-68181860D01*
X100952952Y-68181860D02*
X100892476Y-68786622D01*
X100892476Y-68786622D02*
X100952952Y-68726145D01*
X100952952Y-68726145D02*
X101073905Y-68665669D01*
X101073905Y-68665669D02*
X101376286Y-68665669D01*
X101376286Y-68665669D02*
X101497238Y-68726145D01*
X101497238Y-68726145D02*
X101557714Y-68786622D01*
X101557714Y-68786622D02*
X101618191Y-68907574D01*
X101618191Y-68907574D02*
X101618191Y-69209955D01*
X101618191Y-69209955D02*
X101557714Y-69330907D01*
X101557714Y-69330907D02*
X101497238Y-69391384D01*
X101497238Y-69391384D02*
X101376286Y-69451860D01*
X101376286Y-69451860D02*
X101073905Y-69451860D01*
X101073905Y-69451860D02*
X100952952Y-69391384D01*
X100952952Y-69391384D02*
X100892476Y-69330907D01*
X101981048Y-68181860D02*
X102404381Y-69451860D01*
X102404381Y-69451860D02*
X102827715Y-68181860D01*
X100907214Y-72539360D02*
X100907214Y-71269360D01*
X100907214Y-71269360D02*
X101391024Y-71269360D01*
X101391024Y-71269360D02*
X101511976Y-71329836D01*
X101511976Y-71329836D02*
X101572453Y-71390312D01*
X101572453Y-71390312D02*
X101632929Y-71511264D01*
X101632929Y-71511264D02*
X101632929Y-71692693D01*
X101632929Y-71692693D02*
X101572453Y-71813645D01*
X101572453Y-71813645D02*
X101511976Y-71874122D01*
X101511976Y-71874122D02*
X101391024Y-71934598D01*
X101391024Y-71934598D02*
X100907214Y-71934598D01*
X101995786Y-71269360D02*
X102419119Y-72539360D01*
X102419119Y-72539360D02*
X102842453Y-71269360D01*
D10*
X114120699Y-122317410D02*
X114168319Y-122365029D01*
X114168319Y-122365029D02*
X114215938Y-122507886D01*
X114215938Y-122507886D02*
X114215938Y-122603124D01*
X114215938Y-122603124D02*
X114168319Y-122745981D01*
X114168319Y-122745981D02*
X114073080Y-122841219D01*
X114073080Y-122841219D02*
X113977842Y-122888838D01*
X113977842Y-122888838D02*
X113787366Y-122936457D01*
X113787366Y-122936457D02*
X113644509Y-122936457D01*
X113644509Y-122936457D02*
X113454033Y-122888838D01*
X113454033Y-122888838D02*
X113358795Y-122841219D01*
X113358795Y-122841219D02*
X113263557Y-122745981D01*
X113263557Y-122745981D02*
X113215938Y-122603124D01*
X113215938Y-122603124D02*
X113215938Y-122507886D01*
X113215938Y-122507886D02*
X113263557Y-122365029D01*
X113263557Y-122365029D02*
X113311176Y-122317410D01*
X114215938Y-121745981D02*
X114168319Y-121841219D01*
X114168319Y-121841219D02*
X114120699Y-121888838D01*
X114120699Y-121888838D02*
X114025461Y-121936457D01*
X114025461Y-121936457D02*
X113739747Y-121936457D01*
X113739747Y-121936457D02*
X113644509Y-121888838D01*
X113644509Y-121888838D02*
X113596890Y-121841219D01*
X113596890Y-121841219D02*
X113549271Y-121745981D01*
X113549271Y-121745981D02*
X113549271Y-121603124D01*
X113549271Y-121603124D02*
X113596890Y-121507886D01*
X113596890Y-121507886D02*
X113644509Y-121460267D01*
X113644509Y-121460267D02*
X113739747Y-121412648D01*
X113739747Y-121412648D02*
X114025461Y-121412648D01*
X114025461Y-121412648D02*
X114120699Y-121460267D01*
X114120699Y-121460267D02*
X114168319Y-121507886D01*
X114168319Y-121507886D02*
X114215938Y-121603124D01*
X114215938Y-121603124D02*
X114215938Y-121745981D01*
X113549271Y-120984076D02*
X114215938Y-120984076D01*
X113644509Y-120984076D02*
X113596890Y-120936457D01*
X113596890Y-120936457D02*
X113549271Y-120841219D01*
X113549271Y-120841219D02*
X113549271Y-120698362D01*
X113549271Y-120698362D02*
X113596890Y-120603124D01*
X113596890Y-120603124D02*
X113692128Y-120555505D01*
X113692128Y-120555505D02*
X114215938Y-120555505D01*
X113549271Y-120079314D02*
X114215938Y-120079314D01*
X113644509Y-120079314D02*
X113596890Y-120031695D01*
X113596890Y-120031695D02*
X113549271Y-119936457D01*
X113549271Y-119936457D02*
X113549271Y-119793600D01*
X113549271Y-119793600D02*
X113596890Y-119698362D01*
X113596890Y-119698362D02*
X113692128Y-119650743D01*
X113692128Y-119650743D02*
X114215938Y-119650743D01*
X114215938Y-118650743D02*
X114215938Y-119222171D01*
X114215938Y-118936457D02*
X113215938Y-118936457D01*
X113215938Y-118936457D02*
X113358795Y-119031695D01*
X113358795Y-119031695D02*
X113454033Y-119126933D01*
X113454033Y-119126933D02*
X113501652Y-119222171D01*
X104128274Y-67805720D02*
X104128274Y-66805720D01*
X104128274Y-66805720D02*
X104366369Y-66805720D01*
X104366369Y-66805720D02*
X104509226Y-66853339D01*
X104509226Y-66853339D02*
X104604464Y-66948577D01*
X104604464Y-66948577D02*
X104652083Y-67043815D01*
X104652083Y-67043815D02*
X104699702Y-67234291D01*
X104699702Y-67234291D02*
X104699702Y-67377148D01*
X104699702Y-67377148D02*
X104652083Y-67567624D01*
X104652083Y-67567624D02*
X104604464Y-67662862D01*
X104604464Y-67662862D02*
X104509226Y-67758101D01*
X104509226Y-67758101D02*
X104366369Y-67805720D01*
X104366369Y-67805720D02*
X104128274Y-67805720D01*
X105033036Y-66805720D02*
X105652083Y-66805720D01*
X105652083Y-66805720D02*
X105318750Y-67186672D01*
X105318750Y-67186672D02*
X105461607Y-67186672D01*
X105461607Y-67186672D02*
X105556845Y-67234291D01*
X105556845Y-67234291D02*
X105604464Y-67281910D01*
X105604464Y-67281910D02*
X105652083Y-67377148D01*
X105652083Y-67377148D02*
X105652083Y-67615243D01*
X105652083Y-67615243D02*
X105604464Y-67710481D01*
X105604464Y-67710481D02*
X105556845Y-67758101D01*
X105556845Y-67758101D02*
X105461607Y-67805720D01*
X105461607Y-67805720D02*
X105175893Y-67805720D01*
X105175893Y-67805720D02*
X105080655Y-67758101D01*
X105080655Y-67758101D02*
X105033036Y-67710481D01*
D12*
X101626904Y-76484180D02*
X101626904Y-75674657D01*
X101626904Y-75674657D02*
X101579285Y-75579419D01*
X101579285Y-75579419D02*
X101531666Y-75531800D01*
X101531666Y-75531800D02*
X101436428Y-75484180D01*
X101436428Y-75484180D02*
X101245952Y-75484180D01*
X101245952Y-75484180D02*
X101150714Y-75531800D01*
X101150714Y-75531800D02*
X101103095Y-75579419D01*
X101103095Y-75579419D02*
X101055476Y-75674657D01*
X101055476Y-75674657D02*
X101055476Y-76484180D01*
X100626904Y-76388942D02*
X100579285Y-76436561D01*
X100579285Y-76436561D02*
X100484047Y-76484180D01*
X100484047Y-76484180D02*
X100245952Y-76484180D01*
X100245952Y-76484180D02*
X100150714Y-76436561D01*
X100150714Y-76436561D02*
X100103095Y-76388942D01*
X100103095Y-76388942D02*
X100055476Y-76293704D01*
X100055476Y-76293704D02*
X100055476Y-76198466D01*
X100055476Y-76198466D02*
X100103095Y-76055609D01*
X100103095Y-76055609D02*
X100674523Y-75484180D01*
X100674523Y-75484180D02*
X100055476Y-75484180D01*
D10*
X104109524Y-73901720D02*
X104109524Y-72901720D01*
X104109524Y-72901720D02*
X104347619Y-72901720D01*
X104347619Y-72901720D02*
X104490476Y-72949339D01*
X104490476Y-72949339D02*
X104585714Y-73044577D01*
X104585714Y-73044577D02*
X104633333Y-73139815D01*
X104633333Y-73139815D02*
X104680952Y-73330291D01*
X104680952Y-73330291D02*
X104680952Y-73473148D01*
X104680952Y-73473148D02*
X104633333Y-73663624D01*
X104633333Y-73663624D02*
X104585714Y-73758862D01*
X104585714Y-73758862D02*
X104490476Y-73854101D01*
X104490476Y-73854101D02*
X104347619Y-73901720D01*
X104347619Y-73901720D02*
X104109524Y-73901720D01*
X105633333Y-73901720D02*
X105061905Y-73901720D01*
X105347619Y-73901720D02*
X105347619Y-72901720D01*
X105347619Y-72901720D02*
X105252381Y-73044577D01*
X105252381Y-73044577D02*
X105157143Y-73139815D01*
X105157143Y-73139815D02*
X105061905Y-73187434D01*
X106767333Y-105900780D02*
X106719714Y-105948400D01*
X106719714Y-105948400D02*
X106576857Y-105996019D01*
X106576857Y-105996019D02*
X106481619Y-105996019D01*
X106481619Y-105996019D02*
X106338762Y-105948400D01*
X106338762Y-105948400D02*
X106243524Y-105853161D01*
X106243524Y-105853161D02*
X106195905Y-105757923D01*
X106195905Y-105757923D02*
X106148286Y-105567447D01*
X106148286Y-105567447D02*
X106148286Y-105424590D01*
X106148286Y-105424590D02*
X106195905Y-105234114D01*
X106195905Y-105234114D02*
X106243524Y-105138876D01*
X106243524Y-105138876D02*
X106338762Y-105043638D01*
X106338762Y-105043638D02*
X106481619Y-104996019D01*
X106481619Y-104996019D02*
X106576857Y-104996019D01*
X106576857Y-104996019D02*
X106719714Y-105043638D01*
X106719714Y-105043638D02*
X106767333Y-105091257D01*
X107719714Y-105996019D02*
X107148286Y-105996019D01*
X107434000Y-105996019D02*
X107434000Y-104996019D01*
X107434000Y-104996019D02*
X107338762Y-105138876D01*
X107338762Y-105138876D02*
X107243524Y-105234114D01*
X107243524Y-105234114D02*
X107148286Y-105281733D01*
X108509702Y-67711720D02*
X108176369Y-67235529D01*
X107938274Y-67711720D02*
X107938274Y-66711720D01*
X107938274Y-66711720D02*
X108319226Y-66711720D01*
X108319226Y-66711720D02*
X108414464Y-66759339D01*
X108414464Y-66759339D02*
X108462083Y-66806958D01*
X108462083Y-66806958D02*
X108509702Y-66902196D01*
X108509702Y-66902196D02*
X108509702Y-67045053D01*
X108509702Y-67045053D02*
X108462083Y-67140291D01*
X108462083Y-67140291D02*
X108414464Y-67187910D01*
X108414464Y-67187910D02*
X108319226Y-67235529D01*
X108319226Y-67235529D02*
X107938274Y-67235529D01*
X108843036Y-66711720D02*
X109462083Y-66711720D01*
X109462083Y-66711720D02*
X109128750Y-67092672D01*
X109128750Y-67092672D02*
X109271607Y-67092672D01*
X109271607Y-67092672D02*
X109366845Y-67140291D01*
X109366845Y-67140291D02*
X109414464Y-67187910D01*
X109414464Y-67187910D02*
X109462083Y-67283148D01*
X109462083Y-67283148D02*
X109462083Y-67521243D01*
X109462083Y-67521243D02*
X109414464Y-67616481D01*
X109414464Y-67616481D02*
X109366845Y-67664101D01*
X109366845Y-67664101D02*
X109271607Y-67711720D01*
X109271607Y-67711720D02*
X108985893Y-67711720D01*
X108985893Y-67711720D02*
X108890655Y-67664101D01*
X108890655Y-67664101D02*
X108843036Y-67616481D01*
X104109524Y-70853720D02*
X104109524Y-69853720D01*
X104109524Y-69853720D02*
X104347619Y-69853720D01*
X104347619Y-69853720D02*
X104490476Y-69901339D01*
X104490476Y-69901339D02*
X104585714Y-69996577D01*
X104585714Y-69996577D02*
X104633333Y-70091815D01*
X104633333Y-70091815D02*
X104680952Y-70282291D01*
X104680952Y-70282291D02*
X104680952Y-70425148D01*
X104680952Y-70425148D02*
X104633333Y-70615624D01*
X104633333Y-70615624D02*
X104585714Y-70710862D01*
X104585714Y-70710862D02*
X104490476Y-70806101D01*
X104490476Y-70806101D02*
X104347619Y-70853720D01*
X104347619Y-70853720D02*
X104109524Y-70853720D01*
X105061905Y-69948958D02*
X105109524Y-69901339D01*
X105109524Y-69901339D02*
X105204762Y-69853720D01*
X105204762Y-69853720D02*
X105442857Y-69853720D01*
X105442857Y-69853720D02*
X105538095Y-69901339D01*
X105538095Y-69901339D02*
X105585714Y-69948958D01*
X105585714Y-69948958D02*
X105633333Y-70044196D01*
X105633333Y-70044196D02*
X105633333Y-70139434D01*
X105633333Y-70139434D02*
X105585714Y-70282291D01*
X105585714Y-70282291D02*
X105014286Y-70853720D01*
X105014286Y-70853720D02*
X105633333Y-70853720D01*
X108490952Y-73901720D02*
X108157619Y-73425529D01*
X107919524Y-73901720D02*
X107919524Y-72901720D01*
X107919524Y-72901720D02*
X108300476Y-72901720D01*
X108300476Y-72901720D02*
X108395714Y-72949339D01*
X108395714Y-72949339D02*
X108443333Y-72996958D01*
X108443333Y-72996958D02*
X108490952Y-73092196D01*
X108490952Y-73092196D02*
X108490952Y-73235053D01*
X108490952Y-73235053D02*
X108443333Y-73330291D01*
X108443333Y-73330291D02*
X108395714Y-73377910D01*
X108395714Y-73377910D02*
X108300476Y-73425529D01*
X108300476Y-73425529D02*
X107919524Y-73425529D01*
X109443333Y-73901720D02*
X108871905Y-73901720D01*
X109157619Y-73901720D02*
X109157619Y-72901720D01*
X109157619Y-72901720D02*
X109062381Y-73044577D01*
X109062381Y-73044577D02*
X108967143Y-73139815D01*
X108967143Y-73139815D02*
X108871905Y-73187434D01*
X119073214Y-66825220D02*
X119073214Y-67634743D01*
X119073214Y-67634743D02*
X119120833Y-67729981D01*
X119120833Y-67729981D02*
X119168452Y-67777601D01*
X119168452Y-67777601D02*
X119263690Y-67825220D01*
X119263690Y-67825220D02*
X119454166Y-67825220D01*
X119454166Y-67825220D02*
X119549404Y-67777601D01*
X119549404Y-67777601D02*
X119597023Y-67729981D01*
X119597023Y-67729981D02*
X119644642Y-67634743D01*
X119644642Y-67634743D02*
X119644642Y-66825220D01*
X120644642Y-67825220D02*
X120073214Y-67825220D01*
X120358928Y-67825220D02*
X120358928Y-66825220D01*
X120358928Y-66825220D02*
X120263690Y-66968077D01*
X120263690Y-66968077D02*
X120168452Y-67063315D01*
X120168452Y-67063315D02*
X120073214Y-67110934D01*
X108490952Y-70759720D02*
X108157619Y-70283529D01*
X107919524Y-70759720D02*
X107919524Y-69759720D01*
X107919524Y-69759720D02*
X108300476Y-69759720D01*
X108300476Y-69759720D02*
X108395714Y-69807339D01*
X108395714Y-69807339D02*
X108443333Y-69854958D01*
X108443333Y-69854958D02*
X108490952Y-69950196D01*
X108490952Y-69950196D02*
X108490952Y-70093053D01*
X108490952Y-70093053D02*
X108443333Y-70188291D01*
X108443333Y-70188291D02*
X108395714Y-70235910D01*
X108395714Y-70235910D02*
X108300476Y-70283529D01*
X108300476Y-70283529D02*
X107919524Y-70283529D01*
X108871905Y-69854958D02*
X108919524Y-69807339D01*
X108919524Y-69807339D02*
X109014762Y-69759720D01*
X109014762Y-69759720D02*
X109252857Y-69759720D01*
X109252857Y-69759720D02*
X109348095Y-69807339D01*
X109348095Y-69807339D02*
X109395714Y-69854958D01*
X109395714Y-69854958D02*
X109443333Y-69950196D01*
X109443333Y-69950196D02*
X109443333Y-70045434D01*
X109443333Y-70045434D02*
X109395714Y-70188291D01*
X109395714Y-70188291D02*
X108824286Y-70759720D01*
X108824286Y-70759720D02*
X109443333Y-70759720D01*
X113112952Y-74210981D02*
X113065333Y-74258601D01*
X113065333Y-74258601D02*
X112922476Y-74306220D01*
X112922476Y-74306220D02*
X112827238Y-74306220D01*
X112827238Y-74306220D02*
X112684381Y-74258601D01*
X112684381Y-74258601D02*
X112589143Y-74163362D01*
X112589143Y-74163362D02*
X112541524Y-74068124D01*
X112541524Y-74068124D02*
X112493905Y-73877648D01*
X112493905Y-73877648D02*
X112493905Y-73734791D01*
X112493905Y-73734791D02*
X112541524Y-73544315D01*
X112541524Y-73544315D02*
X112589143Y-73449077D01*
X112589143Y-73449077D02*
X112684381Y-73353839D01*
X112684381Y-73353839D02*
X112827238Y-73306220D01*
X112827238Y-73306220D02*
X112922476Y-73306220D01*
X112922476Y-73306220D02*
X113065333Y-73353839D01*
X113065333Y-73353839D02*
X113112952Y-73401458D01*
X113493905Y-73401458D02*
X113541524Y-73353839D01*
X113541524Y-73353839D02*
X113636762Y-73306220D01*
X113636762Y-73306220D02*
X113874857Y-73306220D01*
X113874857Y-73306220D02*
X113970095Y-73353839D01*
X113970095Y-73353839D02*
X114017714Y-73401458D01*
X114017714Y-73401458D02*
X114065333Y-73496696D01*
X114065333Y-73496696D02*
X114065333Y-73591934D01*
X114065333Y-73591934D02*
X114017714Y-73734791D01*
X114017714Y-73734791D02*
X113446286Y-74306220D01*
X113446286Y-74306220D02*
X114065333Y-74306220D01*
%TO.C,Conn1*%
X96874119Y-118649601D02*
X112622119Y-118649601D01*
X96874119Y-130943201D02*
X96874119Y-118649601D01*
X96874119Y-130968601D02*
X96874119Y-132060801D01*
X96874119Y-134372201D02*
X96874119Y-135591401D01*
X96874119Y-143262201D02*
X96874119Y-135515201D01*
X96874119Y-143287601D02*
X112622119Y-143287601D01*
X98017119Y-133229201D02*
X99185519Y-133229201D01*
X102462119Y-133229201D02*
X99185519Y-133229201D01*
X102462119Y-133229201D02*
X103605119Y-133229201D01*
X104722719Y-143262201D02*
X104722719Y-134372201D01*
X104748119Y-130943201D02*
X104748119Y-118649601D01*
X104748119Y-130943201D02*
X104748119Y-132086201D01*
X107034119Y-133229201D02*
X105891119Y-133229201D01*
X107034119Y-133229201D02*
X110336119Y-133229201D01*
X110310719Y-133229201D02*
X111479119Y-133229201D01*
X112622119Y-130917801D02*
X112622119Y-132111601D01*
X112622119Y-130943201D02*
X112622119Y-118649601D01*
X112622119Y-135515201D02*
X112622119Y-143262201D01*
X112622119Y-135540601D02*
X112622119Y-134372201D01*
X96874119Y-132086201D02*
G75*
G02*
X98017119Y-133229201I0J-1143000D01*
G01*
X98017119Y-133229201D02*
G75*
G02*
X96874119Y-134372201I-1143000J0D01*
G01*
X111504519Y-133229201D02*
G75*
G02*
X112622119Y-132111601I1117598J2D01*
G01*
X112622119Y-134346801D02*
G75*
G02*
X111504519Y-133229201I-2J1117598D01*
G01*
X105891119Y-133229201D02*
G75*
G02*
X103605119Y-133229201I-1143000J0D01*
G01*
X103605119Y-133229201D02*
G75*
G02*
X105891119Y-133229201I1143000J0D01*
G01*
D13*
%TO.C,D3*%
X103206369Y-65091901D02*
X103206369Y-66561901D01*
X103206369Y-66561901D02*
X105666369Y-66561901D01*
X105666369Y-65091901D02*
X103206369Y-65091901D01*
%TO.C,U2*%
D12*
X114065000Y-104841600D02*
X87665000Y-104841600D01*
X87665000Y-78441600D01*
X114065000Y-78441600D01*
X114065000Y-104841600D01*
D10*
%TO.C,H1*%
X91337319Y-129227401D02*
G75*
G02*
X83310919Y-129227401I-4013200J0D01*
G01*
X83310919Y-129227401D02*
G75*
G02*
X91337319Y-129227401I4013200J0D01*
G01*
D13*
%TO.C,D1*%
X103187619Y-71187901D02*
X103187619Y-72657901D01*
X103187619Y-72657901D02*
X105647619Y-72657901D01*
X105647619Y-71187901D02*
X103187619Y-71187901D01*
D10*
%TO.C,H3*%
X193104499Y-129223401D02*
G75*
G02*
X185078099Y-129223401I-4013200J0D01*
G01*
X185078099Y-129223401D02*
G75*
G02*
X193104499Y-129223401I4013200J0D01*
G01*
%TO.C,H2*%
X91324899Y-65594981D02*
G75*
G02*
X83298499Y-65594981I-4013200J0D01*
G01*
X83298499Y-65594981D02*
G75*
G02*
X91324899Y-65594981I4013200J0D01*
G01*
D13*
%TO.C,C1*%
X106222748Y-106481200D02*
X107645252Y-106481200D01*
X106222748Y-108301200D02*
X107645252Y-108301200D01*
%TO.C,R3*%
X108931093Y-65304401D02*
X108421645Y-65304401D01*
X108931093Y-66349401D02*
X108421645Y-66349401D01*
%TO.C,D2*%
X103187619Y-68139901D02*
X103187619Y-69609901D01*
X103187619Y-69609901D02*
X105647619Y-69609901D01*
X105647619Y-68139901D02*
X103187619Y-68139901D01*
%TO.C,R1*%
X108402895Y-71400401D02*
X108912343Y-71400401D01*
X108402895Y-72445401D02*
X108912343Y-72445401D01*
%TO.C,R2*%
X108912343Y-68352401D02*
X108402895Y-68352401D01*
X108912343Y-69397401D02*
X108402895Y-69397401D01*
D14*
%TO.C,G\u002A\u002A\u002A*%
X147514119Y-92197401D02*
X147494119Y-92217401D01*
X147474119Y-92197401D01*
X147494119Y-92177401D01*
X147514119Y-92197401D01*
G36*
X147514119Y-92197401D02*
G01*
X147494119Y-92217401D01*
X147474119Y-92197401D01*
X147494119Y-92177401D01*
X147514119Y-92197401D01*
G37*
X164376111Y-73883423D02*
X164637933Y-73921185D01*
X164851108Y-73983160D01*
X164883624Y-73997239D01*
X165014119Y-74057711D01*
X164894119Y-74037412D01*
X164476473Y-73990572D01*
X164085283Y-73993691D01*
X163738317Y-74046575D01*
X163723991Y-74050131D01*
X163319668Y-74183095D01*
X162898337Y-74382337D01*
X162458561Y-74649026D01*
X161998900Y-74984333D01*
X161517920Y-75389427D01*
X161014182Y-75865477D01*
X160486249Y-76413655D01*
X159932685Y-77035129D01*
X159656842Y-77360539D01*
X159401289Y-77669182D01*
X159157145Y-77970155D01*
X158920585Y-78268988D01*
X158687782Y-78571213D01*
X158454912Y-78882360D01*
X158218147Y-79207959D01*
X157973663Y-79553541D01*
X157717632Y-79924636D01*
X157446230Y-80326775D01*
X157155630Y-80765489D01*
X156842006Y-81246309D01*
X156501533Y-81774763D01*
X156130385Y-82356384D01*
X155724735Y-82996702D01*
X155383839Y-83537401D01*
X154606460Y-84790980D01*
X153858763Y-86033721D01*
X153152768Y-87245564D01*
X152975088Y-87557401D01*
X152814512Y-87839141D01*
X152628480Y-88163182D01*
X152432307Y-88502993D01*
X152241307Y-88832044D01*
X152073719Y-89118826D01*
X151906799Y-89404962D01*
X151723697Y-89721842D01*
X151538544Y-90044811D01*
X151365473Y-90349214D01*
X151218614Y-90610398D01*
X151213915Y-90618826D01*
X151087261Y-90845674D01*
X150967107Y-91060159D01*
X150861449Y-91248066D01*
X150778280Y-91395179D01*
X150725594Y-91487281D01*
X150723935Y-91490133D01*
X150623314Y-91662866D01*
X150468027Y-91250133D01*
X150386579Y-91046010D01*
X150285319Y-90811576D01*
X150169327Y-90556798D01*
X150043682Y-90291641D01*
X149913464Y-90026072D01*
X149783754Y-89770057D01*
X149659631Y-89533562D01*
X149546176Y-89326552D01*
X149448469Y-89158994D01*
X149371589Y-89040853D01*
X149320616Y-88982097D01*
X149309542Y-88977401D01*
X149282665Y-89010843D01*
X149224970Y-89103578D01*
X149143113Y-89244216D01*
X149043749Y-89421371D01*
X148953062Y-89587401D01*
X148806631Y-89857506D01*
X148649612Y-90145298D01*
X148486786Y-90442179D01*
X148322937Y-90739553D01*
X148162845Y-91028826D01*
X148011294Y-91301400D01*
X147873064Y-91548681D01*
X147752938Y-91762071D01*
X147655698Y-91932976D01*
X147586126Y-92052799D01*
X147549005Y-92112945D01*
X147545590Y-92117401D01*
X147542815Y-92099842D01*
X147564077Y-92020978D01*
X147605334Y-91894416D01*
X147646595Y-91777401D01*
X147746802Y-91502065D01*
X147858190Y-91198330D01*
X147977576Y-90874675D01*
X148101777Y-90539581D01*
X148227608Y-90201528D01*
X148351885Y-89868995D01*
X148471425Y-89550463D01*
X148583044Y-89254412D01*
X148683558Y-88989321D01*
X148769783Y-88763671D01*
X148838536Y-88585942D01*
X148886633Y-88464613D01*
X148910890Y-88408165D01*
X148912605Y-88405401D01*
X148946344Y-88421043D01*
X149009624Y-88491063D01*
X149090328Y-88601543D01*
X149112816Y-88635401D01*
X149196250Y-88758713D01*
X149264253Y-88850503D01*
X149304656Y-88894575D01*
X149308817Y-88896257D01*
X149334143Y-88862205D01*
X149391078Y-88767451D01*
X149473931Y-88622065D01*
X149577007Y-88436113D01*
X149694614Y-88219666D01*
X149754119Y-88108713D01*
X149894249Y-87847804D01*
X150062023Y-87537790D01*
X150246121Y-87199441D01*
X150435228Y-86853523D01*
X150618024Y-86520805D01*
X150728980Y-86319857D01*
X150890044Y-86028371D01*
X151079242Y-85685150D01*
X151286405Y-85308693D01*
X151501363Y-84917497D01*
X151713947Y-84530063D01*
X151913987Y-84164888D01*
X151983726Y-84037401D01*
X152307845Y-83449336D01*
X152626206Y-82880872D01*
X152935360Y-82337794D01*
X153231858Y-81825887D01*
X153512252Y-81350936D01*
X153773093Y-80918729D01*
X154010933Y-80535049D01*
X154222323Y-80205682D01*
X154403813Y-79936414D01*
X154540898Y-79747415D01*
X154732919Y-79515878D01*
X154904175Y-79349405D01*
X155051829Y-79249583D01*
X155173043Y-79217994D01*
X155264977Y-79256225D01*
X155307698Y-79319283D01*
X155347297Y-79426132D01*
X155354112Y-79488951D01*
X155331576Y-79497339D01*
X155283123Y-79440900D01*
X155272899Y-79424674D01*
X155195712Y-79330921D01*
X155123998Y-79304718D01*
X155123048Y-79304888D01*
X155047875Y-79352871D01*
X154943762Y-79472687D01*
X154811974Y-79662094D01*
X154653777Y-79918844D01*
X154470434Y-80240695D01*
X154263212Y-80625401D01*
X154033376Y-81070717D01*
X153782189Y-81574399D01*
X153510918Y-82134202D01*
X153414107Y-82337401D01*
X153318765Y-82540560D01*
X153202395Y-82792210D01*
X153067926Y-83085767D01*
X152918285Y-83414648D01*
X152756401Y-83772270D01*
X152585201Y-84152051D01*
X152407614Y-84547406D01*
X152226568Y-84951754D01*
X152044990Y-85358510D01*
X151865809Y-85761092D01*
X151691953Y-86152916D01*
X151526350Y-86527400D01*
X151371928Y-86877961D01*
X151231615Y-87198015D01*
X151108339Y-87480979D01*
X151005029Y-87720270D01*
X150924611Y-87909306D01*
X150870015Y-88041503D01*
X150844168Y-88110277D01*
X150842653Y-88118746D01*
X150867142Y-88090124D01*
X150929853Y-88003874D01*
X151024582Y-87868900D01*
X151145127Y-87694106D01*
X151285283Y-87488395D01*
X151394119Y-87327235D01*
X151575548Y-87059296D01*
X151790344Y-86744902D01*
X152033024Y-86391887D01*
X152298105Y-86008085D01*
X152580104Y-85601328D01*
X152873539Y-85179449D01*
X153172927Y-84750282D01*
X153472786Y-84321659D01*
X153767632Y-83901415D01*
X154051984Y-83497381D01*
X154320358Y-83117391D01*
X154567272Y-82769278D01*
X154787243Y-82460876D01*
X154974788Y-82200017D01*
X155124425Y-81994535D01*
X155166641Y-81937401D01*
X155896821Y-80966471D01*
X156593163Y-80065733D01*
X157257175Y-79233613D01*
X157890367Y-78468537D01*
X158494250Y-77768931D01*
X159070332Y-77133219D01*
X159620124Y-76559828D01*
X160145136Y-76047184D01*
X160646876Y-75593712D01*
X161126856Y-75197838D01*
X161586585Y-74857987D01*
X162027573Y-74572586D01*
X162451329Y-74340060D01*
X162454119Y-74338674D01*
X162769993Y-74187922D01*
X163038837Y-74074754D01*
X163280344Y-73992617D01*
X163514205Y-73934957D01*
X163760113Y-73895223D01*
X163802360Y-73890036D01*
X164089600Y-73872248D01*
X164376111Y-73883423D01*
G36*
X164376111Y-73883423D02*
G01*
X164637933Y-73921185D01*
X164851108Y-73983160D01*
X164883624Y-73997239D01*
X165014119Y-74057711D01*
X164894119Y-74037412D01*
X164476473Y-73990572D01*
X164085283Y-73993691D01*
X163738317Y-74046575D01*
X163723991Y-74050131D01*
X163319668Y-74183095D01*
X162898337Y-74382337D01*
X162458561Y-74649026D01*
X161998900Y-74984333D01*
X161517920Y-75389427D01*
X161014182Y-75865477D01*
X160486249Y-76413655D01*
X159932685Y-77035129D01*
X159656842Y-77360539D01*
X159401289Y-77669182D01*
X159157145Y-77970155D01*
X158920585Y-78268988D01*
X158687782Y-78571213D01*
X158454912Y-78882360D01*
X158218147Y-79207959D01*
X157973663Y-79553541D01*
X157717632Y-79924636D01*
X157446230Y-80326775D01*
X157155630Y-80765489D01*
X156842006Y-81246309D01*
X156501533Y-81774763D01*
X156130385Y-82356384D01*
X155724735Y-82996702D01*
X155383839Y-83537401D01*
X154606460Y-84790980D01*
X153858763Y-86033721D01*
X153152768Y-87245564D01*
X152975088Y-87557401D01*
X152814512Y-87839141D01*
X152628480Y-88163182D01*
X152432307Y-88502993D01*
X152241307Y-88832044D01*
X152073719Y-89118826D01*
X151906799Y-89404962D01*
X151723697Y-89721842D01*
X151538544Y-90044811D01*
X151365473Y-90349214D01*
X151218614Y-90610398D01*
X151213915Y-90618826D01*
X151087261Y-90845674D01*
X150967107Y-91060159D01*
X150861449Y-91248066D01*
X150778280Y-91395179D01*
X150725594Y-91487281D01*
X150723935Y-91490133D01*
X150623314Y-91662866D01*
X150468027Y-91250133D01*
X150386579Y-91046010D01*
X150285319Y-90811576D01*
X150169327Y-90556798D01*
X150043682Y-90291641D01*
X149913464Y-90026072D01*
X149783754Y-89770057D01*
X149659631Y-89533562D01*
X149546176Y-89326552D01*
X149448469Y-89158994D01*
X149371589Y-89040853D01*
X149320616Y-88982097D01*
X149309542Y-88977401D01*
X149282665Y-89010843D01*
X149224970Y-89103578D01*
X149143113Y-89244216D01*
X149043749Y-89421371D01*
X148953062Y-89587401D01*
X148806631Y-89857506D01*
X148649612Y-90145298D01*
X148486786Y-90442179D01*
X148322937Y-90739553D01*
X148162845Y-91028826D01*
X148011294Y-91301400D01*
X147873064Y-91548681D01*
X147752938Y-91762071D01*
X147655698Y-91932976D01*
X147586126Y-92052799D01*
X147549005Y-92112945D01*
X147545590Y-92117401D01*
X147542815Y-92099842D01*
X147564077Y-92020978D01*
X147605334Y-91894416D01*
X147646595Y-91777401D01*
X147746802Y-91502065D01*
X147858190Y-91198330D01*
X147977576Y-90874675D01*
X148101777Y-90539581D01*
X148227608Y-90201528D01*
X148351885Y-89868995D01*
X148471425Y-89550463D01*
X148583044Y-89254412D01*
X148683558Y-88989321D01*
X148769783Y-88763671D01*
X148838536Y-88585942D01*
X148886633Y-88464613D01*
X148910890Y-88408165D01*
X148912605Y-88405401D01*
X148946344Y-88421043D01*
X149009624Y-88491063D01*
X149090328Y-88601543D01*
X149112816Y-88635401D01*
X149196250Y-88758713D01*
X149264253Y-88850503D01*
X149304656Y-88894575D01*
X149308817Y-88896257D01*
X149334143Y-88862205D01*
X149391078Y-88767451D01*
X149473931Y-88622065D01*
X149577007Y-88436113D01*
X149694614Y-88219666D01*
X149754119Y-88108713D01*
X149894249Y-87847804D01*
X150062023Y-87537790D01*
X150246121Y-87199441D01*
X150435228Y-86853523D01*
X150618024Y-86520805D01*
X150728980Y-86319857D01*
X150890044Y-86028371D01*
X151079242Y-85685150D01*
X151286405Y-85308693D01*
X151501363Y-84917497D01*
X151713947Y-84530063D01*
X151913987Y-84164888D01*
X151983726Y-84037401D01*
X152307845Y-83449336D01*
X152626206Y-82880872D01*
X152935360Y-82337794D01*
X153231858Y-81825887D01*
X153512252Y-81350936D01*
X153773093Y-80918729D01*
X154010933Y-80535049D01*
X154222323Y-80205682D01*
X154403813Y-79936414D01*
X154540898Y-79747415D01*
X154732919Y-79515878D01*
X154904175Y-79349405D01*
X155051829Y-79249583D01*
X155173043Y-79217994D01*
X155264977Y-79256225D01*
X155307698Y-79319283D01*
X155347297Y-79426132D01*
X155354112Y-79488951D01*
X155331576Y-79497339D01*
X155283123Y-79440900D01*
X155272899Y-79424674D01*
X155195712Y-79330921D01*
X155123998Y-79304718D01*
X155123048Y-79304888D01*
X155047875Y-79352871D01*
X154943762Y-79472687D01*
X154811974Y-79662094D01*
X154653777Y-79918844D01*
X154470434Y-80240695D01*
X154263212Y-80625401D01*
X154033376Y-81070717D01*
X153782189Y-81574399D01*
X153510918Y-82134202D01*
X153414107Y-82337401D01*
X153318765Y-82540560D01*
X153202395Y-82792210D01*
X153067926Y-83085767D01*
X152918285Y-83414648D01*
X152756401Y-83772270D01*
X152585201Y-84152051D01*
X152407614Y-84547406D01*
X152226568Y-84951754D01*
X152044990Y-85358510D01*
X151865809Y-85761092D01*
X151691953Y-86152916D01*
X151526350Y-86527400D01*
X151371928Y-86877961D01*
X151231615Y-87198015D01*
X151108339Y-87480979D01*
X151005029Y-87720270D01*
X150924611Y-87909306D01*
X150870015Y-88041503D01*
X150844168Y-88110277D01*
X150842653Y-88118746D01*
X150867142Y-88090124D01*
X150929853Y-88003874D01*
X151024582Y-87868900D01*
X151145127Y-87694106D01*
X151285283Y-87488395D01*
X151394119Y-87327235D01*
X151575548Y-87059296D01*
X151790344Y-86744902D01*
X152033024Y-86391887D01*
X152298105Y-86008085D01*
X152580104Y-85601328D01*
X152873539Y-85179449D01*
X153172927Y-84750282D01*
X153472786Y-84321659D01*
X153767632Y-83901415D01*
X154051984Y-83497381D01*
X154320358Y-83117391D01*
X154567272Y-82769278D01*
X154787243Y-82460876D01*
X154974788Y-82200017D01*
X155124425Y-81994535D01*
X155166641Y-81937401D01*
X155896821Y-80966471D01*
X156593163Y-80065733D01*
X157257175Y-79233613D01*
X157890367Y-78468537D01*
X158494250Y-77768931D01*
X159070332Y-77133219D01*
X159620124Y-76559828D01*
X160145136Y-76047184D01*
X160646876Y-75593712D01*
X161126856Y-75197838D01*
X161586585Y-74857987D01*
X162027573Y-74572586D01*
X162451329Y-74340060D01*
X162454119Y-74338674D01*
X162769993Y-74187922D01*
X163038837Y-74074754D01*
X163280344Y-73992617D01*
X163514205Y-73934957D01*
X163760113Y-73895223D01*
X163802360Y-73890036D01*
X164089600Y-73872248D01*
X164376111Y-73883423D01*
G37*
X151266899Y-82801200D02*
X151245952Y-82849412D01*
X151177832Y-82951971D01*
X151138750Y-83007308D01*
X151065639Y-83115227D01*
X150994006Y-83233681D01*
X150919356Y-83372144D01*
X150837194Y-83540088D01*
X150743024Y-83746986D01*
X150632353Y-84002310D01*
X150500684Y-84315533D01*
X150383462Y-84598971D01*
X150283769Y-84843708D01*
X150160812Y-85149594D01*
X150019924Y-85503063D01*
X149866435Y-85890548D01*
X149705676Y-86298482D01*
X149542977Y-86713298D01*
X149383670Y-87121431D01*
X149233084Y-87509313D01*
X149096552Y-87863378D01*
X148979402Y-88170059D01*
X148956092Y-88231588D01*
X148912914Y-88345776D01*
X148688552Y-88038553D01*
X148589353Y-87910109D01*
X148505588Y-87815282D01*
X148448849Y-87766492D01*
X148432708Y-87764365D01*
X148410324Y-87805203D01*
X148356219Y-87912051D01*
X148273367Y-88078836D01*
X148164739Y-88299481D01*
X148033308Y-88567912D01*
X147882045Y-88878052D01*
X147713923Y-89223828D01*
X147531913Y-89599163D01*
X147338988Y-89997983D01*
X147261998Y-90157401D01*
X146818748Y-91075095D01*
X146407438Y-91925513D01*
X146025639Y-92713620D01*
X145670924Y-93444381D01*
X145340864Y-94122762D01*
X145033031Y-94753727D01*
X144744995Y-95342243D01*
X144474329Y-95893273D01*
X144218605Y-96411783D01*
X143975394Y-96902739D01*
X143742267Y-97371105D01*
X143516796Y-97821847D01*
X143388453Y-98077401D01*
X143214506Y-98425313D01*
X143065970Y-98724397D01*
X142937563Y-98981519D01*
X142824003Y-99203548D01*
X142720005Y-99397351D01*
X142620289Y-99569795D01*
X142519571Y-99727747D01*
X142412568Y-99878075D01*
X142293998Y-100027647D01*
X142158578Y-100183329D01*
X142001026Y-100351990D01*
X141816058Y-100540497D01*
X141598392Y-100755716D01*
X141342746Y-101004517D01*
X141043837Y-101293765D01*
X140696381Y-101630329D01*
X140534119Y-101788016D01*
X140241441Y-102074397D01*
X139955102Y-102357573D01*
X139682574Y-102629950D01*
X139431327Y-102883933D01*
X139208832Y-103111928D01*
X139022562Y-103306338D01*
X138879988Y-103459570D01*
X138796996Y-103553846D01*
X138571287Y-103819231D01*
X138297591Y-104133036D01*
X137983910Y-104486544D01*
X137638252Y-104871034D01*
X137268619Y-105277789D01*
X136883017Y-105698092D01*
X136489451Y-106123223D01*
X136095925Y-106544464D01*
X135710445Y-106953097D01*
X135341015Y-107340404D01*
X134995639Y-107697666D01*
X134939125Y-107755572D01*
X134747986Y-107951669D01*
X134577322Y-108127827D01*
X134434508Y-108276344D01*
X134326922Y-108389519D01*
X134261938Y-108459651D01*
X134245623Y-108479643D01*
X134294788Y-108497160D01*
X134406182Y-108529208D01*
X134564207Y-108571811D01*
X134753263Y-108620994D01*
X134957749Y-108672778D01*
X135162067Y-108723188D01*
X135350616Y-108768248D01*
X135507797Y-108803980D01*
X135568522Y-108816856D01*
X135825416Y-108865296D01*
X136012112Y-108890807D01*
X136134914Y-108893859D01*
X136200127Y-108874917D01*
X136209784Y-108864414D01*
X136248000Y-108826710D01*
X136334472Y-108751775D01*
X136454687Y-108651979D01*
X136542144Y-108581164D01*
X136854119Y-108330900D01*
X136538446Y-108628634D01*
X136222773Y-108926369D01*
X136358446Y-108950650D01*
X136598922Y-108985432D01*
X136887150Y-109013607D01*
X137212208Y-109035255D01*
X137563176Y-109050456D01*
X137929132Y-109059289D01*
X138299155Y-109061835D01*
X138662325Y-109058173D01*
X139007721Y-109048384D01*
X139324421Y-109032547D01*
X139601504Y-109010742D01*
X139828050Y-108983050D01*
X139993138Y-108949550D01*
X140064668Y-108923519D01*
X140110407Y-108876326D01*
X140191360Y-108766647D01*
X140303215Y-108601550D01*
X140441658Y-108388100D01*
X140602375Y-108133366D01*
X140781053Y-107844413D01*
X140973377Y-107528309D01*
X141175035Y-107192120D01*
X141381712Y-106842912D01*
X141589096Y-106487754D01*
X141792871Y-106133710D01*
X141988726Y-105787848D01*
X142094985Y-105597401D01*
X142263602Y-105298527D01*
X142444697Y-104986492D01*
X142627713Y-104678874D01*
X142802093Y-104393251D01*
X142957280Y-104147200D01*
X143055946Y-103997401D01*
X143203566Y-103771996D01*
X143375004Y-103498140D01*
X143556764Y-103198145D01*
X143735349Y-102894325D01*
X143897263Y-102608993D01*
X143913462Y-102579718D01*
X144112250Y-102228521D01*
X144307730Y-101903933D01*
X144513964Y-101584133D01*
X144745011Y-101247302D01*
X145009020Y-100879718D01*
X145574371Y-100089817D01*
X146108611Y-99309399D01*
X146624159Y-98519216D01*
X147133435Y-97700020D01*
X147648858Y-96832566D01*
X147888366Y-96417401D01*
X148032084Y-96170440D01*
X148162865Y-95957267D01*
X148292497Y-95761179D01*
X148432769Y-95565471D01*
X148595468Y-95353440D01*
X148792382Y-95108381D01*
X148932800Y-94937401D01*
X149126597Y-94702324D01*
X149319365Y-94467842D01*
X149500173Y-94247299D01*
X149658090Y-94054041D01*
X149782185Y-93901410D01*
X149833841Y-93837401D01*
X149958157Y-93684257D01*
X150115556Y-93492764D01*
X150287337Y-93285553D01*
X150454802Y-93085254D01*
X150482490Y-93052340D01*
X150618841Y-92887238D01*
X150734540Y-92741073D01*
X150820548Y-92625747D01*
X150867827Y-92553160D01*
X150874119Y-92536652D01*
X150863447Y-92476585D01*
X150835988Y-92367421D01*
X150798573Y-92232671D01*
X150758035Y-92095847D01*
X150721206Y-91980460D01*
X150694918Y-91910022D01*
X150689080Y-91899895D01*
X150654154Y-91916092D01*
X150579101Y-91975533D01*
X150486022Y-92059895D01*
X150393711Y-92143081D01*
X150350497Y-92170644D01*
X150358876Y-92141038D01*
X150361080Y-92137401D01*
X150417003Y-92040161D01*
X150485803Y-91912448D01*
X150512947Y-91859958D01*
X150567533Y-91757354D01*
X150601011Y-91717513D01*
X150627370Y-91731307D01*
X150650334Y-91770329D01*
X150671862Y-91803057D01*
X150699051Y-91814272D01*
X150742183Y-91797546D01*
X150811540Y-91746449D01*
X150917404Y-91654551D01*
X151070059Y-91515424D01*
X151095724Y-91491835D01*
X151548457Y-91079074D01*
X151951785Y-90719091D01*
X152311667Y-90406917D01*
X152634063Y-90137582D01*
X152924929Y-89906116D01*
X153190226Y-89707549D01*
X153435912Y-89536911D01*
X153454119Y-89524833D01*
X153779756Y-89323200D01*
X154058403Y-89179668D01*
X154288674Y-89094729D01*
X154469184Y-89068875D01*
X154598547Y-89102598D01*
X154614119Y-89113333D01*
X154656819Y-89150735D01*
X154648870Y-89169000D01*
X154578684Y-89175250D01*
X154511950Y-89176128D01*
X154333621Y-89202577D01*
X154156686Y-89287215D01*
X154148807Y-89292171D01*
X154008705Y-89391161D01*
X153827249Y-89534298D01*
X153619181Y-89708695D01*
X153399244Y-89901462D01*
X153182181Y-90099711D01*
X152982735Y-90290555D01*
X152834119Y-90441485D01*
X152710692Y-90573052D01*
X152554335Y-90741730D01*
X152373257Y-90938475D01*
X152175664Y-91154247D01*
X151969765Y-91380003D01*
X151763766Y-91606699D01*
X151565876Y-91825295D01*
X151384301Y-92026747D01*
X151227250Y-92202014D01*
X151102929Y-92342052D01*
X151019547Y-92437820D01*
X150992195Y-92470761D01*
X150904032Y-92582841D01*
X151012220Y-93070121D01*
X151101091Y-93493361D01*
X151170194Y-93880706D01*
X151222143Y-94254768D01*
X151259552Y-94638161D01*
X151285037Y-95053499D01*
X151301212Y-95523397D01*
X151302578Y-95581286D01*
X151307592Y-96231569D01*
X151290161Y-96825174D01*
X151248212Y-97382786D01*
X151179672Y-97925090D01*
X151082468Y-98472772D01*
X150955846Y-99041074D01*
X150678960Y-100016105D01*
X150328920Y-100962224D01*
X149908544Y-101875585D01*
X149420650Y-102752347D01*
X148868053Y-103588666D01*
X148253572Y-104380699D01*
X147580023Y-105124603D01*
X146850223Y-105816534D01*
X146066990Y-106452650D01*
X145233141Y-107029108D01*
X144989912Y-107179946D01*
X144159797Y-107640774D01*
X143291442Y-108043887D01*
X142398151Y-108384274D01*
X141493230Y-108656922D01*
X140589984Y-108856818D01*
X140494119Y-108873667D01*
X140283848Y-108916468D01*
X140148175Y-108960611D01*
X140082736Y-109006363D01*
X140046450Y-109058106D01*
X139971698Y-109165884D01*
X139865319Y-109319795D01*
X139734151Y-109509938D01*
X139585031Y-109726411D01*
X139467373Y-109897401D01*
X139028406Y-110520601D01*
X138615462Y-111074863D01*
X138224038Y-111565195D01*
X137849630Y-111996607D01*
X137487733Y-112374106D01*
X137133843Y-112702701D01*
X136783457Y-112987401D01*
X136519023Y-113175962D01*
X136285965Y-113318260D01*
X136017667Y-113459291D01*
X135739579Y-113587275D01*
X135477151Y-113690432D01*
X135272076Y-113753123D01*
X134944046Y-113811363D01*
X134589087Y-113837262D01*
X134242066Y-113829624D01*
X133986391Y-113797214D01*
X133512374Y-113666740D01*
X133058075Y-113458882D01*
X132624103Y-113173940D01*
X132473881Y-113053320D01*
X132357930Y-112963025D01*
X132263545Y-112916155D01*
X132156237Y-112899059D01*
X132079968Y-112897401D01*
X131543921Y-112865984D01*
X131000003Y-112775256D01*
X130870648Y-112740148D01*
X133826750Y-112740148D01*
X133882127Y-112774881D01*
X133934119Y-112791117D01*
X134009986Y-112799846D01*
X134141210Y-112804124D01*
X134303240Y-112803315D01*
X134354119Y-112801988D01*
X134587451Y-112785141D01*
X134779986Y-112746383D01*
X134945270Y-112688573D01*
X135215653Y-112565119D01*
X135457627Y-112423743D01*
X135692764Y-112249627D01*
X135942636Y-112027952D01*
X136031222Y-111942604D01*
X136161949Y-111812375D01*
X136259114Y-111711036D01*
X136315521Y-111646495D01*
X136323969Y-111626660D01*
X136314119Y-111631836D01*
X135900682Y-111888613D01*
X135543451Y-112093380D01*
X135239379Y-112247881D01*
X135224826Y-112254637D01*
X135010166Y-112346644D01*
X134764318Y-112440668D01*
X134509521Y-112529231D01*
X134268011Y-112604855D01*
X134062030Y-112660061D01*
X133953620Y-112682120D01*
X133850728Y-112708407D01*
X133826750Y-112740148D01*
X130870648Y-112740148D01*
X130466642Y-112630498D01*
X129962267Y-112436995D01*
X129505306Y-112200028D01*
X129386217Y-112125200D01*
X129248476Y-112045056D01*
X129113085Y-111982765D01*
X129034119Y-111957837D01*
X128929966Y-111926895D01*
X128783581Y-111871003D01*
X128624076Y-111801405D01*
X128600811Y-111790475D01*
X128280828Y-111594947D01*
X128280310Y-111594460D01*
X132175618Y-111594460D01*
X132188886Y-111626172D01*
X132226276Y-111669051D01*
X132235099Y-111678444D01*
X132285141Y-111727791D01*
X132334873Y-111758299D01*
X132399763Y-111770436D01*
X132495279Y-111764668D01*
X132636891Y-111741462D01*
X132840066Y-111701286D01*
X132859715Y-111697297D01*
X133023176Y-111660850D01*
X133210443Y-111613964D01*
X133407040Y-111560920D01*
X133598488Y-111506002D01*
X133770312Y-111453490D01*
X133908034Y-111407667D01*
X133997176Y-111372813D01*
X134023262Y-111353211D01*
X134023232Y-111353181D01*
X133979968Y-111353015D01*
X133877138Y-111365158D01*
X133733810Y-111387189D01*
X133672762Y-111397639D01*
X133498257Y-111424189D01*
X133273293Y-111452501D01*
X133027244Y-111479142D01*
X132795502Y-111500196D01*
X132549133Y-111520302D01*
X132373228Y-111536834D01*
X132258520Y-111552739D01*
X132195740Y-111570965D01*
X132175618Y-111594460D01*
X128280310Y-111594460D01*
X128003378Y-111334589D01*
X127771140Y-111013938D01*
X127586789Y-110637530D01*
X127453005Y-110209901D01*
X127372463Y-109735585D01*
X127369208Y-109703992D01*
X127341063Y-109531988D01*
X127291633Y-109328029D01*
X127231124Y-109133700D01*
X127225225Y-109117401D01*
X127068657Y-108635501D01*
X127048512Y-108557401D01*
X127827982Y-108557401D01*
X127845431Y-108843508D01*
X127863110Y-109017737D01*
X127899113Y-109160581D01*
X127964950Y-109310037D01*
X128015091Y-109403508D01*
X128355461Y-109954055D01*
X128725015Y-110432310D01*
X129126293Y-110841415D01*
X129294119Y-110984667D01*
X129534119Y-111179095D01*
X129794119Y-111154303D01*
X129929553Y-111139336D01*
X130029477Y-111124444D01*
X130070785Y-111113455D01*
X130079355Y-111102686D01*
X130071720Y-111088484D01*
X130035306Y-111061946D01*
X129957538Y-111014168D01*
X129825841Y-110936246D01*
X129794119Y-110917555D01*
X129356945Y-110622981D01*
X128964398Y-110278527D01*
X128610086Y-109877064D01*
X128287620Y-109411466D01*
X128026804Y-108946327D01*
X127827982Y-108557401D01*
X127048512Y-108557401D01*
X126926361Y-108083851D01*
X126800263Y-107471740D01*
X126692287Y-106808459D01*
X126608030Y-106137401D01*
X126589652Y-105927965D01*
X126574232Y-105673144D01*
X126561856Y-105385073D01*
X126552607Y-105075888D01*
X126546571Y-104757722D01*
X126543833Y-104442712D01*
X126544478Y-104142992D01*
X126548591Y-103870697D01*
X126556257Y-103637963D01*
X126567560Y-103456925D01*
X126582587Y-103339717D01*
X126588283Y-103317401D01*
X126610331Y-103256890D01*
X126622580Y-103253825D01*
X126628476Y-103316286D01*
X126630908Y-103417401D01*
X126643894Y-103735200D01*
X126671884Y-104112593D01*
X126712512Y-104531081D01*
X126763412Y-104972167D01*
X126822220Y-105417353D01*
X126886569Y-105848139D01*
X126954096Y-106246028D01*
X127022433Y-106592523D01*
X127055520Y-106738030D01*
X127116636Y-106981643D01*
X127181413Y-107221908D01*
X127246151Y-107446936D01*
X127307150Y-107644835D01*
X127360712Y-107803714D01*
X127403135Y-107911683D01*
X127430721Y-107956852D01*
X127434790Y-107956985D01*
X127471532Y-107892234D01*
X127489898Y-107765036D01*
X127489917Y-107590798D01*
X127471618Y-107384929D01*
X127435030Y-107162836D01*
X127433252Y-107154149D01*
X127375311Y-106856019D01*
X127328228Y-106570667D01*
X127290890Y-106284513D01*
X127262184Y-105983976D01*
X127240994Y-105655476D01*
X127226207Y-105285432D01*
X127216710Y-104860263D01*
X127212059Y-104457401D01*
X127205824Y-103678407D01*
X127436076Y-103678407D01*
X127439918Y-103833835D01*
X127447853Y-104027363D01*
X127459185Y-104245106D01*
X127473218Y-104473177D01*
X127489257Y-104697689D01*
X127506605Y-104904755D01*
X127517620Y-105017401D01*
X127539841Y-105205153D01*
X127569365Y-105420445D01*
X127603566Y-105647572D01*
X127639817Y-105870828D01*
X127675492Y-106074508D01*
X127707965Y-106242908D01*
X127734610Y-106360324D01*
X127750008Y-106407074D01*
X127771606Y-106390829D01*
X127811222Y-106310710D01*
X127863442Y-106179337D01*
X127922854Y-106009328D01*
X127930162Y-105987074D01*
X128020152Y-105718715D01*
X128100627Y-105493363D01*
X128168542Y-105318680D01*
X128220854Y-105202331D01*
X128254517Y-105151978D01*
X128261952Y-105151901D01*
X128260608Y-105195212D01*
X128244675Y-105301157D01*
X128216794Y-105454248D01*
X128179605Y-105638998D01*
X128175857Y-105656816D01*
X128124784Y-105909005D01*
X128070387Y-106194369D01*
X128020579Y-106470686D01*
X127994954Y-106622110D01*
X127917083Y-107099425D01*
X128038633Y-107448413D01*
X128140342Y-107716028D01*
X128266112Y-108009488D01*
X128405349Y-108306752D01*
X128547463Y-108585778D01*
X128681859Y-108824528D01*
X128756888Y-108942989D01*
X128947634Y-109195613D01*
X129179108Y-109455855D01*
X129427058Y-109698533D01*
X129667232Y-109898464D01*
X129700507Y-109922795D01*
X129821571Y-110002401D01*
X129970653Y-110090109D01*
X130131779Y-110177840D01*
X130288975Y-110257516D01*
X130426266Y-110321057D01*
X130527676Y-110360387D01*
X130577232Y-110367426D01*
X130578204Y-110366649D01*
X130570840Y-110325063D01*
X130536251Y-110230121D01*
X130481476Y-110100755D01*
X130469307Y-110073713D01*
X130351212Y-109801944D01*
X130218365Y-109476636D01*
X130079463Y-109120736D01*
X129943203Y-108757193D01*
X129818281Y-108408955D01*
X129713395Y-108098968D01*
X129674844Y-107977401D01*
X129608184Y-107754584D01*
X129536262Y-107502753D01*
X129462314Y-107234481D01*
X129389577Y-106962341D01*
X129321288Y-106698904D01*
X129260684Y-106456744D01*
X129211001Y-106248432D01*
X129175475Y-106086542D01*
X129157344Y-105983645D01*
X129155698Y-105960844D01*
X129170282Y-105976170D01*
X129210964Y-106057931D01*
X129274305Y-106198216D01*
X129356866Y-106389111D01*
X129455208Y-106622705D01*
X129565893Y-106891086D01*
X129649677Y-107097401D01*
X129825336Y-107529106D01*
X129979780Y-107899748D01*
X130119533Y-108223301D01*
X130251119Y-108513738D01*
X130381061Y-108785033D01*
X130515884Y-109051160D01*
X130662113Y-109326093D01*
X130826270Y-109623804D01*
X130844006Y-109655515D01*
X131003548Y-109938378D01*
X131130803Y-110158172D01*
X131231062Y-110322454D01*
X131309615Y-110438782D01*
X131371750Y-110514713D01*
X131422758Y-110557804D01*
X131467927Y-110575613D01*
X131489244Y-110577401D01*
X131561739Y-110556094D01*
X131681194Y-110498586D01*
X131828986Y-110414498D01*
X131940075Y-110344485D01*
X132103125Y-110232299D01*
X132305054Y-110085656D01*
X132523305Y-109921339D01*
X132735321Y-109756130D01*
X132794452Y-109708810D01*
X132832795Y-109677401D01*
X135154119Y-109677401D01*
X135174119Y-109697401D01*
X135194119Y-109677401D01*
X135174119Y-109657401D01*
X135154119Y-109677401D01*
X132832795Y-109677401D01*
X132874079Y-109643583D01*
X135234119Y-109643583D01*
X135264695Y-109636006D01*
X135356094Y-109577401D01*
X135507815Y-109468119D01*
X135719361Y-109308512D01*
X135826643Y-109226004D01*
X135961351Y-109119000D01*
X136066154Y-109030094D01*
X136128748Y-108970093D01*
X136140445Y-108950393D01*
X136105213Y-108967342D01*
X136021438Y-109023875D01*
X135902916Y-109109441D01*
X135763444Y-109213488D01*
X135616819Y-109325462D01*
X135476837Y-109434813D01*
X135357295Y-109530988D01*
X135271990Y-109603434D01*
X135234718Y-109641600D01*
X135234119Y-109643583D01*
X132874079Y-109643583D01*
X132966619Y-109567780D01*
X133155647Y-109409137D01*
X133352377Y-109240990D01*
X133547649Y-109071452D01*
X133732306Y-108908632D01*
X133897187Y-108760641D01*
X134033135Y-108635590D01*
X134130989Y-108541590D01*
X134181591Y-108486752D01*
X134186167Y-108476382D01*
X134146155Y-108458848D01*
X134045878Y-108419661D01*
X133900246Y-108364534D01*
X133724169Y-108299181D01*
X133715171Y-108295872D01*
X132783524Y-107912481D01*
X131884183Y-107460545D01*
X131022548Y-106944058D01*
X130204023Y-106367012D01*
X129434008Y-105733397D01*
X128717906Y-105047208D01*
X128061119Y-104312435D01*
X127695890Y-103847401D01*
X127594882Y-103714836D01*
X127511578Y-103610566D01*
X127457333Y-103548539D01*
X127443454Y-103537401D01*
X127437023Y-103574967D01*
X127436076Y-103678407D01*
X127205824Y-103678407D01*
X127201653Y-103157401D01*
X126934208Y-102717401D01*
X126446045Y-101837934D01*
X126029258Y-100923072D01*
X125683699Y-99972371D01*
X125409219Y-98985387D01*
X125205669Y-97961674D01*
X125109168Y-97257401D01*
X125090520Y-97034640D01*
X125076692Y-96750304D01*
X125067684Y-96422672D01*
X125063497Y-96070025D01*
X125064131Y-95710641D01*
X125069586Y-95362801D01*
X125079861Y-95044784D01*
X125094957Y-94774869D01*
X125109168Y-94617401D01*
X125266129Y-93566925D01*
X125495069Y-92551335D01*
X125796063Y-91570448D01*
X126169185Y-90624083D01*
X126614512Y-89712058D01*
X127132116Y-88834190D01*
X127722073Y-87990298D01*
X127950086Y-87697401D01*
X128153723Y-87454799D01*
X128401774Y-87178091D01*
X128677415Y-86884648D01*
X128963827Y-86591845D01*
X129244186Y-86317056D01*
X129501672Y-86077653D01*
X129614119Y-85978764D01*
X130418600Y-85340174D01*
X131264459Y-84769447D01*
X132148660Y-84267905D01*
X133068170Y-83836870D01*
X134019953Y-83477664D01*
X135000975Y-83191611D01*
X136008201Y-82980031D01*
X136734119Y-82876145D01*
X137031796Y-82849210D01*
X137386626Y-82829316D01*
X137777843Y-82816622D01*
X138184686Y-82811290D01*
X138586390Y-82813479D01*
X138962192Y-82823350D01*
X139291329Y-82841063D01*
X139454119Y-82855143D01*
X140490002Y-83000190D01*
X141493686Y-83218373D01*
X142466023Y-83510044D01*
X143407865Y-83875557D01*
X144320066Y-84315261D01*
X145203479Y-84829511D01*
X146058954Y-85418659D01*
X146514119Y-85771715D01*
X146688717Y-85919581D01*
X146896973Y-86106969D01*
X147126748Y-86321905D01*
X147365904Y-86552416D01*
X147602303Y-86786525D01*
X147823807Y-87012259D01*
X148018279Y-87217644D01*
X148173581Y-87390704D01*
X148254119Y-87488298D01*
X148338744Y-87593720D01*
X148403819Y-87668368D01*
X148434119Y-87695352D01*
X148456242Y-87661256D01*
X148509770Y-87563967D01*
X148590340Y-87411853D01*
X148693591Y-87213282D01*
X148815159Y-86976622D01*
X148950682Y-86710239D01*
X149043261Y-86526957D01*
X149330311Y-85962976D01*
X149606376Y-85432134D01*
X149869062Y-84938571D01*
X150115978Y-84486425D01*
X150344732Y-84079837D01*
X150552932Y-83722944D01*
X150738186Y-83419887D01*
X150898104Y-83174804D01*
X151030291Y-82991836D01*
X151132358Y-82875121D01*
X151172527Y-82842121D01*
X151241987Y-82800911D01*
X151266899Y-82801200D01*
G36*
X151266899Y-82801200D02*
G01*
X151245952Y-82849412D01*
X151177832Y-82951971D01*
X151138750Y-83007308D01*
X151065639Y-83115227D01*
X150994006Y-83233681D01*
X150919356Y-83372144D01*
X150837194Y-83540088D01*
X150743024Y-83746986D01*
X150632353Y-84002310D01*
X150500684Y-84315533D01*
X150383462Y-84598971D01*
X150283769Y-84843708D01*
X150160812Y-85149594D01*
X150019924Y-85503063D01*
X149866435Y-85890548D01*
X149705676Y-86298482D01*
X149542977Y-86713298D01*
X149383670Y-87121431D01*
X149233084Y-87509313D01*
X149096552Y-87863378D01*
X148979402Y-88170059D01*
X148956092Y-88231588D01*
X148912914Y-88345776D01*
X148688552Y-88038553D01*
X148589353Y-87910109D01*
X148505588Y-87815282D01*
X148448849Y-87766492D01*
X148432708Y-87764365D01*
X148410324Y-87805203D01*
X148356219Y-87912051D01*
X148273367Y-88078836D01*
X148164739Y-88299481D01*
X148033308Y-88567912D01*
X147882045Y-88878052D01*
X147713923Y-89223828D01*
X147531913Y-89599163D01*
X147338988Y-89997983D01*
X147261998Y-90157401D01*
X146818748Y-91075095D01*
X146407438Y-91925513D01*
X146025639Y-92713620D01*
X145670924Y-93444381D01*
X145340864Y-94122762D01*
X145033031Y-94753727D01*
X144744995Y-95342243D01*
X144474329Y-95893273D01*
X144218605Y-96411783D01*
X143975394Y-96902739D01*
X143742267Y-97371105D01*
X143516796Y-97821847D01*
X143388453Y-98077401D01*
X143214506Y-98425313D01*
X143065970Y-98724397D01*
X142937563Y-98981519D01*
X142824003Y-99203548D01*
X142720005Y-99397351D01*
X142620289Y-99569795D01*
X142519571Y-99727747D01*
X142412568Y-99878075D01*
X142293998Y-100027647D01*
X142158578Y-100183329D01*
X142001026Y-100351990D01*
X141816058Y-100540497D01*
X141598392Y-100755716D01*
X141342746Y-101004517D01*
X141043837Y-101293765D01*
X140696381Y-101630329D01*
X140534119Y-101788016D01*
X140241441Y-102074397D01*
X139955102Y-102357573D01*
X139682574Y-102629950D01*
X139431327Y-102883933D01*
X139208832Y-103111928D01*
X139022562Y-103306338D01*
X138879988Y-103459570D01*
X138796996Y-103553846D01*
X138571287Y-103819231D01*
X138297591Y-104133036D01*
X137983910Y-104486544D01*
X137638252Y-104871034D01*
X137268619Y-105277789D01*
X136883017Y-105698092D01*
X136489451Y-106123223D01*
X136095925Y-106544464D01*
X135710445Y-106953097D01*
X135341015Y-107340404D01*
X134995639Y-107697666D01*
X134939125Y-107755572D01*
X134747986Y-107951669D01*
X134577322Y-108127827D01*
X134434508Y-108276344D01*
X134326922Y-108389519D01*
X134261938Y-108459651D01*
X134245623Y-108479643D01*
X134294788Y-108497160D01*
X134406182Y-108529208D01*
X134564207Y-108571811D01*
X134753263Y-108620994D01*
X134957749Y-108672778D01*
X135162067Y-108723188D01*
X135350616Y-108768248D01*
X135507797Y-108803980D01*
X135568522Y-108816856D01*
X135825416Y-108865296D01*
X136012112Y-108890807D01*
X136134914Y-108893859D01*
X136200127Y-108874917D01*
X136209784Y-108864414D01*
X136248000Y-108826710D01*
X136334472Y-108751775D01*
X136454687Y-108651979D01*
X136542144Y-108581164D01*
X136854119Y-108330900D01*
X136538446Y-108628634D01*
X136222773Y-108926369D01*
X136358446Y-108950650D01*
X136598922Y-108985432D01*
X136887150Y-109013607D01*
X137212208Y-109035255D01*
X137563176Y-109050456D01*
X137929132Y-109059289D01*
X138299155Y-109061835D01*
X138662325Y-109058173D01*
X139007721Y-109048384D01*
X139324421Y-109032547D01*
X139601504Y-109010742D01*
X139828050Y-108983050D01*
X139993138Y-108949550D01*
X140064668Y-108923519D01*
X140110407Y-108876326D01*
X140191360Y-108766647D01*
X140303215Y-108601550D01*
X140441658Y-108388100D01*
X140602375Y-108133366D01*
X140781053Y-107844413D01*
X140973377Y-107528309D01*
X141175035Y-107192120D01*
X141381712Y-106842912D01*
X141589096Y-106487754D01*
X141792871Y-106133710D01*
X141988726Y-105787848D01*
X142094985Y-105597401D01*
X142263602Y-105298527D01*
X142444697Y-104986492D01*
X142627713Y-104678874D01*
X142802093Y-104393251D01*
X142957280Y-104147200D01*
X143055946Y-103997401D01*
X143203566Y-103771996D01*
X143375004Y-103498140D01*
X143556764Y-103198145D01*
X143735349Y-102894325D01*
X143897263Y-102608993D01*
X143913462Y-102579718D01*
X144112250Y-102228521D01*
X144307730Y-101903933D01*
X144513964Y-101584133D01*
X144745011Y-101247302D01*
X145009020Y-100879718D01*
X145574371Y-100089817D01*
X146108611Y-99309399D01*
X146624159Y-98519216D01*
X147133435Y-97700020D01*
X147648858Y-96832566D01*
X147888366Y-96417401D01*
X148032084Y-96170440D01*
X148162865Y-95957267D01*
X148292497Y-95761179D01*
X148432769Y-95565471D01*
X148595468Y-95353440D01*
X148792382Y-95108381D01*
X148932800Y-94937401D01*
X149126597Y-94702324D01*
X149319365Y-94467842D01*
X149500173Y-94247299D01*
X149658090Y-94054041D01*
X149782185Y-93901410D01*
X149833841Y-93837401D01*
X149958157Y-93684257D01*
X150115556Y-93492764D01*
X150287337Y-93285553D01*
X150454802Y-93085254D01*
X150482490Y-93052340D01*
X150618841Y-92887238D01*
X150734540Y-92741073D01*
X150820548Y-92625747D01*
X150867827Y-92553160D01*
X150874119Y-92536652D01*
X150863447Y-92476585D01*
X150835988Y-92367421D01*
X150798573Y-92232671D01*
X150758035Y-92095847D01*
X150721206Y-91980460D01*
X150694918Y-91910022D01*
X150689080Y-91899895D01*
X150654154Y-91916092D01*
X150579101Y-91975533D01*
X150486022Y-92059895D01*
X150393711Y-92143081D01*
X150350497Y-92170644D01*
X150358876Y-92141038D01*
X150361080Y-92137401D01*
X150417003Y-92040161D01*
X150485803Y-91912448D01*
X150512947Y-91859958D01*
X150567533Y-91757354D01*
X150601011Y-91717513D01*
X150627370Y-91731307D01*
X150650334Y-91770329D01*
X150671862Y-91803057D01*
X150699051Y-91814272D01*
X150742183Y-91797546D01*
X150811540Y-91746449D01*
X150917404Y-91654551D01*
X151070059Y-91515424D01*
X151095724Y-91491835D01*
X151548457Y-91079074D01*
X151951785Y-90719091D01*
X152311667Y-90406917D01*
X152634063Y-90137582D01*
X152924929Y-89906116D01*
X153190226Y-89707549D01*
X153435912Y-89536911D01*
X153454119Y-89524833D01*
X153779756Y-89323200D01*
X154058403Y-89179668D01*
X154288674Y-89094729D01*
X154469184Y-89068875D01*
X154598547Y-89102598D01*
X154614119Y-89113333D01*
X154656819Y-89150735D01*
X154648870Y-89169000D01*
X154578684Y-89175250D01*
X154511950Y-89176128D01*
X154333621Y-89202577D01*
X154156686Y-89287215D01*
X154148807Y-89292171D01*
X154008705Y-89391161D01*
X153827249Y-89534298D01*
X153619181Y-89708695D01*
X153399244Y-89901462D01*
X153182181Y-90099711D01*
X152982735Y-90290555D01*
X152834119Y-90441485D01*
X152710692Y-90573052D01*
X152554335Y-90741730D01*
X152373257Y-90938475D01*
X152175664Y-91154247D01*
X151969765Y-91380003D01*
X151763766Y-91606699D01*
X151565876Y-91825295D01*
X151384301Y-92026747D01*
X151227250Y-92202014D01*
X151102929Y-92342052D01*
X151019547Y-92437820D01*
X150992195Y-92470761D01*
X150904032Y-92582841D01*
X151012220Y-93070121D01*
X151101091Y-93493361D01*
X151170194Y-93880706D01*
X151222143Y-94254768D01*
X151259552Y-94638161D01*
X151285037Y-95053499D01*
X151301212Y-95523397D01*
X151302578Y-95581286D01*
X151307592Y-96231569D01*
X151290161Y-96825174D01*
X151248212Y-97382786D01*
X151179672Y-97925090D01*
X151082468Y-98472772D01*
X150955846Y-99041074D01*
X150678960Y-100016105D01*
X150328920Y-100962224D01*
X149908544Y-101875585D01*
X149420650Y-102752347D01*
X148868053Y-103588666D01*
X148253572Y-104380699D01*
X147580023Y-105124603D01*
X146850223Y-105816534D01*
X146066990Y-106452650D01*
X145233141Y-107029108D01*
X144989912Y-107179946D01*
X144159797Y-107640774D01*
X143291442Y-108043887D01*
X142398151Y-108384274D01*
X141493230Y-108656922D01*
X140589984Y-108856818D01*
X140494119Y-108873667D01*
X140283848Y-108916468D01*
X140148175Y-108960611D01*
X140082736Y-109006363D01*
X140046450Y-109058106D01*
X139971698Y-109165884D01*
X139865319Y-109319795D01*
X139734151Y-109509938D01*
X139585031Y-109726411D01*
X139467373Y-109897401D01*
X139028406Y-110520601D01*
X138615462Y-111074863D01*
X138224038Y-111565195D01*
X137849630Y-111996607D01*
X137487733Y-112374106D01*
X137133843Y-112702701D01*
X136783457Y-112987401D01*
X136519023Y-113175962D01*
X136285965Y-113318260D01*
X136017667Y-113459291D01*
X135739579Y-113587275D01*
X135477151Y-113690432D01*
X135272076Y-113753123D01*
X134944046Y-113811363D01*
X134589087Y-113837262D01*
X134242066Y-113829624D01*
X133986391Y-113797214D01*
X133512374Y-113666740D01*
X133058075Y-113458882D01*
X132624103Y-113173940D01*
X132473881Y-113053320D01*
X132357930Y-112963025D01*
X132263545Y-112916155D01*
X132156237Y-112899059D01*
X132079968Y-112897401D01*
X131543921Y-112865984D01*
X131000003Y-112775256D01*
X130870648Y-112740148D01*
X133826750Y-112740148D01*
X133882127Y-112774881D01*
X133934119Y-112791117D01*
X134009986Y-112799846D01*
X134141210Y-112804124D01*
X134303240Y-112803315D01*
X134354119Y-112801988D01*
X134587451Y-112785141D01*
X134779986Y-112746383D01*
X134945270Y-112688573D01*
X135215653Y-112565119D01*
X135457627Y-112423743D01*
X135692764Y-112249627D01*
X135942636Y-112027952D01*
X136031222Y-111942604D01*
X136161949Y-111812375D01*
X136259114Y-111711036D01*
X136315521Y-111646495D01*
X136323969Y-111626660D01*
X136314119Y-111631836D01*
X135900682Y-111888613D01*
X135543451Y-112093380D01*
X135239379Y-112247881D01*
X135224826Y-112254637D01*
X135010166Y-112346644D01*
X134764318Y-112440668D01*
X134509521Y-112529231D01*
X134268011Y-112604855D01*
X134062030Y-112660061D01*
X133953620Y-112682120D01*
X133850728Y-112708407D01*
X133826750Y-112740148D01*
X130870648Y-112740148D01*
X130466642Y-112630498D01*
X129962267Y-112436995D01*
X129505306Y-112200028D01*
X129386217Y-112125200D01*
X129248476Y-112045056D01*
X129113085Y-111982765D01*
X129034119Y-111957837D01*
X128929966Y-111926895D01*
X128783581Y-111871003D01*
X128624076Y-111801405D01*
X128600811Y-111790475D01*
X128280828Y-111594947D01*
X128280310Y-111594460D01*
X132175618Y-111594460D01*
X132188886Y-111626172D01*
X132226276Y-111669051D01*
X132235099Y-111678444D01*
X132285141Y-111727791D01*
X132334873Y-111758299D01*
X132399763Y-111770436D01*
X132495279Y-111764668D01*
X132636891Y-111741462D01*
X132840066Y-111701286D01*
X132859715Y-111697297D01*
X133023176Y-111660850D01*
X133210443Y-111613964D01*
X133407040Y-111560920D01*
X133598488Y-111506002D01*
X133770312Y-111453490D01*
X133908034Y-111407667D01*
X133997176Y-111372813D01*
X134023262Y-111353211D01*
X134023232Y-111353181D01*
X133979968Y-111353015D01*
X133877138Y-111365158D01*
X133733810Y-111387189D01*
X133672762Y-111397639D01*
X133498257Y-111424189D01*
X133273293Y-111452501D01*
X133027244Y-111479142D01*
X132795502Y-111500196D01*
X132549133Y-111520302D01*
X132373228Y-111536834D01*
X132258520Y-111552739D01*
X132195740Y-111570965D01*
X132175618Y-111594460D01*
X128280310Y-111594460D01*
X128003378Y-111334589D01*
X127771140Y-111013938D01*
X127586789Y-110637530D01*
X127453005Y-110209901D01*
X127372463Y-109735585D01*
X127369208Y-109703992D01*
X127341063Y-109531988D01*
X127291633Y-109328029D01*
X127231124Y-109133700D01*
X127225225Y-109117401D01*
X127068657Y-108635501D01*
X127048512Y-108557401D01*
X127827982Y-108557401D01*
X127845431Y-108843508D01*
X127863110Y-109017737D01*
X127899113Y-109160581D01*
X127964950Y-109310037D01*
X128015091Y-109403508D01*
X128355461Y-109954055D01*
X128725015Y-110432310D01*
X129126293Y-110841415D01*
X129294119Y-110984667D01*
X129534119Y-111179095D01*
X129794119Y-111154303D01*
X129929553Y-111139336D01*
X130029477Y-111124444D01*
X130070785Y-111113455D01*
X130079355Y-111102686D01*
X130071720Y-111088484D01*
X130035306Y-111061946D01*
X129957538Y-111014168D01*
X129825841Y-110936246D01*
X129794119Y-110917555D01*
X129356945Y-110622981D01*
X128964398Y-110278527D01*
X128610086Y-109877064D01*
X128287620Y-109411466D01*
X128026804Y-108946327D01*
X127827982Y-108557401D01*
X127048512Y-108557401D01*
X126926361Y-108083851D01*
X126800263Y-107471740D01*
X126692287Y-106808459D01*
X126608030Y-106137401D01*
X126589652Y-105927965D01*
X126574232Y-105673144D01*
X126561856Y-105385073D01*
X126552607Y-105075888D01*
X126546571Y-104757722D01*
X126543833Y-104442712D01*
X126544478Y-104142992D01*
X126548591Y-103870697D01*
X126556257Y-103637963D01*
X126567560Y-103456925D01*
X126582587Y-103339717D01*
X126588283Y-103317401D01*
X126610331Y-103256890D01*
X126622580Y-103253825D01*
X126628476Y-103316286D01*
X126630908Y-103417401D01*
X126643894Y-103735200D01*
X126671884Y-104112593D01*
X126712512Y-104531081D01*
X126763412Y-104972167D01*
X126822220Y-105417353D01*
X126886569Y-105848139D01*
X126954096Y-106246028D01*
X127022433Y-106592523D01*
X127055520Y-106738030D01*
X127116636Y-106981643D01*
X127181413Y-107221908D01*
X127246151Y-107446936D01*
X127307150Y-107644835D01*
X127360712Y-107803714D01*
X127403135Y-107911683D01*
X127430721Y-107956852D01*
X127434790Y-107956985D01*
X127471532Y-107892234D01*
X127489898Y-107765036D01*
X127489917Y-107590798D01*
X127471618Y-107384929D01*
X127435030Y-107162836D01*
X127433252Y-107154149D01*
X127375311Y-106856019D01*
X127328228Y-106570667D01*
X127290890Y-106284513D01*
X127262184Y-105983976D01*
X127240994Y-105655476D01*
X127226207Y-105285432D01*
X127216710Y-104860263D01*
X127212059Y-104457401D01*
X127205824Y-103678407D01*
X127436076Y-103678407D01*
X127439918Y-103833835D01*
X127447853Y-104027363D01*
X127459185Y-104245106D01*
X127473218Y-104473177D01*
X127489257Y-104697689D01*
X127506605Y-104904755D01*
X127517620Y-105017401D01*
X127539841Y-105205153D01*
X127569365Y-105420445D01*
X127603566Y-105647572D01*
X127639817Y-105870828D01*
X127675492Y-106074508D01*
X127707965Y-106242908D01*
X127734610Y-106360324D01*
X127750008Y-106407074D01*
X127771606Y-106390829D01*
X127811222Y-106310710D01*
X127863442Y-106179337D01*
X127922854Y-106009328D01*
X127930162Y-105987074D01*
X128020152Y-105718715D01*
X128100627Y-105493363D01*
X128168542Y-105318680D01*
X128220854Y-105202331D01*
X128254517Y-105151978D01*
X128261952Y-105151901D01*
X128260608Y-105195212D01*
X128244675Y-105301157D01*
X128216794Y-105454248D01*
X128179605Y-105638998D01*
X128175857Y-105656816D01*
X128124784Y-105909005D01*
X128070387Y-106194369D01*
X128020579Y-106470686D01*
X127994954Y-106622110D01*
X127917083Y-107099425D01*
X128038633Y-107448413D01*
X128140342Y-107716028D01*
X128266112Y-108009488D01*
X128405349Y-108306752D01*
X128547463Y-108585778D01*
X128681859Y-108824528D01*
X128756888Y-108942989D01*
X128947634Y-109195613D01*
X129179108Y-109455855D01*
X129427058Y-109698533D01*
X129667232Y-109898464D01*
X129700507Y-109922795D01*
X129821571Y-110002401D01*
X129970653Y-110090109D01*
X130131779Y-110177840D01*
X130288975Y-110257516D01*
X130426266Y-110321057D01*
X130527676Y-110360387D01*
X130577232Y-110367426D01*
X130578204Y-110366649D01*
X130570840Y-110325063D01*
X130536251Y-110230121D01*
X130481476Y-110100755D01*
X130469307Y-110073713D01*
X130351212Y-109801944D01*
X130218365Y-109476636D01*
X130079463Y-109120736D01*
X129943203Y-108757193D01*
X129818281Y-108408955D01*
X129713395Y-108098968D01*
X129674844Y-107977401D01*
X129608184Y-107754584D01*
X129536262Y-107502753D01*
X129462314Y-107234481D01*
X129389577Y-106962341D01*
X129321288Y-106698904D01*
X129260684Y-106456744D01*
X129211001Y-106248432D01*
X129175475Y-106086542D01*
X129157344Y-105983645D01*
X129155698Y-105960844D01*
X129170282Y-105976170D01*
X129210964Y-106057931D01*
X129274305Y-106198216D01*
X129356866Y-106389111D01*
X129455208Y-106622705D01*
X129565893Y-106891086D01*
X129649677Y-107097401D01*
X129825336Y-107529106D01*
X129979780Y-107899748D01*
X130119533Y-108223301D01*
X130251119Y-108513738D01*
X130381061Y-108785033D01*
X130515884Y-109051160D01*
X130662113Y-109326093D01*
X130826270Y-109623804D01*
X130844006Y-109655515D01*
X131003548Y-109938378D01*
X131130803Y-110158172D01*
X131231062Y-110322454D01*
X131309615Y-110438782D01*
X131371750Y-110514713D01*
X131422758Y-110557804D01*
X131467927Y-110575613D01*
X131489244Y-110577401D01*
X131561739Y-110556094D01*
X131681194Y-110498586D01*
X131828986Y-110414498D01*
X131940075Y-110344485D01*
X132103125Y-110232299D01*
X132305054Y-110085656D01*
X132523305Y-109921339D01*
X132735321Y-109756130D01*
X132794452Y-109708810D01*
X132832795Y-109677401D01*
X135154119Y-109677401D01*
X135174119Y-109697401D01*
X135194119Y-109677401D01*
X135174119Y-109657401D01*
X135154119Y-109677401D01*
X132832795Y-109677401D01*
X132874079Y-109643583D01*
X135234119Y-109643583D01*
X135264695Y-109636006D01*
X135356094Y-109577401D01*
X135507815Y-109468119D01*
X135719361Y-109308512D01*
X135826643Y-109226004D01*
X135961351Y-109119000D01*
X136066154Y-109030094D01*
X136128748Y-108970093D01*
X136140445Y-108950393D01*
X136105213Y-108967342D01*
X136021438Y-109023875D01*
X135902916Y-109109441D01*
X135763444Y-109213488D01*
X135616819Y-109325462D01*
X135476837Y-109434813D01*
X135357295Y-109530988D01*
X135271990Y-109603434D01*
X135234718Y-109641600D01*
X135234119Y-109643583D01*
X132874079Y-109643583D01*
X132966619Y-109567780D01*
X133155647Y-109409137D01*
X133352377Y-109240990D01*
X133547649Y-109071452D01*
X133732306Y-108908632D01*
X133897187Y-108760641D01*
X134033135Y-108635590D01*
X134130989Y-108541590D01*
X134181591Y-108486752D01*
X134186167Y-108476382D01*
X134146155Y-108458848D01*
X134045878Y-108419661D01*
X133900246Y-108364534D01*
X133724169Y-108299181D01*
X133715171Y-108295872D01*
X132783524Y-107912481D01*
X131884183Y-107460545D01*
X131022548Y-106944058D01*
X130204023Y-106367012D01*
X129434008Y-105733397D01*
X128717906Y-105047208D01*
X128061119Y-104312435D01*
X127695890Y-103847401D01*
X127594882Y-103714836D01*
X127511578Y-103610566D01*
X127457333Y-103548539D01*
X127443454Y-103537401D01*
X127437023Y-103574967D01*
X127436076Y-103678407D01*
X127205824Y-103678407D01*
X127201653Y-103157401D01*
X126934208Y-102717401D01*
X126446045Y-101837934D01*
X126029258Y-100923072D01*
X125683699Y-99972371D01*
X125409219Y-98985387D01*
X125205669Y-97961674D01*
X125109168Y-97257401D01*
X125090520Y-97034640D01*
X125076692Y-96750304D01*
X125067684Y-96422672D01*
X125063497Y-96070025D01*
X125064131Y-95710641D01*
X125069586Y-95362801D01*
X125079861Y-95044784D01*
X125094957Y-94774869D01*
X125109168Y-94617401D01*
X125266129Y-93566925D01*
X125495069Y-92551335D01*
X125796063Y-91570448D01*
X126169185Y-90624083D01*
X126614512Y-89712058D01*
X127132116Y-88834190D01*
X127722073Y-87990298D01*
X127950086Y-87697401D01*
X128153723Y-87454799D01*
X128401774Y-87178091D01*
X128677415Y-86884648D01*
X128963827Y-86591845D01*
X129244186Y-86317056D01*
X129501672Y-86077653D01*
X129614119Y-85978764D01*
X130418600Y-85340174D01*
X131264459Y-84769447D01*
X132148660Y-84267905D01*
X133068170Y-83836870D01*
X134019953Y-83477664D01*
X135000975Y-83191611D01*
X136008201Y-82980031D01*
X136734119Y-82876145D01*
X137031796Y-82849210D01*
X137386626Y-82829316D01*
X137777843Y-82816622D01*
X138184686Y-82811290D01*
X138586390Y-82813479D01*
X138962192Y-82823350D01*
X139291329Y-82841063D01*
X139454119Y-82855143D01*
X140490002Y-83000190D01*
X141493686Y-83218373D01*
X142466023Y-83510044D01*
X143407865Y-83875557D01*
X144320066Y-84315261D01*
X145203479Y-84829511D01*
X146058954Y-85418659D01*
X146514119Y-85771715D01*
X146688717Y-85919581D01*
X146896973Y-86106969D01*
X147126748Y-86321905D01*
X147365904Y-86552416D01*
X147602303Y-86786525D01*
X147823807Y-87012259D01*
X148018279Y-87217644D01*
X148173581Y-87390704D01*
X148254119Y-87488298D01*
X148338744Y-87593720D01*
X148403819Y-87668368D01*
X148434119Y-87695352D01*
X148456242Y-87661256D01*
X148509770Y-87563967D01*
X148590340Y-87411853D01*
X148693591Y-87213282D01*
X148815159Y-86976622D01*
X148950682Y-86710239D01*
X149043261Y-86526957D01*
X149330311Y-85962976D01*
X149606376Y-85432134D01*
X149869062Y-84938571D01*
X150115978Y-84486425D01*
X150344732Y-84079837D01*
X150552932Y-83722944D01*
X150738186Y-83419887D01*
X150898104Y-83174804D01*
X151030291Y-82991836D01*
X151132358Y-82875121D01*
X151172527Y-82842121D01*
X151241987Y-82800911D01*
X151266899Y-82801200D01*
G37*
D13*
%TO.C,C2*%
X113425886Y-74865401D02*
X113133352Y-74865401D01*
X113425886Y-75885401D02*
X113133352Y-75885401D01*
%TD*%
M02*
