%TF.GenerationSoftware,KiCad,Pcbnew,8.0.5*%
%TF.CreationDate,2024-10-31T23:34:31-05:00*%
%TF.ProjectId,DiffGPSBreakout,44696666-4750-4534-9272-65616b6f7574,rev?*%
%TF.SameCoordinates,Original*%
%TF.FileFunction,Soldermask,Top*%
%TF.FilePolarity,Negative*%
%FSLAX46Y46*%
G04 Gerber Fmt 4.6, Leading zero omitted, Abs format (unit mm)*
G04 Created by KiCad (PCBNEW 8.0.5) date 2024-10-31 23:34:31*
%MOMM*%
%LPD*%
G01*
G04 APERTURE LIST*
G04 Aperture macros list*
%AMRoundRect*
0 Rectangle with rounded corners*
0 $1 Rounding radius*
0 $2 $3 $4 $5 $6 $7 $8 $9 X,Y pos of 4 corners*
0 Add a 4 corners polygon primitive as box body*
4,1,4,$2,$3,$4,$5,$6,$7,$8,$9,$2,$3,0*
0 Add four circle primitives for the rounded corners*
1,1,$1+$1,$2,$3*
1,1,$1+$1,$4,$5*
1,1,$1+$1,$6,$7*
1,1,$1+$1,$8,$9*
0 Add four rect primitives between the rounded corners*
20,1,$1+$1,$2,$3,$4,$5,0*
20,1,$1+$1,$4,$5,$6,$7,0*
20,1,$1+$1,$6,$7,$8,$9,0*
20,1,$1+$1,$8,$9,$2,$3,0*%
G04 Aperture macros list end*
%ADD10O,5.100000X3.000000*%
%ADD11RoundRect,0.237500X-0.287500X-0.237500X0.287500X-0.237500X0.287500X0.237500X-0.287500X0.237500X0*%
%ADD12C,2.500000*%
%ADD13C,2.946400*%
%ADD14RoundRect,0.250000X-0.412500X-0.650000X0.412500X-0.650000X0.412500X0.650000X-0.412500X0.650000X0*%
%ADD15RoundRect,0.237500X0.250000X0.237500X-0.250000X0.237500X-0.250000X-0.237500X0.250000X-0.237500X0*%
%ADD16RoundRect,0.237500X-0.250000X-0.237500X0.250000X-0.237500X0.250000X0.237500X-0.250000X0.237500X0*%
%ADD17C,3.000000*%
%ADD18C,1.700000*%
%ADD19RoundRect,0.237500X0.300000X0.237500X-0.300000X0.237500X-0.300000X-0.237500X0.300000X-0.237500X0*%
%ADD20R,1.600000X1.600000*%
%ADD21O,1.600000X1.600000*%
G04 APERTURE END LIST*
D10*
%TO.C,Conn1*%
X100811119Y-115068201D03*
X108685119Y-115068201D03*
%TD*%
D11*
%TO.C,D3*%
X103991369Y-65826901D03*
X105741369Y-65826901D03*
%TD*%
D12*
%TO.C,U2*%
X111025000Y-101801600D03*
X111025000Y-94181600D03*
X111025000Y-89101600D03*
X90705000Y-81481600D03*
X90705000Y-91641600D03*
X90705000Y-101801600D03*
%TD*%
D13*
%TO.C,H1*%
X87324119Y-129227401D03*
%TD*%
D11*
%TO.C,D1*%
X103972619Y-71922901D03*
X105722619Y-71922901D03*
%TD*%
D13*
%TO.C,H3*%
X189091299Y-129223401D03*
%TD*%
%TO.C,H2*%
X87311699Y-65594981D03*
%TD*%
D14*
%TO.C,C1*%
X105371500Y-107391200D03*
X108496500Y-107391200D03*
%TD*%
D15*
%TO.C,R3*%
X109588869Y-65826901D03*
X107763869Y-65826901D03*
%TD*%
D11*
%TO.C,D2*%
X103972619Y-68874901D03*
X105722619Y-68874901D03*
%TD*%
D16*
%TO.C,R1*%
X107745119Y-71922901D03*
X109570119Y-71922901D03*
%TD*%
D17*
%TO.C,U1*%
X114965119Y-64330401D03*
X114965119Y-113330401D03*
X172965119Y-64330401D03*
X172965119Y-113330401D03*
D18*
X119835119Y-65600401D03*
X119835119Y-63060401D03*
X122375119Y-65600401D03*
X122375119Y-63060401D03*
X124915119Y-65600401D03*
X124915119Y-63060401D03*
X127455119Y-65600401D03*
X127455119Y-63060401D03*
X129995119Y-65600401D03*
X129995119Y-63060401D03*
X132535119Y-65600401D03*
X132535119Y-63060401D03*
X135075119Y-65600401D03*
X135075119Y-63060401D03*
X137615119Y-65600401D03*
X137615119Y-63060401D03*
X140155119Y-65600401D03*
X140155119Y-63060401D03*
X142695119Y-65600401D03*
X142695119Y-63060401D03*
X145235119Y-65600401D03*
X145235119Y-63060401D03*
X147775119Y-65600401D03*
X147775119Y-63060401D03*
X150315119Y-65600401D03*
X150315119Y-63060401D03*
X152855119Y-65600401D03*
X152855119Y-63060401D03*
X155395119Y-65600401D03*
X155395119Y-63060401D03*
X157935119Y-65600401D03*
X157935119Y-63060401D03*
X160475119Y-65600401D03*
X160475119Y-63060401D03*
X163015119Y-65600401D03*
X163015119Y-63060401D03*
X165555119Y-65600401D03*
X165555119Y-63060401D03*
X168095119Y-65600401D03*
X168095119Y-63060401D03*
%TD*%
D15*
%TO.C,R2*%
X109570119Y-68874901D03*
X107745119Y-68874901D03*
%TD*%
D19*
%TO.C,C2*%
X114142119Y-75375401D03*
X112417119Y-75375401D03*
%TD*%
D20*
%TO.C,A1*%
X156644119Y-71787401D03*
D21*
X154104119Y-71787401D03*
X151564119Y-71787401D03*
X149024119Y-71787401D03*
X146484119Y-71787401D03*
X143944119Y-71787401D03*
X141404119Y-71787401D03*
X138864119Y-71787401D03*
X133784119Y-71787401D03*
X131244119Y-71787401D03*
X128704119Y-71787401D03*
X126164119Y-71787401D03*
X123624119Y-71787401D03*
X121084119Y-71787401D03*
X121084119Y-120047401D03*
X123624119Y-120047401D03*
X126164119Y-120047401D03*
X128704119Y-120047401D03*
X131244119Y-120047401D03*
X133784119Y-120047401D03*
X136324119Y-120047401D03*
X138864119Y-120047401D03*
X142924119Y-120047401D03*
X145464119Y-120047401D03*
X148004119Y-120047401D03*
X150544119Y-120047401D03*
X153084119Y-120047401D03*
X155624119Y-120047401D03*
X158164119Y-120047401D03*
X160704119Y-120047401D03*
X163244119Y-120047401D03*
X165784119Y-120047401D03*
%TD*%
M02*
